<?xml version="1.0" encoding="UTF-8"?>
<svg xmlns="http://www.w3.org/2000/svg" xmlns:xlink="http://www.w3.org/1999/xlink" width="503.09pt" height="554.45pt" viewBox="0 0 503.09 554.45" version="1.1">
<defs>
<clipPath id="clip1">
  <path d="M 316 502 L 373 502 L 373 554.449219 L 316 554.449219 Z M 316 502 "/>
</clipPath>
<clipPath id="clip2">
  <path d="M 274 355 L 421 355 L 421 554.449219 L 274 554.449219 Z M 274 355 "/>
</clipPath>
<clipPath id="clip3">
  <path d="M 428 432 L 503.089844 432 L 503.089844 505 L 428 505 Z M 428 432 "/>
</clipPath>
</defs>
<g id="surface1">
<path style=" stroke:none;fill-rule:nonzero;fill:rgb(54.881287%,60.351563%,72.459412%);fill-opacity:1;" d="M 114.574219 7.078125 C 110.875 4.613281 104.296875 2.558594 94.84375 2.558594 C 85.800781 5.847656 79.632813 16.121094 76.34375 33.390625 L 82.101563 50.652344 C 79.632813 52.296875 75.523438 54.351563 69.765625 56.820313 C 66.066406 56.40625 62.78125 58.464844 60.3125 62.984375 L 53.734375 72.441406 L 43.867188 77.785156 C 35.648438 82.308594 31.125 92.585938 30.304688 109.027344 C 35.234375 115.605469 39.757813 119.71875 43.457031 121.773438 L 54.96875 120.949219 C 50.855469 118.070313 54.96875 114.78125 66.480469 111.902344 C 77.578125 109.027344 87.03125 107.792969 95.253906 108.203125 L 127.320313 109.847656 L 172.949219 118.480469 C 181.582031 118.480469 189.390625 116.015625 196.792969 110.261719 C 203.367188 104.507813 207.480469 98.339844 209.945313 91.761719 L 212.003906 79.839844 C 218.992188 79.839844 225.15625 76.140625 230.910156 68.332031 L 252.699219 35.855469 C 263.800781 19.410156 273.253906 16.121094 280.652344 25.578125 C 280.242188 19.410156 278.597656 15.300781 275.71875 12.835938 L 265.855469 12.425781 C 263.800781 12.835938 258.453125 14.890625 250.644531 18.589844 C 241.601563 23.113281 235.023438 25.988281 230.910156 27.222656 C 222.691406 29.277344 218.167969 26.8125 217.757813 19 C 205.835938 11.1875 198.023438 7.078125 195.148438 6.667969 C 193.503906 5.847656 189.804688 7.488281 184.050781 10.78125 C 177.058594 14.066406 171.714844 16.121094 168.015625 16.945313 C 160.617188 18.179688 154.449219 17.355469 148.695313 14.480469 C 143.761719 10.78125 137.1875 8.3125 129.785156 5.847656 L 122.386719 4.613281 "/>
<path style=" stroke:none;fill-rule:nonzero;fill:rgb(54.881287%,60.351563%,72.459412%);fill-opacity:1;" d="M 261.332031 201.933594 C 253.109375 209.742188 248.585938 217.140625 247.765625 224.132813 L 242.832031 232.765625 L 232.96875 236.464844 L 224.746094 243.449219 C 225.15625 243.863281 228.03125 245.097656 233.789063 247.5625 C 237.902344 249.207031 240.777344 251.671875 242.011719 254.550781 L 242.011719 257.839844 C 241.601563 259.484375 239.957031 262.359375 236.667969 266.0625 C 253.109375 273.871094 257.632813 281.683594 250.234375 289.492188 C 255.164063 287.847656 258.453125 286.203125 260.511719 284.558594 C 262.976563 282.914063 266.265625 281.269531 271.195313 280.039063 L 286.820313 279.628906 C 291.75 279.628906 297.507813 277.570313 303.261719 273.050781 C 308.605469 271.40625 313.539063 268.527344 317.648438 265.238281 L 330.394531 252.90625 C 334.503906 254.550781 339.023438 254.550781 344.371094 252.90625 C 347.246094 252.085938 349.714844 249.207031 351.359375 245.097656 C 353.003906 242.628906 355.46875 242.21875 359.578125 244.6875 L 357.113281 234.820313 C 355.46875 228.652344 353.003906 222.898438 350.125 217.964844 C 340.671875 202.34375 324.636719 192.890625 302.027344 189.601563 C 285.996094 187.953125 272.429688 192.066406 261.332031 201.933594 "/>
<path style=" stroke:none;fill-rule:nonzero;fill:rgb(54.881287%,60.351563%,72.459412%);fill-opacity:1;" d="M 83.742188 239.753906 C 79.632813 233.171875 71.824219 227.828125 60.3125 224.542969 C 50.445313 221.253906 43.457031 220.433594 39.347656 222.488281 C 33.59375 225.777344 27.425781 230.296875 20.847656 236.875 C 35.234375 237.285156 47.15625 244.273438 57.023438 258.25 C 53.324219 261.539063 49.625 263.597656 46.335938 264.414063 L 32.769531 268.527344 L 38.113281 275.105469 L 54.144531 273.871094 C 60.3125 274.28125 65.246094 272.640625 68.535156 268.117188 C 69.765625 268.9375 70.589844 267.707031 71.824219 265.238281 L 74.289063 256.195313 C 76.757813 246.328125 80.042969 240.574219 83.742188 239.753906 "/>
<path style=" stroke:none;fill-rule:nonzero;fill:rgb(54.881287%,60.351563%,72.459412%);fill-opacity:1;" d="M 358.757813 386.921875 C 354.648438 384.042969 350.535156 381.574219 346.015625 379.519531 L 335.738281 373.765625 C 332.859375 370.886719 330.804688 367.597656 329.570313 363.488281 L 326.691406 356.089844 C 319.707031 356.496094 309.429688 361.433594 296.273438 371.296875 L 318.882813 370.476563 C 321.351563 372.121094 321.351563 375.410156 318.472656 380.753906 L 308.605469 397.605469 C 304.496094 405.421875 302.441406 411.996094 302.441406 417.753906 L 300.382813 432.140625 C 299.972656 441.183594 300.382813 451.871094 302.027344 464.203125 C 303.675781 469.957031 303.261719 474.070313 301.207031 477.359375 C 299.5625 480.234375 297.097656 481.46875 293.808594 481.058594 C 292.574219 482.703125 290.929688 483.523438 288.464844 483.523438 C 294.628906 496.265625 298.738281 504.078125 301.207031 507.777344 L 306.140625 510.65625 L 312.71875 516.820313 C 315.183594 514.355469 317.238281 513.535156 319.707031 513.945313 L 327.515625 516 L 338.617188 506.542969 C 342.316406 503.253906 346.839844 502.023438 352.59375 502.023438 C 357.9375 502.433594 363.691406 504.898438 369.445313 508.597656 L 380.132813 517.230469 C 384.246094 513.535156 384.246094 508.191406 379.3125 500.789063 C 374.789063 494.210938 369.445313 489.691406 363.28125 487.636719 C 360.402344 487.222656 355.058594 488.867188 347.246094 492.980469 C 338.617188 497.5 331.628906 499.96875 326.285156 499.554688 C 322.582031 499.144531 320.527344 498.734375 318.882813 497.5 L 302.851563 488.457031 C 312.71875 493.390625 322.171875 490.511719 330.394531 479.824219 C 332.859375 476.949219 336.96875 471.191406 342.726563 462.558594 L 357.523438 441.183594 C 362.871094 434.195313 364.101563 425.5625 362.046875 414.871094 L 359.171875 401.71875 C 358.347656 395.960938 357.9375 391.03125 358.757813 386.921875 "/>
<path style=" stroke:none;fill-rule:nonzero;fill:rgb(54.881287%,60.351563%,72.459412%);fill-opacity:1;" d="M 106.355469 376.230469 L 102.652344 380.34375 L 99.367188 391.851563 L 100.597656 408.296875 C 101.421875 417.339844 102.242188 423.09375 101.421875 424.328125 C 100.597656 426.792969 96.078125 430.492188 87.855469 436.25 C 80.042969 441.59375 76.757813 447.347656 77.578125 453.925781 C 77.988281 456.394531 80.457031 462.148438 84.976563 470.78125 C 85.390625 475.710938 85.390625 484.757813 84.976563 498.734375 L 116.632813 499.96875 C 126.90625 502.433594 134.308594 505.722656 138.007813 509.835938 L 148.285156 508.191406 C 146.226563 504.078125 144.996094 499.96875 144.996094 495.859375 L 146.226563 487.636719 C 146.226563 485.167969 145.40625 483.523438 143.761719 482.703125 L 132.253906 481.46875 C 142.941406 475.710938 147.464844 466.257813 145.40625 453.515625 C 144.585938 446.117188 144.996094 440.769531 146.226563 437.894531 L 152.804688 432.140625 C 140.886719 421.863281 131.019531 411.996094 124.03125 403.363281 C 118.6875 396.785156 112.933594 387.742188 106.355469 376.230469 "/>
<path style=" stroke:none;fill-rule:nonzero;fill:rgb(38.426208%,35.693359%,56.443787%);fill-opacity:1;" d="M 442.207031 451.871094 C 438.097656 463.382813 430.699219 471.191406 420.421875 475.714844 L 419.1875 494.625 C 421.652344 495.859375 424.945313 498.324219 429.054688 501.613281 L 473.863281 503.667969 C 484.960938 502.433594 494.414063 498.734375 501.402344 492.566406 C 479.203125 488.867188 463.175781 482.703125 454.128906 474.480469 C 448.785156 469.136719 444.675781 461.738281 442.207031 451.871094 "/>
<path style=" stroke:none;fill-rule:nonzero;fill:rgb(38.426208%,35.693359%,56.443787%);fill-opacity:1;" d="M 54.148438 120.949219 L 77.578125 113.140625 L 110.875 110.671875 C 125.265625 111.496094 139.648438 114.78125 154.859375 120.535156 L 186.925781 134.105469 C 196.382813 133.28125 203.367188 129.992188 208.300781 125.058594 L 215.699219 114.78125 C 230.914063 118.070313 236.664063 127.9375 233.378906 144.382813 C 231.734375 150.546875 226.800781 162.878906 217.757813 180.554688 C 225.566406 179.734375 235.023438 173.566406 245.710938 162.058594 C 255.988281 151.367188 263.386719 141.09375 267.496094 130.8125 C 267.496094 125.058594 266.675781 118.894531 265.441406 112.726563 C 263.796875 107.382813 263.796875 101.21875 264.621094 94.226563 L 277.773438 58.464844 C 282.296875 44.488281 283.121094 33.390625 280.242188 25.167969 C 274.488281 19.820313 268.730469 19.820313 262.152344 25.167969 C 257.222656 29.277344 251.054688 36.675781 243.242188 48.1875 C 234.609375 61.753906 229.265625 69.5625 227.621094 72.03125 C 222.691406 77.375 217.757813 80.253906 212 79.839844 C 208.714844 103.683594 195.558594 116.425781 172.539063 118.070313 L 142.527344 112.726563 C 125.265625 108.617188 110.875 106.972656 98.953125 107.382813 L 82.921875 108.617188 C 73.054688 110.261719 64.835938 111.902344 58.257813 114.371094 C 54.148438 115.605469 52.503906 116.839844 52.503906 118.070313 "/>
<path style=" stroke:none;fill-rule:nonzero;fill:rgb(38.426208%,35.693359%,56.443787%);fill-opacity:1;" d="M 287.230469 279.214844 L 273.253906 279.214844 C 267.910156 280.449219 263.800781 282.09375 260.511719 284.558594 C 257.632813 286.613281 253.933594 288.261719 250.234375 288.671875 C 249 291.550781 245.710938 294.425781 239.957031 296.890625 L 242.832031 302.238281 C 243.65625 303.882813 244.066406 305.9375 244.476563 308.816406 C 243.246094 310.871094 239.132813 313.746094 231.324219 317.445313 C 238.3125 324.023438 247.355469 326.902344 258.863281 326.902344 C 269.964844 326.488281 278.597656 323.613281 285.175781 318.269531 L 295.863281 318.269531 C 299.5625 317.859375 304.085938 315.800781 309.429688 312.515625 C 316.828125 314.570313 323.816406 312.925781 329.570313 307.992188 C 347.246094 292.78125 357.523438 277.984375 359.992188 264.003906 C 360.402344 259.484375 360.402344 252.90625 359.578125 244.6875 C 355.882813 242.21875 353.414063 241.808594 352.183594 243.863281 L 349.714844 248.796875 C 348.480469 250.851563 346.015625 252.085938 343.136719 253.320313 L 330.394531 252.90625 L 318.882813 263.597656 C 314.359375 268.117188 309.019531 270.992188 302.851563 273.460938 C 297.917969 277.160156 292.984375 279.214844 287.230469 279.214844 "/>
<path style=" stroke:none;fill-rule:nonzero;fill:rgb(38.426208%,35.693359%,56.443787%);fill-opacity:1;" d="M 78.398438 243.449219 L 75.933594 249.617188 L 72.234375 263.183594 C 70.589844 266.882813 69.769531 268.9375 68.535156 268.117188 C 65.65625 272.226563 60.3125 273.871094 52.914063 273.460938 L 45.511719 272.636719 C 43.046875 272.636719 40.582031 273.460938 38.113281 275.105469 L 47.15625 285.382813 L 27.425781 294.425781 L 41.8125 299.769531 L 29.894531 311.28125 C 28.246094 312.925781 26.191406 314.15625 24.136719 314.570313 L 18.792969 314.570313 C 19.203125 316.625 21.261719 318.269531 24.546875 319.5 C 29.070313 319.5 38.113281 318.269531 51.269531 314.570313 C 56.203125 316.214844 63.191406 314.15625 71 309.222656 C 78.8125 304.292969 82.511719 300.183594 82.097656 296.484375 L 83.742188 289.082031 L 86.210938 282.09375 C 87.03125 277.570313 87.855469 270.992188 88.675781 261.949219 C 89.089844 251.261719 87.855469 243.449219 83.742188 239.753906 C 80.867188 240.574219 79.632813 241.808594 78.398438 243.449219 "/>
<path style=" stroke:none;fill-rule:nonzero;fill:rgb(38.426208%,35.693359%,56.443787%);fill-opacity:1;" d="M 234.199219 477.359375 L 218.167969 469.957031 C 202.136719 462.558594 192.683594 455.980469 188.980469 450.640625 C 175.828125 447.347656 163.90625 440.769531 152.804688 432.140625 C 146.640625 434.605469 144.171875 440.359375 144.996094 448.585938 C 145.40625 456.394531 145.816406 461.734375 144.996094 464.613281 C 143.761719 471.601563 139.242188 477.359375 132.253906 481.46875 C 138.417969 481.058594 142.53125 481.878906 144.585938 483.527344 C 145.816406 484.34375 146.230469 486.402344 145.40625 489.28125 L 144.171875 498.324219 C 143.761719 502.023438 145.40625 505.3125 148.285156 508.191406 C 152.804688 509.421875 158.148438 515.589844 163.90625 527.097656 L 195.144531 519.289063 C 198.847656 517.230469 204.191406 513.121094 210.769531 507.777344 L 224.335938 497.5 C 225.566406 488.046875 228.855469 481.46875 234.199219 477.359375 "/>
<path style=" stroke:none;fill-rule:nonzero;fill:rgb(38.426208%,35.693359%,56.443787%);fill-opacity:1;" d="M 414.667969 453.515625 L 404.800781 435.015625 C 387.945313 411.175781 372.324219 395.140625 358.757813 386.921875 C 357.113281 390.621094 357.523438 398.429688 360.402344 409.941406 C 361.226563 414.050781 360.8125 420.628906 358.757813 428.4375 C 356.703125 436.25 353.414063 444.0625 349.714844 451.460938 C 345.191406 458.859375 338.617188 468.3125 329.570313 480.234375 C 326.691406 483.523438 322.582031 485.988281 316.414063 488.042969 C 311.074219 489.691406 307.375 490.511719 305.316406 490.101563 L 307.375 491.335938 L 311.484375 493.390625 L 318.0625 497.503906 C 320.117188 499.144531 323.40625 499.96875 328.339844 499.96875 C 333.683594 499.554688 340.671875 497.089844 350.125 491.746094 C 357.113281 488.042969 363.28125 487.222656 367.800781 490.101563 C 373.96875 494.210938 378.078125 499.144531 380.957031 504.898438 C 383.425781 510.65625 383.011719 514.765625 380.132813 517.234375 C 384.246094 521.34375 388.355469 526.6875 391.234375 533.675781 C 401.511719 528.742188 409.734375 520.109375 415.074219 507.777344 C 419.597656 497.503906 421.242188 486.402344 420.421875 475.714844 C 418.777344 465.847656 416.722656 458.449219 414.667969 453.515625 "/>
<path style=" stroke:none;fill-rule:nonzero;fill:rgb(80.076599%,84.375%,91.40625%);fill-opacity:1;" d="M 195.148438 6.667969 C 186.925781 2.558594 181.992188 0.910156 179.9375 0.503906 C 172.128906 1.324219 161.4375 5.433594 146.640625 13.246094 C 149.105469 15.710938 153.21875 17.355469 159.382813 17.355469 C 165.550781 17.765625 170.894531 16.945313 175.414063 14.890625 L 185.691406 9.546875 C 190.628906 7.078125 193.503906 6.257813 195.148438 6.667969 "/>
<path style=" stroke:none;fill-rule:nonzero;fill:rgb(80.076599%,84.375%,91.40625%);fill-opacity:1;" d="M 93.199219 3.378906 L 75.113281 3.789063 C 73.46875 6.257813 72.234375 13.65625 71.824219 25.988281 C 71.410156 38.320313 71.824219 44.488281 72.234375 44.488281 L 76.757813 37.5 L 76.757813 33.390625 C 77.578125 26.398438 79.632813 20.234375 82.511719 14.890625 C 85.390625 8.722656 89.089844 4.613281 93.199219 3.378906 "/>
<path style=" stroke:none;fill-rule:nonzero;fill:rgb(80.076599%,84.375%,91.40625%);fill-opacity:1;" d="M 72.644531 53.121094 L 62.367188 54.765625 C 54.558594 56.820313 49.214844 58.464844 46.335938 60.109375 C 40.167969 64.628906 34.414063 71.617188 29.070313 81.484375 C 23.726563 91.761719 21.671875 98.339844 23.316406 100.804688 L 30.300781 109.4375 C 30.300781 95.050781 34.003906 85.183594 40.582031 80.253906 L 48.800781 76.140625 C 52.503906 74.496094 55.378906 71.617188 57.433594 67.921875 L 62.367188 60.109375 C 64.421875 58.054688 66.890625 56.820313 70.589844 56.820313 L 73.054688 55.585938 "/>
<path style=" stroke:none;fill-rule:nonzero;fill:rgb(80.076599%,84.375%,91.40625%);fill-opacity:1;" d="M 235.023438 25.988281 L 261.332031 13.65625 L 275.308594 12.835938 C 272.433594 10.78125 262.976563 10.78125 247.355469 12.835938 C 232.144531 14.890625 222.277344 16.945313 217.757813 19.003906 C 217.757813 23.113281 219.402344 25.578125 222.277344 27.222656 C 225.976563 28.867188 230.089844 28.453125 235.023438 25.988281 "/>
<path style=" stroke:none;fill-rule:nonzero;fill:rgb(80.076599%,84.375%,91.40625%);fill-opacity:1;" d="M 82.101563 441.59375 L 98.132813 429.261719 C 101.421875 426.382813 102.652344 422.273438 102.242188 416.515625 L 99.367188 398.429688 C 99.367188 391.03125 100.1875 384.863281 103.066406 379.929688 C 99.777344 381.988281 94.433594 388.976563 86.210938 400.898438 C 76.757813 414.050781 72.234375 423.917969 71.824219 430.085938 C 71.824219 445.703125 73.058594 455.980469 76.34375 460.914063 L 84.15625 469.546875 C 76.757813 456.804688 76.34375 447.347656 82.101563 441.59375 "/>
<path style=" stroke:none;fill-rule:nonzero;fill:rgb(80.076599%,84.375%,91.40625%);fill-opacity:1;" d="M 279.417969 396.375 C 276.132813 406.652344 274.488281 416.929688 274.898438 427.617188 C 275.308594 446.527344 279.417969 465.433594 288.050781 483.523438 C 291.34375 483.933594 293.398438 483.113281 294.21875 481.46875 C 302.027344 481.46875 304.496094 475.304688 302.027344 462.96875 C 300.796875 455.570313 300.386719 444.882813 301.207031 430.492188 C 302.441406 415.695313 304.085938 405.417969 306.960938 400.484375 L 314.773438 387.742188 C 318.0625 382.398438 320.117188 378.699219 320.527344 376.230469 C 322.582031 368.832031 314.773438 367.1875 296.273438 371.296875 C 288.875 376.230469 283.53125 384.453125 279.417969 396.375 "/>
<path style=" stroke:none;fill-rule:nonzero;fill:rgb(54.881287%,60.351563%,72.459412%);fill-opacity:1;" d="M 444.675781 434.195313 C 444.261719 442.824219 443.441406 448.582031 442.207031 451.460938 C 444.261719 474.070313 463.996094 487.636719 500.992188 492.566406 C 502.636719 490.921875 503.050781 489.28125 501.816406 488.042969 L 498.9375 485.582031 C 489.070313 482.289063 477.972656 474.480469 466.050781 462.972656 C 454.953125 451.871094 447.964844 442.003906 444.675781 434.195313 "/>
<path style=" stroke:none;fill-rule:nonzero;fill:rgb(38.426208%,35.693359%,56.443787%);fill-opacity:1;" d="M 120.332031 34.621094 C 118.6875 35.445313 117.863281 37.5 117.042969 39.964844 C 116.21875 42.84375 116.632813 46.132813 117.863281 49.011719 C 119.507813 51.886719 121.5625 53.53125 124.441406 54.355469 L 130.609375 54.765625 C 128.964844 53.53125 126.90625 50.242188 124.441406 45.308594 "/>
<path style=" stroke:none;fill-rule:nonzero;fill:rgb(38.426208%,35.693359%,56.443787%);fill-opacity:1;" d="M 117.863281 84.773438 C 116.632813 81.894531 112.929688 80.664063 106.765625 81.074219 C 104.710938 81.484375 102.652344 83.953125 100.597656 88.476563 C 98.132813 92.996094 96.078125 95.050781 94.84375 95.460938 C 93.199219 95.460938 90.320313 95.050781 87.03125 92.996094 C 82.511719 90.941406 78.8125 89.707031 75.933594 89.296875 C 72.234375 88.886719 67.300781 89.707031 60.3125 92.585938 L 47.15625 98.339844 L 70.589844 97.105469 L 88.675781 98.753906 C 89.089844 98.753906 91.144531 97.929688 94.84375 96.285156 L 110.054688 90.527344 C 114.574219 89.296875 117.453125 87.648438 117.863281 84.773438 "/>
<path style=" stroke:none;fill-rule:nonzero;fill:rgb(80.076599%,84.375%,91.40625%);fill-opacity:1;" d="M 237.488281 244.273438 L 258.042969 236.875 C 264.210938 234.40625 262.15625 233.175781 251.464844 233.175781 C 242.011719 233.175781 236.664063 235.230469 235.023438 238.929688 C 234.199219 240.164063 234.609375 241.394531 235.023438 242.628906 "/>
<path style=" stroke:none;fill-rule:nonzero;fill:rgb(80.076599%,84.375%,91.40625%);fill-opacity:1;" d="M 255.164063 228.242188 L 265.03125 229.472656 C 266.675781 229.472656 267.910156 228.242188 268.730469 226.1875 L 273.664063 221.253906 L 278.597656 218.375 C 279.828125 217.554688 280.242188 216.730469 280.242188 215.910156 C 279.828125 215.085938 279.417969 214.265625 278.597656 214.265625 L 265.03125 215.496094 C 258.863281 218.785156 255.164063 221.664063 253.933594 225.363281 C 253.109375 227.007813 253.519531 227.828125 255.164063 228.242188 "/>
<path style=" stroke:none;fill-rule:nonzero;fill:rgb(80.076599%,84.375%,91.40625%);fill-opacity:1;" d="M 270.789063 197.410156 C 267.496094 199.878906 266.265625 204.398438 267.085938 211.386719 C 277.363281 207.277344 284.765625 203.578125 289.285156 200.285156 C 292.164063 198.230469 293.808594 196.175781 294.21875 194.121094 C 294.628906 191.65625 293.398438 190.421875 290.105469 190.832031 "/>
<path style=" stroke:none;fill-rule:nonzero;fill:rgb(38.426208%,35.693359%,56.443787%);fill-opacity:1;" d="M 318.472656 525.453125 L 327.929688 515.589844 L 320.117188 513.945313 C 317.648438 513.121094 315.183594 513.945313 313.128906 516.820313 "/>
<path style=" stroke:none;fill-rule:nonzero;fill:rgb(54.881287%,60.351563%,72.459412%);fill-opacity:1;" d="M 60.3125 187.132813 L 52.089844 187.953125 C 50.855469 188.367188 45.925781 195.355469 37.292969 208.101563 C 35.648438 210.15625 34.824219 213.855469 33.59375 218.378906 C 32.769531 223.308594 32.769531 225.777344 33.59375 225.777344 C 39.757813 222.898438 43.046875 221.664063 43.457031 221.664063 C 48.390625 221.253906 57.023438 223.71875 68.535156 227.832031 C 74.289063 229.886719 79.632813 233.996094 84.15625 239.753906 C 84.976563 235.640625 82.921875 226.597656 78.398438 213.441406 C 74.289063 200.285156 70.589844 192.066406 67.710938 189.1875 C 66.476563 188.367188 64.421875 187.546875 60.3125 187.132813 "/>
<path style=" stroke:none;fill-rule:nonzero;fill:rgb(80.076599%,84.375%,91.40625%);fill-opacity:1;" d="M 59.492188 188.777344 C 55.378906 187.132813 50.855469 190.011719 46.335938 198.644531 C 42.226563 206.042969 40.167969 212.621094 40.992188 217.964844 C 45.925781 215.085938 51.269531 210.566406 56.613281 203.988281 C 63.191406 196.175781 64.421875 191.246094 59.492188 188.777344 "/>
<path style=" stroke:none;fill-rule:nonzero;fill:rgb(87.5%,93.359375%,92.1875%);fill-opacity:1;" d="M 92.378906 177.679688 L 80.867188 169.867188 C 77.578125 166.992188 74.289063 162.882813 71 157.945313 C 66.480469 173.15625 61.132813 182.613281 55.378906 186.3125 C 61.957031 186.3125 66.480469 187.546875 68.535156 190.832031 C 69.765625 192.066406 72.644531 197.410156 76.34375 207.277344 C 80.867188 217.140625 83.332031 226.597656 84.566406 235.230469 C 87.03125 234.820313 88.675781 234.40625 89.910156 233.585938 L 93.609375 230.296875 C 92.378906 217.964844 91.144531 209.332031 89.5 205.222656 L 92.378906 196.175781 "/>
<path style=" stroke:none;fill-rule:nonzero;fill:rgb(87.5%,93.359375%,92.1875%);fill-opacity:1;" d="M 283.53125 166.992188 L 266.675781 176.445313 L 252.699219 193.710938 C 245.710938 200.699219 240.777344 206.863281 238.3125 211.386719 C 233.378906 219.609375 231.734375 227.828125 232.964844 236.050781 L 242.832031 232.765625 L 248.179688 224.132813 C 251.464844 210.976563 259.277344 201.109375 272.433594 194.53125 C 285.996094 187.953125 300.796875 187.132813 316.828125 192.476563 C 332.039063 196.589844 343.960938 206.042969 352.183594 221.664063 C 359.578125 236.050781 362.046875 250.441406 359.578125 265.238281 C 358.757813 273.871094 361.226563 275.515625 367.800781 270.992188 C 373.96875 266.472656 380.957031 258.25 387.945313 246.742188 C 388.355469 226.597656 382.601563 210.15625 371.089844 197 C 365.746094 190.832031 353.003906 181.378906 333.683594 168.636719 C 327.105469 159.589844 316.414063 138.214844 301.617188 105.328125 C 304.90625 131.226563 303.261719 148.902344 296.273438 157.535156 C 293.808594 160.414063 289.695313 163.699219 283.53125 166.992188 "/>
<path style=" stroke:none;fill-rule:nonzero;fill:rgb(87.5%,93.359375%,92.1875%);fill-opacity:1;" d="M 357.113281 317.035156 C 355.058594 320.734375 351.359375 324.433594 345.601563 327.722656 C 339.847656 331.832031 336.148438 334.710938 334.507813 336.765625 C 328.75 346.222656 326.691406 354.03125 328.339844 360.609375 C 330.394531 367.597656 333.683594 372.53125 338.203125 375.40625 L 361.226563 388.152344 C 364.101563 386.507813 369.449219 386.507813 376.023438 387.742188 C 383.011719 389.386719 389.179688 391.851563 394.523438 395.140625 C 400.277344 398.019531 405.621094 398.429688 411.378906 395.964844 C 417.132813 393.496094 420.832031 389.386719 422.066406 384.042969 C 410.964844 368.011719 399.867188 354.441406 387.945313 342.933594 L 370.679688 330.601563 C 363.691406 325.667969 359.171875 321.148438 357.113281 317.035156 "/>
<path style=" stroke:none;fill-rule:nonzero;fill:rgb(87.5%,93.359375%,92.1875%);fill-opacity:1;" d="M 54.148438 314.570313 C 55.789063 325.667969 59.488281 338.824219 65.246094 353.210938 C 73.054688 373.355469 82.101563 386.507813 91.554688 392.265625 L 100.597656 381.984375 C 97.308594 380.34375 93.199219 375.410156 87.855469 368.011719 C 83.742188 361.84375 80.042969 355.675781 77.167969 350.332031 L 71.410156 329.367188 C 68.535156 319.910156 65.65625 314.570313 61.546875 313.335938 "/>
<path style=" stroke:none;fill-rule:nonzero;fill:rgb(65.039063%,38.426208%,24.705505%);fill-opacity:1;" d="M 279.417969 53.941406 L 274.488281 66.6875 C 278.597656 67.097656 282.710938 69.976563 285.585938 74.496094 L 294.628906 90.527344 C 304.90625 100.808594 319.296875 105.328125 337.792969 103.273438 L 359.171875 92.171875 C 351.769531 83.953125 337.382813 75.730469 316.007813 66.6875 "/>
<path style=" stroke:none;fill-rule:nonzero;fill:rgb(65.039063%,38.426208%,24.705505%);fill-opacity:1;" d="M 463.585938 289.492188 C 462.761719 270.582031 459.886719 255.78125 454.953125 245.097656 L 442.207031 262.773438 C 435.628906 266.058594 427 270.171875 416.308594 274.28125 L 387.121094 287.027344 C 385.066406 290.726563 380.957031 295.246094 373.96875 300.179688 C 366.980469 305.9375 361.226563 311.691406 357.113281 317.035156 C 363.28125 325.667969 369.855469 331.425781 377.257813 334.710938 C 385.066406 340.054688 393.289063 347.457031 401.101563 356.910156 L 422.066406 384.042969 L 440.152344 346.632813 C 448.375 332.246094 454.953125 326.078125 459.472656 328.546875 C 463.171875 320.324219 464.40625 307.167969 463.585938 289.492188 "/>
<path style=" stroke:none;fill-rule:nonzero;fill:rgb(94.53125%,79.6875%,59.179688%);fill-opacity:1;" d="M 118.6875 111.496094 L 82.511719 112.316406 C 71.410156 113.960938 61.957031 116.839844 54.96875 120.949219 C 54.96875 125.058594 57.023438 131.636719 61.136719 140.269531 C 65.65625 150.546875 71.824219 160.003906 78.8125 167.8125 L 101.421875 183.433594 C 114.164063 190.832031 125.675781 194.945313 136.773438 196.175781 C 144.996094 196.175781 152.394531 193.300781 158.972656 187.546875 C 165.550781 181.789063 170.074219 175.214844 172.128906 166.992188 C 174.59375 158.359375 174.183594 149.726563 170.894531 141.914063 C 167.195313 132.457031 160.203125 125.058594 149.929688 118.894531 C 135.128906 114.371094 124.851563 111.902344 118.6875 111.496094 "/>
<path style=" stroke:none;fill-rule:nonzero;fill:rgb(94.53125%,79.6875%,59.179688%);fill-opacity:1;" d="M 227.625 197 C 243.246094 190.011719 252.699219 187.132813 257.222656 188.777344 L 261.742188 182.613281 C 254.753906 179.730469 244.476563 181.378906 230.089844 188.367188 C 222.277344 192.476563 210.769531 198.230469 195.148438 205.222656 C 177.058594 212.621094 163.90625 217.554688 155.273438 220.019531 C 139.652344 222.074219 126.085938 219.609375 114.988281 212.621094 L 103.066406 203.578125 C 98.953125 199.878906 95.664063 197.824219 93.199219 197 C 91.964844 197.824219 90.730469 200.699219 89.5 205.222656 C 92.378906 215.910156 93.199219 225.777344 93.609375 235.640625 C 94.019531 245.097656 93.199219 254.550781 91.144531 264.003906 C 89.910156 270.171875 87.445313 278.804688 83.742188 290.316406 C 80.867188 299.769531 80.867188 311.28125 83.742188 325.257813 C 85.800781 338.824219 89.089844 349.101563 93.199219 356.496094 C 94.84375 359.789063 97.308594 362.664063 101.421875 364.722656 L 105.941406 375.820313 C 110.464844 384.863281 117.453125 395.550781 127.730469 407.0625 C 138.007813 419.394531 148.285156 428.851563 158.5625 436.25 C 150.339844 413.640625 157.328125 404.183594 179.9375 408.707031 C 187.335938 409.9375 197.203125 413.230469 209.125 417.753906 L 233.378906 427.203125 C 250.234375 432.960938 261.332031 430.492188 266.265625 420.214844 C 268.320313 416.519531 269.554688 411.585938 270.375 405.007813 L 272.019531 389.796875 C 273.664063 381.574219 273.253906 370.476563 272.019531 357.320313 C 270.789063 345.8125 269.140625 335.535156 266.675781 326.492188 C 252.699219 328.136719 240.777344 325.257813 231.324219 317.445313 C 228.445313 317.855469 225.15625 316.625 221.457031 313.335938 C 214.058594 305.113281 209.945313 297.714844 207.890625 290.726563 C 203.78125 286.613281 200.902344 281.683594 199.667969 276.335938 L 203.367188 274.28125 C 204.191406 269.761719 205.835938 265.238281 208.300781 260.304688 L 216.933594 246.742188 C 215.289063 238.929688 212.003906 233.171875 207.890625 228.652344 C 203.78125 224.132813 197.203125 220.019531 188.570313 216.320313 "/>
<path style=" stroke:none;fill-rule:nonzero;fill:rgb(100%,98.826599%,75.78125%);fill-opacity:1;" d="M 43.871094 265.238281 C 50.035156 263.183594 54.558594 260.71875 57.023438 258.25 C 55.378906 253.316406 50.449219 248.382813 41.8125 243.863281 C 33.59375 238.519531 26.191406 236.464844 20.4375 237.285156 L 15.914063 238.105469 L 12.214844 243.449219 C 9.339844 248.796875 8.105469 253.730469 8.105469 257.429688 C 8.105469 260.304688 9.75 262.359375 13.039063 264.003906 L 20.847656 267.296875 L 31.125 268.113281 "/>
<path style=" stroke:none;fill-rule:nonzero;fill:rgb(100%,98.826599%,75.78125%);fill-opacity:1;" d="M 10.160156 262.359375 C 4.40625 266.882813 3.171875 272.636719 6.460938 279.628906 C 2.351563 283.738281 0.707031 288.671875 1.117188 294.835938 C 2.761719 301.824219 6.050781 306.347656 10.160156 310.046875 C 15.09375 314.15625 19.617188 315.390625 23.726563 314.570313 C 17.148438 311.277344 13.039063 307.992188 11.804688 304.292969 C 10.984375 301.824219 11.394531 297.714844 13.449219 292.78125 C 9.75 288.261719 8.105469 284.96875 7.28125 282.503906 C 7.695313 275.105469 10.984375 273.871094 17.148438 278.394531 C 20.847656 281.683594 24.546875 282.914063 27.839844 282.914063 C 32.359375 282.914063 35.648438 280.039063 37.703125 274.691406 L 32.769531 268.527344 L 20.4375 267.296875 C 15.914063 266.0625 12.214844 264.414063 10.160156 262.359375 "/>
<path style=" stroke:none;fill-rule:nonzero;fill:rgb(100%,98.826599%,75.78125%);fill-opacity:1;" d="M 232.96875 246.742188 L 224.746094 244.273438 C 222.277344 243.042969 219.8125 243.863281 217.347656 245.917969 C 208.300781 259.074219 203.78125 268.527344 203.367188 274.28125 L 200.082031 276.339844 L 202.136719 282.914063 L 212.824219 282.503906 L 223.101563 284.558594 L 233.789063 289.492188 C 239.132813 291.136719 244.886719 290.726563 250.234375 288.261719 C 252.699219 285.792969 253.109375 282.914063 252.289063 279.214844 C 251.054688 275.929688 248.589844 273.050781 244.886719 270.992188 L 236.253906 265.652344 C 238.722656 264.003906 240.777344 261.539063 241.601563 258.660156 C 242.832031 255.78125 242.421875 253.726563 240.367188 251.671875 C 239.546875 250.027344 237.078125 248.386719 232.96875 246.742188 "/>
<path style=" stroke:none;fill-rule:nonzero;fill:rgb(100%,98.826599%,75.78125%);fill-opacity:1;" d="M 104.296875 525.453125 L 113.34375 516.410156 C 119.921875 510.246094 128.140625 507.777344 138.007813 509.832031 C 124.851563 498.734375 107.175781 495.035156 84.976563 498.734375 C 74.289063 501.613281 64.835938 506.542969 56.203125 513.945313 C 50.035156 519.285156 45.511719 524.632813 42.226563 530.800781 C 40.582031 534.496094 42.226563 536.554688 46.746094 537.375 L 67.710938 536.554688 L 89.910156 533.265625 C 95.253906 531.621094 100.1875 529.152344 104.296875 525.453125 "/>
<path style=" stroke:none;fill-rule:nonzero;fill:rgb(100%,98.826599%,75.78125%);fill-opacity:1;" d="M 149.105469 508.597656 C 138.828125 506.957031 130.195313 512.710938 122.796875 525.453125 C 116.21875 538.199219 114.164063 545.597656 116.21875 548.476563 C 123.210938 546.007813 130.609375 539.429688 139.242188 528.332031 C 147.464844 517.230469 150.75 510.65625 149.105469 508.597656 "/>
<path style=" stroke:none;fill-rule:nonzero;fill:rgb(100%,98.826599%,75.78125%);fill-opacity:1;" d="M 279.828125 528.332031 C 279.007813 530.800781 279.007813 532.445313 280.242188 532.855469 L 292.984375 531.207031 C 296.683594 530.386719 301.207031 528.332031 305.730469 525.042969 C 311.074219 521.34375 313.128906 518.464844 311.894531 516.410156 C 309.839844 513.535156 306.140625 510.65625 300.796875 508.191406 C 289.695313 513.535156 282.710938 520.523438 279.828125 528.332031 "/>
<g clip-path="url(#clip1)" clip-rule="nonzero">
<path style=" stroke:none;fill-rule:nonzero;fill:rgb(100%,98.826599%,75.78125%);fill-opacity:1;" d="M 324.636719 548.886719 C 330.394531 553.410156 337.792969 555.054688 346.015625 553.820313 C 348.070313 550.117188 350.535156 546.832031 353.414063 544.777344 L 362.457031 539.429688 C 365.746094 537.375 368.625 534.5 370.679688 529.566406 C 372.734375 523.808594 373.148438 517.234375 371.503906 509.835938 C 361.636719 502.023438 351.359375 499.96875 342.316406 504.078125 C 339.4375 504.898438 334.914063 508.191406 328.75 514.355469 C 322.171875 520.929688 318.0625 526.277344 316.828125 529.566406 C 316.414063 538.199219 318.882813 544.363281 324.636719 548.886719 "/>
</g>
<path style=" stroke:none;fill-rule:nonzero;fill:rgb(100%,98.826599%,75.78125%);fill-opacity:1;" d="M 419.1875 515.589844 L 423.296875 517.644531 L 427.410156 520.929688 C 430.285156 524.222656 433.164063 528.746094 435.628906 535.320313 L 441.386719 535.730469 C 441.796875 534.910156 442.621094 532.855469 442.621094 529.566406 C 442.207031 524.222656 439.742188 518.054688 435.222656 510.65625 C 430.285156 502.023438 424.945313 496.679688 419.1875 495.035156 C 418.367188 499.144531 417.132813 502.84375 415.898438 505.722656 C 415.488281 510.65625 416.722656 513.535156 419.1875 515.589844 "/>
<path style=" stroke:none;fill-rule:nonzero;fill:rgb(85.15625%,85.15625%,85.15625%);fill-opacity:1;" d="M 449.195313 73.675781 C 450.429688 65.863281 448.375 58.875 443.03125 52.296875 C 437.6875 46.542969 431.109375 42.84375 422.886719 40.789063 C 414.667969 39.144531 406.855469 39.554688 400.277344 43.253906 C 392.46875 46.953125 387.945313 53.941406 385.890625 63.398438 C 382.191406 75.316406 378.078125 93.40625 373.148438 118.480469 L 373.96875 122.179688 L 375.613281 126.292969 C 373.558594 133.691406 370.679688 143.148438 366.570313 154.65625 C 365.335938 157.535156 363.691406 159.589844 361.636719 160.824219 L 353.414063 165.757813 L 346.015625 177.269531 C 352.59375 180.554688 361.226563 187.546875 371.910156 198.230469 C 379.722656 203.578125 384.65625 201.519531 387.121094 192.066406 L 394.113281 156.304688 C 394.523438 153.425781 394.113281 151.367188 392.46875 149.3125 L 387.121094 145.203125 C 380.957031 141.503906 378.078125 136.570313 378.078125 130.402344 L 383.425781 136.160156 C 385.480469 137.390625 388.765625 138.625 394.113281 140.269531 L 402.335938 117.25 C 404.800781 109.4375 406.445313 102.039063 406.855469 95.050781 C 413.019531 97.105469 418.367188 97.929688 422.476563 97.105469 C 425.765625 97.105469 430.699219 95.050781 436.453125 92.171875 C 432.34375 105.328125 426.175781 121.773438 418.367188 140.679688 C 420.832031 140.679688 423.296875 139.859375 426.175781 138.625 L 437.277344 112.316406 C 443.441406 97.515625 447.140625 84.773438 449.195313 73.675781 "/>
<path style=" stroke:none;fill-rule:nonzero;fill:rgb(85.15625%,85.15625%,85.15625%);fill-opacity:1;" d="M 19.203125 130.8125 L 21.257813 133.691406 C 24.136719 138.214844 32.359375 146.847656 46.335938 160.003906 L 52.503906 161.644531 C 54.144531 162.878906 57.84375 167.398438 64.011719 176.035156 C 68.121094 167.8125 70.589844 161.644531 71.410156 157.535156 L 62.367188 143.144531 C 57.023438 131.226563 54.558594 123.828125 54.96875 120.949219 L 48.800781 122.183594 L 41.402344 120.535156 L 30.714844 110.261719 L 22.492188 117.25 C 20.027344 120.125 18.382813 123.003906 17.972656 126.703125 "/>
<path style=" stroke:none;fill-rule:nonzero;fill:rgb(71.679688%,60.742188%,49.804688%);fill-opacity:1;" d="M 179.113281 130.402344 L 149.519531 119.304688 C 154.863281 121.359375 159.796875 125.472656 164.316406 131.636719 C 169.25 138.625 172.535156 146.4375 172.949219 154.65625 C 173.773438 164.113281 171.304688 171.921875 165.960938 179.324219 C 159.796875 187.132813 150.339844 193.300781 137.1875 196.589844 C 141.296875 197.410156 148.285156 197.410156 157.328125 197 L 178.292969 195.355469 L 198.4375 190.011719 C 207.890625 186.722656 214.058594 183.433594 216.933594 180.554688 C 223.511719 171.921875 228.445313 160.824219 232.96875 146.4375 C 235.433594 134.515625 234.199219 125.882813 228.855469 120.535156 C 226.800781 118.894531 222.277344 116.839844 215.699219 114.78125 C 212.414063 123.003906 205.835938 128.757813 195.148438 132.457031 C 189.804688 134.925781 184.460938 134.105469 179.113281 130.402344 "/>
<path style=" stroke:none;fill-rule:nonzero;fill:rgb(71.679688%,60.742188%,49.804688%);fill-opacity:1;" d="M 233.378906 236.464844 C 232.554688 231.941406 232.96875 227.007813 234.199219 221.664063 C 235.847656 216.320313 237.488281 212.210938 240.367188 208.921875 C 242.421875 206.863281 245.300781 203.578125 249 198.644531 L 257.222656 188.777344 C 253.109375 187.132813 246.121094 188.777344 235.433594 193.710938 L 188.160156 215.910156 C 198.847656 221.253906 206.246094 226.1875 210.359375 231.53125 C 211.589844 233.585938 214.058594 238.519531 216.9375 246.742188 C 218.992188 244.273438 221.046875 243.449219 223.921875 243.863281 "/>
<path style=" stroke:none;fill-rule:nonzero;fill:rgb(71.679688%,60.742188%,49.804688%);fill-opacity:1;" d="M 285.175781 318.269531 C 280.652344 321.558594 274.488281 324.4375 266.675781 326.492188 C 271.195313 345.8125 272.433594 371.296875 270.378906 402.953125 C 269.554688 416.929688 264.621094 425.5625 256.398438 428.851563 C 249.410156 431.316406 241.1875 430.492188 230.910156 425.972656 C 206.246094 415.695313 189.390625 409.53125 180.351563 407.882813 C 156.914063 403.773438 149.519531 412.816406 158.148438 435.839844 C 166.371094 442.828125 177.058594 447.761719 188.980469 450.640625 C 200.492188 462.148438 215.289063 471.191406 234.199219 476.949219 C 249.410156 481.878906 262.566406 484.757813 273.253906 486.402344 L 289.695313 487.222656 C 280.652344 470.78125 275.71875 451.871094 275.308594 430.90625 C 274.488281 407.476563 279.828125 388.976563 291.753906 375.820313 C 295.039063 371.710938 300.386719 367.597656 307.371094 363.488281 C 314.773438 359.378906 321.351563 356.910156 326.691406 356.089844 C 324.636719 341.289063 323.40625 329.777344 323.40625 321.96875 L 312.304688 321.148438 C 309.429688 320.324219 306.140625 318.679688 302.4375 316.625 L 294.21875 318.679688 "/>
<path style=" stroke:none;fill-rule:nonzero;fill:rgb(63.084412%,74.021912%,68.554688%);fill-opacity:1;" d="M 84.15625 329.367188 C 80.867188 314.980469 80.457031 304.292969 81.6875 298.125 C 75.933594 305.9375 69.355469 311.28125 61.546875 313.335938 C 66.066406 317.445313 70.179688 327.3125 74.699219 343.347656 C 75.933594 349.101563 79.222656 356.089844 84.15625 363.898438 C 89.089844 371.710938 94.84375 377.875 100.597656 382.808594 L 106.355469 376.230469 L 101.832031 364.722656 C 101.421875 364.3125 99.367188 363.488281 97.308594 361.433594 C 91.964844 356.089844 87.445313 344.988281 84.15625 329.367188 "/>
<path style=" stroke:none;fill-rule:nonzero;fill:rgb(63.084412%,74.021912%,68.554688%);fill-opacity:1;" d="M 274.488281 66.6875 C 267.910156 82.308594 264.210938 92.585938 263.796875 97.105469 C 263.386719 102.039063 263.796875 107.792969 265.441406 114.78125 C 266.675781 122.183594 267.496094 127.527344 267.496094 130.8125 C 269.964844 136.980469 271.609375 144.382813 271.609375 153.425781 C 272.019531 163.703125 269.964844 171.101563 266.675781 176.035156 C 278.597656 170.277344 288.050781 164.523438 295.453125 159.179688 C 299.5625 155.480469 302.441406 147.671875 303.675781 134.925781 C 304.90625 123.003906 304.496094 113.550781 302.027344 106.148438 L 288.464844 78.195313 C 283.53125 70.386719 279.007813 66.277344 274.488281 66.6875 "/>
<path style=" stroke:none;fill-rule:nonzero;fill:rgb(63.084412%,74.021912%,68.554688%);fill-opacity:1;" d="M 374.789063 282.09375 C 380.957031 273.050781 385.066406 260.71875 387.945313 245.917969 C 382.191406 256.605469 376.023438 264.414063 369.035156 269.761719 C 362.046875 275.105469 359.171875 273.871094 359.578125 266.0625 C 357.523438 275.105469 351.359375 285.792969 341.492188 296.890625 C 329.984375 310.457031 319.296875 316.214844 309.429688 313.335938 L 302.441406 316.625 C 307.785156 320.324219 314.773438 322.378906 323.40625 321.96875 C 322.171875 331.011719 323.40625 342.523438 327.515625 356.910156 C 328.339844 347.457031 332.039063 339.644531 338.617188 333.066406 L 346.839844 327.3125 C 350.949219 325.257813 354.238281 321.554688 357.113281 317.035156 C 355.058594 314.15625 353.414063 310.046875 353.003906 305.9375 "/>
<path style=" stroke:none;fill-rule:nonzero;fill:rgb(63.084412%,74.021912%,68.554688%);fill-opacity:1;" d="M 93.609375 230.710938 L 90.320313 233.175781 C 88.675781 234.40625 86.621094 234.820313 84.15625 234.40625 C 84.566406 236.875 84.566406 238.519531 83.742188 239.753906 C 86.621094 243.039063 87.855469 247.972656 88.265625 254.550781 C 88.675781 259.074219 88.265625 266.882813 87.03125 277.160156 C 89.5 272.636719 91.144531 264.828125 92.789063 254.140625 C 94.023438 244.6875 94.433594 236.875 93.609375 230.710938 "/>
<path style=" stroke:none;fill-rule:nonzero;fill:rgb(63.084412%,74.021912%,68.554688%);fill-opacity:1;" d="M 375.203125 386.921875 L 361.226563 388.152344 C 374.378906 395.960938 388.769531 411.585938 404.390625 434.195313 C 410.964844 442.828125 416.722656 456.394531 420.421875 475.710938 C 431.109375 471.191406 438.097656 463.378906 441.796875 452.28125 C 445.085938 443.238281 445.496094 434.195313 443.03125 425.148438 C 442.621094 421.039063 439.742188 414.460938 434.398438 404.597656 L 422.476563 384.453125 C 414.253906 398.429688 403.976563 401.308594 390.820313 392.675781 C 387.121094 390.210938 381.78125 388.152344 375.203125 386.921875 "/>
<path style=" stroke:none;fill-rule:nonzero;fill:rgb(65.039063%,38.426208%,24.705505%);fill-opacity:1;" d="M 380.957031 83.128906 C 379.726563 83.128906 369.035156 87.652344 349.304688 97.515625 C 328.75 107.382813 316.828125 113.960938 312.71875 117.25 C 310.25 118.894531 309.429688 120.535156 310.25 121.773438 L 317.652344 132.460938 L 319.296875 134.515625 L 322.171875 133.691406 L 376.847656 103.273438 "/>
<path style=" stroke:none;fill-rule:nonzero;fill:rgb(65.039063%,38.426208%,24.705505%);fill-opacity:1;" d="M 436.863281 113.550781 L 428.230469 134.515625 L 442.621094 163.289063 C 450.839844 180.144531 454.953125 190.421875 455.773438 194.945313 C 456.183594 199.878906 456.183594 203.578125 455.363281 206.046875 C 454.539063 208.507813 452.074219 210.976563 447.964844 213.03125 C 442.207031 217.144531 422.476563 228.242188 387.945313 246.738281 L 394.519531 265.652344 L 414.253906 256.195313 C 425.765625 250.441406 432.753906 246.738281 436.039063 244.273438 C 451.664063 236.050781 461.941406 228.652344 467.285156 222.898438 C 472.628906 215.496094 474.683594 206.863281 473.039063 197.410156 C 470.570313 183.433594 465.640625 167.398438 457.828125 149.3125 C 450.019531 131.226563 443.03125 119.304688 436.863281 113.550781 "/>
<path style=" stroke:none;fill-rule:nonzero;fill:rgb(46.263123%,25.097656%,18.821716%);fill-opacity:1;" d="M 309.429688 120.535156 C 310.660156 118.070313 320.117188 112.316406 338.617188 102.863281 L 316.828125 102.039063 C 307.785156 99.984375 299.972656 95.871094 294.21875 89.707031 "/>
<path style=" stroke:none;fill-rule:nonzero;fill:rgb(46.263123%,25.097656%,18.821716%);fill-opacity:1;" d="M 394.523438 265.652344 C 396.578125 273.460938 398.632813 278.394531 399.867188 280.859375 C 424.53125 271.40625 438.921875 265.238281 443.03125 261.949219 C 452.898438 250.441406 460.707031 237.285156 467.285156 222.898438 C 460.707031 229.476563 447.554688 238.519531 427.410156 249.207031 C 411.789063 257.839844 400.6875 263.597656 394.523438 265.652344 "/>
<path style=" stroke:none;fill-rule:nonzero;fill:rgb(46.263123%,25.097656%,18.821716%);fill-opacity:1;" d="M 363.28125 296.070313 L 353.003906 305.9375 C 353.414063 311.691406 355.058594 315.390625 357.113281 317.035156 L 369.855469 303.882813 L 378.902344 297.304688 C 382.1875 294.015625 385.480469 290.316406 387.945313 286.203125 "/>
<path style=" stroke:none;fill-rule:nonzero;fill:rgb(46.263123%,25.097656%,18.821716%);fill-opacity:1;" d="M 456.183594 380.34375 C 459.886719 359.789063 461.117188 342.523438 459.886719 328.136719 C 453.71875 326.488281 446.730469 332.65625 438.507813 347.457031 L 422.066406 384.042969 L 433.984375 403.363281 C 438.921875 412.816406 442.207031 419.808594 443.03125 424.738281 C 448.375 415.285156 452.894531 400.484375 456.183594 380.34375 "/>
<path style=" stroke:none;fill-rule:nonzero;fill:rgb(76.951599%,76.171875%,58.006287%);fill-opacity:1;" d="M 243.246094 304.292969 L 240.367188 296.890625 C 242.421875 296.070313 244.886719 294.425781 247.355469 292.371094 C 249.410156 290.316406 250.644531 288.671875 251.054688 287.851563 C 244.886719 289.90625 239.957031 290.726563 235.84375 289.90625 L 225.976563 285.792969 C 218.578125 282.503906 210.769531 281.269531 201.722656 282.503906 C 202.960938 285.792969 205.015625 288.671875 208.714844 291.546875 C 208.300781 292.78125 209.535156 296.070313 212.414063 301.003906 C 215.703125 306.347656 219.402344 311.28125 223.511719 316.214844 C 227.621094 317.855469 230.914063 318.269531 232.96875 316.625 C 239.957031 313.335938 243.65625 311.28125 243.65625 310.460938 C 244.886719 308.8125 244.476563 306.761719 243.246094 304.292969 "/>
<path style=" stroke:none;fill-rule:nonzero;fill:rgb(76.951599%,76.171875%,58.006287%);fill-opacity:1;" d="M 12.625 275.515625 C 9.75 274.695313 8.105469 276.339844 7.285156 281.273438 C 8.925781 286.613281 10.980469 290.316406 13.859375 292.78125 C 10.980469 295.660156 10.160156 298.949219 11.394531 303.46875 C 11.804688 305.9375 13.859375 307.992188 17.148438 310.871094 C 20.027344 313.335938 22.902344 314.570313 24.960938 314.570313 C 28.246094 314.15625 34.003906 309.226563 41.8125 299.769531 L 26.601563 294.015625 L 47.15625 285.792969 C 44.691406 281.683594 41.402344 277.984375 37.292969 274.695313 C 35.648438 280.039063 32.769531 282.503906 28.246094 282.503906 C 25.371094 282.914063 22.082031 282.09375 19.203125 280.039063 L 16.328125 277.570313 "/>
<path style=" stroke:none;fill-rule:nonzero;fill:rgb(76.951599%,76.171875%,58.006287%);fill-opacity:1;" d="M 112.109375 517.644531 C 106.355469 524.222656 99.363281 529.152344 91.964844 532.855469 L 121.152344 529.152344 C 122.386719 525.867188 124.851563 521.753906 128.964844 517.644531 L 138.007813 509.832031 C 127.730469 506.957031 119.097656 509.832031 112.109375 517.644531 "/>
<path style=" stroke:none;fill-rule:nonzero;fill:rgb(76.951599%,76.171875%,58.006287%);fill-opacity:1;" d="M 137.1875 544.363281 L 161.4375 533.675781 C 163.496094 532.445313 164.316406 530.386719 163.496094 527.921875 C 163.496094 525.863281 161.851563 522.578125 158.972656 518.054688 C 155.683594 513.121094 152.394531 509.832031 149.105469 508.597656 C 149.105469 512.300781 146.226563 518.054688 140.0625 526.6875 C 133.074219 536.964844 125.265625 544.363281 116.632813 548.476563 C 121.5625 549.296875 128.554688 548.0625 137.1875 544.363281 "/>
<path style=" stroke:none;fill-rule:nonzero;fill:rgb(76.951599%,76.171875%,58.006287%);fill-opacity:1;" d="M 223.921875 497.5 L 198.027344 518.054688 L 237.902344 520.109375 C 240.777344 520.109375 241.601563 518.464844 240.777344 516 C 239.957031 513.945313 238.3125 510.65625 234.609375 506.136719 C 230.5 500.789063 226.800781 497.914063 223.921875 497.5 "/>
<path style=" stroke:none;fill-rule:nonzero;fill:rgb(76.951599%,76.171875%,58.006287%);fill-opacity:1;" d="M 427.410156 520.523438 L 420.421875 516 C 417.542969 513.945313 415.898438 510.65625 415.898438 506.136719 C 415.074219 508.191406 413.433594 511.476563 410.554688 516 C 406.855469 521.753906 403.566406 525.453125 399.867188 528.332031 C 410.964844 528.746094 422.890625 531.207031 435.628906 535.730469 C 434.808594 531.207031 433.574219 527.921875 431.929688 525.867188 "/>
<path style=" stroke:none;fill-rule:nonzero;fill:rgb(76.951599%,76.171875%,58.006287%);fill-opacity:1;" d="M 356.703125 542.308594 C 350.949219 546.007813 347.246094 549.707031 346.425781 553.410156 C 353.824219 553.410156 363.28125 550.53125 373.96875 544.777344 C 384.246094 539.84375 389.589844 536.140625 391.234375 533.675781 C 389.589844 529.152344 386.300781 524.222656 382.1875 519.699219 C 378.078125 515.589844 374.789063 512.300781 371.503906 510.246094 C 373.558594 519.699219 371.914063 527.921875 367.394531 534.496094 C 366.980469 535.730469 363.28125 538.199219 356.703125 542.308594 "/>
<path style=" stroke:none;fill-rule:nonzero;fill:rgb(76.951599%,76.171875%,58.006287%);fill-opacity:1;" d="M 318.472656 526.277344 C 316.007813 520.523438 313.953125 517.644531 312.304688 516.410156 C 312.304688 520.933594 305.316406 525.867188 291.753906 531.621094 L 316.828125 529.566406 "/>
<path style=" stroke:none;fill-rule:nonzero;fill:rgb(65.039063%,65.039063%,65.039063%);fill-opacity:1;" d="M 427 120.949219 C 431.929688 108.617188 434.808594 99.160156 436.453125 92.171875 C 426.589844 98.75 416.722656 99.984375 406.855469 95.460938 L 401.511719 116.839844 C 398.632813 127.9375 395.757813 135.746094 393.289063 140.269531 C 390 139.859375 385.066406 136.980469 378.488281 131.226563 C 376.023438 135.335938 377.257813 139.035156 382.1875 142.324219 C 390 146.4375 393.699219 151.367188 393.289063 156.304688 C 393.289063 165.34375 390.820313 177.679688 386.710938 193.710938 C 385.066406 200.699219 380.132813 202.34375 371.914063 198.644531 C 383.425781 212.210938 388.765625 228.242188 387.945313 246.742188 C 392.464844 244.683594 395.757813 243.039063 397.8125 241.394531 L 410.144531 217.140625 C 417.132813 202.753906 421.242188 193.710938 422.066406 190.011719 C 419.597656 183.84375 418.777344 176.445313 419.1875 167.8125 L 421.242188 140.269531 L 418.367188 140.679688 C 419.597656 139.449219 422.476563 132.457031 427 120.949219 "/>
<path style=" stroke:none;fill-rule:nonzero;fill:rgb(0%,0%,0%);fill-opacity:1;" d="M 395.34375 64.21875 C 394.113281 71.617188 396.578125 77.785156 403.566406 83.128906 C 408.089844 87.652344 413.433594 89.296875 420.011719 87.652344 C 424.53125 86.828125 428.644531 84.773438 432.34375 81.894531 C 434.398438 80.253906 435.628906 76.554688 436.042969 70.386719 C 436.042969 66.683594 434.398438 62.984375 431.519531 58.875 C 428.644531 55.175781 425.351563 52.710938 422.066406 51.066406 C 413.84375 48.597656 407.265625 49.011719 402.335938 53.121094 C 398.222656 55.996094 396.167969 59.699219 395.34375 64.21875 "/>
<path style=" stroke:none;fill-rule:nonzero;fill:rgb(0%,0%,0%);fill-opacity:1;" d="M 322.582031 133.691406 C 320.527344 134.925781 319.292969 134.515625 318.472656 132.871094 L 311.894531 123.828125 C 308.195313 119.304688 307.375 118.480469 309.015625 121.359375 L 320.117188 144.789063 C 326.285156 157.535156 330.804688 165.34375 332.859375 167.8125 C 336.96875 171.921875 341.902344 174.800781 346.015625 176.445313 C 346.839844 176.035156 348.070313 174.390625 349.304688 171.921875 L 353.824219 165.757813 L 359.992188 162.058594 C 362.457031 160.824219 364.515625 158.359375 366.570313 155.480469 C 369.035156 150.546875 371.910156 141.09375 375.613281 126.703125 L 373.148438 118.480469 L 376.433594 103.683594 "/>
<path style=" stroke:none;fill-rule:nonzero;fill:rgb(0%,0%,0%);fill-opacity:1;" d="M 418.777344 174.800781 L 420.421875 183.84375 L 422.066406 190.011719 C 422.476563 191.65625 414.253906 208.921875 397.8125 241.394531 C 430.699219 223.71875 448.785156 213.03125 452.074219 209.742188 C 455.773438 205.632813 457.007813 199.878906 455.773438 193.300781 C 453.308594 183.84375 444.265625 164.113281 428.230469 134.515625 L 426.175781 138.625 L 421.242188 140.269531 "/>
<path style=" stroke:none;fill-rule:nonzero;fill:rgb(0%,0%,0%);fill-opacity:1;" d="M 363.28125 296.070313 C 372.734375 291.550781 385.066406 286.613281 399.867188 280.859375 C 396.988281 274.28125 393.289063 263.183594 388.355469 247.152344 C 386.300781 265.238281 378.078125 281.273438 363.28125 296.070313 "/>
<path style=" stroke:none;fill-rule:nonzero;fill:rgb(0%,0%,0%);fill-opacity:1;" d="M 246.121094 181.378906 L 261.742188 182.199219 C 266.675781 176.445313 269.964844 169.457031 271.195313 161.234375 L 270.375 142.324219 C 269.554688 135.335938 268.320313 131.226563 267.496094 131.226563 C 265.441406 138.214844 258.863281 147.671875 248.179688 159.589844 C 236.253906 172.746094 225.570313 179.734375 216.9375 180.554688 C 212.414063 185.488281 203.78125 189.1875 192.269531 192.476563 C 178.292969 196.175781 162.671875 197.820313 145.816406 197 C 137.59375 197.410156 128.964844 195.765625 119.507813 192.066406 C 112.933594 189.601563 103.476563 185.078125 92.378906 178.5 L 92.789063 196.175781 L 123.207031 217.140625 C 129.785156 220.839844 138.417969 221.664063 149.519531 220.433594 C 158.972656 219.195313 168.015625 216.320313 176.238281 212.210938 C 181.582031 210.566406 193.914063 205.222656 213.234375 196.175781 C 232.144531 187.132813 243.246094 182.199219 246.121094 181.378906 "/>
<path style=" stroke:none;fill-rule:nonzero;fill:rgb(100%,100%,100%);fill-opacity:1;" d="M 140.0625 58.054688 L 161.851563 61.753906 C 158.5625 58.464844 157.328125 54.351563 157.328125 49.832031 C 151.984375 51.066406 145.816406 53.941406 140.0625 58.054688 "/>
<path style=" stroke:none;fill-rule:nonzero;fill:rgb(100%,100%,100%);fill-opacity:1;" d="M 172.128906 44.898438 C 176.648438 51.886719 177.882813 58.464844 176.238281 65.042969 C 179.9375 65.863281 186.105469 67.921875 194.738281 71.207031 C 202.960938 74.496094 208.714844 76.960938 212.003906 79.019531 C 213.644531 79.839844 215.292969 79.019531 215.699219 76.960938 C 216.523438 74.496094 216.113281 72.03125 215.292969 68.742188 C 214.46875 65.042969 212.414063 60.109375 209.535156 53.941406 C 205.835938 46.542969 202.546875 42.019531 200.082031 39.554688 C 193.503906 39.554688 184.050781 41.199219 172.128906 44.898438 "/>
<path style=" stroke:none;fill-rule:nonzero;fill:rgb(100%,100%,100%);fill-opacity:1;" d="M 157.328125 49.832031 L 158.148438 54.355469 C 158.972656 55.996094 160.617188 56.820313 163.496094 55.996094 C 166.78125 53.121094 167.605469 49.832031 165.960938 46.542969 "/>
<path style=" stroke:none;fill-rule:nonzero;fill:rgb(0%,0%,0%);fill-opacity:1;" d="M 166.371094 46.542969 C 166.78125 49.832031 166.371094 52.296875 164.726563 54.765625 C 165.550781 57.230469 167.195313 58.464844 168.839844 58.875 C 170.894531 59.699219 172.128906 58.464844 172.128906 54.765625 C 171.304688 53.121094 171.304688 51.886719 172.539063 50.652344 C 173.773438 49.832031 175.003906 50.652344 176.238281 53.121094 C 175.003906 49.832031 173.773438 46.953125 172.128906 44.898438 "/>
<path style=" stroke:none;fill-rule:nonzero;fill:rgb(64.646912%,22.75238%,21.166992%);fill-opacity:1;" d="M 158.972656 56 L 160.203125 58.875 L 161.851563 61.34375 L 175.828125 64.628906 C 176.648438 64.628906 177.058594 62.984375 177.058594 60.109375 C 177.058594 57.230469 176.648438 54.765625 175.828125 53.121094 C 174.59375 51.476563 173.359375 50.652344 172.949219 51.066406 C 172.128906 51.886719 171.714844 53.945313 172.128906 58.054688 C 171.714844 60.109375 170.480469 60.109375 168.425781 59.285156 C 165.960938 58.054688 164.726563 56.820313 164.316406 55.175781 "/>
<path style=" stroke:none;fill-rule:nonzero;fill:rgb(100%,100%,100%);fill-opacity:1;" d="M 76.753906 37.5 C 72.234375 42.019531 71 48.1875 72.644531 56 L 82.097656 50.242188 "/>
<path style="fill:none;stroke-width:10;stroke-linecap:round;stroke-linejoin:round;stroke:rgb(0%,0%,0%);stroke-opacity:1;stroke-miterlimit:4;" d="M 1996.679688 5148.953125 L 2140.585938 5140.710937 " transform="matrix(0.1,0,0,-0.1,0,554.45)"/>
<path style="fill:none;stroke-width:10;stroke-linecap:round;stroke-linejoin:round;stroke:rgb(0%,0%,0%);stroke-opacity:1;stroke-miterlimit:4;" d="M 1996.679688 5148.953125 L 1803.476563 5116.0625 C 1630.820313 5079.070312 1495.195313 5025.632812 1388.28125 4959.851562 C 1507.5 4951.648437 1639.0625 4926.960937 1782.929688 4885.867187 C 1930.898438 4844.734375 2037.8125 4803.640625 2099.453125 4762.546875 L 2144.6875 4758.40625 C 2161.132813 4766.648437 2165.234375 4787.195312 2161.132813 4815.984375 C 2156.992188 4861.179687 2136.445313 4922.859375 2099.453125 5000.984375 C 2062.460938 5074.96875 2029.609375 5124.304687 1996.679688 5148.953125 " transform="matrix(0.1,0,0,-0.1,0,554.45)"/>
<path style="fill:none;stroke-width:10;stroke-linecap:round;stroke-linejoin:round;stroke:rgb(0%,0%,0%);stroke-opacity:1;stroke-miterlimit:4;" d="M 1618.515625 4931.0625 C 1585.625 4963.953125 1569.179688 5005.046875 1573.28125 5050.28125 " transform="matrix(0.1,0,0,-0.1,0,554.45)"/>
<path style="fill:none;stroke-width:10;stroke-linecap:round;stroke-linejoin:round;stroke:rgb(0%,0%,0%);stroke-opacity:1;stroke-miterlimit:4;" d="M 1762.382813 4898.210937 C 1774.726563 4926.960937 1774.726563 4963.953125 1762.382813 5009.1875 C 1750.039063 5046.179687 1737.695313 5079.070312 1717.148438 5095.515625 " transform="matrix(0.1,0,0,-0.1,0,554.45)"/>
<path style="fill:none;stroke-width:10;stroke-linecap:round;stroke-linejoin:round;stroke:rgb(0%,0%,0%);stroke-opacity:1;stroke-miterlimit:4;" d="M 1659.609375 5083.171875 C 1671.953125 5050.28125 1667.8125 5025.632812 1651.40625 5005.085937 C 1630.859375 4972.195312 1606.171875 4963.953125 1581.484375 4996.84375 " transform="matrix(0.1,0,0,-0.1,0,554.45)"/>
<path style="fill:none;stroke-width:10;stroke-linecap:round;stroke-linejoin:round;stroke:rgb(0%,0%,0%);stroke-opacity:1;stroke-miterlimit:4;" d="M 1762.382813 5009.1875 C 1745.9375 5033.835937 1733.59375 5042.078125 1725.390625 5033.835937 C 1721.289063 5025.632812 1717.148438 5013.289062 1721.289063 4984.5 C 1721.289063 4955.75 1708.945313 4943.40625 1688.398438 4955.75 C 1663.710938 4959.851562 1651.40625 4976.296875 1651.40625 4996.84375 " transform="matrix(0.1,0,0,-0.1,0,554.45)"/>
<path style="fill:none;stroke-width:10;stroke-linecap:round;stroke-linejoin:round;stroke:rgb(0%,0%,0%);stroke-opacity:1;stroke-miterlimit:4;" d="M 1203.320313 5202.390625 C 1219.765625 5140.710937 1252.65625 5074.96875 1306.09375 4996.84375 " transform="matrix(0.1,0,0,-0.1,0,554.45)"/>
<path style="fill:none;stroke-width:10;stroke-linecap:round;stroke-linejoin:round;stroke:rgb(0%,0%,0%);stroke-opacity:1;stroke-miterlimit:4;" d="M 1178.632813 4692.664062 C 1166.328125 4717.3125 1145.742188 4733.757812 1112.851563 4737.859375 L 1047.109375 4725.554687 L 1001.875 4667.976562 L 973.085938 4610.4375 L 952.539063 4589.890625 L 919.648438 4593.992187 C 849.765625 4622.78125 800.429688 4643.328125 767.578125 4647.429687 C 730.546875 4651.53125 636.015625 4626.882812 483.90625 4569.34375 C 446.914063 4552.859375 422.265625 4557 409.921875 4581.648437 L 393.476563 4659.773437 C 393.476563 4692.664062 389.375 4709.109375 385.234375 4704.96875 L 356.484375 4647.429687 " transform="matrix(0.1,0,0,-0.1,0,554.45)"/>
<path style="fill:none;stroke-width:10;stroke-linecap:round;stroke-linejoin:round;stroke:rgb(0%,0%,0%);stroke-opacity:1;stroke-miterlimit:4;" d="M 2411.875 4980.4375 L 2535.234375 5103.757812 L 2687.34375 5214.734375 " transform="matrix(0.1,0,0,-0.1,0,554.45)"/>
<path style="fill:none;stroke-width:10;stroke-linecap:round;stroke-linejoin:round;stroke:rgb(0%,0%,0%);stroke-opacity:1;stroke-miterlimit:4;" d="M 2453.007813 5017.390625 C 2461.210938 5009.1875 2477.65625 4976.296875 2502.34375 4914.65625 L 2563.984375 4783.09375 C 2596.875 4811.882812 2617.421875 4877.625 2637.96875 4984.5 C 2654.414063 5091.414062 2654.414063 5157.195312 2642.109375 5185.945312 " transform="matrix(0.1,0,0,-0.1,0,554.45)"/>
<path style="fill:none;stroke-width:10;stroke-linecap:round;stroke-linejoin:round;stroke:rgb(0%,0%,0%);stroke-opacity:1;stroke-miterlimit:4;" d="M 705.898438 4976.296875 C 783.984375 5013.289062 820.976563 5037.976562 816.875 5046.179687 L 767.539063 5169.5 L 767.539063 5206.492187 L 788.125 5227.078125 L 960.78125 5354.460937 C 1071.757813 5436.6875 1149.882813 5477.820312 1186.875 5490.164062 L 1256.757813 5502.46875 C 1306.09375 5490.164062 1375.9375 5457.273437 1470.507813 5416.140625 " transform="matrix(0.1,0,0,-0.1,0,554.45)"/>
<path style="fill:none;stroke-width:10;stroke-linecap:round;stroke-linejoin:round;stroke:rgb(0%,0%,0%);stroke-opacity:1;stroke-miterlimit:4;" d="M 726.445313 4988.640625 C 714.101563 5058.523437 726.445313 5116.0625 767.578125 5169.5 " transform="matrix(0.1,0,0,-0.1,0,554.45)"/>
<path style="fill:none;stroke-width:10;stroke-linecap:round;stroke-linejoin:round;stroke:rgb(0%,0%,0%);stroke-opacity:1;stroke-miterlimit:4;" d="M 2222.773438 4503.5625 C 2202.226563 4487.117187 2173.476563 4441.882812 2136.445313 4363.796875 C 2091.25 4293.875 2021.367188 4240.476562 1926.835938 4207.585937 C 1893.90625 4199.34375 1852.8125 4203.445312 1811.71875 4223.992187 C 1758.28125 4261.023437 1659.609375 4302.15625 1511.640625 4351.453125 C 1338.945313 4413.132812 1199.21875 4441.882812 1096.445313 4437.78125 L 841.5625 4421.335937 L 685.351563 4388.445312 L 562.03125 4343.210937 L 414.023438 4339.148437 C 335.9375 4392.546875 278.359375 4458.328125 237.265625 4532.3125 C 220.820313 4565.203125 229.023438 4614.539062 266.015625 4684.421875 L 356.484375 4836.53125 C 393.476563 4885.867187 434.570313 4922.859375 471.5625 4943.40625 C 525.039063 4972.195312 611.367188 4992.742187 726.445313 5013.289062 " transform="matrix(0.1,0,0,-0.1,0,554.45)"/>
<path style="fill:none;stroke-width:10;stroke-linecap:round;stroke-linejoin:round;stroke:rgb(0%,0%,0%);stroke-opacity:1;stroke-miterlimit:4;" d="M 2156.992188 4396.6875 C 2399.570313 4351.453125 2403.671875 4129.460937 2169.335938 3734.8125 C 2115.898438 3697.820312 2058.359375 3669.03125 1996.679688 3648.484375 L 1787.03125 3590.945312 C 1519.84375 3566.257812 1326.640625 3574.5 1203.320313 3619.734375 C 1153.984375 3636.179687 1079.960938 3673.171875 985.429688 3730.710937 C 890.898438 3788.289062 821.015625 3833.484375 779.882813 3874.578125 C 738.789063 3919.8125 685.351563 3993.835937 636.015625 4088.367187 C 578.476563 4199.34375 549.6875 4281.570312 549.6875 4335.007812 " transform="matrix(0.1,0,0,-0.1,0,554.45)"/>
<path style="fill:none;stroke-width:10;stroke-linecap:round;stroke-linejoin:round;stroke:rgb(0%,0%,0%);stroke-opacity:1;stroke-miterlimit:4;" d="M 2177.578125 5354.460937 C 2148.789063 5379.148437 2087.148438 5416.140625 1988.476563 5465.476562 C 1881.601563 5518.914062 1815.820313 5539.460937 1795.273438 5539.460937 L 1626.71875 5486.023437 C 1540.390625 5449.03125 1478.710938 5420.28125 1445.859375 5395.59375 " transform="matrix(0.1,0,0,-0.1,0,554.45)"/>
<path style="fill:none;stroke-width:10;stroke-linecap:round;stroke-linejoin:round;stroke:rgb(0%,0%,0%);stroke-opacity:1;stroke-miterlimit:4;" d="M 3024.414063 2378.25 C 3172.382813 2279.617187 3349.140625 2320.710937 3542.382813 2493.367187 C 3809.570313 2735.90625 3916.445313 2986.6875 3871.25 3249.734375 C 3842.460938 3410.085937 3756.132813 3549.851562 3608.164063 3673.171875 L 3369.726563 3825.28125 C 3340.9375 3849.929687 3308.046875 3891.0625 3279.296875 3944.460937 L 2983.28125 4557 C 2929.84375 4672.117187 2892.851563 4746.101562 2872.304688 4783.09375 C 2831.210938 4840.632812 2790.078125 4873.523437 2744.882813 4877.625 C 2802.421875 5033.835937 2827.109375 5144.851562 2822.96875 5202.390625 L 2798.320313 5325.710937 C 2781.875 5375.046875 2765.429688 5407.9375 2740.742188 5424.382812 C 2699.648438 5436.6875 2609.21875 5436.6875 2461.210938 5416.140625 C 2309.101563 5399.695312 2206.367188 5375.046875 2148.828125 5342.15625 " transform="matrix(0.1,0,0,-0.1,0,554.45)"/>
<path style="fill:none;stroke-width:10;stroke-linecap:round;stroke-linejoin:round;stroke:rgb(0%,0%,0%);stroke-opacity:1;stroke-miterlimit:4;" d="M 2329.6875 3179.851562 C 2317.34375 3266.179687 2337.890625 3348.40625 2383.085938 3426.492187 L 2625.664063 3726.609375 C 2674.960938 3792.351562 2703.75 3854.03125 2711.953125 3907.507812 C 2716.09375 3940.359375 2716.09375 4002.039062 2707.890625 4080.125 C 2699.648438 4162.351562 2687.304688 4215.789062 2674.960938 4240.476562 C 2650.3125 4174.695312 2600.976563 4092.46875 2522.890625 3997.898437 C 2407.773438 3858.132812 2292.695313 3771.804687 2169.335938 3734.8125 " transform="matrix(0.1,0,0,-0.1,0,554.45)"/>
<path style="fill:none;stroke-width:10;stroke-linecap:round;stroke-linejoin:round;stroke:rgb(0%,0%,0%);stroke-opacity:1;stroke-miterlimit:4;" d="M 1996.679688 2781.140625 C 2021.367188 2657.78125 2107.695313 2583.796875 2259.765625 2555.007812 C 2337.890625 2546.804687 2399.570313 2563.210937 2453.007813 2604.34375 C 2490 2629.03125 2514.648438 2665.984375 2526.992188 2703.015625 C 2535.195313 2735.90625 2522.890625 2768.796875 2494.101563 2797.585937 C 2461.210938 2834.539062 2416.015625 2863.328125 2350.234375 2887.976562 C 2296.796875 2900.359375 2243.359375 2892.117187 2189.921875 2871.53125 L 1996.679688 2781.140625 " transform="matrix(0.1,0,0,-0.1,0,554.45)"/>
<path style="fill:none;stroke-width:10;stroke-linecap:round;stroke-linejoin:round;stroke:rgb(0%,0%,0%);stroke-opacity:1;stroke-miterlimit:4;" d="M 2033.671875 2805.789062 C 2029.609375 2830.4375 2050.15625 2879.773437 2091.25 2949.65625 L 2165.234375 3072.976562 C 2177.578125 3093.523437 2194.023438 3105.867187 2214.570313 3105.867187 C 2243.359375 3105.867187 2300.898438 3089.421875 2379.023438 3048.328125 C 2407.773438 3035.984375 2424.21875 3011.296875 2424.21875 2974.304687 C 2424.21875 2957.898437 2403.671875 2929.109375 2366.640625 2887.976562 " transform="matrix(0.1,0,0,-0.1,0,554.45)"/>
<path style="fill:none;stroke-width:10;stroke-linecap:round;stroke-linejoin:round;stroke:rgb(0%,0%,0%);stroke-opacity:1;stroke-miterlimit:4;" d="M 2403.671875 2571.453125 L 2440.664063 2485.125 C 2448.867188 2464.578125 2444.765625 2448.132812 2432.421875 2439.890625 L 2383.085938 2402.9375 L 2317.34375 2370.046875 C 2284.453125 2361.804687 2255.703125 2370.046875 2235.117188 2386.492187 L 2161.132813 2476.921875 C 2115.898438 2538.5625 2091.25 2587.898437 2083.007813 2637.234375 " transform="matrix(0.1,0,0,-0.1,0,554.45)"/>
<path style="fill:none;stroke-width:10;stroke-linecap:round;stroke-linejoin:round;stroke:rgb(0%,0%,0%);stroke-opacity:1;stroke-miterlimit:4;" d="M 2313.242188 2361.804687 C 2383.125 2304.265625 2469.414063 2275.476562 2580.429688 2275.476562 C 2687.304688 2275.476562 2777.734375 2300.125 2847.65625 2361.804687 C 2909.296875 2411.140625 2954.53125 2472.820312 2991.523438 2546.804687 C 3028.515625 2633.132812 3040.859375 2723.5625 3032.65625 2809.890625 C 3016.171875 2904.460937 2979.179688 2986.648437 2913.398438 3064.773437 C 2847.65625 3151.101562 2765.429688 3200.398437 2670.859375 3220.945312 L 2432.460938 3216.84375 C 2341.992188 3192.195312 2276.210938 3155.203125 2243.359375 3101.765625 " transform="matrix(0.1,0,0,-0.1,0,554.45)"/>
<path style="fill:none;stroke-width:10;stroke-linecap:round;stroke-linejoin:round;stroke:rgb(0%,0%,0%);stroke-opacity:1;stroke-miterlimit:4;" d="M 2847.65625 2361.804687 C 2938.085938 2345.359375 3024.414063 2365.90625 3110.742188 2423.484375 C 3184.726563 2476.882812 3234.0625 2542.664062 3266.914063 2616.6875 C 3291.601563 2682.46875 3308.046875 2760.554687 3312.148438 2850.984375 C 3320.390625 2962 3303.945313 3056.53125 3266.914063 3138.757812 C 3234.0625 3225.085937 3168.28125 3290.867187 3073.75 3344.304687 C 2983.28125 3393.640625 2896.953125 3414.1875 2802.421875 3418.289062 C 2720.195313 3418.289062 2642.109375 3401.84375 2576.328125 3368.953125 C 2510.546875 3331.960937 2457.109375 3282.625 2428.320313 3220.945312 " transform="matrix(0.1,0,0,-0.1,0,554.45)"/>
<path style="fill:none;stroke-width:10;stroke-linecap:round;stroke-linejoin:round;stroke:rgb(0%,0%,0%);stroke-opacity:1;stroke-miterlimit:4;" d="M 3094.296875 2411.140625 C 3160.078125 2402.9375 3213.515625 2411.140625 3262.851563 2439.929687 C 3320.390625 2472.820312 3390.273438 2542.664062 3476.601563 2649.578125 C 3562.929688 2760.554687 3604.023438 2871.53125 3604.023438 2986.6875 C 3604.023438 3077.078125 3575.234375 3188.09375 3517.695313 3319.617187 C 3472.460938 3430.632812 3386.171875 3516.960937 3266.914063 3574.5 C 3164.140625 3627.9375 3049.0625 3652.625 2921.640625 3652.625 C 2814.726563 3648.484375 2716.09375 3607.390625 2625.664063 3529.304687 C 2547.539063 3463.484375 2498.203125 3385.398437 2481.796875 3307.3125 " transform="matrix(0.1,0,0,-0.1,0,554.45)"/>
<path style="fill:none;stroke-width:10;stroke-linecap:round;stroke-linejoin:round;stroke:rgb(0%,0%,0%);stroke-opacity:1;stroke-miterlimit:4;" d="M 3530.039063 2485.125 C 3534.140625 2431.6875 3550.585938 2390.59375 3575.234375 2357.703125 C 3604.023438 2320.710937 3649.257813 2279.578125 3719.101563 2222.039062 C 3817.8125 2185.046875 3949.335938 2057.625 4117.890625 1843.835937 C 4286.445313 1625.984375 4393.320313 1436.882812 4430.3125 1288.875 C 4479.648438 1058.679687 4401.523438 886.023437 4204.21875 783.25 C 4179.53125 927.117187 4142.539063 1042.234375 4089.101563 1128.5625 L 3945.234375 1334.109375 C 3801.328125 1531.414062 3616.367188 1679.421875 3390.273438 1782.195312 C 3287.5 1827.390625 3234.0625 2008.289062 3234.0625 2324.8125 " transform="matrix(0.1,0,0,-0.1,0,554.45)"/>
<path style="fill:none;stroke-width:10;stroke-linecap:round;stroke-linejoin:round;stroke:rgb(0%,0%,0%);stroke-opacity:1;stroke-miterlimit:4;" d="M 4035.664063 4709.109375 C 4080.898438 4667.976562 4138.4375 4655.632812 4208.320313 4667.976562 C 4270 4680.320312 4306.992188 4700.867187 4331.640625 4733.757812 C 4352.226563 4783.09375 4364.53125 4828.328125 4356.328125 4861.179687 C 4352.226563 4902.3125 4319.296875 4951.648437 4265.898438 5005.085937 C 4212.421875 5042.078125 4163.125 5054.382812 4105.546875 5046.179687 C 4048.007813 5037.976562 4011.015625 5017.390625 3986.328125 4980.4375 C 3920.585938 4881.726562 3936.992188 4795.4375 4035.664063 4709.109375 " transform="matrix(0.1,0,0,-0.1,0,554.45)"/>
<path style="fill:none;stroke-width:10;stroke-linecap:round;stroke-linejoin:round;stroke:rgb(0%,0%,0%);stroke-opacity:1;stroke-miterlimit:4;" d="M 3957.578125 5079.070312 C 3904.101563 5033.835937 3871.210938 4980.398437 3858.90625 4922.859375 L 3731.445313 4359.695312 C 3752.03125 4224.03125 3838.359375 4150.007812 3994.53125 4129.460937 C 4048.007813 4121.21875 4105.546875 4121.21875 4163.125 4129.460937 C 4212.421875 4137.703125 4245.3125 4150.007812 4261.757813 4162.351562 L 4380.976563 4450.125 C 4454.960938 4639.1875 4491.953125 4766.648437 4496.09375 4832.429687 C 4504.296875 4906.414062 4475.546875 4976.296875 4413.867188 5033.835937 C 4352.226563 5095.515625 4274.101563 5128.40625 4179.53125 5144.851562 C 4097.304688 5153.054687 4023.359375 5132.507812 3957.578125 5079.070312 " transform="matrix(0.1,0,0,-0.1,0,554.45)"/>
<path style="fill:none;stroke-width:10;stroke-linecap:round;stroke-linejoin:round;stroke:rgb(0%,0%,0%);stroke-opacity:1;stroke-miterlimit:4;" d="M 4483.75 4762.546875 C 4442.617188 4680.320312 4380.976563 4626.882812 4311.09375 4593.992187 C 4241.210938 4565.203125 4171.328125 4561.101562 4101.445313 4577.546875 C 4031.5625 4598.09375 3973.984375 4639.1875 3932.890625 4696.765625 C 3883.554688 4762.546875 3858.90625 4840.632812 3863.007813 4935.203125 " transform="matrix(0.1,0,0,-0.1,0,554.45)"/>
<path style="fill:none;stroke-width:10;stroke-linecap:round;stroke-linejoin:round;stroke:rgb(0%,0%,0%);stroke-opacity:1;stroke-miterlimit:4;" d="M 3460.15625 3780.046875 L 3521.835938 3870.515625 L 3562.929688 3903.367187 C 3604.023438 3915.710937 3636.914063 3944.460937 3665.703125 3989.695312 C 3690.351563 4030.828125 3719.101563 4129.460937 3756.132813 4281.570312 " transform="matrix(0.1,0,0,-0.1,0,554.45)"/>
<path style="fill:none;stroke-width:10;stroke-linecap:round;stroke-linejoin:round;stroke:rgb(0%,0%,0%);stroke-opacity:1;stroke-miterlimit:4;" d="M 3982.226563 3130.554687 L 4208.320313 3611.492187 L 4220.664063 3636.179687 C 4220.664063 3648.484375 4212.421875 3669.03125 4204.21875 3697.820312 C 4191.875 3730.710937 4187.773438 3804.695312 4191.875 3923.914062 C 4200.117188 4030.828125 4204.21875 4104.773437 4212.421875 4141.804687 " transform="matrix(0.1,0,0,-0.1,0,554.45)"/>
<path style="fill:none;stroke-width:10;stroke-linecap:round;stroke-linejoin:round;stroke:rgb(0%,0%,0%);stroke-opacity:1;stroke-miterlimit:4;" d="M 3546.484375 3726.609375 C 3530.039063 3788.289062 3530.039063 3841.726562 3542.34375 3891.023437 " transform="matrix(0.1,0,0,-0.1,0,554.45)"/>
<path style="fill:none;stroke-width:10;stroke-linecap:round;stroke-linejoin:round;stroke:rgb(0%,0%,0%);stroke-opacity:1;stroke-miterlimit:4;" d="M 4216.523438 3660.828125 C 4175.429688 3578.601562 4109.648438 3516.960937 4019.21875 3488.171875 C 3924.6875 3455.28125 3838.359375 3463.523437 3756.132813 3512.859375 " transform="matrix(0.1,0,0,-0.1,0,554.45)"/>
<path style="fill:none;stroke-width:10;stroke-linecap:round;stroke-linejoin:round;stroke:rgb(0%,0%,0%);stroke-opacity:1;stroke-miterlimit:4;" d="M 3879.453125 3072.976562 C 4278.203125 3294.96875 4491.953125 3414.1875 4508.398438 3434.734375 L 4545.390625 3475.867187 C 4553.632813 3492.273437 4561.835938 3512.859375 4561.835938 3537.507812 C 4565.976563 3586.804687 4528.984375 3697.820312 4450.859375 3870.515625 L 4282.304688 4203.445312 " transform="matrix(0.1,0,0,-0.1,0,554.45)"/>
<path style="fill:none;stroke-width:10;stroke-linecap:round;stroke-linejoin:round;stroke:rgb(0%,0%,0%);stroke-opacity:1;stroke-miterlimit:4;" d="M 3764.335938 4511.765625 L 3213.515625 4199.34375 C 3205.273438 4195.242187 3197.070313 4199.34375 3184.726563 4211.6875 L 3098.398438 4335.007812 C 3086.054688 4351.453125 3180.625 4413.09375 3386.171875 4515.867187 C 3562.929688 4606.335937 3706.796875 4672.117187 3809.570313 4713.210937 " transform="matrix(0.1,0,0,-0.1,0,554.45)"/>
<path style="fill:none;stroke-width:10;stroke-linecap:round;stroke-linejoin:round;stroke:rgb(0%,0%,0%);stroke-opacity:1;stroke-miterlimit:4;" d="M 3628.710938 2579.695312 L 4048.007813 2752.351562 C 4274.101563 2846.882812 4397.421875 2900.320312 4417.96875 2916.765625 C 4450.859375 2941.453125 4508.398438 3027.78125 4598.867188 3171.648437 C 4693.398438 3331.960937 4738.632813 3434.734375 4734.492188 3488.171875 C 4718.085938 3673.171875 4660.507813 3870.476562 4565.976563 4080.125 C 4487.851563 4252.78125 4422.070313 4363.796875 4368.632813 4408.992187 " transform="matrix(0.1,0,0,-0.1,0,554.45)"/>
<path style="fill:none;stroke-width:10;stroke-linecap:round;stroke-linejoin:round;stroke:rgb(0%,0%,0%);stroke-opacity:1;stroke-miterlimit:4;" d="M 3998.671875 2740.007812 C 3957.578125 2813.992187 3920.585938 2925.007812 3883.554688 3072.976562 " transform="matrix(0.1,0,0,-0.1,0,554.45)"/>
<path style="fill:none;stroke-width:10;stroke-linecap:round;stroke-linejoin:round;stroke:rgb(0%,0%,0%);stroke-opacity:1;stroke-miterlimit:4;" d="M 4685.15625 3336.101562 C 4652.304688 3282.625 4533.085938 3196.296875 4331.640625 3081.21875 C 4158.984375 2982.546875 4027.421875 2920.90625 3945.234375 2887.976562 " transform="matrix(0.1,0,0,-0.1,0,554.45)"/>
<path style="fill:none;stroke-width:10;stroke-linecap:round;stroke-linejoin:round;stroke:rgb(0%,0%,0%);stroke-opacity:1;stroke-miterlimit:4;" d="M 4430.3125 1288.875 C 4574.179688 1625.984375 4627.617188 1975.398437 4586.523438 2337.15625 C 4561.835938 2563.25 4508.398438 2756.453125 4430.3125 2920.867187 " transform="matrix(0.1,0,0,-0.1,0,554.45)"/>
<path style="fill:none;stroke-width:10;stroke-linecap:round;stroke-linejoin:round;stroke:rgb(0%,0%,0%);stroke-opacity:1;stroke-miterlimit:4;" d="M 4594.765625 2254.929687 C 4635.859375 2378.25 4648.164063 2534.460937 4627.617188 2719.460937 C 4615.273438 2859.226562 4586.523438 2982.546875 4549.53125 3093.523437 " transform="matrix(0.1,0,0,-0.1,0,554.45)"/>
<path style="fill:none;stroke-width:10;stroke-linecap:round;stroke-linejoin:round;stroke:rgb(0%,0%,0%);stroke-opacity:1;stroke-miterlimit:4;" d="M 2674.960938 4240.476562 C 2674.960938 4289.773437 2666.757813 4347.3125 2650.3125 4417.234375 C 2638.007813 4478.875 2633.867188 4528.210937 2638.007813 4573.445312 L 2740.742188 4873.523437 " transform="matrix(0.1,0,0,-0.1,0,554.45)"/>
<g clip-path="url(#clip2)" clip-rule="nonzero">
<path style="fill:none;stroke-width:10;stroke-linecap:round;stroke-linejoin:round;stroke:rgb(0%,0%,0%);stroke-opacity:1;stroke-miterlimit:4;" d="M 4204.21875 783.25 C 4212.421875 516.0625 4109.648438 322.859375 3904.101563 203.640625 C 3879.453125 162.507812 3801.328125 117.3125 3669.804688 63.875 C 3513.59375 2.195312 3398.476563 -10.148438 3312.148438 22.742187 C 3234.0625 55.632812 3188.828125 104.96875 3172.382813 162.507812 L 3168.28125 220.046875 C 3168.28125 240.632812 3168.28125 248.835937 3164.140625 248.835937 L 2798.28125 215.945312 C 2785.976563 220.046875 2790.078125 244.734375 2806.523438 281.726562 C 2822.96875 322.859375 2859.960938 363.953125 2917.5 405.046875 C 2954.53125 433.835937 2987.382813 454.382812 3012.070313 462.585937 C 2909.296875 639.382812 2839.414063 787.390625 2802.421875 906.609375 C 2748.984375 1083.328125 2736.640625 1264.226562 2761.328125 1445.125 C 2781.875 1601.296875 2851.757813 1732.859375 2966.835938 1835.632812 C 3061.40625 1917.859375 3164.140625 1967.15625 3266.914063 1983.601562 " transform="matrix(0.1,0,0,-0.1,0,554.45)"/>
</g>
<path style="fill:none;stroke-width:10;stroke-linecap:round;stroke-linejoin:round;stroke:rgb(0%,0%,0%);stroke-opacity:1;stroke-miterlimit:4;" d="M 3184.726563 281.726562 C 3172.382813 318.71875 3147.734375 355.710937 3110.742188 396.84375 C 3069.648438 433.835937 3040.859375 458.523437 3012.070313 462.585937 " transform="matrix(0.1,0,0,-0.1,0,554.45)"/>
<path style="fill:none;stroke-width:10;stroke-linecap:round;stroke-linejoin:round;stroke:rgb(0%,0%,0%);stroke-opacity:1;stroke-miterlimit:4;" d="M 3908.242188 207.742187 C 3883.554688 298.171875 3797.265625 388.601562 3657.460938 483.132812 C 3612.265625 511.921875 3567.03125 524.265625 3513.59375 524.265625 L 3423.164063 507.820312 L 3283.398438 392.742187 C 3205.273438 322.859375 3168.28125 273.523437 3168.28125 252.976562 " transform="matrix(0.1,0,0,-0.1,0,554.45)"/>
<path style="fill:none;stroke-width:10;stroke-linecap:round;stroke-linejoin:round;stroke:rgb(0%,0%,0%);stroke-opacity:1;stroke-miterlimit:4;" d="M 4191.875 594.148437 C 4249.453125 577.703125 4306.992188 516.0625 4360.429688 421.492187 C 4409.765625 335.203125 4430.3125 277.625 4426.210938 244.734375 C 4422.070313 195.398437 4401.523438 174.851562 4360.429688 191.296875 L 4208.320313 232.390625 L 3998.671875 261.179687 " transform="matrix(0.1,0,0,-0.1,0,554.45)"/>
<g clip-path="url(#clip3)" clip-rule="nonzero">
<path style="fill:none;stroke-width:10;stroke-linecap:round;stroke-linejoin:round;stroke:rgb(0%,0%,0%);stroke-opacity:1;stroke-miterlimit:4;" d="M 4442.65625 1214.890625 C 4483.75 1120.359375 4549.53125 1025.789062 4648.164063 927.117187 C 4755.078125 816.140625 4874.257813 733.914062 4997.578125 684.617187 C 5034.609375 664.070312 5034.609375 639.382812 5001.71875 610.59375 C 4981.171875 594.148437 4940.039063 569.5 4874.257813 536.609375 C 4824.960938 516.0625 4726.289063 503.71875 4574.179688 503.71875 C 4430.3125 503.71875 4331.640625 516.0625 4286.445313 532.507812 " transform="matrix(0.1,0,0,-0.1,0,554.45)"/>
</g>
<path style="fill:none;stroke-width:10;stroke-linecap:round;stroke-linejoin:round;stroke:rgb(0%,0%,0%);stroke-opacity:1;stroke-miterlimit:4;" d="M 3957.578125 1313.5625 C 3953.4375 1214.890625 3932.890625 1132.664062 3904.101563 1071.023437 C 3887.695313 1042.234375 3854.804688 1001.101562 3797.265625 943.5625 C 3739.6875 886.023437 3694.492188 853.132812 3661.5625 836.6875 C 3567.03125 795.59375 3484.804688 742.15625 3410.820313 672.273437 C 3328.59375 598.289062 3234.0625 581.84375 3114.84375 614.695312 C 3028.515625 639.382812 2929.84375 725.710937 2822.96875 865.476562 " transform="matrix(0.1,0,0,-0.1,0,554.45)"/>
<path style="fill:none;stroke-width:10;stroke-linecap:round;stroke-linejoin:round;stroke:rgb(0%,0%,0%);stroke-opacity:1;stroke-miterlimit:4;" d="M 2773.632813 1025.789062 C 2687.34375 997 2551.640625 980.554687 2366.679688 984.695312 C 2181.679688 988.796875 2017.265625 1009.34375 1865.15625 1046.335937 C 1717.1875 1083.328125 1552.734375 1186.101562 1384.179688 1354.65625 C 1207.421875 1527.3125 1084.101563 1708.171875 1014.21875 1897.273437 " transform="matrix(0.1,0,0,-0.1,0,554.45)"/>
<path style="fill:none;stroke-width:10;stroke-linecap:round;stroke-linejoin:round;stroke:rgb(0%,0%,0%);stroke-opacity:1;stroke-miterlimit:4;" d="M 2896.953125 668.132812 C 2748.984375 672.273437 2576.328125 701.0625 2387.226563 762.703125 C 2156.992188 832.585937 1988.476563 927.117187 1885.703125 1038.132812 " transform="matrix(0.1,0,0,-0.1,0,554.45)"/>
<path style="fill:none;stroke-width:10;stroke-linecap:round;stroke-linejoin:round;stroke:rgb(0%,0%,0%);stroke-opacity:1;stroke-miterlimit:4;" d="M 923.789063 3763.601562 C 931.992188 3681.375 931.992188 3619.734375 923.789063 3578.640625 C 911.445313 3545.710937 899.101563 3516.960937 895 3488.171875 C 927.851563 3393.640625 940.195313 3270.28125 931.992188 3122.3125 C 927.851563 2953.757812 899.101563 2801.6875 841.5625 2665.984375 C 804.570313 2559.148437 808.671875 2415.242187 845.664063 2234.382812 C 886.757813 2057.625 931.992188 1950.710937 993.632813 1909.617187 C 1075.859375 1860.28125 1219.765625 1806.84375 1425.273438 1749.304687 C 1733.59375 1667.078125 2021.367188 1646.53125 2296.796875 1683.523437 C 2572.226563 1720.515625 2798.28125 1782.195312 2983.28125 1876.765625 C 3049.0625 1909.617187 3139.492188 1971.296875 3250.507813 2057.625 " transform="matrix(0.1,0,0,-0.1,0,554.45)"/>
<path style="fill:none;stroke-width:10;stroke-linecap:round;stroke-linejoin:round;stroke:rgb(0%,0%,0%);stroke-opacity:1;stroke-miterlimit:4;" d="M 2933.984375 1802.742187 C 2888.75 1778.054687 2806.523438 1745.203125 2687.304688 1716.414062 C 2543.4375 1675.28125 2383.085938 1642.429687 2202.226563 1621.882812 C 2029.609375 1597.195312 1799.375 1617.742187 1519.84375 1687.625 C 1281.40625 1741.0625 1121.09375 1794.539062 1034.765625 1843.835937 " transform="matrix(0.1,0,0,-0.1,0,554.45)"/>
<path style="fill:none;stroke-width:10;stroke-linecap:round;stroke-linejoin:round;stroke:rgb(0%,0%,0%);stroke-opacity:1;stroke-miterlimit:4;" d="M 2103.59375 2567.351562 C 2070.703125 2546.804687 2009.023438 2526.257812 1918.59375 2497.46875 C 1791.132813 2460.476562 1667.8125 2435.789062 1548.632813 2423.484375 C 1429.414063 2415.242187 1285.546875 2444.03125 1112.851563 2513.914062 C 989.53125 2567.351562 899.101563 2616.6875 841.5625 2657.78125 " transform="matrix(0.1,0,0,-0.1,0,554.45)"/>
<path style="fill:none;stroke-width:10;stroke-linecap:round;stroke-linejoin:round;stroke:rgb(0%,0%,0%);stroke-opacity:1;stroke-miterlimit:4;" d="M 2070.703125 2641.335937 C 2037.8125 2620.789062 1963.828125 2596.140625 1848.710938 2563.25 C 1713.046875 2526.257812 1589.726563 2513.914062 1478.710938 2513.914062 C 1371.875 2518.015625 1244.414063 2546.804687 1104.648438 2608.445312 C 985.429688 2657.78125 911.445313 2698.914062 870.3125 2735.90625 " transform="matrix(0.1,0,0,-0.1,0,554.45)"/>
<path style="fill:none;stroke-width:10;stroke-linecap:round;stroke-linejoin:round;stroke:rgb(0%,0%,0%);stroke-opacity:1;stroke-miterlimit:4;" d="M 2617.421875 3718.40625 C 2547.539063 3755.398437 2444.765625 3738.914062 2309.101563 3664.96875 L 1992.578125 3516.960937 C 1824.0625 3438.875 1704.804688 3389.539062 1639.0625 3368.953125 C 1577.382813 3344.304687 1503.398438 3336.101562 1421.171875 3336.101562 C 1351.289063 3340.164062 1289.648438 3348.40625 1244.414063 3368.953125 C 1211.523438 3381.296875 1158.085938 3418.289062 1071.757813 3479.96875 C 993.671875 3541.648437 944.335938 3574.5 923.789063 3578.640625 " transform="matrix(0.1,0,0,-0.1,0,554.45)"/>
<path style="fill:none;stroke-width:10;stroke-linecap:round;stroke-linejoin:round;stroke:rgb(0%,0%,0%);stroke-opacity:1;stroke-miterlimit:4;" d="M 2572.226563 3660.828125 C 2506.445313 3664.96875 2428.320313 3644.382812 2333.789063 3595.046875 L 1844.609375 3364.851562 C 1692.5 3307.3125 1528.046875 3274.421875 1351.289063 3266.21875 C 1306.09375 3262.078125 1244.414063 3278.523437 1166.328125 3315.515625 C 1116.992188 3344.304687 1071.757813 3368.953125 1034.765625 3397.742187 L 977.226563 3459.421875 C 956.640625 3479.96875 931.992188 3492.273437 895 3488.171875 " transform="matrix(0.1,0,0,-0.1,0,554.45)"/>
<path style="fill:none;stroke-width:10;stroke-linecap:round;stroke-linejoin:round;stroke:rgb(0%,0%,0%);stroke-opacity:1;stroke-miterlimit:4;" d="M 640.117188 3788.289062 L 525.039063 3928.054687 L 496.25 3932.15625 L 463.359375 3940.359375 L 200.273438 4215.789062 C 187.929688 4236.375 179.726563 4256.921875 183.828125 4273.367187 L 196.171875 4326.765625 C 204.375 4347.3125 241.367188 4384.34375 307.148438 4437.78125 " transform="matrix(0.1,0,0,-0.1,0,554.45)"/>
<path style="fill:none;stroke-width:10;stroke-linecap:round;stroke-linejoin:round;stroke:rgb(0%,0%,0%);stroke-opacity:1;stroke-miterlimit:4;" d="M 611.328125 4133.5625 L 529.140625 4051.375 C 500.351563 4006.140625 479.804688 3973.25 471.5625 3944.460937 " transform="matrix(0.1,0,0,-0.1,0,554.45)"/>
<path style="fill:none;stroke-width:10;stroke-linecap:round;stroke-linejoin:round;stroke:rgb(0%,0%,0%);stroke-opacity:1;stroke-miterlimit:4;" d="M 640.117188 4080.125 C 582.578125 4047.234375 545.585938 4002.039062 525.039063 3936.257812 " transform="matrix(0.1,0,0,-0.1,0,554.45)"/>
<path style="fill:none;stroke-width:10;stroke-linecap:round;stroke-linejoin:round;stroke:rgb(0%,0%,0%);stroke-opacity:1;stroke-miterlimit:4;" d="M 438.710938 2892.117187 C 385.234375 2875.671875 335.9375 2863.367187 290.703125 2859.226562 C 253.710938 2855.125 208.476563 2863.367187 159.140625 2887.976562 C 101.601563 2912.664062 72.851563 2941.453125 76.953125 2970.203125 C 85.15625 3023.640625 105.703125 3081.21875 134.492188 3138.757812 L 179.6875 3171.648437 C 257.8125 3183.992187 344.140625 3159.304687 442.8125 3093.523437 C 529.140625 3035.984375 570.234375 2990.75 570.234375 2962 C 553.789063 2937.3125 508.554688 2916.765625 438.710938 2892.117187 " transform="matrix(0.1,0,0,-0.1,0,554.45)"/>
<path style="fill:none;stroke-width:10;stroke-linecap:round;stroke-linejoin:round;stroke:rgb(0%,0%,0%);stroke-opacity:1;stroke-miterlimit:4;" d="M 327.695313 2863.328125 C 335.9375 2842.78125 360.585938 2813.992187 397.578125 2777 L 471.5625 2690.671875 L 261.914063 2600.242187 C 224.921875 2583.796875 183.828125 2587.898437 142.734375 2608.445312 C 101.601563 2633.132812 72.8125 2698.914062 48.164063 2801.6875 C 39.921875 2834.578125 56.367188 2875.671875 97.5 2920.867187 " transform="matrix(0.1,0,0,-0.1,0,554.45)"/>
<path style="fill:none;stroke-width:10;stroke-linecap:round;stroke-linejoin:round;stroke:rgb(0%,0%,0%);stroke-opacity:1;stroke-miterlimit:4;" d="M 270.15625 2600.242187 L 422.265625 2546.804687 L 307.148438 2435.789062 C 282.460938 2411.140625 253.710938 2398.796875 220.820313 2394.695312 C 192.03125 2394.695312 163.28125 2402.9375 134.492188 2415.242187 C 113.945313 2431.726562 89.257813 2456.335937 60.507813 2493.367187 C 35.820313 2526.257812 19.375 2559.109375 11.171875 2583.796875 C -5.273438 2641.335937 11.171875 2694.773437 60.507813 2748.210937 " transform="matrix(0.1,0,0,-0.1,0,554.45)"/>
<path style="fill:none;stroke-width:10;stroke-linecap:round;stroke-linejoin:round;stroke:rgb(0%,0%,0%);stroke-opacity:1;stroke-miterlimit:4;" d="M 183.828125 2394.695312 C 216.71875 2361.804687 241.367188 2349.5 253.710938 2349.5 L 385.234375 2370.046875 C 467.460938 2382.351562 525.039063 2402.9375 562.03125 2423.484375 C 607.226563 2448.132812 644.21875 2497.46875 668.90625 2567.351562 C 693.554688 2633.132812 701.796875 2694.773437 697.65625 2752.351562 C 685.351563 2912.664062 644.21875 3040.085937 574.335938 3134.65625 C 537.34375 3179.851562 479.804688 3208.640625 401.679688 3208.640625 C 344.140625 3212.742187 286.601563 3200.4375 220.820313 3175.75 " transform="matrix(0.1,0,0,-0.1,0,554.45)"/>
<path style="fill:none;stroke-width:10;stroke-linecap:round;stroke-linejoin:round;stroke:rgb(0%,0%,0%);stroke-opacity:1;stroke-miterlimit:4;" d="M 858.007813 2719.460937 C 882.65625 2863.328125 890.898438 2957.898437 886.757813 3007.234375 C 878.554688 3105.867187 829.21875 3183.992187 746.992188 3237.390625 C 631.914063 3294.96875 529.140625 3327.859375 446.914063 3327.859375 C 418.125 3327.859375 389.375 3323.757812 364.6875 3303.171875 L 208.476563 3179.851562 " transform="matrix(0.1,0,0,-0.1,0,554.45)"/>
<path style="fill:none;stroke-width:10;stroke-linecap:round;stroke-linejoin:round;stroke:rgb(0%,0%,0%);stroke-opacity:1;stroke-miterlimit:4;" d="M 821.015625 2575.59375 C 788.125 2505.671875 738.789063 2460.476562 664.804688 2427.585937 C 615.46875 2402.9375 562.03125 2394.695312 504.453125 2398.796875 " transform="matrix(0.1,0,0,-0.1,0,554.45)"/>
<path style="fill:none;stroke-width:10;stroke-linecap:round;stroke-linejoin:round;stroke:rgb(0%,0%,0%);stroke-opacity:1;stroke-miterlimit:4;" d="M 845.664063 3146.960937 C 845.664063 3216.84375 821.015625 3315.554687 771.679688 3442.9375 C 730.546875 3553.953125 701.796875 3619.734375 681.210938 3644.382812 C 664.804688 3673.171875 619.570313 3681.375 557.890625 3677.273437 C 512.695313 3673.171875 463.359375 3619.734375 397.578125 3504.617187 L 344.140625 3401.84375 C 331.796875 3373.054687 327.695313 3331.960937 335.9375 3290.867187 " transform="matrix(0.1,0,0,-0.1,0,554.45)"/>
<path style="fill:none;stroke-width:10;stroke-linecap:round;stroke-linejoin:round;stroke:rgb(0%,0%,0%);stroke-opacity:1;stroke-miterlimit:4;" d="M 541.484375 3677.273437 C 574.335938 3685.515625 611.328125 3730.710937 652.460938 3808.835937 C 685.351563 3878.71875 705.898438 3928.054687 705.898438 3965.046875 " transform="matrix(0.1,0,0,-0.1,0,554.45)"/>
<path style="fill:none;stroke-width:10;stroke-linecap:round;stroke-linejoin:round;stroke:rgb(0%,0%,0%);stroke-opacity:1;stroke-miterlimit:4;" d="M 1655.507813 1132.664062 C 1663.710938 1079.226562 1622.617188 1001.140625 1528.046875 902.46875 C 1429.414063 795.59375 1326.640625 717.46875 1211.523438 672.273437 C 1158.085938 651.6875 1104.648438 655.828125 1047.109375 688.679687 L 829.21875 861.335937 L 763.4375 939.460937 C 738.789063 988.796875 722.34375 1062.78125 714.101563 1165.554687 C 705.898438 1313.5625 821.015625 1519.109375 1063.554688 1782.195312 " transform="matrix(0.1,0,0,-0.1,0,554.45)"/>
<path style="fill:none;stroke-width:10;stroke-linecap:round;stroke-linejoin:round;stroke:rgb(0%,0%,0%);stroke-opacity:1;stroke-miterlimit:4;" d="M 915.546875 1621.84375 C 829.21875 1667.078125 742.890625 1794.539062 660.664063 2000.046875 C 590.78125 2164.5 549.6875 2296.023437 537.34375 2394.695312 " transform="matrix(0.1,0,0,-0.1,0,554.45)"/>
<path style="fill:none;stroke-width:10;stroke-linecap:round;stroke-linejoin:round;stroke:rgb(0%,0%,0%);stroke-opacity:1;stroke-miterlimit:4;" d="M 1614.375 203.640625 C 1643.164063 220.046875 1647.265625 252.976562 1618.515625 310.515625 C 1597.96875 355.75 1573.28125 388.601562 1548.59375 413.289062 L 1495.195313 454.382812 C 1466.40625 470.828125 1429.414063 466.726562 1380.078125 446.179687 C 1326.640625 421.492187 1273.203125 359.851562 1219.765625 265.28125 C 1166.289063 174.851562 1145.742188 104.96875 1162.1875 55.632812 C 1215.625 51.53125 1297.851563 72.078125 1408.867188 113.171875 L 1614.375 203.640625 " transform="matrix(0.1,0,0,-0.1,0,554.45)"/>
<path style="fill:none;stroke-width:10;stroke-linecap:round;stroke-linejoin:round;stroke:rgb(0%,0%,0%);stroke-opacity:1;stroke-miterlimit:4;" d="M 1380.078125 446.179687 C 1314.296875 503.71875 1223.867188 540.710937 1104.648438 557.15625 L 804.570313 544.8125 C 726.445313 524.265625 648.359375 479.070312 566.132813 405.046875 C 504.453125 347.507812 459.257813 298.171875 426.367188 248.835937 C 397.578125 199.5 426.367188 170.75 516.796875 166.648437 L 1207.421875 252.976562 " transform="matrix(0.1,0,0,-0.1,0,554.45)"/>
<path style="fill:none;stroke-width:10;stroke-linecap:round;stroke-linejoin:round;stroke:rgb(0%,0%,0%);stroke-opacity:1;stroke-miterlimit:4;" d="M 849.765625 561.257812 C 853.90625 581.84375 858.007813 622.9375 858.007813 684.617187 C 858.007813 746.257812 849.765625 799.695312 845.664063 840.789062 " transform="matrix(0.1,0,0,-0.1,0,554.45)"/>
<path style="fill:none;stroke-width:10;stroke-linecap:round;stroke-linejoin:round;stroke:rgb(0%,0%,0%);stroke-opacity:1;stroke-miterlimit:4;" d="M 2350.234375 775.007812 C 2309.101563 742.15625 2284.453125 709.226562 2272.148438 676.375 L 2243.359375 569.5 L 1955.585938 351.609375 L 1634.960938 269.421875 " transform="matrix(0.1,0,0,-0.1,0,554.45)"/>
<path style="fill:none;stroke-width:10;stroke-linecap:round;stroke-linejoin:round;stroke:rgb(0%,0%,0%);stroke-opacity:1;stroke-miterlimit:4;" d="M 2247.460938 569.5 C 2288.554688 561.257812 2337.890625 499.617187 2403.671875 388.601562 C 2407.773438 376.296875 2411.875 368.054687 2407.773438 355.75 C 2399.570313 347.507812 2395.46875 343.40625 2383.125 343.40625 L 1980.234375 359.851562 " transform="matrix(0.1,0,0,-0.1,0,554.45)"/>
<path style="fill:none;stroke-width:10;stroke-linecap:round;stroke-linejoin:round;stroke:rgb(0%,0%,0%);stroke-opacity:1;stroke-miterlimit:4;" d="M 3595.78125 4622.78125 C 3484.804688 4741.960937 3217.617188 4873.523437 2790.078125 5005.085937 " transform="matrix(0.1,0,0,-0.1,0,554.45)"/>
<path style="fill:none;stroke-width:10;stroke-linecap:round;stroke-linejoin:round;stroke:rgb(0%,0%,0%);stroke-opacity:1;stroke-miterlimit:4;" d="M 1145.742188 5473.71875 C 1125.195313 5498.367187 1063.554688 5510.710937 956.640625 5510.710937 L 788.125 5510.710937 C 755.234375 5510.710937 738.789063 5498.367187 738.789063 5469.617187 C 718.242188 5292.820312 714.101563 5165.398437 722.34375 5095.515625 " transform="matrix(0.1,0,0,-0.1,0,554.45)"/>
</g>
</svg>
