<?xml version="1.0" encoding="UTF-8"?>
<svg xmlns="http://www.w3.org/2000/svg" xmlns:xlink="http://www.w3.org/1999/xlink" width="549.46pt" height="525.32pt" viewBox="0 0 549.46 525.32" version="1.1">
<defs>
<clipPath id="clip1">
  <path d="M 300 505 L 334 505 L 334 525.320313 L 300 525.320313 Z M 300 505 "/>
</clipPath>
<clipPath id="clip2">
  <path d="M 379 140 L 549.460938 140 L 549.460938 436 L 379 436 Z M 379 140 "/>
</clipPath>
</defs>
<g id="surface1">
<path style=" stroke:none;fill-rule:nonzero;fill:rgb(100%,91.014099%,24.31488%);fill-opacity:1;" d="M 441.085938 88.46875 C 441.085938 93.078125 440.703125 96.148438 440.316406 96.914063 L 439.167969 99.605469 C 438.398438 100.371094 437.628906 100.371094 436.863281 99.222656 C 432.253906 95.382813 429.566406 91.925781 429.566406 90.007813 C 429.1875 94.613281 429.566406 99.605469 430.335938 104.980469 L 430.71875 111.121094 L 431.871094 117.261719 L 433.789063 119.566406 C 434.558594 119.953125 434.945313 120.71875 434.945313 121.488281 C 436.09375 127.628906 436.09375 132.617188 434.945313 136.457031 C 434.558594 137.996094 433.40625 139.148438 431.488281 139.914063 C 430.335938 140.296875 427.648438 139.914063 423.8125 138.378906 C 423.042969 140.683594 422.65625 144.136719 423.042969 149.128906 C 423.429688 153.734375 423.042969 157.574219 421.890625 159.878906 L 420.355469 160.644531 L 419.972656 174.082031 C 419.972656 179.070313 420.734375 183.296875 422.65625 186.75 L 427.648438 197.117188 C 428.800781 200.1875 430.335938 202.105469 433.023438 203.257813 L 452.222656 207.863281 L 456.058594 204.796875 C 458.363281 203.257813 462.582031 203.257813 468.34375 204.796875 C 473.71875 206.328125 479.09375 206.328125 484.46875 204.796875 C 486.773438 203.640625 488.304688 201.722656 488.691406 198.652344 L 489.839844 190.203125 C 490.609375 188.285156 492.144531 187.519531 494.832031 187.519531 L 501.742188 187.519531 C 502.128906 187.519531 503.277344 186.367188 505.195313 184.0625 L 501.742188 159.109375 C 501.742188 155.652344 500.207031 152.199219 497.515625 149.894531 L 495.214844 149.128906 C 491.757813 145.675781 489.074219 141.449219 487.535156 136.839844 L 486.386719 123.789063 L 484.078125 122.253906 C 479.09375 121.871094 474.867188 119.953125 471.796875 116.878906 C 465.273438 108.820313 460.28125 103.828125 456.441406 101.90625 L 450.683594 101.140625 C 448.382813 101.523438 446.84375 100.757813 446.464844 99.988281 L 445.691406 92.308594 C 445.308594 89.621094 443.769531 88.089844 441.085938 88.46875 "/>
<path style=" stroke:none;fill-rule:nonzero;fill:rgb(100%,54.101563%,4.315186%);fill-opacity:1;" d="M 449.914063 30.117188 C 449.527344 29.734375 447.996094 28.199219 445.308594 24.742188 L 444.15625 19.367188 L 441.46875 17.445313 L 441.46875 28.582031 C 441.46875 32.804688 441.085938 36.261719 440.316406 38.945313 C 435.328125 38.945313 432.640625 38.179688 431.105469 36.261719 C 428.800781 32.804688 427.265625 28.964844 425.730469 24.359375 L 421.890625 12.074219 L 421.890625 32.421875 C 421.507813 37.796875 419.972656 42.785156 417.667969 47.777344 C 416.515625 49.695313 413.058594 52.765625 406.917969 57.375 C 405.378906 59.292969 404.613281 61.214844 404.613281 63.898438 L 404.230469 97.683594 L 402.695313 97.683594 C 401.15625 103.058594 401.539063 109.203125 402.695313 116.496094 L 405.378906 119.179688 C 410.375 122.253906 414.214844 124.558594 417.667969 125.710938 L 421.121094 129.933594 C 421.507813 132.617188 421.507813 135.308594 421.121094 138.378906 L 419.203125 140.296875 L 414.976563 140.679688 L 411.140625 139.914063 L 405.378906 134.15625 L 405.378906 154.117188 C 405.378906 162.179688 405.765625 168.707031 406.917969 174.082031 L 408.070313 177.152344 L 409.992188 180.605469 C 411.140625 183.296875 413.058594 186.367188 416.132813 190.203125 L 423.042969 199.800781 L 429.1875 206.714844 L 434.945313 207.480469 L 443.007813 210.167969 L 444.15625 211.703125 L 447.996094 211.703125 L 452.222656 207.863281 L 433.023438 203.257813 C 430.335938 202.105469 428.800781 200.1875 427.648438 197.117188 L 422.65625 186.75 C 420.734375 183.296875 419.972656 179.070313 419.972656 174.082031 L 420.355469 160.644531 L 421.890625 159.878906 C 423.042969 157.574219 423.429688 153.734375 423.042969 149.128906 C 422.65625 144.136719 423.042969 140.679688 423.8125 138.378906 C 427.648438 139.914063 430.335938 140.296875 431.488281 139.914063 C 433.40625 139.144531 434.558594 137.996094 434.945313 136.457031 C 436.09375 132.617188 436.09375 127.628906 434.945313 121.484375 C 434.945313 120.71875 434.558594 119.949219 433.789063 119.566406 L 431.871094 117.261719 L 430.71875 111.121094 L 430.335938 104.980469 C 429.566406 99.605469 429.1875 94.613281 429.566406 90.007813 C 429.566406 91.925781 432.253906 95.382813 436.863281 99.222656 C 437.628906 100.371094 438.398438 100.371094 439.167969 99.605469 L 440.316406 96.914063 C 440.703125 96.148438 441.085938 93.078125 441.085938 88.46875 C 443.769531 88.089844 445.308594 89.621094 445.691406 92.308594 L 446.464844 99.988281 C 446.84375 100.753906 448.382813 101.523438 450.683594 101.140625 L 456.441406 101.90625 C 460.28125 103.824219 465.273438 108.816406 471.796875 116.878906 C 474.867188 119.949219 479.09375 121.871094 484.078125 122.253906 L 486.386719 123.789063 L 487.535156 136.84375 C 489.074219 141.449219 491.757813 145.671875 495.214844 149.128906 L 497.515625 149.894531 C 500.207031 152.199219 501.742188 155.652344 501.742188 159.109375 L 505.195313 184.0625 L 506.734375 182.144531 L 510.953125 180.992188 C 512.492188 180.605469 514.027344 179.839844 514.792969 179.070313 L 519.789063 174.847656 L 521.324219 169.859375 C 521.324219 167.9375 522.089844 166.789063 523.242188 166.402344 L 529.003906 165.25 C 530.148438 164.867188 530.921875 164.484375 530.921875 163.714844 L 530.921875 154.886719 C 530.535156 151.429688 529.765625 148.742188 528.230469 146.441406 L 520.9375 136.457031 C 519.40625 133.386719 516.714844 129.164063 512.492188 124.558594 L 504.429688 112.65625 C 503.664063 111.503906 502.894531 108.433594 501.742188 102.675781 L 498.289063 93.847656 C 498.289063 100.371094 497.515625 104.980469 495.214844 107.664063 L 495.214844 111.503906 C 494.449219 113.421875 492.144531 113.808594 489.457031 112.273438 L 486 106.898438 L 484.078125 97.683594 C 483.695313 94.226563 482.546875 91.542969 481.015625 90.007813 L 476.402344 89.238281 L 476.019531 92.308594 C 476.019531 93.460938 476.019531 94.226563 475.253906 94.226563 C 474.867188 94.996094 473.71875 95.382813 472.179688 94.996094 C 470.644531 94.996094 469.496094 94.226563 469.109375 93.460938 C 466.421875 90.390625 463.738281 85.785156 461.433594 79.640625 L 454.140625 65.820313 L 454.140625 49.695313 C 454.523438 43.171875 453.753906 38.179688 452.984375 33.570313 C 452.984375 32.421875 451.835938 30.882813 449.914063 30.117188 "/>
<path style=" stroke:none;fill-rule:nonzero;fill:rgb(100%,36.863708%,0%);fill-opacity:1;" d="M 137.414063 93.078125 L 137.800781 91.539063 L 147.78125 85.785156 C 154.691406 81.945313 159.296875 79.640625 161.21875 79.257813 C 165.058594 78.871094 170.050781 76.570313 175.808594 72.730469 L 179.261719 70.8125 C 186.171875 66.203125 191.546875 63.515625 195.386719 61.980469 L 203.0625 59.675781 C 214.199219 56.605469 219.574219 54.300781 219.574219 53.535156 L 220.339844 52.382813 L 221.492188 53.152344 C 221.492188 54.300781 220.722656 55.457031 219.1875 56.222656 C 218.804688 60.445313 216.882813 63.515625 214.199219 66.203125 L 213.046875 99.984375 C 213.046875 100.371094 212.660156 100.757813 211.894531 100.757813 L 211.511719 100.757813 C 211.125 108.050781 208.441406 112.65625 203.832031 114.191406 L 204.601563 114.960938 L 203.445313 116.109375 L 186.941406 114.191406 C 178.109375 112.65625 172.351563 111.121094 169.664063 109.585938 C 166.59375 108.050781 159.296875 107.28125 148.550781 107.664063 L 147.398438 106.515625 C 144.328125 105.363281 141.640625 103.058594 138.566406 99.21875 C 137.800781 97.683594 137.800781 95.765625 138.566406 93.460938 Z M 134.730469 59.675781 L 134.730469 58.910156 L 136.265625 58.523438 C 136.648438 58.523438 137.03125 59.296875 136.648438 59.675781 C 133.574219 65.820313 132.042969 70.042969 132.425781 72.730469 L 131.273438 73.882813 L 130.890625 73.882813 C 130.890625 79.640625 130.125 82.710938 128.203125 83.480469 C 127.050781 84.25 126.285156 83.09375 125.898438 80.410156 L 125.132813 74.652344 L 123.210938 71.195313 C 122.445313 69.273438 122.445313 67.738281 122.828125 66.203125 C 123.210938 65.050781 125.132813 63.515625 128.203125 61.980469 Z M 146.246094 18.214844 C 140.488281 19.367188 134.730469 23.972656 128.203125 31.269531 L 126.667969 32.804688 C 118.21875 42.402344 113.613281 49.699219 112.847656 55.457031 L 111.695313 65.050781 C 111.308594 73.882813 110.542969 79.257813 109.773438 80.410156 L 94.800781 91.539063 C 85.589844 98.066406 79.828125 101.140625 78.296875 101.523438 C 70.617188 102.675781 66.390625 104.980469 64.859375 107.664063 L 61.785156 112.65625 C 56.792969 119.183594 54.109375 124.175781 52.957031 127.246094 C 51.804688 132.234375 52.191406 138.378906 54.492188 145.675781 C 55.261719 148.742188 56.414063 150.664063 58.332031 151.433594 L 63.707031 155.652344 C 67.929688 159.492188 71.382813 161.796875 73.304688 162.179688 L 83.667969 159.109375 C 94.417969 151.046875 105.167969 146.441406 116.6875 145.675781 C 127.050781 144.902344 136.265625 146.054688 143.558594 148.742188 L 155.460938 154.117188 C 164.675781 157.191406 172.351563 157.574219 178.109375 155.269531 L 193.851563 144.902344 L 208.054688 133.003906 C 221.492188 117.648438 230.320313 108.816406 234.542969 106.898438 L 247.210938 103.441406 L 260.265625 104.210938 C 264.105469 105.363281 267.558594 108.050781 271.015625 111.890625 C 271.785156 106.128906 271.015625 98.835938 268.328125 90.773438 L 259.113281 62.363281 C 256.042969 57.375 254.890625 52 255.660156 45.855469 L 257.578125 34.339844 C 258.347656 30.503906 260.265625 27.429688 263.722656 25.125 C 267.558594 22.824219 271.785156 21.285156 276.390625 20.902344 C 280.996094 20.902344 287.523438 18.984375 295.585938 15.144531 C 295.96875 11.308594 294.820313 7.851563 292.898438 5.546875 C 290.59375 2.476563 287.90625 1.324219 284.835938 1.710938 L 224.5625 13.992188 L 175.039063 14.761719 "/>
<path style=" stroke:none;fill-rule:nonzero;fill:rgb(100%,36.863708%,0%);fill-opacity:1;" d="M 208.054688 184.445313 C 206.136719 183.296875 204.601563 183.296875 203.832031 184.445313 L 178.492188 208.632813 L 178.492188 243.183594 C 184.253906 236.273438 189.246094 233.585938 193.464844 234.738281 C 196.921875 235.507813 200.761719 237.808594 205.367188 240.882813 C 210.742188 244.71875 214.199219 248.175781 215.734375 251.628906 C 217.269531 238.960938 218.421875 231.28125 219.574219 228.980469 L 226.097656 218.613281 C 229.554688 213.621094 232.625 210.550781 235.3125 209.398438 C 231.472656 207.863281 228.785156 205.945313 227.25 203.257813 L 216.882813 190.589844 C 213.8125 187.519531 211.125 185.214844 208.054688 184.445313 "/>
<path style=" stroke:none;fill-rule:nonzero;fill:rgb(100%,36.863708%,0%);fill-opacity:1;" d="M 249.898438 222.453125 C 251.050781 220.535156 251.050781 218.230469 249.898438 215.542969 C 249.898438 213.625 247.980469 211.703125 244.527344 210.167969 L 236.464844 209.785156 C 236.847656 210.167969 236.847656 210.550781 236.078125 211.320313 C 234.160156 212.089844 231.089844 214.773438 228.015625 219.382813 L 221.492188 229.746094 C 219.957031 232.433594 218.417969 244.335938 216.5 265.066406 L 216.117188 265.449219 L 195.386719 292.710938 C 192.699219 295.777344 190.394531 298.082031 188.859375 298.851563 C 186.554688 299.617188 182.332031 300.390625 176.1875 300.769531 C 168.128906 301.535156 158.148438 304.609375 146.246094 311.132813 C 145.859375 314.589844 142.023438 319.582031 135.496094 325.339844 L 133.574219 331.101563 L 133.960938 331.101563 C 138.953125 333.785156 140.484375 338.78125 138.183594 346.457031 L 136.648438 351.0625 L 155.460938 334.941406 C 156.996094 333.402344 158.914063 332.632813 161.21875 332.246094 L 166.59375 331.484375 C 170.046875 330.328125 173.886719 329.179688 177.34375 327.261719 C 183.484375 323.804688 187.707031 321.882813 189.628906 321.503906 L 195.769531 321.503906 L 201.910156 324.570313 L 209.589844 333.785156 L 211.894531 338.007813 L 212.660156 339.542969 C 213.429688 338.007813 213.8125 336.085938 214.195313 333.785156 L 214.578125 328.027344 L 223.027344 283.113281 L 231.472656 249.328125 L 236.078125 239.347656 L 242.605469 230.132813 L 246.445313 226.292969 C 248.363281 224.757813 249.515625 223.605469 249.898438 222.453125 "/>
<path style=" stroke:none;fill-rule:nonzero;fill:rgb(100%,36.863708%,0%);fill-opacity:1;" d="M 290.59375 493.488281 L 290.980469 493.488281 C 303.261719 496.179688 309.023438 501.9375 307.871094 511.152344 L 307.871094 511.917969 C 307.871094 512.683594 307.484375 513.070313 307.101563 513.070313 L 300.578125 513.457031 C 303.261719 515.375 305.566406 516.519531 307.484375 516.910156 L 320.539063 505.003906 L 321.308594 504.625 L 325.914063 508.078125 L 327.835938 503.085938 L 341.652344 477.367188 C 342.808594 474.679688 342.808594 472.375 342.035156 469.6875 C 340.886719 467.386719 337.8125 465.082031 332.4375 463.550781 L 328.597656 462.777344 L 326.296875 462.777344 C 318.617188 459.710938 312.859375 458.554688 308.640625 458.9375 C 308.640625 460.09375 307.484375 461.242188 306.335938 462.777344 L 302.496094 469.304688 C 300.960938 472.757813 299.804688 475.066406 298.273438 476.984375 C 295.96875 479.667969 292.898438 482.742188 289.0625 485.046875 L 289.824219 493.488281 "/>
<path style=" stroke:none;fill-rule:nonzero;fill:rgb(100%,36.863708%,0%);fill-opacity:1;" d="M 284.835938 200.957031 C 275.238281 194.042969 269.480469 188.667969 267.175781 185.214844 C 264.488281 181.757813 261.800781 175.617188 259.113281 166.789063 C 258.347656 170.242188 258.347656 173.695313 259.113281 177.539063 L 262.1875 184.832031 L 265.640625 190.203125 L 274.085938 200.570313 L 278.691406 205.179688 L 289.0625 220.535156 L 290.980469 245.105469 C 291.363281 249.328125 291.746094 255.46875 291.746094 263.148438 L 291.746094 281.578125 L 294.820313 298.851563 L 308.257813 333.785156 C 310.558594 338.394531 312.859375 341.082031 314.777344 342.230469 C 318.617188 344.539063 321.691406 346.457031 323.226563 348.757813 L 323.996094 347.988281 L 325.53125 347.988281 L 325.53125 349.523438 L 324.378906 350.679688 C 319 356.820313 313.628906 362.195313 307.871094 367.570313 C 297.121094 377.171875 290.207031 388.300781 286.753906 400.203125 C 284.449219 409.800781 284.835938 419.78125 288.289063 430.53125 L 289.824219 432.835938 L 289.441406 415.558594 L 289.824219 414.789063 L 297.121094 415.175781 L 308.257813 417.859375 C 309.789063 418.246094 312.097656 419.398438 315.160156 421.316406 L 321.691406 427.078125 C 324.378906 429.378906 326.679688 431.296875 328.597656 432.066406 C 333.59375 433.601563 336.664063 433.21875 337.8125 430.53125 C 338.582031 429.378906 338.96875 427.457031 338.96875 425.15625 L 339.351563 419.011719 L 340.503906 417.09375 L 341.269531 411.332031 C 344.339844 402.886719 347.027344 396.746094 350.484375 392.90625 L 360.464844 378.316406 L 366.226563 374.863281 L 372.363281 372.558594 L 387.339844 363.347656 L 388.488281 362.195313 L 389.257813 361.039063 L 404.230469 332.246094 L 403.847656 312.671875 L 405.378906 312.671875 L 409.992188 317.664063 C 411.523438 319.582031 413.058594 320.730469 414.59375 320.730469 L 416.132813 321.117188 L 406.152344 303.070313 C 400.777344 290.789063 385.035156 274.664063 358.929688 254.703125 "/>
<path style=" stroke:none;fill-rule:nonzero;fill:rgb(100%,36.863708%,0%);fill-opacity:1;" d="M 474.871094 147.210938 L 479.09375 154.117188 C 486.769531 165.636719 492.144531 176.769531 494.832031 187.902344 L 497.515625 197.5 C 501.742188 213.238281 504.429688 224.757813 505.195313 231.667969 C 506.734375 242.03125 506.734375 252.398438 505.195313 262.765625 C 502.128906 283.113281 493.296875 300.390625 479.09375 316.128906 L 481.394531 322.269531 C 482.160156 324.957031 482.160156 327.261719 481.394531 329.945313 C 480.242188 332.246094 477.175781 336.085938 471.796875 342.230469 L 446.84375 376.78125 L 444.542969 382.15625 C 444.15625 384.847656 444.15625 387.914063 444.542969 390.605469 L 445.691406 392.90625 C 454.90625 390.21875 462.964844 387.148438 469.496094 383.308594 L 471.796875 381.773438 C 486.769531 372.558594 497.902344 364.878906 505.195313 358.355469 C 518.632813 347.222656 527.464844 335.320313 532.066406 322.648438 L 545.121094 288.484375 C 546.660156 281.957031 547.425781 276.582031 547.042969 271.976563 L 547.425781 271.210938 C 546.660156 257.007813 545.121094 245.488281 542.4375 236.273438 C 540.132813 228.214844 536.292969 219.382813 530.921875 209.785156 C 522.089844 193.660156 512.875 179.070313 503.664063 166.402344 C 492.53125 150.664063 484.078125 142.601563 478.707031 141.835938 C 477.558594 141.835938 476.789063 142.21875 476.019531 142.984375 C 474.480469 144.136719 474.101563 145.671875 474.871094 147.210938 "/>
<path style=" stroke:none;fill-rule:nonzero;fill:rgb(100%,36.863708%,0%);fill-opacity:1;" d="M 241.453125 422.082031 C 243.371094 420.164063 243.757813 417.859375 242.222656 415.175781 L 237.234375 406.726563 L 236.078125 399.433594 L 216.882813 384.847656 L 216.5 384.847656 C 214.578125 385.230469 212.277344 389.070313 210.359375 395.59375 C 208.4375 402.121094 207.671875 407.109375 207.671875 410.949219 C 208.054688 412.484375 208.4375 414.40625 209.589844 416.707031 C 216.117188 415.941406 223.796875 417.859375 232.238281 422.082031 C 235.3125 423.621094 238.382813 423.621094 241.453125 422.082031 "/>
<path style=" stroke:none;fill-rule:nonzero;fill:rgb(100%,36.863708%,0%);fill-opacity:1;" d="M 248.363281 456.253906 C 249.132813 454.714844 249.515625 453.179688 249.132813 451.644531 C 249.132813 450.113281 247.980469 448.957031 246.445313 448.574219 L 233.007813 444.734375 C 229.554688 443.96875 226.097656 442.046875 222.644531 438.59375 C 221.875 440.128906 220.339844 442.433594 218.035156 445.117188 C 215.347656 447.804688 213.429688 449.339844 211.894531 449.339844 L 201.527344 452.03125 L 202.683594 458.554688 C 205.753906 461.242188 208.054688 467.769531 208.820313 479.285156 C 213.8125 476.597656 217.652344 475.449219 219.957031 475.449219 C 223.027344 475.449219 225.328125 477.367188 227.25 481.207031 C 231.855469 480.4375 234.160156 479.667969 234.929688 479.285156 L 236.847656 476.597656 L 240.304688 465.082031 "/>
<path style=" stroke:none;fill-rule:nonzero;fill:rgb(100%,36.863708%,0%);fill-opacity:1;" d="M 177.34375 222.070313 L 175.808594 204.410156 C 166.976563 208.25 161.21875 211.320313 158.144531 214.777344 C 155.460938 217.847656 148.933594 218.996094 138.566406 218.617188 L 104.015625 220.535156 L 82.519531 223.988281 L 74.839844 226.675781 C 59.867188 231.667969 51.421875 234.738281 49.117188 236.273438 C 49.886719 242.03125 49.117188 245.871094 47.199219 248.558594 L 54.875 252.398438 C 60.25 255.46875 68.3125 256.238281 78.679688 253.933594 C 82.519531 253.167969 88.277344 251.246094 95.183594 248.945313 L 111.695313 243.183594 C 113.230469 242.417969 115.535156 241.265625 118.988281 239.347656 C 122.058594 237.8125 124.746094 236.65625 126.667969 236.273438 L 167.359375 233.203125 L 176.957031 227.058594 "/>
<path style=" stroke:none;fill-rule:nonzero;fill:rgb(83.984375%,34.521484%,23.925781%);fill-opacity:1;" d="M 115.535156 166.789063 L 113.613281 165.636719 L 113.230469 166.019531 L 113.230469 166.402344 C 111.695313 176.769531 111.308594 183.296875 113.230469 186.75 C 115.148438 190.203125 118.222656 192.125 122.828125 192.507813 C 122.058594 183.296875 122.445313 178.6875 123.980469 177.921875 C 125.515625 176.769531 128.972656 180.226563 133.964844 188.667969 L 134.34375 188.667969 L 161.984375 166.402344 C 155.078125 165.636719 150.085938 164.871094 146.246094 162.949219 C 140.101563 159.878906 131.65625 157.957031 121.289063 156.808594 C 120.523438 161.796875 119.371094 164.871094 117.453125 166.402344 "/>
<path style=" stroke:none;fill-rule:nonzero;fill:rgb(100%,100%,81.25%);fill-opacity:1;" d="M 214.578125 264.683594 L 215.347656 255.851563 L 214.578125 255.085938 C 214.199219 251.628906 211.511719 247.789063 205.75 243.566406 C 201.144531 239.730469 196.539063 237.425781 193.082031 236.660156 C 188.476563 235.507813 183.867188 238.960938 178.492188 246.257813 L 177.34375 298.851563 L 187.707031 296.933594 L 193.851563 291.171875 L 194.234375 290.789063 C 199.609375 284.648438 206.136719 275.816406 214.578125 264.683594 "/>
<path style=" stroke:none;fill-rule:nonzero;fill:rgb(83.984375%,80.859375%,61.521912%);fill-opacity:1;" d="M 193.851563 364.878906 L 195.769531 366.035156 L 241.453125 401.351563 C 251.050781 408.648438 265.640625 416.707031 284.835938 425.539063 C 282.914063 416.324219 282.914063 407.882813 284.835938 399.816406 C 287.140625 391.753906 290.59375 384.460938 296.351563 377.171875 C 286.371094 375.632813 273.703125 366.800781 257.578125 351.828125 C 250.667969 345.300781 243.371094 331.867188 235.695313 311.90625 C 233.007813 319.582031 229.554688 327.261719 225.332031 335.703125 C 220.339844 344.921875 216.117188 351.441406 212.660156 354.898438 C 209.589844 357.972656 203.445313 361.425781 193.851563 364.878906 "/>
<path style=" stroke:none;fill-rule:nonzero;fill:rgb(100%,100%,100%);fill-opacity:1;" d="M 182.332031 71.195313 L 181.949219 71.195313 L 171.96875 77.335938 L 171.96875 77.722656 C 171.96875 80.023438 172.734375 81.945313 173.886719 83.863281 C 175.039063 85.398438 176.574219 86.550781 178.109375 86.550781 C 180.027344 86.550781 181.183594 85.398438 182.332031 83.863281 C 183.867188 81.945313 184.253906 80.023438 184.253906 77.722656 C 184.253906 75.800781 183.867188 73.882813 183.101563 71.960938 "/>
<path style=" stroke:none;fill-rule:nonzero;fill:rgb(6.665039%,20.384216%,58.006287%);fill-opacity:1;" d="M 153.539063 93.847656 C 153.15625 100.371094 153.539063 104.210938 154.691406 105.746094 C 162.367188 105.746094 167.746094 106.515625 170.429688 108.050781 L 181.183594 111.121094 L 185.789063 106.515625 C 186.554688 94.996094 183.101563 89.238281 175.808594 89.621094 C 173.886719 98.066406 170.429688 101.90625 165.058594 101.90625 C 160.449219 101.523438 156.609375 99.222656 153.539063 93.847656 "/>
<path style=" stroke:none;fill-rule:nonzero;fill:rgb(25.097656%,19.213867%,38.035583%);fill-opacity:1;" d="M 153.925781 84.632813 L 153.539063 93.847656 C 156.609375 99.222656 160.449219 101.523438 165.058594 101.90625 C 170.429688 101.90625 173.886719 98.066406 175.808594 89.621094 C 183.101563 89.238281 186.554688 94.996094 185.789063 106.515625 C 189.242188 101.140625 191.546875 96.53125 191.929688 91.925781 C 192.316406 85.015625 189.242188 78.488281 183.101563 71.964844 C 183.867188 73.882813 184.253906 75.800781 184.253906 77.722656 C 184.253906 80.023438 183.867188 81.945313 182.332031 83.863281 C 181.183594 85.398438 180.027344 86.550781 178.109375 86.550781 C 176.574219 86.550781 175.039063 85.398438 173.886719 83.863281 C 172.734375 81.945313 171.96875 80.023438 171.96875 77.722656 L 171.96875 77.335938 C 168.511719 79.257813 165.058594 80.792969 161.601563 81.175781 C 160.066406 81.5625 157.378906 82.328125 153.925781 84.632813 "/>
<path style=" stroke:none;fill-rule:nonzero;fill:rgb(94.139099%,94.139099%,94.139099%);fill-opacity:1;" d="M 111.695313 156.039063 C 112.847656 161.414063 114.378906 164.484375 116.300781 164.871094 C 117.453125 164.101563 118.21875 161.414063 119.371094 156.421875 "/>
<path style=" stroke:none;fill-rule:nonzero;fill:rgb(94.139099%,94.139099%,94.139099%);fill-opacity:1;" d="M 124.746094 192.125 C 126.664063 192.125 128.96875 191.359375 132.425781 189.820313 L 132.425781 189.4375 C 128.585938 183.679688 126.285156 180.605469 124.746094 179.839844 C 123.976563 181.375 123.976563 185.601563 124.746094 192.125 "/>
<path style=" stroke:none;fill-rule:nonzero;fill:rgb(94.139099%,94.139099%,94.139099%);fill-opacity:1;" d="M 139.335938 99.988281 C 142.023438 103.441406 144.324219 105.746094 147.398438 106.515625 L 148.550781 105.363281 L 152.386719 105.363281 C 151.621094 103.824219 151.238281 99.988281 151.238281 94.230469 "/>
<path style=" stroke:none;fill-rule:nonzero;fill:rgb(94.139099%,94.139099%,94.139099%);fill-opacity:1;" d="M 211.511719 100.753906 L 211.125 99.984375 L 212.277344 66.972656 L 189.628906 76.953125 C 192.699219 82.328125 194.234375 87.320313 193.851563 91.925781 C 193.085938 99.21875 190.011719 105.746094 183.484375 111.503906 C 194.617188 113.808594 201.144531 114.574219 203.445313 114.191406 L 203.832031 114.191406 C 208.4375 112.65625 211.125 108.050781 211.511719 100.753906 "/>
<path style=" stroke:none;fill-rule:nonzero;fill:rgb(74.804688%,74.804688%,74.804688%);fill-opacity:1;" d="M 151.621094 85.785156 L 138.566406 93.460938 C 137.800781 95.765625 137.800781 97.683594 138.566406 99.222656 L 139.335938 99.988281 L 151.238281 94.230469 "/>
<path style=" stroke:none;fill-rule:nonzero;fill:rgb(74.804688%,74.804688%,74.804688%);fill-opacity:1;" d="M 206.519531 60.828125 L 196.152344 63.898438 L 183.867188 70.042969 L 189.628906 76.953125 L 212.277344 66.972656 L 212.277344 66.203125 C 212.277344 63.132813 210.359375 61.214844 206.902344 61.214844 "/>
<path style=" stroke:none;fill-rule:nonzero;fill:rgb(78.125%,19.993591%,10.594177%);fill-opacity:1;" d="M 125.132813 74.652344 L 125.898438 80.410156 C 126.285156 83.09375 127.050781 84.246094 128.203125 83.480469 C 130.125 82.710938 130.890625 79.640625 130.890625 73.882813 L 130.125 73.113281 C 130.125 69.660156 131.65625 65.433594 134.730469 59.675781 L 128.203125 61.980469 C 125.132813 63.515625 123.210938 65.050781 122.828125 66.203125 C 122.445313 67.738281 122.445313 69.273438 123.210938 71.195313 "/>
<path style=" stroke:none;fill-rule:nonzero;fill:rgb(78.125%,19.993591%,10.594177%);fill-opacity:1;" d="M 209.976563 59.675781 C 212.660156 61.214844 213.8125 63.515625 214.199219 66.203125 C 216.882813 63.515625 218.804688 60.445313 219.1875 56.222656 C 217.269531 57.375 214.199219 58.527344 209.976563 59.675781 "/>
<path style=" stroke:none;fill-rule:nonzero;fill:rgb(100%,100%,81.25%);fill-opacity:1;" d="M 533.988281 323.421875 C 529.003906 336.472656 519.789063 348.757813 506.734375 359.894531 C 499.054688 366.800781 487.535156 374.476563 472.949219 383.3125 L 470.644531 384.847656 C 464.121094 388.6875 456.824219 391.753906 449.144531 394.058594 L 456.824219 393.671875 L 461.820313 391.753906 C 477.558594 385.613281 488.304688 382.15625 494.0625 381.390625 L 512.492188 376.78125 C 536.292969 352.597656 548.199219 327.261719 548.199219 300.390625 L 547.8125 285.03125 C 546.660156 289.636719 543.203125 300.390625 536.679688 316.507813 "/>
<path style=" stroke:none;fill-rule:nonzero;fill:rgb(83.984375%,80.859375%,61.521912%);fill-opacity:1;" d="M 414.214844 399.816406 C 408.453125 400.585938 401.539063 403.65625 393.863281 409.800781 L 393.097656 409.800781 C 389.640625 415.558594 386.570313 419.011719 383.5 420.933594 C 381.199219 422.851563 379.660156 424.773438 379.660156 427.078125 L 380.8125 433.601563 C 393.863281 430.917969 406.917969 428.222656 419.972656 424.773438 C 444.925781 418.625 463.351563 412.101563 475.253906 405.574219 C 489.074219 397.511719 501.742188 387.914063 512.492188 376.78125 L 494.0625 381.390625 C 488.304688 382.15625 477.558594 385.613281 461.816406 391.753906 L 456.824219 393.671875 L 449.148438 394.058594 C 438.398438 397.128906 426.882813 399.050781 414.214844 399.816406 "/>
<path style=" stroke:none;fill-rule:nonzero;fill:rgb(78.125%,19.993591%,10.594177%);fill-opacity:1;" d="M 295.585938 15.144531 C 287.523438 18.984375 280.996094 20.902344 276.390625 20.902344 C 271.78125 21.285156 267.558594 22.824219 263.722656 25.125 C 260.265625 27.429688 258.347656 30.503906 257.578125 34.339844 L 255.660156 45.855469 C 254.890625 52 256.042969 57.375 259.113281 62.363281 L 257.964844 54.300781 C 257.964844 50.464844 262.1875 45.472656 270.632813 38.945313 L 294.820313 18.601563 "/>
<path style=" stroke:none;fill-rule:nonzero;fill:rgb(78.125%,19.993591%,10.594177%);fill-opacity:1;" d="M 190.394531 151.8125 L 191.546875 151.046875 L 192.3125 152.199219 C 191.164063 157.957031 188.476563 161.410156 185.019531 162.949219 C 184.253906 163.332031 183.867188 162.949219 183.484375 162.566406 L 183.867188 161.027344 C 186.941406 159.878906 189.242188 156.804688 190.394531 151.8125 M 83.667969 159.109375 L 105.550781 154.503906 L 128.585938 155.652344 C 136.648438 157.191406 142.789063 159.109375 147.398438 161.027344 C 150.46875 162.566406 155.074219 163.714844 161.21875 164.484375 C 166.59375 164.867188 170.429688 164.867188 173.117188 164.484375 L 174.269531 165.253906 L 173.503906 166.402344 L 164.675781 166.402344 L 163.90625 167.171875 L 144.324219 183.679688 C 136.648438 190.972656 129.738281 194.429688 123.976563 194.429688 C 117.835938 194.429688 113.613281 192.125 111.308594 187.519531 C 110.160156 185.601563 109.773438 180.226563 110.539063 171.394531 C 107.472656 180.226563 106.703125 187.519531 109.390625 193.660156 C 110.539063 197.117188 114.765625 199.800781 121.289063 200.957031 L 136.648438 201.339844 C 139.71875 200.570313 145.480469 197.882813 153.925781 192.894531 L 166.207031 186.367188 C 172.734375 182.910156 180.414063 180.609375 188.859375 179.457031 L 200.761719 179.070313 L 201.914063 180.226563 C 201.914063 180.609375 201.527344 180.992188 200.761719 180.992188 C 191.546875 180.609375 182.332031 182.144531 173.117188 185.601563 C 175.039063 189.4375 176.957031 197.117188 178.492188 208.632813 L 203.832031 184.445313 C 204.601563 183.296875 206.136719 183.296875 208.054688 184.445313 C 211.125 185.214844 213.8125 187.519531 216.882813 190.589844 L 227.25 203.257813 C 228.785156 205.945313 231.472656 207.863281 235.3125 209.398438 L 236.464844 209.785156 L 244.523438 210.167969 C 247.980469 211.703125 249.898438 213.625 249.898438 215.542969 C 251.050781 218.230469 251.050781 220.535156 249.898438 222.453125 C 249.515625 223.605469 248.363281 224.757813 246.445313 226.292969 L 242.605469 230.132813 L 236.078125 239.347656 L 231.472656 249.328125 L 223.027344 283.113281 L 214.578125 328.027344 L 214.195313 333.785156 C 213.8125 336.085938 213.429688 338.007813 212.660156 339.542969 L 211.894531 338.007813 L 209.589844 333.785156 L 201.914063 324.570313 L 195.769531 321.503906 L 189.628906 321.503906 C 187.707031 321.886719 183.484375 323.804688 177.34375 327.261719 C 173.886719 329.179688 170.046875 330.328125 166.59375 331.484375 L 161.21875 332.246094 C 158.914063 332.636719 156.996094 333.402344 155.460938 334.941406 L 136.648438 351.0625 C 135.496094 353.75 134.34375 355.667969 132.808594 356.820313 L 137.03125 364.878906 L 139.71875 367.953125 C 145.480469 372.558594 150.851563 374.476563 155.074219 374.476563 C 159.683594 374.097656 168.894531 371.792969 182.332031 367.1875 C 197.6875 361.8125 207.285156 357.199219 211.507813 353.363281 C 215.734375 349.140625 220.722656 341.082031 226.863281 328.027344 C 232.238281 316.128906 235.3125 308.066406 236.078125 303.453125 C 236.464844 299.617188 239.152344 293.476563 243.757813 285.03125 C 248.75 276.96875 252.589844 271.976563 255.273438 270.441406 L 274.46875 258.539063 L 276.007813 258.539063 L 275.625 260.078125 C 266.023438 266.21875 259.496094 270.058594 256.042969 271.976563 C 253.738281 273.515625 250.285156 278.117188 245.675781 285.796875 C 241.070313 293.859375 238.765625 299.617188 238 303.453125 L 236.847656 309.214844 L 236.847656 309.601563 C 244.523438 329.945313 251.820313 343.765625 259.113281 350.296875 C 274.851563 365.652344 287.523438 373.714844 297.121094 375.25 L 297.503906 375.632813 L 323.226563 348.757813 C 321.691406 346.457031 318.617188 344.535156 314.777344 342.230469 C 312.859375 341.082031 310.558594 338.394531 308.257813 333.785156 L 294.820313 298.851563 L 291.746094 281.574219 L 291.746094 263.148438 C 291.746094 255.46875 291.363281 249.328125 290.980469 245.105469 L 289.0625 220.535156 L 278.691406 205.179688 L 274.085938 200.570313 L 265.640625 190.203125 L 262.1875 184.828125 L 259.113281 177.535156 C 258.347656 173.699219 258.347656 170.242188 259.113281 166.789063 C 256.808594 159.109375 255.273438 152.582031 255.273438 147.59375 C 255.273438 142.601563 258.347656 135.308594 264.488281 126.09375 L 267.558594 121.484375 C 269.09375 118.800781 270.246094 115.726563 271.015625 111.890625 C 267.558594 108.050781 264.105469 105.363281 260.265625 104.210938 L 247.214844 103.441406 L 234.542969 106.898438 C 230.320313 108.816406 221.492188 117.648438 208.054688 133.003906 L 193.847656 144.90625 L 178.109375 155.269531 C 172.351563 157.574219 164.675781 157.191406 155.460938 154.117188 L 143.558594 148.742188 C 136.265625 146.054688 127.050781 144.90625 116.6875 145.671875 C 105.167969 146.441406 94.417969 151.046875 83.667969 159.109375 "/>
<path style=" stroke:none;fill-rule:nonzero;fill:rgb(78.125%,19.993591%,10.594177%);fill-opacity:1;" d="M 308.257813 417.859375 L 297.121094 415.171875 L 289.824219 414.789063 L 289.441406 415.558594 L 289.824219 432.835938 L 291.363281 434.753906 C 294.820313 438.207031 296.351563 440.894531 296.738281 442.816406 C 296.738281 444.738281 299.039063 447.804688 303.261719 450.878906 L 305.566406 452.796875 C 307.871094 454.714844 309.023438 456.632813 309.023438 457.789063 L 308.640625 458.9375 C 312.859375 458.554688 318.617188 459.710938 326.296875 462.777344 L 328.597656 462.777344 L 332.4375 463.546875 C 337.8125 465.082031 340.886719 467.386719 342.035156 469.6875 C 342.808594 472.375 342.808594 474.679688 341.652344 477.367188 L 327.835938 503.085938 L 325.914063 508.078125 L 333.59375 520.363281 L 355.472656 513.070313 C 360.085938 511.917969 366.226563 505.390625 373.132813 493.875 L 388.875 466.617188 C 391.941406 461.628906 393.097656 457.015625 391.941406 452.796875 C 391.179688 450.113281 388.875 447.039063 385.421875 443.199219 L 382.34375 440.128906 C 378.507813 435.136719 376.972656 430.53125 377.742188 426.691406 C 378.125 424.003906 379.660156 421.316406 382.34375 419.398438 C 390.410156 414.023438 401.539063 395.589844 416.132813 364.496094 C 423.042969 349.523438 423.042969 334.941406 416.132813 321.117188 L 414.59375 320.730469 C 413.058594 320.730469 411.523438 319.582031 409.992188 317.664063 L 405.378906 312.671875 L 403.847656 312.671875 L 404.234375 332.246094 L 389.257813 361.039063 L 388.488281 362.195313 L 387.339844 363.347656 L 372.363281 372.558594 L 366.226563 374.863281 L 360.464844 378.316406 L 350.484375 392.90625 C 347.027344 396.746094 344.339844 402.886719 341.269531 411.335938 L 340.503906 417.09375 L 339.351563 419.011719 L 338.96875 425.15625 C 338.96875 427.460938 338.582031 429.378906 337.8125 430.53125 C 336.664063 433.21875 333.59375 433.601563 328.597656 432.0625 C 326.679688 431.296875 324.378906 429.378906 321.691406 427.078125 L 315.160156 421.316406 C 312.097656 419.398438 309.789063 418.242188 308.257813 417.859375 "/>
<path style=" stroke:none;fill-rule:nonzero;fill:rgb(78.125%,19.993591%,10.594177%);fill-opacity:1;" d="M 479.09375 316.128906 L 475.253906 319.964844 C 470.261719 324.570313 456.058594 330.328125 433.027344 336.859375 L 423.429688 339.542969 C 423.8125 347.605469 422.273438 356.054688 418.050781 365.265625 C 410.375 381.773438 403.078125 395.210938 396.554688 405.574219 C 403.847656 400.585938 409.992188 398.285156 414.214844 397.898438 C 425.730469 397.128906 436.09375 395.210938 445.691406 392.90625 L 444.542969 390.605469 C 444.15625 387.914063 444.15625 384.847656 444.542969 382.15625 L 446.84375 376.78125 L 462.964844 356.054688 L 471.796875 342.230469 C 477.175781 336.085938 480.242188 332.246094 481.394531 329.945313 C 482.160156 327.261719 482.160156 324.957031 481.394531 322.269531 "/>
<path style=" stroke:none;fill-rule:nonzero;fill:rgb(78.125%,19.993591%,10.594177%);fill-opacity:1;" d="M 242.222656 415.175781 C 243.757813 417.863281 243.371094 420.164063 241.453125 422.082031 C 238.382813 423.621094 235.3125 423.621094 232.242188 422.082031 C 223.796875 417.863281 216.117188 415.941406 209.589844 416.707031 L 211.894531 419.398438 L 215.347656 425.921875 C 216.117188 427.839844 217.652344 430.144531 219.957031 433.21875 C 221.875 435.519531 223.027344 437.441406 222.644531 438.59375 C 226.097656 442.046875 229.554688 443.96875 233.007813 444.734375 L 246.445313 448.574219 C 247.980469 448.957031 249.132813 450.113281 249.132813 451.644531 C 249.515625 453.179688 249.132813 454.714844 248.363281 456.253906 L 240.304688 465.082031 L 236.847656 476.597656 L 234.929688 479.285156 C 234.160156 479.667969 231.855469 480.4375 227.25 481.207031 C 228.785156 484.664063 229.9375 488.886719 230.320313 493.105469 L 261.035156 494.644531 C 262.566406 494.644531 264.871094 492.722656 268.328125 488.117188 L 292.128906 465.082031 C 295.203125 462.394531 294.820313 458.171875 291.363281 453.179688 L 290.210938 450.875 C 288.675781 448.191406 288.289063 445.117188 289.824219 442.046875 L 292.128906 438.59375 L 290.210938 436.289063 C 287.90625 433.984375 286.753906 432.449219 286.371094 430.914063 L 285.605469 427.839844 L 268.328125 419.78125 C 256.425781 413.640625 246.828125 407.882813 239.917969 402.886719 L 236.078125 399.433594 L 237.230469 406.726563 "/>
<path style=" stroke:none;fill-rule:nonzero;fill:rgb(78.125%,19.993591%,10.594177%);fill-opacity:1;" d="M 176.957031 227.058594 L 167.359375 233.203125 L 126.667969 236.273438 C 124.746094 236.660156 122.058594 237.8125 118.988281 239.347656 C 115.535156 241.265625 113.230469 242.414063 111.695313 243.183594 L 95.1875 248.941406 C 88.277344 251.246094 82.519531 253.164063 78.679688 253.933594 C 68.3125 256.234375 60.253906 255.46875 54.875 252.398438 L 47.195313 248.558594 C 42.589844 254.703125 38.753906 258.15625 36.066406 258.539063 L 34.914063 258.15625 L 28.769531 249.710938 L 27.234375 255.085938 C 31.074219 268.140625 31.460938 276.582031 28.386719 280.808594 L 28.386719 281.191406 C 28.386719 285.414063 28.769531 288.097656 29.921875 289.253906 L 31.839844 293.09375 C 41.054688 290.40625 47.195313 291.171875 49.503906 295.394531 C 51.421875 298.46875 52.191406 301.152344 51.804688 303.074219 C 56.414063 303.074219 61.019531 302.308594 64.859375 300.003906 C 67.160156 298.851563 73.6875 295.011719 85.207031 288.097656 L 99.792969 278.503906 C 109.390625 271.976563 115.535156 268.519531 118.605469 267.757813 C 122.058594 267.371094 125.132813 265.835938 129.355469 263.148438 L 137.414063 258.15625 C 147.78125 252.015625 155.078125 248.558594 158.914063 248.941406 C 159.683594 248.941406 160.066406 249.328125 159.683594 250.09375 C 159.683594 250.480469 159.296875 250.863281 158.914063 250.863281 C 155.84375 250.863281 150.46875 252.78125 143.558594 257.007813 C 160.449219 254.703125 171.585938 255.085938 176.191406 258.539063 "/>
<path style=" stroke:none;fill-rule:nonzero;fill:rgb(100%,100%,87.109375%);fill-opacity:1;" d="M 119.371094 317.664063 C 128.203125 317.664063 133.578125 319.582031 134.730469 323.035156 C 140.484375 316.890625 143.941406 313.054688 144.328125 311.132813 C 137.03125 307.292969 127.050781 309.214844 113.996094 316.128906 L 114.765625 316.890625 C 115.535156 317.664063 117.066406 318.046875 119.371094 317.664063 "/>
<path style=" stroke:none;fill-rule:nonzero;fill:rgb(100%,100%,87.109375%);fill-opacity:1;" d="M 190.777344 460.09375 L 191.546875 460.855469 L 200.378906 457.789063 L 199.609375 452.03125 L 188.859375 452.414063 C 179.644531 455.097656 174.65625 457.019531 174.65625 458.9375 "/>
<path style=" stroke:none;fill-rule:nonzero;fill:rgb(100%,100%,87.109375%);fill-opacity:1;" d="M 272.164063 503.085938 L 272.550781 503.085938 C 277.925781 498.101563 283.304688 495.027344 287.90625 493.875 L 287.140625 486.195313 L 286.753906 485.808594 L 263.335938 500.402344 "/>
<path style=" stroke:none;fill-rule:nonzero;fill:rgb(100%,100%,87.109375%);fill-opacity:1;" d="M 99.792969 339.925781 C 100.945313 341.464844 102.863281 343.382813 106.703125 345.683594 C 110.160156 348.378906 115.535156 350.296875 122.058594 351.445313 L 133.960938 351.445313 L 136.265625 345.683594 C 138.183594 339.160156 137.03125 334.941406 132.808594 333.019531 C 132.042969 332.636719 128.585938 333.785156 121.675781 336.085938 L 115.148438 338.007813 L 109.007813 338.394531 "/>
<path style=" stroke:none;fill-rule:nonzero;fill:rgb(100%,100%,87.109375%);fill-opacity:1;" d="M 303.261719 523.816406 L 308.640625 523.816406 L 318.617188 516.140625 L 324.761719 509.617188 L 321.695313 506.542969 "/>
<path style=" stroke:none;fill-rule:nonzero;fill:rgb(100%,100%,87.109375%);fill-opacity:1;" d="M 287.90625 505.003906 L 296.351563 500.78125 L 300.578125 499.632813 C 297.503906 497.714844 294.046875 496.5625 290.59375 495.40625 L 289.441406 495.796875 L 288.675781 495.796875 C 282.148438 496.945313 274.851563 502.703125 266.023438 512.683594 L 278.308594 512.300781 L 284.449219 508.078125 "/>
<path style=" stroke:none;fill-rule:nonzero;fill:rgb(100%,100%,87.109375%);fill-opacity:1;" d="M 173.886719 475.066406 C 174.269531 475.832031 176.1875 476.597656 179.644531 476.984375 L 191.929688 471.226563 L 205.367188 468.921875 C 203.832031 463.546875 202.683594 460.855469 201.144531 460.089844 C 199.992188 459.324219 196.921875 460.472656 191.164063 463.160156 C 180.796875 468.535156 174.65625 472.375 173.886719 475.066406 "/>
<path style=" stroke:none;fill-rule:nonzero;fill:rgb(100%,100%,87.109375%);fill-opacity:1;" d="M 199.992188 492.722656 L 226.480469 485.042969 C 224.945313 480.050781 222.644531 477.367188 219.957031 477.367188 C 216.882813 477.75 212.660156 479.285156 206.902344 482.355469 C 201.527344 485.425781 198.074219 488.117188 196.539063 490.421875 L 196.152344 491.570313 "/>
<path style=" stroke:none;fill-rule:nonzero;fill:rgb(100%,100%,87.109375%);fill-opacity:1;" d="M 45.664063 247.40625 C 47.582031 244.71875 47.964844 241.265625 47.195313 237.042969 L 20.324219 235.121094 L 29.921875 248.175781 L 44.894531 248.175781 "/>
<path style=" stroke:none;fill-rule:nonzero;fill:rgb(100%,100%,87.109375%);fill-opacity:1;" d="M 1.898438 280.808594 L 1.515625 282.726563 L 27.617188 265.449219 L 26.082031 258.15625 L 25.699219 258.15625 C 23.398438 257.773438 19.558594 260.847656 13.414063 266.984375 C 7.65625 272.742188 4.199219 277.355469 1.898438 280.808594 "/>
<path style=" stroke:none;fill-rule:nonzero;fill:rgb(87.889099%,87.889099%,77.34375%);fill-opacity:1;" d="M 36.449219 315.742188 C 39.136719 312.289063 43.359375 308.066406 49.503906 303.070313 C 50.269531 302.308594 49.886719 299.617188 47.964844 296.550781 C 45.664063 292.710938 40.289063 292.710938 31.839844 295.011719 C 29.15625 296.933594 28.003906 301.152344 27.617188 307.292969 C 27.617188 312.671875 28.003906 316.890625 29.539063 319.964844 L 30.691406 321.503906 C 31.457031 321.886719 32.992188 319.964844 35.679688 316.507813 "/>
<path style=" stroke:none;fill-rule:nonzero;fill:rgb(87.889099%,87.889099%,77.34375%);fill-opacity:1;" d="M 138.566406 369.492188 L 136.648438 367.183594 C 131.65625 372.175781 127.816406 374.476563 124.363281 374.476563 L 123.210938 374.476563 C 123.976563 376.78125 127.050781 378.316406 132.042969 380.234375 L 141.640625 379.472656 C 145.09375 378.703125 148.164063 377.550781 150.46875 376.015625 C 146.628906 375.25 142.789063 372.945313 138.566406 369.492188 "/>
<path style=" stroke:none;fill-rule:nonzero;fill:rgb(87.889099%,87.889099%,77.34375%);fill-opacity:1;" d="M 133.960938 351.441406 L 122.058594 351.441406 C 115.53125 350.296875 110.160156 348.378906 106.703125 345.683594 C 102.863281 343.382813 100.941406 341.464844 99.792969 339.925781 C 99.792969 341.464844 101.710938 343.765625 104.78125 347.222656 C 107.855469 350.679688 111.308594 352.980469 113.613281 353.75 C 120.523438 356.4375 126.285156 356.820313 131.273438 355.28125 C 132.042969 354.898438 132.808594 353.75 133.960938 351.441406 "/>
<path style=" stroke:none;fill-rule:nonzero;fill:rgb(87.889099%,87.889099%,77.34375%);fill-opacity:1;" d="M 324.761719 509.617188 L 318.617188 516.140625 L 308.640625 523.816406 C 319.773438 523.816406 327.835938 523.054688 331.671875 521.132813 C 329.371094 516.519531 327.066406 512.683594 324.761719 509.617188 "/>
<path style=" stroke:none;fill-rule:nonzero;fill:rgb(87.889099%,87.889099%,77.34375%);fill-opacity:1;" d="M 296.351563 500.785156 L 287.90625 505.003906 L 284.449219 508.078125 L 278.308594 512.300781 L 305.953125 511.148438 C 306.335938 506.542969 304.800781 502.703125 300.578125 499.632813 "/>
<path style=" stroke:none;fill-rule:nonzero;fill:rgb(87.889099%,87.889099%,77.34375%);fill-opacity:1;" d="M 226.480469 485.046875 L 199.992188 492.722656 C 206.136719 493.488281 215.734375 493.488281 228.402344 493.105469 "/>
<path style=" stroke:none;fill-rule:nonzero;fill:rgb(87.889099%,87.889099%,77.34375%);fill-opacity:1;" d="M 44.894531 248.175781 L 29.921875 248.175781 L 36.066406 256.621094 C 38.753906 255.46875 41.441406 252.78125 44.894531 248.175781 "/>
<path style=" stroke:none;fill-rule:nonzero;fill:rgb(87.889099%,87.889099%,77.34375%);fill-opacity:1;" d="M 206.902344 479.289063 L 205.367188 468.921875 L 191.929688 471.226563 L 179.644531 476.984375 Z M 206.902344 479.289063 "/>
<path style=" stroke:none;fill-rule:nonzero;fill:rgb(87.889099%,87.889099%,77.34375%);fill-opacity:1;" d="M 26.851563 279.273438 C 28.386719 277.351563 28.386719 272.742188 27.621094 265.449219 L 1.515625 282.726563 C 3.046875 283.878906 5.738281 283.496094 9.191406 281.191406 C 13.03125 279.273438 18.789063 278.503906 26.851563 279.273438 "/>
<path style="fill:none;stroke-width:10;stroke-linecap:round;stroke-linejoin:round;stroke:rgb(0%,0%,0%);stroke-opacity:1;stroke-miterlimit:4;" d="M 3071.015625 141.676562 C 3078.710938 229.996875 3024.960938 287.575 2905.9375 306.79375 C 2825.3125 302.926562 2733.203125 241.520312 2641.054688 114.801562 L 3071.015625 134.020312 " transform="matrix(0.1,0,0,-0.1,0,525.32)"/>
<path style="fill:none;stroke-width:10;stroke-linecap:round;stroke-linejoin:round;stroke:rgb(0%,0%,0%);stroke-opacity:1;stroke-miterlimit:4;" d="M 3071.015625 76.442187 C 3044.179688 76.442187 3017.265625 91.79375 2994.21875 118.66875 " transform="matrix(0.1,0,0,-0.1,0,525.32)"/>
<path style="fill:none;stroke-width:10;stroke-linecap:round;stroke-linejoin:round;stroke:rgb(0%,0%,0%);stroke-opacity:1;stroke-miterlimit:4;" d="M 2721.640625 210.778125 L 2610.3125 245.348437 L 2879.0625 414.29375 L 2890.625 306.79375 " transform="matrix(0.1,0,0,-0.1,0,525.32)"/>
<path style="fill:none;stroke-width:10;stroke-linecap:round;stroke-linejoin:round;stroke:rgb(0%,0%,0%);stroke-opacity:1;stroke-miterlimit:4;" d="M 3247.617188 1765.621875 L 3071.015625 1585.192187 C 2959.6875 1481.48125 2890.625 1370.192187 2859.882813 1255.035937 C 2836.835938 1162.8875 2840.664063 1059.215625 2871.40625 947.8875 L 2913.632813 890.309375 C 2940.46875 863.434375 2955.859375 840.426562 2955.859375 825.035937 C 2959.6875 805.85625 2971.210938 782.809375 2994.21875 763.629687 L 3048.007813 717.535937 C 3082.578125 690.660937 3086.40625 659.996875 3055.664063 633.082812 L 3017.265625 567.848437 C 3001.914063 533.278125 2990.390625 506.403125 2975.039063 491.051562 C 2948.203125 460.348437 2913.632813 429.645312 2871.40625 402.770312 " transform="matrix(0.1,0,0,-0.1,0,525.32)"/>
<path style="fill:none;stroke-width:10;stroke-linecap:round;stroke-linejoin:round;stroke:rgb(0%,0%,0%);stroke-opacity:1;stroke-miterlimit:4;" d="M 1923.164063 1604.410937 L 2406.875 1231.989062 C 2518.203125 1147.535937 2667.929688 1066.95 2859.882813 982.457812 " transform="matrix(0.1,0,0,-0.1,0,525.32)"/>
<path style="fill:none;stroke-width:10;stroke-linecap:round;stroke-linejoin:round;stroke:rgb(0%,0%,0%);stroke-opacity:1;stroke-miterlimit:4;" d="M 2971.210938 1489.215625 C 2879.0625 1504.567187 2752.382813 1589.020312 2583.476563 1742.614062 C 2510.507813 1811.676562 2433.710938 1949.91875 2360.78125 2153.35625 " transform="matrix(0.1,0,0,-0.1,0,525.32)"/>
<path style="fill:none;stroke-width:10;stroke-linecap:round;stroke-linejoin:round;stroke:rgb(0%,0%,0%);stroke-opacity:1;stroke-miterlimit:4;" d="M 2295.546875 310.582812 C 2284.023438 433.473437 2253.28125 491.090625 2199.570313 487.223437 C 2161.171875 487.223437 2107.421875 464.1375 2042.148438 421.95 C 1973.046875 383.551562 1946.171875 352.848437 1950.039063 333.66875 C 1961.523438 306.754687 2072.851563 302.926562 2295.546875 310.582812 " transform="matrix(0.1,0,0,-0.1,0,525.32)"/>
<path style="fill:none;stroke-width:10;stroke-linecap:round;stroke-linejoin:round;stroke:rgb(0%,0%,0%);stroke-opacity:1;stroke-miterlimit:4;" d="M 2295.546875 310.582812 L 2610.351563 299.1375 C 2625.664063 295.270312 2644.882813 306.754687 2671.757813 337.496875 L 2729.335938 406.559375 L 2928.984375 594.684375 C 2955.859375 617.73125 2959.6875 644.645312 2948.203125 679.176562 L 2909.804688 748.278125 C 2898.242188 767.457812 2894.414063 790.465625 2902.109375 813.5125 C 2905.9375 840.3875 2917.460938 859.60625 2936.640625 863.434375 " transform="matrix(0.1,0,0,-0.1,0,525.32)"/>
<path style="fill:none;stroke-width:10;stroke-linecap:round;stroke-linejoin:round;stroke:rgb(0%,0%,0%);stroke-opacity:1;stroke-miterlimit:4;" d="M 2080.546875 452.692187 C 1842.539063 456.520312 1723.515625 475.7 1727.34375 502.535937 C 1731.171875 521.715625 1773.4375 556.285937 1857.890625 606.246875 C 1942.34375 652.2625 1996.09375 671.48125 2019.140625 659.996875 C 2046.015625 644.645312 2069.023438 575.504687 2080.546875 452.692187 " transform="matrix(0.1,0,0,-0.1,0,525.32)"/>
<path style="fill:none;stroke-width:10;stroke-linecap:round;stroke-linejoin:round;stroke:rgb(0%,0%,0%);stroke-opacity:1;stroke-miterlimit:4;" d="M 2165 1412.457812 C 2138.125 1408.590625 2115.117188 1370.192187 2092.070313 1297.2625 C 2072.851563 1231.989062 2065.195313 1182.10625 2069.023438 1143.707812 C 2069.023438 1120.660937 2080.546875 1093.785937 2099.765625 1063.082812 L 2145.78125 990.153125 C 2149.648438 970.973437 2165 947.8875 2188.046875 917.184375 L 2218.75 871.129687 C 2214.921875 859.60625 2199.570313 840.3875 2176.523438 813.5125 L 2118.945313 767.457812 L 2003.789063 740.621875 L 2019.140625 659.957812 " transform="matrix(0.1,0,0,-0.1,0,525.32)"/>
<path style="fill:none;stroke-width:10;stroke-linecap:round;stroke-linejoin:round;stroke:rgb(0%,0%,0%);stroke-opacity:1;stroke-miterlimit:4;" d="M 1907.773438 640.778125 C 1796.445313 636.910937 1738.867188 640.778125 1738.867188 659.957812 C 1735.039063 686.832812 1784.921875 713.66875 1888.59375 736.754687 L 2003.789063 740.621875 " transform="matrix(0.1,0,0,-0.1,0,525.32)"/>
<path style="fill:none;stroke-width:10;stroke-linecap:round;stroke-linejoin:round;stroke:rgb(0%,0%,0%);stroke-opacity:1;stroke-miterlimit:4;" d="M 1040.15625 1773.317187 C 1078.554688 1738.785937 1109.257813 1715.7 1132.304688 1704.215625 C 1201.40625 1677.301562 1262.851563 1673.473437 1316.5625 1688.825 C 1335.78125 1696.520312 1354.960938 1731.051562 1374.140625 1792.496875 C 1393.359375 1865.426562 1378.007813 1911.520312 1335.78125 1930.739062 L 1147.65625 1880.778125 L 1051.679688 1876.95 C 1009.414063 1873.121875 990.234375 1865.426562 990.234375 1853.942187 C 990.234375 1834.723437 1005.625 1811.676562 1040.15625 1773.317187 " transform="matrix(0.1,0,0,-0.1,0,525.32)"/>
<path style="fill:none;stroke-width:10;stroke-linecap:round;stroke-linejoin:round;stroke:rgb(0%,0%,0%);stroke-opacity:1;stroke-miterlimit:4;" d="M 2748.515625 2660.114062 L 2556.601563 2541.090625 C 2533.554688 2525.778125 2495.15625 2475.85625 2449.101563 2399.059375 C 2403.046875 2318.434375 2376.132813 2257.028125 2372.34375 2218.66875 C 2364.648438 2172.535937 2333.945313 2088.121875 2276.328125 1969.098437 C 2214.921875 1838.551562 2165 1754.098437 2122.773438 1711.871875 C 2080.546875 1673.473437 1980.742188 1627.41875 1831.015625 1573.66875 C 1692.8125 1527.614062 1600.664063 1500.7 1550.78125 1500.7 C 1504.6875 1496.871875 1447.109375 1519.879687 1385.664063 1569.840625 C 1362.65625 1592.848437 1335.742188 1631.246875 1316.5625 1688.825 " transform="matrix(0.1,0,0,-0.1,0,525.32)"/>
<path style="fill:none;stroke-width:10;stroke-linecap:round;stroke-linejoin:round;stroke:rgb(0%,0%,0%);stroke-opacity:1;stroke-miterlimit:4;" d="M 1523.90625 1496.871875 C 1504.6875 1477.692187 1473.984375 1466.16875 1431.71875 1450.817187 L 1316.5625 1443.121875 C 1282.03125 1454.645312 1255.15625 1470.035937 1232.109375 1489.215625 C 1212.890625 1508.434375 1212.890625 1519.879687 1243.632813 1519.879687 C 1278.164063 1519.879687 1320.429688 1542.926562 1366.484375 1596.676562 " transform="matrix(0.1,0,0,-0.1,0,525.32)"/>
<path style="fill:none;stroke-width:10;stroke-linecap:round;stroke-linejoin:round;stroke:rgb(0%,0%,0%);stroke-opacity:1;stroke-miterlimit:4;" d="M 2356.953125 3151.520312 C 2333.945313 3139.996875 2303.203125 3113.121875 2268.632813 3067.028125 L 2203.398438 2959.567187 C 2188.046875 2928.864062 2172.695313 2809.840625 2153.476563 2602.535937 L 1950.039063 2341.48125 L 1884.765625 2276.246875 L 1761.875 2253.160937 C 1673.59375 2249.29375 1573.789063 2210.934375 1454.804688 2149.528125 C 1454.804688 2126.48125 1420.234375 2076.559375 1347.265625 2003.629687 L 1324.257813 1934.528125 " transform="matrix(0.1,0,0,-0.1,0,525.32)"/>
<path style="fill:none;stroke-width:10;stroke-linecap:round;stroke-linejoin:round;stroke:rgb(0%,0%,0%);stroke-opacity:1;stroke-miterlimit:4;" d="M 1343.4375 2015.153125 C 1328.085938 2053.551562 1282.03125 2068.903125 1193.710938 2065.075 C 1151.484375 2065.075 1128.476563 2072.73125 1128.476563 2095.778125 C 1274.335938 2176.403125 1385.664063 2191.715625 1454.804688 2149.528125 " transform="matrix(0.1,0,0,-0.1,0,525.32)"/>
<path style="fill:none;stroke-width:10;stroke-linecap:round;stroke-linejoin:round;stroke:rgb(0%,0%,0%);stroke-opacity:1;stroke-miterlimit:4;" d="M 1723.515625 3401.051562 C 1738.867188 3370.348437 1750.390625 3312.770312 1765.742188 3224.45 C 1777.265625 3143.825 1784.921875 3078.551562 1781.09375 3032.496875 L 1761.875 2253.160937 " transform="matrix(0.1,0,0,-0.1,0,525.32)"/>
<path style="fill:none;stroke-width:10;stroke-linecap:round;stroke-linejoin:round;stroke:rgb(0%,0%,0%);stroke-opacity:1;stroke-miterlimit:4;" d="M 2157.34375 2702.340625 C 2153.476563 2740.739062 2122.773438 2779.1375 2065.195313 2821.364062 C 2015.273438 2863.590625 1973.046875 2886.6375 1930.820313 2898.121875 C 1884.765625 2909.645312 1831.015625 2875.075 1773.4375 2794.489062 " transform="matrix(0.1,0,0,-0.1,0,525.32)"/>
<path style="fill:none;stroke-width:10;stroke-linecap:round;stroke-linejoin:round;stroke:rgb(0%,0%,0%);stroke-opacity:1;stroke-miterlimit:4;" d="M 479.648438 2894.29375 C 487.34375 2901.989062 602.5 2944.215625 825.195313 3024.840625 L 1040.15625 3059.371875 L 1473.984375 3074.723437 C 1523.90625 3078.590625 1554.609375 3090.075 1573.789063 3113.121875 C 1608.359375 3147.653125 1669.765625 3182.223437 1761.875 3220.621875 " transform="matrix(0.1,0,0,-0.1,0,525.32)"/>
<path style="fill:none;stroke-width:10;stroke-linecap:round;stroke-linejoin:round;stroke:rgb(0%,0%,0%);stroke-opacity:1;stroke-miterlimit:4;" d="M 479.648438 2894.29375 L 180.234375 2913.473437 L 356.796875 2679.29375 C 387.539063 2683.121875 422.070313 2713.864062 464.296875 2775.309375 C 483.476563 2802.145312 491.171875 2840.54375 479.648438 2894.29375 " transform="matrix(0.1,0,0,-0.1,0,525.32)"/>
<path style="fill:none;stroke-width:10;stroke-linecap:round;stroke-linejoin:round;stroke:rgb(0%,0%,0%);stroke-opacity:1;stroke-miterlimit:4;" d="M 256.992188 2679.29375 C 233.984375 2686.989062 187.890625 2656.285937 122.617188 2587.184375 C 68.867188 2529.60625 30.46875 2483.5125 11.289063 2452.809375 C -0.234375 2429.801562 3.59375 2414.410937 26.640625 2410.582812 C 45.859375 2410.582812 68.867188 2414.410937 99.609375 2429.801562 C 134.140625 2452.809375 191.71875 2456.6375 276.171875 2452.809375 C 306.914063 2487.379687 303.046875 2568.004687 260.820313 2702.340625 C 260.820313 2725.3875 268.515625 2748.395312 283.867188 2767.614062 " transform="matrix(0.1,0,0,-0.1,0,525.32)"/>
<path style="fill:none;stroke-width:10;stroke-linecap:round;stroke-linejoin:round;stroke:rgb(0%,0%,0%);stroke-opacity:1;stroke-miterlimit:4;" d="M 314.609375 2310.778125 L 291.5625 2353.004687 C 280.039063 2372.223437 276.171875 2399.059375 276.171875 2441.285937 " transform="matrix(0.1,0,0,-0.1,0,525.32)"/>
<path style="fill:none;stroke-width:10;stroke-linecap:round;stroke-linejoin:round;stroke:rgb(0%,0%,0%);stroke-opacity:1;stroke-miterlimit:4;" d="M 314.609375 2310.778125 C 283.867188 2291.559375 268.515625 2249.29375 268.515625 2184.098437 C 264.6875 2126.48125 272.34375 2080.426562 283.867188 2049.723437 C 295.390625 2026.715625 306.914063 2022.848437 322.265625 2030.504687 L 498.867188 2214.801562 C 518.046875 2230.114062 510.351563 2253.160937 487.34375 2295.426562 C 460.46875 2333.825 402.890625 2341.48125 314.609375 2310.778125 " transform="matrix(0.1,0,0,-0.1,0,525.32)"/>
<path style="fill:none;stroke-width:10;stroke-linecap:round;stroke-linejoin:round;stroke:rgb(0%,0%,0%);stroke-opacity:1;stroke-miterlimit:4;" d="M 1589.140625 2752.2625 C 1562.265625 2756.090625 1520.039063 2740.739062 1462.460938 2710.035937 L 1270.507813 2594.840625 C 1243.632813 2579.489062 1212.890625 2568.004687 1189.882813 2564.176562 C 1163.007813 2560.309375 1116.953125 2537.223437 1059.375 2498.864062 L 652.421875 2245.504687 C 598.671875 2218.66875 548.75 2207.10625 498.867188 2214.801562 " transform="matrix(0.1,0,0,-0.1,0,525.32)"/>
<path style="fill:none;stroke-width:10;stroke-linecap:round;stroke-linejoin:round;stroke:rgb(0%,0%,0%);stroke-opacity:1;stroke-miterlimit:4;" d="M 1769.570313 2648.590625 C 1731.171875 2698.5125 1604.492188 2706.16875 1393.359375 2667.809375 " transform="matrix(0.1,0,0,-0.1,0,525.32)"/>
<path style="fill:none;stroke-width:10;stroke-linecap:round;stroke-linejoin:round;stroke:rgb(0%,0%,0%);stroke-opacity:1;stroke-miterlimit:4;" d="M 1136.132813 3612.184375 C 1109.257813 3585.309375 1090.078125 3539.254687 1078.554688 3473.98125 C 1063.203125 3408.746875 1067.03125 3354.957812 1082.382813 3312.770312 C 1097.734375 3274.371875 1139.960938 3247.496875 1212.929688 3232.145312 L 1366.484375 3228.278125 C 1385.664063 3235.973437 1485.507813 3285.895312 1665.9375 3378.004687 C 1769.570313 3435.621875 1884.765625 3458.629687 2007.617188 3450.934375 " transform="matrix(0.1,0,0,-0.1,0,525.32)"/>
<path style="fill:none;stroke-width:10;stroke-linecap:round;stroke-linejoin:round;stroke:rgb(0%,0%,0%);stroke-opacity:1;stroke-miterlimit:4;" d="M 1635.234375 3589.176562 L 1439.414063 3424.098437 C 1358.828125 3354.996875 1293.554688 3320.426562 1239.765625 3320.426562 C 1182.1875 3320.426562 1143.789063 3339.60625 1124.609375 3381.871875 C 1105.429688 3412.575 1105.429688 3481.676562 1124.609375 3589.176562 " transform="matrix(0.1,0,0,-0.1,0,525.32)"/>
<path style="fill:none;stroke-width:10;stroke-linecap:round;stroke-linejoin:round;stroke:rgb(0%,0%,0%);stroke-opacity:1;stroke-miterlimit:4;" d="M 1331.953125 3362.653125 C 1285.859375 3439.45 1255.15625 3473.98125 1243.632813 3466.325 C 1228.28125 3458.629687 1228.28125 3408.746875 1239.804688 3320.426562 " transform="matrix(0.1,0,0,-0.1,0,525.32)"/>
<path style="fill:none;stroke-width:10;stroke-linecap:round;stroke-linejoin:round;stroke:rgb(0%,0%,0%);stroke-opacity:1;stroke-miterlimit:4;" d="M 1846.367188 3631.403125 C 1877.070313 3646.754687 1900.117188 3681.285937 1915.46875 3731.207812 " transform="matrix(0.1,0,0,-0.1,0,525.32)"/>
<g clip-path="url(#clip1)" clip-rule="nonzero">
<path style="fill:none;stroke-width:10;stroke-linecap:round;stroke-linejoin:round;stroke:rgb(0%,0%,0%);stroke-opacity:1;stroke-miterlimit:4;" d="M 3332.109375 38.04375 C 3278.359375 141.676562 3239.960938 195.426562 3213.085938 195.426562 L 3005.78125 7.340625 C 3178.554688 -0.354688 3285.976563 11.16875 3332.109375 38.04375 " transform="matrix(0.1,0,0,-0.1,0,525.32)"/>
</g>
<path style="fill:none;stroke-width:10;stroke-linecap:round;stroke-linejoin:round;stroke:rgb(0%,0%,0%);stroke-opacity:1;stroke-miterlimit:4;" d="M 3332.109375 38.04375 L 3554.726563 111.0125 C 3593.125 122.496875 3635.351563 157.028125 3677.617188 210.778125 L 3892.578125 583.2 C 3934.804688 644.645312 3942.5 698.35625 3919.414063 752.067187 L 3831.171875 859.60625 C 3765.859375 944.059375 3765.859375 1005.465625 3831.171875 1051.559375 C 3911.796875 1109.1375 4026.953125 1293.395312 4168.984375 1604.410937 C 4230.429688 1734.91875 4238.125 1857.770312 4199.726563 1972.926562 C 4188.164063 2007.496875 4165.15625 2053.551562 4134.453125 2107.301562 L 4069.179688 2230.114062 C 4019.257813 2349.1375 3858.007813 2510.3875 3596.953125 2713.864062 L 2794.648438 3297.379687 C 2737.03125 3339.645312 2698.632813 3378.004687 2679.453125 3404.879687 C 2652.578125 3443.278125 2625.664063 3500.895312 2602.65625 3585.309375 C 2575.78125 3665.934375 2564.257813 3731.207812 2564.257813 3777.2625 C 2564.257813 3815.660937 2575.78125 3854.059375 2598.828125 3896.285937 L 2683.242188 4034.489062 C 2733.164063 4111.285937 2737.03125 4218.785937 2694.804688 4349.29375 C 2621.875 4556.598437 2587.304688 4675.621875 2587.304688 4710.192187 C 2591.132813 4737.028125 2614.179688 4771.598437 2652.578125 4809.996875 L 2955.859375 5063.35625 C 2975.039063 5117.10625 2967.382813 5167.028125 2936.640625 5205.426562 C 2913.632813 5236.090625 2882.890625 5251.48125 2848.359375 5247.653125 L 2245.625 5120.934375 L 1750.390625 5117.10625 L 1462.460938 5078.707812 C 1420.234375 5071.051562 1381.835938 5051.832812 1343.4375 5021.129687 L 1258.984375 4928.98125 C 1174.53125 4833.004687 1128.476563 4760.075 1116.953125 4702.496875 L 1109.257813 4564.254687 C 1101.601563 4499.020312 1093.90625 4464.489062 1090.078125 4452.965625 C 1078.554688 4441.442187 1032.5 4403.04375 944.179688 4345.465625 C 852.070313 4284.059375 798.28125 4249.489062 779.101563 4249.489062 C 702.304688 4230.309375 656.25 4211.090625 640.898438 4180.3875 L 583.320313 4095.934375 C 548.75 4049.840625 529.570313 4011.442187 521.875 3980.739062 C 506.523438 3934.684375 510.351563 3869.410937 533.398438 3792.653125 C 541.09375 3761.910937 552.617188 3746.559375 564.101563 3735.075 L 629.375 3688.98125 C 675.46875 3646.754687 710 3627.535937 733.046875 3623.707812 C 852.070313 3662.10625 959.53125 3688.98125 1055.507813 3700.504687 L 1285.859375 3685.114062 C 1366.484375 3669.801562 1424.0625 3654.410937 1470.117188 3631.403125 C 1504.6875 3616.051562 1550.742188 3604.489062 1616.015625 3600.660937 C 1665.9375 3593.004687 1708.164063 3593.004687 1731.171875 3600.660937 " transform="matrix(0.1,0,0,-0.1,0,525.32)"/>
<path style="fill:none;stroke-width:10;stroke-linecap:round;stroke-linejoin:round;stroke:rgb(0%,0%,0%);stroke-opacity:1;stroke-miterlimit:4;" d="M 1201.40625 3692.809375 C 1193.710938 3623.707812 1178.359375 3589.176562 1159.179688 3596.832812 C 1136.132813 3600.660937 1120.78125 3631.403125 1105.390625 3688.98125 " transform="matrix(0.1,0,0,-0.1,0,525.32)"/>
<path style="fill:none;stroke-width:10;stroke-linecap:round;stroke-linejoin:round;stroke:rgb(0%,0%,0%);stroke-opacity:1;stroke-miterlimit:4;" d="M 2203.398438 4717.848437 C 2207.226563 4706.325 2176.523438 4687.145312 2107.421875 4667.926562 L 1957.695313 4621.871875 C 1923.164063 4610.348437 1857.890625 4575.817187 1765.742188 4518.239062 C 1704.296875 4479.840625 1654.414063 4460.621875 1616.015625 4449.098437 C 1577.617188 4445.270312 1500.859375 4403.04375 1381.835938 4326.285937 " transform="matrix(0.1,0,0,-0.1,0,525.32)"/>
<path style="fill:none;stroke-width:10;stroke-linecap:round;stroke-linejoin:round;stroke:rgb(0%,0%,0%);stroke-opacity:1;stroke-miterlimit:4;" d="M 2122.773438 4253.317187 L 2130.46875 4591.16875 C 2130.46875 4629.567187 2111.25 4648.746875 2072.851563 4652.575 " transform="matrix(0.1,0,0,-0.1,0,525.32)"/>
<path style="fill:none;stroke-width:10;stroke-linecap:round;stroke-linejoin:round;stroke:rgb(0%,0%,0%);stroke-opacity:1;stroke-miterlimit:4;" d="M 2034.453125 4099.7625 L 1873.242188 4118.942187 C 1784.921875 4138.160937 1727.34375 4149.684375 1700.507813 4165.035937 C 1665.9375 4180.3875 1592.96875 4188.04375 1485.507813 4188.04375 " transform="matrix(0.1,0,0,-0.1,0,525.32)"/>
<path style="fill:none;stroke-width:10;stroke-linecap:round;stroke-linejoin:round;stroke:rgb(0%,0%,0%);stroke-opacity:1;stroke-miterlimit:4;" d="M 1823.320313 4138.160937 C 1884.765625 4191.910937 1923.164063 4257.145312 1926.992188 4333.942187 C 1934.648438 4410.7 1900.117188 4483.66875 1827.1875 4545.075 " transform="matrix(0.1,0,0,-0.1,0,525.32)"/>
<path style="fill:none;stroke-width:10;stroke-linecap:round;stroke-linejoin:round;stroke:rgb(0%,0%,0%);stroke-opacity:1;stroke-miterlimit:4;" d="M 1539.257813 4191.910937 C 1520.039063 4214.957812 1516.210938 4287.8875 1527.695313 4406.871875 " transform="matrix(0.1,0,0,-0.1,0,525.32)"/>
<path style="fill:none;stroke-width:10;stroke-linecap:round;stroke-linejoin:round;stroke:rgb(0%,0%,0%);stroke-opacity:1;stroke-miterlimit:4;" d="M 1308.90625 4525.895312 C 1308.90625 4552.770312 1328.085938 4598.825 1358.828125 4660.23125 " transform="matrix(0.1,0,0,-0.1,0,525.32)"/>
<path style="fill:none;stroke-width:10;stroke-linecap:round;stroke-linejoin:round;stroke:rgb(0%,0%,0%);stroke-opacity:1;stroke-miterlimit:4;" d="M 713.828125 3877.10625 L 698.476563 3850.23125 L 702.304688 3888.629687 L 763.789063 3880.934375 C 736.875 3880.934375 710 3861.715625 675.429688 3827.184375 " transform="matrix(0.1,0,0,-0.1,0,525.32)"/>
<g clip-path="url(#clip2)" clip-rule="nonzero">
<path style="fill:none;stroke-width:10;stroke-linecap:round;stroke-linejoin:round;stroke:rgb(0%,0%,0%);stroke-opacity:1;stroke-miterlimit:4;" d="M 4230.429688 1865.426562 L 4479.960938 1938.35625 C 4614.335938 1980.582812 4702.617188 2022.848437 4744.804688 2061.246875 C 4810.15625 2122.692187 4867.695313 2195.582812 4921.445313 2287.692187 C 4982.890625 2402.8875 5025.117188 2514.215625 5040.46875 2629.410937 C 5059.6875 2740.739062 5059.6875 2852.067187 5036.601563 2971.051562 C 5028.945313 3021.0125 4994.335938 3155.348437 4940.625 3374.176562 C 4909.921875 3485.504687 4860 3593.004687 4787.070313 3696.676562 L 4737.1875 3777.2625 C 4733.359375 3796.48125 4737.1875 3815.660937 4752.539063 3831.051562 C 4798.59375 3877.10625 4886.914063 3804.1375 5025.117188 3619.879687 C 5124.921875 3485.504687 5220.898438 3331.95 5316.875 3159.215625 C 5386.015625 3040.192187 5432.03125 2921.16875 5455.039063 2809.840625 C 5478.085938 2683.121875 5489.609375 2498.864062 5489.609375 2249.332812 C 5489.609375 2022.848437 5405.195313 1803.98125 5236.25 1592.848437 C 5101.875 1427.770312 4940.625 1293.434375 4756.367188 1189.7625 C 4556.71875 1078.395312 4238.125 986.285937 3804.257813 905.660937 " transform="matrix(0.1,0,0,-0.1,0,525.32)"/>
</g>
<path style="fill:none;stroke-width:10;stroke-linecap:round;stroke-linejoin:round;stroke:rgb(0%,0%,0%);stroke-opacity:1;stroke-miterlimit:4;" d="M 5481.992188 2533.434375 C 5485.78125 2483.5125 5474.257813 2422.067187 5455.039063 2349.176562 L 5332.226563 2022.809375 C 5282.304688 1888.473437 5186.328125 1765.621875 5044.296875 1646.6375 C 4975.15625 1589.020312 4860 1512.2625 4698.789063 1412.457812 C 4560.585938 1327.965625 4372.460938 1278.082812 4142.148438 1262.692187 C 4080.742188 1258.903125 4011.601563 1224.332812 3930.976563 1162.926562 " transform="matrix(0.1,0,0,-0.1,0,525.32)"/>
</g>
</svg>
