<?xml version="1.0" encoding="UTF-8"?>
<svg xmlns="http://www.w3.org/2000/svg" xmlns:xlink="http://www.w3.org/1999/xlink" width="306.07pt" height="345.28pt" viewBox="0 0 306.07 345.28" version="1.1">
<defs>
<clipPath id="clip1">
  <path d="M 0 0 L 288 0 L 288 345.28125 L 0 345.28125 Z M 0 0 "/>
</clipPath>
<clipPath id="clip2">
  <path d="M 253 83 L 306.070313 83 L 306.070313 194 L 253 194 Z M 253 83 "/>
</clipPath>
</defs>
<g id="surface1">
<g clip-path="url(#clip1)" clip-rule="nonzero">
<path style=" stroke:none;fill-rule:evenodd;fill:rgb(12.89978%,8.599854%,7.499695%);fill-opacity:1;" d="M 287.53125 193.328125 C 288.039063 203.003906 287.925781 212.660156 286.683594 222.289063 C 284.433594 239.738281 279.46875 256.308594 269.550781 270.984375 C 258.082031 287.953125 242.144531 298.21875 221.667969 300.871094 C 212.109375 302.109375 202.550781 301.441406 193.070313 299.8125 C 192.101563 299.644531 191.652344 299.832031 191.210938 300.722656 C 189.109375 304.941406 186.214844 308.597656 182.820313 311.84375 C 181.976563 312.648438 182.007813 313.128906 182.621094 314.035156 C 184.703125 317.109375 186.773438 320.199219 187.578125 323.925781 C 188.675781 329.007813 186.304688 333.679688 181.519531 335.667969 C 180.851563 335.945313 180.484375 336.363281 180.070313 336.910156 C 177.628906 340.164063 174.296875 342.230469 170.609375 343.789063 C 169.746094 344.152344 169.492188 343.574219 169.464844 342.863281 C 169.421875 341.816406 169.398438 340.769531 169.425781 339.722656 C 169.441406 339.050781 169.378906 338.765625 168.519531 338.796875 C 167.230469 338.839844 166.441406 339.234375 165.980469 340.507813 C 165.433594 342.03125 164.574219 343.410156 163.550781 344.683594 C 162.976563 345.394531 162.492188 345.476563 161.773438 344.890625 C 160.253906 343.65625 158.820313 342.339844 157.535156 340.855469 C 156.960938 340.191406 154.828125 339.695313 154.050781 340.015625 C 153.691406 340.15625 153.738281 340.441406 153.699219 340.707031 C 153.625 341.226563 153.496094 341.746094 153.5 342.265625 C 153.515625 344.125 153.335938 344.453125 151.144531 343.980469 C 148.4375 343.398438 145.796875 342.625 143.34375 341.308594 C 142.027344 340.601563 140.84375 339.738281 140.019531 338.453125 C 139.894531 338.257813 139.742188 338.050781 139.550781 337.9375 C 135.671875 335.707031 134.78125 331.945313 134.597656 327.941406 C 134.382813 323.355469 135.753906 319.003906 136.9375 314.640625 C 137.449219 312.761719 138.449219 310.867188 138.367188 309.015625 C 138.289063 307.207031 136.671875 305.6875 135.792969 304.003906 C 134.335938 301.222656 132.910156 298.425781 131.777344 295.492188 C 131.527344 294.847656 131.242188 294.503906 130.488281 294.441406 C 123.449219 293.878906 116.515625 292.699219 109.707031 290.824219 C 109.140625 290.667969 108.84375 290.847656 108.511719 291.273438 C 104.027344 297.105469 100.203125 303.347656 96.90625 309.917969 C 96.433594 310.863281 96.703125 311.796875 96.871094 312.714844 C 97.621094 316.789063 98.316406 320.867188 98.738281 324.992188 C 98.988281 327.464844 98.671875 328.070313 96.3125 328.960938 C 91.734375 330.683594 86.957031 331.480469 82.117188 332.003906 C 71.308594 333.167969 60.472656 333.679688 49.597656 333.882813 C 45.640625 333.953125 41.65625 334.585938 37.660156 334.597656 C 35.21875 334.609375 32.816406 334.238281 30.402344 333.984375 C 29.847656 333.929688 29.15625 334.007813 28.871094 333.421875 C 28.546875 332.75 29.136719 332.289063 29.496094 331.804688 C 29.609375 331.65625 29.738281 331.523438 29.996094 331.222656 C 28.320313 331.125 26.785156 331.035156 25.257813 330.941406 C 23.308594 330.824219 21.355469 330.707031 19.40625 330.578125 C 17.851563 330.472656 17.550781 329.910156 18.335938 328.574219 C 18.640625 328.058594 18.980469 327.5625 19.410156 326.894531 C 17.066406 326.902344 14.894531 326.972656 12.738281 326.648438 C 11.417969 326.449219 11.195313 326.121094 11.910156 325.035156 C 14.390625 321.265625 17.636719 318.410156 21.972656 316.988281 C 23.074219 316.625 24.027344 316.125 24.960938 315.449219 C 31.59375 310.652344 39.085938 307.644531 46.804688 305.132813 C 47.164063 305.015625 47.539063 304.929688 47.890625 304.785156 C 49.179688 304.265625 49.402344 302.957031 48.390625 301.996094 C 44.996094 298.765625 41.753906 295.453125 40.046875 290.917969 C 37.417969 283.9375 38.144531 277.179688 41.203125 270.554688 C 44.996094 262.335938 50.964844 255.847656 57.75 250.023438 C 58.867188 249.066406 60.546875 248.257813 60.894531 247.066406 C 61.214844 245.964844 60.078125 244.453125 59.601563 243.113281 C 54.300781 228.160156 51.4375 212.8125 52.070313 196.890625 C 52.210938 193.417969 52.347656 189.941406 52.519531 186.46875 C 52.546875 185.847656 52.511719 185.4375 51.816406 185.144531 C 40.867188 180.550781 32.082031 173.082031 24.09375 164.476563 C 18.820313 158.792969 14.324219 152.542969 9.875 146.238281 C 8.242188 143.925781 6.480469 141.816406 3.777344 140.644531 C 2.558594 140.117188 1.511719 139.234375 0.652344 138.1875 C -0.3125 137.015625 -0.210938 136.070313 0.984375 135.160156 C 2.804688 133.777344 4.621094 132.394531 6.484375 131.070313 C 7.425781 130.40625 7.605469 129.660156 7.46875 128.523438 C 7.035156 124.980469 6.707031 121.414063 7.339844 117.847656 C 7.753906 115.496094 8.359375 115.1875 10.316406 116.554688 C 16.9375 121.183594 23.996094 124.976563 31.488281 128.007813 C 38.835938 130.976563 46.433594 132.757813 54.34375 133.214844 C 54.867188 133.242188 55.390625 133.261719 55.914063 133.273438 C 55.996094 133.277344 56.078125 133.226563 56.363281 133.132813 C 53.097656 131.296875 50.28125 129.085938 47.703125 126.5625 C 38.859375 117.917969 32.394531 107.878906 29.796875 95.644531 C 29.269531 93.152344 28.476563 90.890625 27.257813 88.636719 C 24.351563 83.265625 23.4375 77.679688 26.695313 72.042969 C 28.710938 68.550781 31.628906 66.023438 35.28125 64.363281 C 36.03125 64.023438 36.359375 63.632813 36.457031 62.816406 C 38.03125 49.332031 42.316406 36.789063 49.574219 25.289063 C 49.828125 24.894531 50.03125 24.457031 50.199219 24.015625 C 51.355469 20.972656 53.410156 18.761719 56.367188 17.410156 C 57.175781 17.042969 57.757813 16.523438 58.28125 15.796875 C 65.109375 6.332031 74.472656 1.304688 86.003906 0.308594 C 94.226563 -0.402344 102.359375 0.015625 110.269531 2.742188 C 130.539063 9.722656 142.761719 23.984375 148.273438 44.429688 C 151.578125 56.683594 151.007813 68.890625 148.484375 81.199219 C 146.761719 89.597656 145.757813 98.136719 145.992188 106.746094 C 146.230469 115.410156 148.164063 123.703125 151.84375 131.578125 C 152.207031 132.351563 152.636719 132.484375 153.382813 132.4375 C 159.738281 132.039063 165.871094 130.492188 171.980469 128.816406 C 182.691406 125.882813 193.050781 121.992188 203.113281 117.300781 C 203.84375 116.957031 204.601563 116.65625 205.375 116.433594 C 207.285156 115.882813 207.828125 116.300781 207.84375 118.257813 C 207.867188 121.4375 207.222656 124.503906 206.148438 127.472656 C 205.667969 128.796875 205.957031 130.109375 205.9375 131.429688 C 205.933594 131.9375 206.441406 132.089844 206.777344 132.324219 C 208.414063 133.472656 210.085938 134.578125 211.707031 135.75 C 213.09375 136.75 213.300781 137.546875 212.539063 139.0625 C 211.136719 141.859375 208.980469 144 206.371094 145.664063 C 205.402344 146.28125 204.78125 147.074219 204.246094 148.066406 C 200.269531 155.449219 195.265625 161.980469 188.386719 166.925781 C 183.773438 170.242188 178.640625 172.472656 173.195313 173.988281 C 172.105469 174.289063 171.902344 174.59375 172.21875 175.703125 C 174.640625 184.21875 177.941406 192.433594 180.714844 200.832031 C 184.460938 212.167969 188.195313 223.503906 190.453125 235.261719 C 191.007813 238.160156 191.460938 241.078125 191.734375 244.015625 C 191.816406 244.929688 192.136719 245.601563 192.800781 246.242188 C 198.214844 251.464844 204.746094 254.269531 212.132813 255.230469 C 219.996094 256.257813 227.8125 256.277344 235.449219 253.746094 C 251.179688 248.527344 262.875 238.4375 271.113281 224.179688 C 275.453125 216.660156 277.554688 208.46875 278.402344 199.902344 C 278.636719 197.53125 278.96875 195.171875 278.964844 192.785156 C 278.8125 192.183594 278.722656 191.609375 279.523438 191.394531 C 280.511719 191.457031 280.488281 192.203125 280.445313 192.859375 C 279.769531 202.4375 278.613281 211.921875 274.464844 220.753906 C 272.0625 225.867188 268.988281 230.554688 265.40625 234.921875 C 259.640625 241.949219 252.664063 247.464844 244.5625 251.539063 C 238.691406 254.492188 232.507813 256.6875 225.917969 257.078125 C 217.410156 257.585938 208.945313 257.160156 201 253.53125 C 198.351563 252.320313 195.867188 250.8125 193.675781 248.859375 C 193.371094 248.589844 193.109375 248.238281 192.578125 248.121094 C 192.929688 253.582031 192.664063 258.933594 191.660156 264.234375 C 191.5 265.085938 191.816406 265.832031 192.117188 266.582031 C 193.484375 270 194.488281 273.519531 195.007813 277.167969 C 195.484375 280.324219 195.8125 283.492188 195.457031 286.679688 C 195.339844 287.757813 195.851563 288.132813 196.746094 288.34375 C 198.835938 288.835938 200.964844 289.089844 203.09375 289.242188 C 212.648438 289.9375 222.070313 289.027344 231.40625 286.941406 C 235.824219 285.953125 240.179688 284.789063 244.320313 282.914063 C 246.3125 282.011719 248.226563 280.960938 250.082031 279.804688 C 254.855469 276.640625 259.277344 273.066406 263.292969 268.957031 C 267.988281 264.152344 271.820313 258.742188 275.164063 252.949219 C 277.550781 248.816406 279.390625 244.429688 281.285156 240.0625 C 283.316406 235.378906 283.957031 230.355469 284.835938 225.390625 C 286.636719 215.203125 286.296875 204.914063 286.28125 194.640625 C 286.28125 194.113281 286.15625 193.601563 286.109375 193.082031 C 286.054688 192.507813 286.003906 191.90625 286.75 191.691406 C 287.921875 191.804688 287.753906 192.550781 287.53125 193.328125 "/>
</g>
<g clip-path="url(#clip2)" clip-rule="nonzero">
<path style=" stroke:none;fill-rule:evenodd;fill:rgb(87.799072%,32.499695%,13.299561%);fill-opacity:1;" d="M 287.53125 193.328125 C 287.070313 192.933594 287.789063 192.101563 286.980469 191.835938 C 286.894531 191.675781 286.929688 191.542969 287.074219 191.4375 C 290.847656 190.140625 292.726563 187.332031 293.46875 183.550781 C 294.359375 179.027344 294.375 174.460938 294.246094 169.886719 C 294.207031 168.523438 293.738281 167.324219 292.738281 166.292969 C 289.554688 163.019531 287.988281 159.109375 288.269531 154.496094 C 288.3125 153.804688 288.414063 153.074219 288.140625 152.390625 C 287.625 152.304688 287.464844 152.71875 287.261719 153 C 285.851563 154.945313 284.699219 156.992188 284.410156 159.457031 C 284.238281 160.929688 283.824219 162.355469 282.65625 163.429688 C 282.105469 163.933594 281.503906 164.261719 280.734375 164.214844 C 279.929688 164.171875 279.460938 163.792969 279.554688 162.953125 C 279.84375 160.3125 279.136719 157.90625 278.144531 155.476563 C 276.941406 152.53125 276.800781 149.398438 276.976563 146.210938 C 277.203125 142.164063 278.410156 138.261719 278.339844 134.160156 C 278.289063 131.203125 277.523438 128.535156 276.402344 125.890625 C 276.214844 125.453125 275.945313 125.054688 275.847656 124.578125 C 275.953125 125.71875 276.027344 126.851563 275.390625 127.894531 C 275.164063 128.265625 275.097656 128.695313 275.074219 129.128906 C 274.960938 131.375 274.367188 133.546875 273.980469 135.75 C 273.773438 136.925781 273.125 137.65625 271.972656 137.878906 C 270.933594 138.074219 270.414063 138.703125 270.21875 139.6875 C 270.101563 140.300781 269.910156 140.890625 269.554688 141.410156 C 269.171875 141.976563 268.722656 142.566406 267.9375 142.230469 C 267.265625 141.945313 267.21875 141.285156 267.304688 140.636719 C 267.378906 140.070313 267.582031 139.523438 267.621094 138.949219 C 267.683594 137.933594 267.355469 137.132813 266.28125 136.894531 C 263.882813 136.363281 262.800781 134.550781 261.957031 132.515625 C 261.371094 131.101563 261.117188 129.589844 260.820313 127.863281 C 259.597656 129.832031 259.167969 131.8125 259.175781 133.914063 C 259.179688 134.472656 259.429688 135.054688 258.90625 135.519531 C 258.824219 135.472656 258.6875 135.445313 258.664063 135.382813 C 257.824219 132.714844 255.925781 130.785156 254.175781 128.714844 C 252.503906 126.738281 253.171875 124.265625 253.339844 121.96875 C 253.449219 120.4375 254.066406 119.027344 254.722656 117.644531 C 255.4375 116.140625 256.132813 114.625 256.804688 113.101563 C 257.097656 112.441406 257.441406 111.828125 257.925781 111.289063 C 260.644531 108.261719 260.65625 108.234375 260.765625 104.113281 C 262.242188 105.65625 262.90625 107.246094 263.078125 109.246094 C 263.976563 108.304688 263.769531 107.269531 263.886719 106.125 C 265.167969 107.238281 265.617188 108.5 265.523438 110.121094 C 268.554688 109.285156 270.773438 107.679688 271.964844 104.859375 C 272.597656 103.363281 273.105469 101.769531 273.140625 100.171875 C 273.195313 97.601563 274.070313 95.332031 275.136719 93.089844 C 276.222656 90.8125 277.304688 88.542969 277.695313 86.007813 C 277.816406 85.234375 278.085938 84.449219 278.660156 83.753906 C 279.160156 84.203125 278.945313 84.75 278.910156 85.203125 C 278.519531 90.285156 279.492188 95.035156 282.117188 99.457031 C 283.277344 101.410156 282.992188 103.722656 283.15625 105.882813 C 283.339844 108.296875 283.144531 110.734375 284.503906 112.9375 C 284.917969 113.605469 284.957031 114.476563 284.742188 115.304688 C 284.664063 115.617188 284.683594 115.964844 284.679688 116.296875 C 284.667969 117.246094 285.292969 117.785156 286.03125 118.144531 C 286.839844 118.539063 287.199219 117.796875 287.667969 117.347656 C 288.648438 116.402344 288.648438 115.042969 289.105469 113.75 C 289.925781 114.457031 289.972656 115.394531 290.367188 116.417969 C 293.171875 113.800781 295.015625 110.683594 296.535156 107.054688 C 297.246094 108.550781 297.34375 109.933594 297.488281 111.257813 C 297.839844 114.382813 298.117188 117.523438 297.816406 120.667969 C 297.570313 123.25 298.199219 125.6875 298.839844 128.121094 C 300.203125 133.285156 300.6875 138.515625 300.226563 143.835938 C 300.175781 144.445313 300.222656 145.066406 300.222656 145.683594 C 302.335938 145.242188 302.738281 144.796875 304.667969 140.746094 C 305.15625 141.375 305 142.140625 305.261719 142.761719 C 306.996094 146.914063 305.394531 151.105469 305.386719 155.277344 C 305.382813 157.324219 305.707031 159.515625 304.273438 161.339844 C 304.222656 161.402344 304.203125 161.535156 304.234375 161.609375 C 305.148438 163.769531 303.640625 164.945313 302.394531 166.269531 C 300.078125 168.734375 299.136719 171.820313 298.699219 175.074219 C 298.328125 177.855469 298.265625 180.691406 297.707031 183.429688 C 296.636719 188.699219 293.675781 192.277344 288.066406 193.132813 C 287.882813 193.160156 287.710938 193.261719 287.53125 193.328125 "/>
</g>
<path style=" stroke:none;fill-rule:evenodd;fill:rgb(98.399353%,81.999207%,23.098755%);fill-opacity:1;" d="M 258.90625 135.519531 C 258.878906 130.574219 259.160156 129.410156 261.050781 126.835938 C 261.308594 128.175781 261.539063 129.4375 261.800781 130.695313 C 262.113281 132.207031 262.753906 133.570313 263.671875 134.816406 C 264.296875 135.664063 265.050781 136.273438 266.097656 136.417969 C 267.984375 136.679688 268.109375 137.710938 268.003906 139.285156 C 267.976563 139.707031 267.867188 140.136719 267.714844 140.53125 C 267.480469 141.140625 267.480469 141.757813 268.078125 142.019531 C 268.675781 142.289063 268.964844 141.640625 269.257813 141.230469 C 269.421875 141 269.585938 140.726563 269.617188 140.460938 C 269.808594 138.738281 270.445313 137.496094 272.421875 137.324219 C 273.050781 137.269531 273.429688 136.71875 273.535156 136.011719 C 273.917969 133.527344 274.386719 131.0625 274.777344 128.582031 C 275.019531 127.023438 275.804688 125.527344 275.621094 123.816406 C 277.203125 126.382813 278.382813 129.078125 278.660156 132.089844 C 279.007813 135.816406 278.3125 139.464844 277.746094 143.128906 C 277.011719 147.878906 276.992188 152.558594 279.203125 157.058594 C 280.078125 158.84375 280.316406 160.882813 279.890625 162.898438 C 279.71875 163.707031 280.0625 163.902344 280.785156 163.90625 C 282.039063 163.914063 282.660156 163.0625 283.191406 162.152344 C 283.746094 161.199219 283.949219 160.113281 284.097656 159.027344 C 284.503906 156.023438 285.996094 153.601563 288.121094 151.519531 C 288.203125 151.4375 288.367188 151.433594 288.648438 151.34375 C 288.648438 152.449219 288.699219 153.472656 288.640625 154.492188 C 288.382813 159.097656 289.953125 162.992188 293.222656 166.1875 C 294.191406 167.136719 294.585938 168.269531 294.617188 169.511719 C 294.757813 174.691406 294.871094 179.882813 293.542969 184.960938 C 292.8125 187.761719 291.195313 189.914063 288.628906 191.296875 C 288.128906 191.5625 287.558594 191.707031 286.96875 191.613281 C 286.25 191.144531 285.777344 190.414063 285.136719 189.863281 C 283.207031 188.199219 281.230469 188.519531 279.980469 190.714844 C 279.796875 191.039063 279.675781 191.410156 279.265625 191.535156 C 278.890625 191.886719 279.402344 192.449219 278.964844 192.785156 C 276.894531 193.375 274.832031 193.816406 272.648438 193.371094 C 270.046875 192.847656 268.050781 191.621094 267.058594 189.058594 C 266.730469 188.210938 266.089844 187.667969 265.363281 187.191406 C 264.128906 186.386719 263.316406 185.363281 263.503906 183.769531 C 263.605469 182.882813 263.167969 182.207031 262.46875 181.699219 C 261.855469 181.253906 261.191406 180.867188 260.59375 180.394531 C 258.554688 178.773438 257.21875 176.773438 257.433594 174.035156 C 257.558594 172.472656 257.566406 170.863281 257.96875 169.371094 C 259.160156 164.964844 258.746094 160.570313 257.972656 156.210938 C 257.640625 154.339844 258.109375 152.960938 259.515625 151.953125 C 263.050781 149.417969 263.015625 146.695313 262.050781 142.242188 C 261.992188 141.976563 261.847656 141.675781 261.648438 141.5 C 259.824219 139.917969 259.429688 137.691406 258.90625 135.519531 "/>
<path style=" stroke:none;fill-rule:evenodd;fill:rgb(95.698547%,87.5%,47.799683%);fill-opacity:1;" d="M 71.847656 263.136719 C 66.457031 255.8125 62.125 247.957031 59.304688 239.261719 C 54.488281 224.386719 52.285156 209.183594 53.128906 193.558594 C 53.453125 187.53125 53.378906 181.410156 54.820313 175.535156 C 58.054688 162.332031 64.507813 150.929688 74.769531 141.828125 C 75.328125 141.484375 75.867188 141.683594 76.410156 141.878906 C 81.816406 143.808594 87.421875 144.460938 93.121094 144.5625 C 99.800781 144.679688 106.457031 144.484375 113.027344 143.113281 C 113.550781 143 114.066406 142.992188 114.5625 143.242188 C 121.894531 148.992188 127.117188 156.460938 131.675781 164.433594 C 140.316406 179.550781 146.429688 195.625 149.5625 212.773438 C 151.664063 224.292969 152.378906 235.90625 151.496094 247.613281 C 150.964844 254.664063 149.949219 261.609375 147.964844 268.394531 C 146.882813 272.109375 145.320313 275.617188 143.15625 278.839844 C 142.574219 279.085938 142.152344 278.699219 141.714844 278.445313 C 131.136719 272.199219 119.976563 267.222656 108.402344 263.160156 C 102.914063 261.234375 97.328125 259.589844 91.511719 259.007813 C 86.574219 258.519531 81.632813 258.300781 76.894531 260.308594 C 75.648438 260.835938 74.507813 261.472656 73.539063 262.429688 C 73.089844 262.871094 72.664063 263.515625 71.847656 263.136719 "/>
<path style=" stroke:none;fill-rule:evenodd;fill:rgb(92.498779%,46.699524%,11.799622%);fill-opacity:1;" d="M 172.523438 180.195313 C 177.03125 193.585938 181.964844 206.828125 185.839844 220.429688 C 188.71875 230.523438 190.871094 240.742188 191.335938 251.261719 C 191.511719 255.355469 191.128906 259.425781 190.332031 263.621094 C 189.195313 262.246094 188.210938 260.992188 187.15625 259.796875 C 185.238281 257.628906 182.972656 255.914063 180.277344 254.804688 C 179.953125 254.671875 179.523438 254.324219 179.3125 254.867188 C 179.152344 255.28125 179.648438 255.382813 179.910156 255.519531 C 188.238281 259.851563 191.921875 267.234375 193.417969 276.050781 C 194.136719 280.292969 194.433594 284.554688 193.730469 288.835938 C 192.671875 290.695313 190.894531 291.808594 189.171875 292.84375 C 180.441406 298.078125 170.957031 301.246094 160.925781 302.820313 C 159.492188 303.046875 158.207031 302.46875 157.035156 301.691406 C 152.257813 298.523438 148.570313 294.34375 145.734375 289.398438 C 144.625 287.457031 143.46875 285.53125 142.6875 283.421875 C 142.515625 282.949219 142.160156 282.480469 142.527344 281.941406 C 148.589844 273.183594 150.882813 263.195313 152.023438 252.828125 C 152.632813 247.289063 152.945313 241.734375 152.851563 236.15625 C 152.519531 216.449219 148.308594 197.597656 140.363281 179.570313 C 136.132813 169.96875 131.324219 160.691406 124.871094 152.347656 C 122.300781 149.019531 119.441406 145.992188 116.234375 143.285156 C 116.328125 142.472656 117.046875 142.621094 117.53125 142.511719 C 123.480469 141.117188 129.210938 139.117188 134.671875 136.371094 C 139.03125 134.183594 142.921875 131.304688 146.671875 128.214844 C 147.308594 127.691406 147.835938 126.929688 148.816406 126.988281 C 149.484375 128.566406 150.125 130.152344 150.832031 131.710938 C 151.148438 132.410156 151.003906 132.65625 150.25 132.636719 C 149.632813 132.621094 149.011719 132.65625 148.390625 132.6875 C 148.164063 132.699219 147.863281 132.683594 147.835938 132.992188 C 147.796875 133.367188 148.113281 133.445313 148.398438 133.464844 C 148.777344 133.492188 149.160156 133.480469 149.542969 133.484375 C 156.304688 133.515625 162.878906 132.300781 169.390625 130.578125 C 181.148438 127.476563 192.535156 123.351563 203.558594 118.210938 C 204.53125 117.757813 205.753906 116.824219 206.578125 117.449219 C 207.378906 118.058594 206.804688 119.484375 206.714844 120.558594 C 206.539063 122.558594 206.082031 124.496094 205.433594 126.394531 C 204.929688 126.722656 204.730469 126.347656 204.636719 125.980469 C 204.410156 125.066406 203.964844 125.304688 203.410156 125.667969 C 201.988281 126.601563 200.722656 127.746094 199.269531 128.636719 C 198.683594 128.75 198.136719 128.550781 197.585938 128.417969 C 195.304688 127.882813 193.011719 127.457031 190.585938 127.695313 C 192.898438 127.636719 195.082031 128.117188 197.261719 128.574219 C 199.492188 129.039063 199.753906 129.523438 198.949219 131.59375 C 198.175781 133.59375 197.261719 135.53125 196.332031 137.460938 C 194.769531 140.9375 193.148438 144.367188 190.839844 147.449219 C 185.777344 154.214844 179.648438 159.730469 172.265625 163.878906 C 166.441406 167.148438 160.3125 169.535156 153.757813 170.84375 C 152.507813 171.09375 152.320313 171.445313 152.8125 172.648438 C 154.789063 177.441406 158.375 180.632813 163.226563 182.140625 C 165.957031 182.988281 168.808594 182.460938 171.277344 180.746094 C 171.65625 180.484375 171.964844 180.046875 172.523438 180.195313 "/>
<path style=" stroke:none;fill-rule:evenodd;fill:rgb(92.498779%,47.099304%,11.799622%);fill-opacity:1;" d="M 27.652344 87.222656 C 22.753906 77.304688 27.636719 69.679688 34.753906 65.6875 C 35.957031 65.011719 37.050781 64.691406 38.253906 65.753906 C 38.84375 66.277344 39.644531 66.570313 40.378906 66.910156 C 42.480469 67.886719 42.472656 67.867188 43.554688 65.777344 C 48.855469 55.535156 52.277344 44.71875 53.535156 33.246094 C 53.75 31.269531 53.957031 29.28125 53.722656 27.265625 C 53.585938 26.113281 53.242188 25.152344 52.457031 24.332031 C 52.855469 22.683594 54.847656 20.984375 56.613281 20.816406 C 58.308594 20.65625 59.917969 20.960938 61.421875 21.773438 C 62.367188 22.597656 62.34375 23.789063 62.574219 24.882813 C 62.675781 25.386719 62.777344 25.894531 62.859375 26.476563 C 63.207031 25.109375 62.304688 23.871094 62.691406 22.570313 C 63.121094 22.183594 63.664063 22.238281 64.179688 22.21875 C 66.429688 22.140625 68.269531 21.273438 69.894531 19.683594 C 72.183594 17.449219 74.121094 14.914063 76.320313 12.601563 C 79.605469 9.144531 83.480469 6.710938 87.917969 5.011719 C 93.402344 2.914063 99.078125 2.398438 104.878906 2.570313 C 105.734375 2.597656 106.511719 3.074219 107.386719 2.929688 C 119.441406 6.773438 130.050781 12.738281 137.410156 23.449219 C 137.347656 24.125 136.8125 23.964844 136.449219 23.921875 C 135.171875 23.773438 134.605469 24.460938 134.382813 25.582031 C 133.933594 27.828125 133.835938 30.117188 133.53125 32.382813 C 132.84375 37.527344 132.644531 42.734375 131.492188 47.8125 C 131.367188 48.367188 131.304688 48.957031 130.898438 49.398438 C 130.707031 49.605469 130.464844 49.511719 130.25 49.386719 C 129.367188 48.390625 129.195313 47.066406 128.660156 45.910156 C 127.835938 44.121094 126.753906 42.523438 125.574219 40.960938 C 123.175781 37.78125 117.710938 37.613281 114.757813 40.429688 C 111.125 43.898438 108.945313 48.144531 107.234375 52.726563 C 104.972656 58.789063 103.964844 65.128906 103.191406 71.515625 C 102.929688 73.6875 102.808594 75.871094 102.605469 78.046875 C 102.472656 79.492188 103.109375 80.367188 104.355469 80.984375 C 106.820313 82.207031 109.4375 82.777344 112.148438 83.148438 C 114.75 83.503906 117.375 83.160156 119.960938 83.617188 C 122.105469 85.683594 122.457031 88.15625 120.753906 90.539063 C 118.316406 93.949219 114.8125 96.015625 111.046875 97.570313 C 103.96875 100.492188 96.550781 102.230469 88.988281 103.304688 C 79.617188 104.640625 70.273438 106.171875 60.867188 107.285156 C 58.296875 107.589844 55.832031 107.183594 53.507813 106.039063 C 45.269531 101.972656 37.707031 96.882813 30.679688 90.984375 C 29.425781 89.929688 28.601563 88.519531 27.652344 87.222656 "/>
<path style=" stroke:none;fill-rule:evenodd;fill:rgb(72.198486%,39.99939%,14.099121%);fill-opacity:1;" d="M 130.277344 49.1875 C 130.585938 49.332031 130.746094 49.339844 130.84375 48.90625 C 131.488281 46.050781 131.945313 43.167969 132.257813 40.261719 C 132.59375 37.167969 132.964844 34.078125 133.320313 30.988281 C 133.515625 29.257813 133.605469 27.503906 133.941406 25.796875 C 134.421875 23.335938 134.496094 23.355469 137.0625 23.65625 C 137.171875 23.667969 137.292969 23.523438 137.410156 23.449219 C 140.78125 27.824219 143.148438 32.742188 145.101563 37.863281 C 148.492188 46.769531 150.050781 56.007813 149.617188 65.523438 C 149.367188 70.980469 148.445313 76.367188 147.324219 81.722656 C 146.3125 86.558594 145.839844 91.480469 145.410156 96.398438 C 145.085938 100.089844 144.800781 103.765625 145.007813 107.496094 C 145.378906 114.1875 146.578125 120.679688 148.816406 126.988281 C 143.984375 130.90625 139.128906 134.792969 133.410156 137.414063 C 128.042969 139.871094 122.519531 141.867188 116.714844 143.019531 C 116.542969 143.054688 116.390625 143.195313 116.234375 143.285156 C 110.328125 138.378906 103.464844 135.761719 95.613281 134.773438 C 104.921875 131.40625 113.371094 127.101563 120.625 120.144531 C 119.617188 119.90625 119.3125 120.398438 118.945313 120.691406 C 110.015625 127.867188 100.132813 133.105469 88.824219 135.367188 C 83.074219 136.519531 77.28125 137.457031 71.398438 136.949219 C 63.863281 136.296875 57.144531 133.382813 51.441406 128.535156 C 42.148438 120.644531 35.214844 111.050781 31.714844 99.203125 C 31.195313 97.433594 30.707031 95.65625 30.429688 93.601563 C 31.863281 94.867188 32.917969 96.007813 33.070313 97.90625 C 33.25 100.183594 34.066406 102.351563 34.859375 104.496094 C 35.0625 105.046875 35.226563 105.769531 36.144531 105.167969 C 36.871094 104.691406 36.75 105.527344 36.863281 105.796875 C 39.546875 112.246094 43.09375 118.144531 48.253906 122.910156 C 52.953125 127.246094 58.226563 130.6875 64.570313 132.222656 C 67.945313 133.039063 71.304688 132.585938 74.632813 132.050781 C 82.207031 130.832031 89.683594 129.113281 96.648438 125.804688 C 105.367188 121.660156 113.28125 116.476563 118.199219 107.757813 C 118.480469 107.261719 118.785156 106.769531 118.996094 106.242188 C 119.875 104.039063 120.59375 101.734375 123.078125 100.71875 C 123.15625 100.6875 123.21875 100.59375 123.273438 100.515625 C 123.777344 99.796875 124.980469 98.730469 124.535156 98.386719 C 123.832031 97.835938 123.382813 99.210938 122.777344 99.699219 C 120.265625 101.722656 117.347656 102.796875 114.261719 103.535156 C 107.460938 105.167969 100.539063 106.09375 93.609375 106.988281 C 86.214844 107.945313 78.828125 108.996094 71.4375 110 C 67.71875 110.507813 63.996094 111.011719 60.277344 111.503906 C 58.304688 111.765625 56.503906 111.230469 54.804688 110.265625 C 46.839844 105.726563 39.167969 100.765625 32.601563 94.292969 C 30.535156 92.257813 28.785156 89.941406 27.648438 87.222656 C 32.410156 92.777344 38.484375 96.695313 44.554688 100.574219 C 48.421875 103.046875 52.300781 105.59375 56.855469 106.75 C 59.179688 107.339844 61.488281 106.824219 63.777344 106.542969 C 68.136719 106.003906 72.472656 105.273438 76.824219 104.675781 C 87.140625 103.265625 97.472656 101.945313 107.402344 98.609375 C 111.527344 97.21875 115.449219 95.382813 118.652344 92.363281 C 122.015625 89.191406 122.160156 87.8125 119.953125 83.804688 C 120.503906 83.132813 121.289063 83.140625 122.042969 83.105469 C 124.699219 82.976563 127.195313 82.253906 129.613281 81.191406 C 130.609375 80.753906 131.214844 80.074219 131.386719 78.972656 C 132.214844 73.695313 132.574219 68.410156 132.226563 63.058594 C 131.949219 58.757813 131.292969 54.550781 130.179688 50.402344 C 130.070313 49.996094 129.933594 49.566406 130.277344 49.1875 "/>
<path style=" stroke:none;fill-rule:evenodd;fill:rgb(92.498779%,47.099304%,11.799622%);fill-opacity:1;" d="M 279.265625 191.535156 C 279.851563 189.996094 280.515625 188.445313 282.492188 188.476563 C 284.628906 188.511719 286.050781 189.746094 286.96875 191.613281 C 286.96875 191.6875 286.972656 191.761719 286.980469 191.835938 C 286.246094 192.050781 286.453125 192.617188 286.484375 193.128906 C 287.269531 207.21875 286.945313 221.296875 283.328125 234.980469 C 280.640625 245.121094 275.5625 254.296875 269.214844 262.695313 C 263.992188 269.613281 257.71875 275.390625 250.351563 279.96875 C 245.246094 282.503906 239.761719 283.632813 234.171875 284.378906 C 231.621094 284.714844 229.035156 284.945313 226.488281 284.894531 C 219.296875 284.753906 212.136719 284.183594 205.179688 282.097656 C 202.066406 281.160156 199.046875 280.03125 196.175781 278.503906 C 195.535156 278.164063 194.910156 277.832031 194.628906 277.109375 C 193.972656 273.199219 193.023438 269.378906 191.332031 265.773438 C 191.140625 265.367188 191.058594 264.980469 191.15625 264.535156 C 192.378906 258.863281 192.582031 253.128906 192.089844 247.359375 C 192.527344 247.109375 192.707031 247.511719 192.910156 247.695313 C 198.578125 252.863281 205.332031 255.453125 212.867188 256.328125 C 220.753906 257.246094 228.546875 257.144531 236.152344 254.582031 C 248.753906 250.335938 258.964844 242.808594 267.027344 232.242188 C 274.121094 222.949219 278.15625 212.511719 279.292969 200.910156 C 279.550781 198.308594 279.828125 195.707031 280.023438 193.097656 C 280.066406 192.519531 280.554688 191.542969 279.265625 191.535156 "/>
<path style=" stroke:none;fill-rule:evenodd;fill:rgb(72.198486%,39.99939%,14.099121%);fill-opacity:1;" d="M 49.5625 304.8125 C 49.777344 304.058594 49.992188 303.304688 50.207031 302.554688 C 50.925781 302.171875 51.390625 302.722656 51.851563 303.070313 C 55.414063 305.75 59.601563 306.84375 63.832031 307.832031 C 64.203125 307.917969 64.589844 307.90625 64.972656 307.890625 C 66.480469 307.820313 66.9375 307.210938 66.253906 305.886719 C 64.375 302.25 63.578125 298.324219 63.347656 294.328125 C 63.0625 289.4375 64.640625 285.03125 67.902344 281.324219 C 69.867188 279.09375 72.078125 277.152344 74.960938 276.136719 C 75.496094 275.945313 75.945313 275.558594 76.449219 275.292969 C 77.300781 274.847656 77.539063 274.207031 77.292969 273.277344 C 77.109375 272.570313 76.734375 271.8125 77.347656 271.109375 C 81.339844 275.007813 85.6875 278.484375 90.332031 281.570313 C 95.460938 284.980469 100.921875 287.792969 106.734375 289.859375 C 107.929688 290.285156 107.800781 290.617188 107.160156 291.445313 C 103.070313 296.738281 99.671875 302.460938 96.535156 308.363281 C 95.632813 310.066406 95.601563 311.675781 95.953125 313.441406 C 96.730469 317.40625 97.355469 321.390625 97.765625 325.417969 C 97.917969 326.90625 97.351563 327.546875 96.152344 327.976563 C 92.832031 329.164063 89.429688 330.089844 85.933594 330.527344 C 74.402344 331.96875 62.828125 332.761719 51.203125 332.851563 C 49.988281 332.859375 49.445313 332.6875 49.863281 331.335938 C 50.160156 330.375 49.566406 329.492188 49.332031 328.585938 C 49.699219 328.191406 50.207031 328.292969 50.660156 328.203125 C 55.136719 327.289063 59.195313 325.632813 61.988281 321.757813 C 62.382813 321.214844 62.714844 320.644531 62.863281 319.984375 C 63.25 318.296875 62.953125 317.550781 61.476563 316.65625 C 60.058594 315.792969 58.597656 314.996094 57.308594 313.9375 C 56.796875 313.519531 56.21875 313.152344 56.09375 312.425781 C 56.289063 312.027344 56.410156 311.664063 55.949219 311.328125 C 54.019531 309.917969 52.609375 308 51.027344 306.25 C 50.761719 305.957031 50.515625 305.695313 50.078125 305.796875 C 49.589844 305.632813 49.59375 305.214844 49.5625 304.8125 "/>
<path style=" stroke:none;fill-rule:evenodd;fill:rgb(92.498779%,47.099304%,11.799622%);fill-opacity:1;" d="M 12.410156 147.867188 C 11.859375 147.152344 11.273438 146.460938 10.761719 145.71875 C 9.015625 143.199219 7.082031 140.921875 4.144531 139.6875 C 3.183594 139.285156 2.398438 138.546875 1.648438 137.804688 C 0.855469 137.019531 0.839844 136.433594 1.816406 135.757813 C 3.816406 134.378906 5.824219 133.011719 7.652344 131.398438 C 8.382813 130.753906 8.6875 130.144531 8.539063 129.0625 C 8.039063 125.476563 7.789063 121.855469 8.332031 118.246094 C 8.574219 116.632813 8.679688 116.589844 10.042969 117.558594 C 16.71875 122.292969 23.914063 126.046875 31.507813 129.082031 C 38.90625 132.042969 46.550781 133.789063 54.523438 134.222656 C 56.46875 134.328125 58.488281 134.089844 60.371094 135.113281 C 62.121094 136.0625 64.097656 136.523438 66.117188 137.097656 C 60.410156 149.480469 55.90625 162.179688 53.570313 175.578125 C 52.84375 176.128906 52.195313 175.625 51.570313 175.371094 C 46.914063 173.496094 42.679688 170.832031 38.398438 168.257813 C 31.160156 163.902344 24.484375 158.777344 18.113281 153.246094 C 16.140625 151.535156 14.199219 149.78125 12.410156 147.867188 "/>
<path style=" stroke:none;fill-rule:evenodd;fill:rgb(85.499573%,77.999878%,26.298523%);fill-opacity:1;" d="M 71.847656 263.136719 C 72.253906 263.113281 72.554688 262.898438 72.828125 262.613281 C 75.640625 259.683594 79.257813 258.828125 83.132813 258.5 C 90.59375 257.875 97.714844 259.394531 104.773438 261.601563 C 113.589844 264.355469 122.046875 267.957031 130.367188 271.953125 C 134.742188 274.058594 138.984375 276.378906 143.15625 278.839844 C 140.074219 284.140625 136.398438 288.953125 131.644531 292.886719 C 131.175781 293.277344 130.714844 293.457031 130.097656 293.417969 C 106.703125 291.859375 87.414063 282.230469 72.46875 264.082031 C 72.230469 263.792969 72.050781 263.453125 71.847656 263.136719 "/>
<path style=" stroke:none;fill-rule:evenodd;fill:rgb(72.198486%,39.99939%,14.099121%);fill-opacity:1;" d="M 142.527344 281.941406 C 145.304688 289.226563 149.566406 295.433594 155.65625 300.382813 C 158.21875 302.464844 160.914063 302.664063 164.023438 301.980469 C 171.472656 300.34375 178.640625 297.988281 185.460938 294.558594 C 188.492188 293.035156 191.203125 291.074219 193.730469 288.835938 C 193.175781 294.8125 190.90625 300.117188 187.449219 304.972656 C 184.6875 308.84375 181.390625 312.171875 177.554688 314.976563 C 177.253906 315.199219 176.890625 315.371094 176.730469 315.972656 C 178.144531 315.546875 179.195313 314.710938 180.3125 314.007813 C 180.699219 313.761719 181.023438 313.355469 181.453125 314.023438 C 183.636719 317.421875 186.027344 320.71875 186.71875 324.839844 C 186.898438 325.910156 187.082031 326.996094 186.617188 328.050781 C 185.636719 326.125 183.828125 325.332031 181.976563 324.503906 C 172.105469 320.101563 161.902344 319.890625 151.625 322.433594 C 146.003906 323.824219 141.011719 326.652344 137.121094 331.121094 C 136.871094 331.410156 136.636719 331.714844 136.21875 331.773438 C 135.140625 328.152344 135.640625 324.558594 136.363281 320.957031 C 137.09375 317.320313 138.296875 313.8125 139.226563 310.230469 C 139.511719 309.128906 139.414063 308.238281 138.828125 307.265625 C 136.480469 303.34375 134.375 299.304688 132.648438 295.0625 C 132.269531 294.132813 132.378906 293.589844 133.164063 292.898438 C 136.71875 289.78125 139.796875 286.246094 142.15625 282.125 C 142.214844 282.027344 142.402344 282 142.527344 281.941406 "/>
<path style=" stroke:none;fill-rule:evenodd;fill:rgb(72.198486%,39.99939%,14.099121%);fill-opacity:1;" d="M 172.523438 180.195313 C 169.492188 183.179688 163.863281 183.660156 160.109375 181.265625 C 156.703125 179.097656 153.855469 176.507813 152.375 172.640625 C 151.792969 171.117188 151.929688 170.769531 153.472656 170.488281 C 163.199219 168.710938 171.910156 164.59375 179.613281 158.539063 C 186.390625 153.21875 192.03125 146.839844 195.335938 138.6875 C 195.507813 138.261719 195.632813 137.769531 196.109375 137.53125 C 197.273438 135.660156 198.460938 133.804688 199.226563 131.703125 C 199.625 130.613281 199.96875 129.601563 199.449219 128.488281 C 200.609375 126.828125 202.445313 126.015625 204.015625 124.871094 C 204.554688 124.480469 204.875 124.804688 204.890625 125.4375 C 204.902344 125.847656 204.8125 126.328125 205.433594 126.394531 C 205.472656 127.089844 204.9375 127.585938 204.863281 128.277344 C 204.585938 130.871094 204.949219 133.027344 207.703125 134.226563 C 208.898438 134.75 209.890625 135.742188 211.011719 136.457031 C 211.960938 137.0625 212.097656 137.777344 211.585938 138.742188 C 210.15625 141.425781 208.027344 143.425781 205.507813 145.042969 C 204.722656 145.546875 204.136719 146.148438 203.699219 146.988281 C 200.9375 152.238281 197.574219 157.054688 193.398438 161.304688 C 186.328125 168.496094 177.613281 172.382813 167.839844 174.171875 C 164.980469 174.695313 162.09375 174.929688 159.195313 175.050781 C 158.785156 175.066406 158.132813 174.960938 158.128906 175.476563 C 158.121094 176.058594 158.785156 175.847656 159.171875 175.867188 C 162.710938 176.019531 166.199219 175.582031 169.644531 174.863281 C 170.625 174.660156 171.003906 174.855469 171.230469 175.832031 C 171.574219 177.308594 172.085938 178.742188 172.523438 180.195313 "/>
<path style=" stroke:none;fill-rule:evenodd;fill:rgb(92.498779%,47.099304%,11.799622%);fill-opacity:1;" d="M 77.347656 271.109375 C 77.230469 271.9375 77.476563 272.730469 77.734375 273.476563 C 78.070313 274.441406 77.816406 275.007813 76.957031 275.453125 C 75.949219 275.976563 74.921875 276.480469 73.933594 277.015625 C 68.34375 280.042969 64.757813 284.613281 63.933594 291.019531 C 63.269531 296.171875 64.382813 301.070313 66.636719 305.726563 C 67.503906 307.519531 67.007813 308.445313 64.992188 308.242188 C 60.265625 307.765625 55.84375 306.289063 51.894531 303.558594 C 51.351563 303.1875 50.890625 302.683594 50.207031 302.554688 C 48.882813 300.796875 47.050781 299.53125 45.664063 297.835938 C 45.394531 297.503906 45.117188 297.183594 44.839844 296.859375 C 45.101563 296.519531 45.492188 296.472656 45.871094 296.464844 C 49.757813 296.355469 52.074219 294.054688 53.574219 290.785156 C 55.222656 287.191406 55.921875 283.386719 56.101563 279.425781 C 56.320313 274.757813 55.269531 270.242188 54.832031 265.652344 C 54.351563 260.574219 54.84375 255.664063 57.902344 251.324219 C 58.632813 250.367188 59.722656 249.808594 60.546875 248.960938 C 61.308594 248.171875 61.683594 248.210938 62.210938 249.289063 C 65 254.984375 68.359375 260.335938 72.207031 265.375 C 73.765625 267.421875 75.582031 269.242188 77.347656 271.109375 "/>
<path style=" stroke:none;fill-rule:evenodd;fill:rgb(85.499573%,77.999878%,26.298523%);fill-opacity:1;" d="M 266.398438 273.679688 C 262.019531 279.71875 256.605469 284.667969 250.492188 288.894531 C 238.703125 297.054688 225.605469 300.675781 211.328125 300.378906 C 205.324219 300.253906 199.351563 299.941406 193.421875 298.910156 C 192.265625 298.703125 192.296875 298.34375 192.667969 297.460938 C 193.632813 295.171875 194.242188 292.773438 194.59375 290.320313 C 194.6875 289.664063 194.757813 289.246094 195.621094 289.476563 C 201.875 291.128906 208.273438 291.027344 214.636719 290.742188 C 222.886719 290.375 230.972656 288.832031 238.886719 286.492188 C 244.46875 284.839844 249.5 282.078125 254.183594 278.652344 C 254.410156 278.492188 254.664063 278.367188 254.90625 278.226563 C 258.339844 277.214844 261.539063 275.660156 264.71875 274.050781 C 265.242188 273.785156 265.714844 273.242188 266.398438 273.679688 "/>
<path style=" stroke:none;fill-rule:evenodd;fill:rgb(86.698914%,49.398804%,48.599243%);fill-opacity:1;" d="M 92.769531 126.347656 C 85.800781 128.996094 78.574219 130.578125 71.191406 131.492188 C 66.691406 132.050781 62.488281 131.027344 58.527344 128.925781 C 54.167969 126.613281 50.214844 123.761719 46.84375 120.121094 C 46.152344 119.371094 45.742188 118.648438 45.914063 117.597656 C 46.136719 116.242188 46.257813 114.867188 46.425781 113.507813 C 47.457031 112.503906 48.8125 112.714844 50.050781 112.585938 C 53.035156 112.28125 56.019531 112.652344 58.984375 112.6875 C 62.964844 112.734375 66.882813 113.058594 70.742188 113.785156 C 78.828125 115.3125 85.953125 118.890625 91.945313 124.589844 C 92.414063 125.035156 93.183594 125.445313 92.769531 126.347656 "/>
<path style=" stroke:none;fill-rule:evenodd;fill:rgb(68.998718%,27.799988%,31.799316%);fill-opacity:1;" d="M 92.769531 126.347656 C 91.796875 124.542969 90.238281 123.285156 88.625 122.148438 C 82.738281 118.011719 76.398438 114.871094 69.175781 113.867188 C 64.15625 113.164063 59.105469 112.640625 54.035156 112.738281 C 51.496094 112.789063 48.921875 112.863281 46.425781 113.507813 C 46.5 111.738281 46.304688 111.589844 44.75 112.289063 C 44.316406 112.480469 43.8125 112.652344 43.515625 112.984375 C 42.523438 114.097656 42.085938 113.617188 41.347656 112.601563 C 40.265625 111.117188 40.300781 109.898438 41.460938 108.574219 C 41.773438 108.21875 41.972656 107.765625 42.257813 107.390625 C 43.851563 105.261719 44.511719 105.171875 46.722656 106.5625 C 49.101563 108.058594 51.542969 109.453125 53.917969 110.949219 C 56.347656 112.480469 58.953125 112.746094 61.730469 112.359375 C 72.644531 110.84375 83.5625 109.355469 94.476563 107.859375 C 96.5 107.585938 98.527344 107.328125 100.546875 107.027344 C 101.191406 106.929688 101.628906 107.054688 101.953125 107.664063 C 102.617188 108.925781 103.332031 110.164063 104.023438 111.410156 C 104.773438 112.761719 105.300781 112.785156 106.105469 111.507813 C 107.050781 110.015625 107.828125 108.433594 108.46875 106.789063 C 108.769531 106.015625 109.183594 105.628906 110.078125 105.464844 C 113.054688 104.914063 116.015625 104.261719 119.09375 103.109375 C 118.453125 105.472656 117.351563 107.324219 116.1875 109.140625 C 113.035156 114.0625 108.660156 117.683594 103.773438 120.753906 C 102.804688 121.359375 101.8125 121.925781 100.855469 122.550781 C 100.230469 122.964844 99.859375 122.835938 99.511719 122.191406 C 98.910156 121.09375 98.066406 120.175781 97.101563 119.390625 C 96.109375 118.585938 95.613281 118.757813 95.347656 120 C 95.050781 121.390625 94.65625 122.789063 94.589844 124.199219 C 94.527344 125.515625 93.886719 126.0625 92.769531 126.347656 "/>
<path style=" stroke:none;fill-rule:evenodd;fill:rgb(92.498779%,47.099304%,11.799622%);fill-opacity:1;" d="M 56.191406 312.277344 C 57.527344 314.105469 59.53125 315.046875 61.390625 316.164063 C 63.527344 317.449219 64.054688 319.355469 62.613281 321.472656 C 59.433594 326.128906 54.816406 328.183594 49.332031 328.582031 C 48.085938 325.957031 44.089844 325.003906 40.574219 325.84375 C 39.523438 326.09375 38.484375 326.402344 37.433594 326.6875 C 36.863281 322.730469 34.300781 320.511719 30.3125 320.554688 C 29.449219 320.566406 29.089844 320.433594 28.980469 319.460938 C 28.808594 317.921875 27.75 317.042969 25.714844 316.394531 C 25.917969 315.796875 26.480469 315.59375 26.917969 315.300781 C 33.023438 311.222656 39.75 308.5 46.6875 306.230469 C 47.703125 305.898438 48.851563 305.785156 49.5625 304.8125 C 49.757813 305.113281 49.949219 305.417969 50.144531 305.71875 C 50.695313 305.773438 50.921875 306.222656 51.183594 306.609375 C 52.492188 308.554688 54 310.3125 55.917969 311.6875 C 56.109375 311.828125 56.28125 311.996094 56.191406 312.277344 "/>
<path style=" stroke:none;fill-rule:evenodd;fill:rgb(96.899414%,71.398926%,33.699036%);fill-opacity:1;" d="M 57.902344 251.324219 C 58.183594 251.648438 57.847656 251.828125 57.722656 252.050781 C 55.351563 256.359375 54.679688 260.957031 55.28125 265.800781 C 55.882813 270.683594 56.851563 275.539063 56.480469 280.507813 C 56.144531 285.007813 55.214844 289.355469 52.691406 293.164063 C 50.875 295.90625 48.148438 297.09375 44.839844 296.859375 C 39.371094 290.335938 38.179688 282.957031 40.621094 274.941406 C 42.566406 268.539063 46.316406 263.164063 50.691406 258.214844 C 52.894531 255.71875 55.34375 253.457031 57.902344 251.324219 "/>
<path style=" stroke:none;fill-rule:evenodd;fill:rgb(92.498779%,47.099304%,11.799622%);fill-opacity:1;" d="M 136.21875 331.773438 C 138.191406 328.636719 141.21875 326.753906 144.332031 324.988281 C 149.835938 321.875 155.789063 320.609375 162.082031 320.558594 C 167.8125 320.511719 173.476563 320.730469 178.898438 322.835938 C 180.851563 323.59375 182.8125 324.335938 184.644531 325.347656 C 185.6875 325.921875 186.6875 326.625 186.617188 328.050781 C 186.074219 331.355469 184.121094 333.46875 180.992188 334.777344 C 181.265625 332.804688 180.992188 331.046875 179.941406 329.480469 C 177.796875 326.28125 173.0625 326.453125 171.128906 329.785156 C 169.925781 331.859375 169.445313 334.109375 169.4375 336.488281 C 169.4375 337.480469 168.128906 338.304688 167.210938 337.925781 C 166.695313 337.714844 166.921875 337.277344 166.910156 336.941406 C 166.828125 334.851563 166.351563 332.894531 165.101563 331.179688 C 163.277344 328.679688 159.53125 327.976563 156.757813 329.597656 C 154.40625 330.96875 153.65625 334.007813 154.964844 336.914063 C 155.253906 337.550781 155.609375 338.15625 155.949219 338.804688 C 153.855469 339.121094 153.828125 339.128906 153.433594 337.226563 C 152.824219 334.257813 151.546875 331.707031 148.820313 330.171875 C 144.261719 327.613281 139.828125 330.058594 139.425781 335.289063 C 139.398438 335.664063 139.390625 336.039063 139.363281 336.660156 C 137.507813 335.390625 136.804688 333.621094 136.21875 331.773438 "/>
<path style=" stroke:none;fill-rule:evenodd;fill:rgb(96.899414%,71.398926%,33.699036%);fill-opacity:1;" d="M 61.390625 22.035156 C 60.34375 21.785156 59.371094 21.316406 58.285156 21.15625 C 55.507813 20.738281 53.914063 22.382813 52.457031 24.332031 C 51.511719 24.171875 51.21875 23.859375 51.800781 22.867188 C 52.984375 20.867188 54.570313 19.339844 56.65625 18.386719 C 57.742188 17.890625 58.507813 17.1875 59.203125 16.230469 C 65.554688 7.492188 74.203125 2.605469 84.867188 1.453125 C 91.992188 0.683594 99.132813 0.757813 106.152344 2.574219 C 106.566406 2.683594 106.976563 2.8125 107.386719 2.929688 C 106.78125 3.425781 106.207031 2.890625 105.617188 2.878906 C 96.828125 2.671875 88.390625 3.863281 80.957031 9.054688 C 77.769531 11.277344 75.335938 14.273438 72.769531 17.136719 C 70.761719 19.378906 68.953125 21.929688 65.628906 22.46875 C 64.675781 22.621094 63.730469 22.511719 62.789063 22.601563 C 62.09375 22.402344 61.964844 21.675781 61.453125 21.191406 C 61.46875 21.507813 61.609375 21.800781 61.390625 22.035156 "/>
<path style=" stroke:none;fill-rule:evenodd;fill:rgb(72.198486%,39.99939%,14.099121%);fill-opacity:1;" d="M 194.628906 277.109375 C 198.554688 279.617188 202.882813 281.128906 207.367188 282.246094 C 212.671875 283.566406 218.054688 284.09375 223.523438 284.332031 C 231.480469 284.675781 239.167969 283.574219 246.707031 281.128906 C 247.921875 280.738281 249.046875 280.078125 250.351563 279.96875 C 247.871094 281.847656 245.0625 283.128906 242.191406 284.242188 C 235.421875 286.871094 228.328125 288.152344 221.171875 289.136719 C 215.308594 289.945313 209.429688 290.039063 203.535156 289.667969 C 200.980469 289.503906 198.425781 289.28125 195.945313 288.554688 C 195.390625 288.390625 194.804688 288.257813 194.929688 287.457031 C 195.472656 283.988281 195.042969 280.546875 194.628906 277.109375 "/>
<path style=" stroke:none;fill-rule:evenodd;fill:rgb(72.198486%,39.99939%,14.099121%);fill-opacity:1;" d="M 12.410156 147.867188 C 12.96875 147.824219 13.246094 148.257813 13.582031 148.574219 C 19.871094 154.558594 26.542969 160.058594 33.789063 164.855469 C 38.929688 168.261719 44.175781 171.480469 49.71875 174.195313 C 50.941406 174.796875 52.167969 175.441406 53.570313 175.578125 C 53.269531 178.457031 52.972656 181.335938 52.660156 184.347656 C 50.886719 183.785156 49.269531 183 47.6875 182.160156 C 38.609375 177.328125 31.050781 170.636719 24.183594 163.070313 C 19.953125 158.402344 16.09375 153.460938 12.535156 148.269531 C 12.460938 148.160156 12.449219 148.003906 12.410156 147.867188 "/>
<path style=" stroke:none;fill-rule:evenodd;fill:rgb(85.499573%,77.999878%,26.298523%);fill-opacity:1;" d="M 114.5625 143.242188 C 106.695313 145.085938 98.6875 145.242188 90.6875 144.9375 C 85.539063 144.742188 80.421875 144.027344 75.597656 141.992188 C 75.34375 141.882813 75.042969 141.882813 74.769531 141.828125 C 77.46875 139.40625 80.476563 137.601563 84.179688 137.222656 C 87.710938 136.859375 91.089844 135.515625 94.726563 135.789063 C 102.078125 136.34375 108.683594 138.808594 114.5625 143.242188 "/>
<path style=" stroke:none;fill-rule:evenodd;fill:rgb(87.5%,93.299866%,91.799927%);fill-opacity:1;" d="M 140.460938 335.414063 C 140.449219 334.355469 140.855469 333.113281 141.664063 332 C 142.84375 330.375 144.445313 329.789063 146.410156 330.28125 C 148.953125 330.914063 150.664063 332.554688 151.675781 334.894531 C 152.710938 337.296875 153.007813 339.816406 152.519531 342.417969 C 152.402344 343.042969 152.199219 343.171875 151.578125 343.042969 C 148.6875 342.4375 145.867188 341.625 143.292969 340.125 C 141.152344 338.875 140.417969 337.699219 140.460938 335.414063 "/>
<path style=" stroke:none;fill-rule:evenodd;fill:rgb(87.5%,93.299866%,91.799927%);fill-opacity:1;" d="M 160.429688 329.78125 C 162.101563 329.761719 163.628906 330.566406 164.691406 332.34375 C 166.71875 335.734375 165.878906 341.320313 162.953125 343.820313 C 162.519531 344.1875 162.292969 343.996094 161.988281 343.75 C 159.496094 341.769531 157.335938 339.492188 155.949219 336.609375 C 154.199219 332.976563 156.199219 329.742188 160.429688 329.78125 "/>
<path style=" stroke:none;fill-rule:evenodd;fill:rgb(87.5%,93.299866%,91.799927%);fill-opacity:1;" d="M 18.808594 329.519531 C 21.796875 325.652344 24.640625 322.179688 29.617188 321.542969 C 32.21875 321.207031 34.503906 322.28125 35.792969 324.5 C 36.675781 326.019531 36.382813 327.066406 34.851563 327.847656 C 34.808594 327.871094 34.761719 327.886719 34.726563 327.917969 C 31.941406 330.417969 28.589844 330.257813 25.203125 329.980469 C 23.175781 329.8125 21.148438 329.6875 18.808594 329.519531 "/>
<path style=" stroke:none;fill-rule:evenodd;fill:rgb(87.5%,93.299866%,91.799927%);fill-opacity:1;" d="M 170.417969 338.027344 C 170.472656 335.5 170.523438 332.984375 171.773438 330.660156 C 172.6875 328.964844 174.007813 328.132813 175.9375 328.261719 C 177.890625 328.394531 179.113281 329.476563 179.703125 331.253906 C 180.492188 333.613281 180.09375 335.816406 178.296875 337.582031 C 176.320313 339.527344 174.027344 341.0625 171.550781 342.332031 C 170.605469 342.816406 170.398438 342.484375 170.410156 341.597656 C 170.433594 340.40625 170.417969 339.214844 170.417969 338.027344 "/>
<path style=" stroke:none;fill-rule:evenodd;fill:rgb(92.498779%,46.699524%,11.799622%);fill-opacity:1;" d="M 73.363281 141.582031 C 66.742188 147.605469 61.914063 154.90625 58.128906 162.953125 C 57.953125 163.332031 57.722656 163.6875 57.492188 164.097656 C 57.203125 163.710938 57.371094 163.40625 57.453125 163.113281 C 59.820313 154.667969 62.917969 146.496094 66.558594 138.519531 C 67 137.554688 67.5 137.203125 68.476563 137.628906 C 70.003906 138.558594 71.316406 139.789063 72.875 140.679688 C 73.183594 140.855469 73.519531 141.109375 73.363281 141.582031 "/>
<path style=" stroke:none;fill-rule:evenodd;fill:rgb(95.698547%,87.5%,47.799683%);fill-opacity:1;" d="M 266.398438 273.679688 C 263.828125 274.882813 261.324219 276.230469 258.667969 277.253906 C 257.828125 277.578125 257.011719 277.964844 256.1875 278.328125 C 255.738281 278.527344 255.296875 278.722656 254.90625 278.226563 C 260.910156 273.628906 266.308594 268.445313 270.789063 262.316406 C 274.09375 257.804688 276.824219 252.96875 279.253906 247.953125 C 279.542969 247.886719 279.671875 247.980469 279.59375 248.285156 C 276.46875 257.042969 272.464844 265.355469 267.101563 272.980469 C 266.914063 273.246094 266.636719 273.449219 266.398438 273.679688 "/>
<path style=" stroke:none;fill-rule:evenodd;fill:rgb(87.5%,93.299866%,91.799927%);fill-opacity:1;" d="M 12.679688 325.632813 C 15.644531 321.421875 19.167969 318.421875 24.113281 317.464844 C 26.175781 317.066406 27.785156 318.097656 28.074219 319.777344 C 28.164063 320.308594 28.214844 320.78125 27.46875 320.964844 C 24.925781 321.601563 23.03125 323.265625 21.246094 325.058594 C 20.789063 325.515625 20.320313 325.753906 19.652344 325.828125 C 17.414063 326.070313 15.199219 325.890625 12.679688 325.632813 "/>
<path style=" stroke:none;fill-rule:evenodd;fill:rgb(99.198914%,99.198914%,99.198914%);fill-opacity:1;" d="M 51.378906 28.828125 C 51.164063 32.730469 50.34375 36.410156 48.46875 39.816406 C 47.808594 41.019531 46.898438 41.964844 45.746094 42.679688 C 44.617188 43.378906 44.234375 43.207031 43.820313 41.902344 C 43.359375 40.460938 43.605469 39.066406 44.164063 37.730469 C 45.5625 34.394531 47.171875 31.160156 49.015625 28.046875 C 49.449219 27.316406 49.972656 26.210938 50.796875 26.464844 C 51.816406 26.78125 51.164063 28.050781 51.378906 28.828125 "/>
<path style=" stroke:none;fill-rule:evenodd;fill:rgb(87.5%,92.89856%,91.799927%);fill-opacity:1;" d="M 32.449219 333.136719 C 31.683594 333.195313 30.941406 333.082031 30.121094 332.828125 C 30.59375 331.824219 31.507813 331.292969 32.292969 330.695313 C 35.617188 328.167969 39.339844 326.625 43.554688 326.601563 C 45.160156 326.589844 46.773438 326.917969 47.878906 328.328125 C 47.933594 329.078125 47.347656 329.140625 46.847656 329.238281 C 42.507813 330.097656 38.347656 331.609375 34.105469 332.824219 C 33.554688 332.980469 32.96875 332.886719 32.449219 333.136719 "/>
<path style=" stroke:none;fill-rule:evenodd;fill:rgb(68.598938%,78.799438%,75.698853%);fill-opacity:1;" d="M 32.449219 333.136719 C 37.058594 331.289063 41.847656 330.023438 46.675781 328.886719 C 47.132813 328.777344 47.640625 328.871094 47.878906 328.328125 C 48.566406 328.996094 48.792969 329.855469 48.847656 330.765625 C 48.933594 332.230469 48.367188 333.078125 46.890625 333.195313 C 42.082031 333.578125 37.257813 333.957031 32.449219 333.136719 "/>
<path style=" stroke:none;fill-rule:evenodd;fill:rgb(9.399414%,45.098877%,45.098877%);fill-opacity:1;" d="M 44.066406 57.113281 C 43.921875 60.117188 43.289063 63.007813 42.304688 65.824219 C 42.125 66.335938 41.789063 66.40625 41.285156 66.222656 C 39.976563 65.742188 38.84375 64.953125 37.675781 64.21875 C 37.230469 63.941406 37.304688 63.476563 37.363281 63.054688 C 37.652344 61 37.957031 58.945313 38.285156 56.691406 C 39.140625 57.671875 39.382813 59.222656 40.90625 59.085938 C 42.222656 58.96875 43.066406 57.976563 44.066406 57.113281 "/>
<path style=" stroke:none;fill-rule:evenodd;fill:rgb(32.199097%,20.799255%,21.998596%);fill-opacity:1;" d="M 39.625 109.53125 C 38.660156 107.644531 37.847656 105.890625 37.375 104.019531 C 37.089844 102.910156 37.902344 102.058594 38.4375 101.1875 C 38.625 100.886719 38.929688 101.070313 39.175781 101.25 C 40.503906 102.230469 41.835938 103.203125 43.171875 104.175781 C 43.648438 104.523438 43.632813 104.867188 43.148438 105.167969 C 41.542969 106.15625 40.800781 107.84375 39.625 109.53125 "/>
<path style=" stroke:none;fill-rule:evenodd;fill:rgb(72.198486%,39.199829%,14.099121%);fill-opacity:1;" d="M 73.363281 141.582031 C 72.433594 140.480469 71.003906 140.074219 69.964844 139.132813 C 69.441406 138.660156 68.96875 138.132813 68.476563 137.628906 C 71.515625 138.050781 74.570313 138.234375 77.710938 138.183594 C 76.207031 139.269531 74.78125 140.425781 73.363281 141.582031 "/>
<path style=" stroke:none;fill-rule:evenodd;fill:rgb(97.999573%,97.999573%,97.999573%);fill-opacity:1;" d="M 107.726563 105.984375 C 106.898438 107.886719 106.246094 109.546875 105.074219 111.128906 C 104.324219 109.808594 103.640625 108.59375 102.941406 107.386719 C 102.671875 106.917969 102.785156 106.738281 103.324219 106.664063 C 104.71875 106.476563 106.109375 106.238281 107.726563 105.984375 "/>
<path style=" stroke:none;fill-rule:evenodd;fill:rgb(97.299194%,97.299194%,97.299194%);fill-opacity:1;" d="M 35.742188 103.851563 C 34.839844 101.574219 34.261719 99.441406 33.925781 97.039063 C 35.132813 98.054688 36.203125 98.972656 37.292969 99.859375 C 37.667969 100.164063 37.667969 100.425781 37.433594 100.824219 C 36.878906 101.757813 36.371094 102.714844 35.742188 103.851563 "/>
<path style=" stroke:none;fill-rule:evenodd;fill:rgb(96.899414%,96.899414%,96.899414%);fill-opacity:1;" d="M 95.390625 125.324219 C 95.71875 123.441406 95.992188 121.863281 96.289063 120.175781 C 97.59375 120.839844 98.199219 122.019531 98.914063 123.101563 C 99.21875 123.566406 98.828125 123.679688 98.554688 123.8125 C 97.582031 124.292969 96.601563 124.75 95.390625 125.324219 "/>
<path style=" stroke:none;fill-rule:evenodd;fill:rgb(96.499634%,96.099854%,96.099854%);fill-opacity:1;" d="M 44.925781 117.613281 C 42.476563 114.757813 42.253906 114.707031 45.335938 113.226563 C 45.199219 114.691406 45.070313 116.070313 44.925781 117.613281 "/>
<path style=" stroke:none;fill-rule:evenodd;fill:rgb(67.498779%,60.798645%,34.098816%);fill-opacity:1;" d="M 279.59375 248.285156 C 279.480469 248.175781 279.367188 248.0625 279.253906 247.953125 C 279.644531 247.015625 280.03125 246.078125 280.417969 245.140625 C 280.46875 246.304688 280.148438 247.332031 279.59375 248.285156 "/>
<path style=" stroke:none;fill-rule:evenodd;fill:rgb(14.498901%,9.399414%,7.499695%);fill-opacity:1;" d="M 199.449219 128.488281 C 200.234375 129.082031 200.410156 129.777344 200.003906 130.71875 C 199.144531 132.726563 198.40625 134.789063 197.09375 136.566406 C 196.816406 136.9375 196.652344 137.429688 196.109375 137.53125 C 196.046875 136.515625 196.78125 135.800781 197.109375 134.929688 C 197.660156 133.464844 198.28125 132.023438 198.941406 130.605469 C 199.339844 129.757813 199.09375 129.410156 198.238281 129.207031 C 196.113281 128.707031 193.980469 128.269531 191.796875 128.113281 C 190.96875 128.050781 190.121094 128.085938 189.371094 127.558594 C 192.820313 126.835938 196.136719 127.613281 199.449219 128.488281 "/>
<path style=" stroke:none;fill-rule:evenodd;fill:rgb(13.299561%,8.999634%,7.798767%);fill-opacity:1;" d="M 130.277344 49.1875 C 132.136719 55.484375 132.984375 61.925781 132.757813 68.480469 C 132.636719 72.136719 132.53125 75.796875 131.742188 79.40625 C 131.515625 80.433594 131.03125 80.996094 130.164063 81.410156 C 127.601563 82.632813 124.914063 83.355469 122.074219 83.535156 C 121.363281 83.582031 120.660156 83.714844 119.953125 83.804688 C 116.191406 83.828125 112.433594 83.828125 108.738281 82.960938 C 108 82.789063 107.261719 82.589844 106.542969 82.351563 C 102.214844 80.898438 101.972656 80.355469 102.386719 75.804688 C 103.019531 68.878906 103.847656 61.988281 105.949219 55.332031 C 107.644531 49.949219 109.753906 44.757813 113.902344 40.683594 C 118.097656 36.566406 123.121094 36.945313 126.625 41.648438 C 128.328125 43.929688 129.445313 46.488281 130.277344 49.1875 "/>
<path style=" stroke:none;fill-rule:evenodd;fill:rgb(96.899414%,71.398926%,33.699036%);fill-opacity:1;" d="M 48.441406 93.796875 C 47.648438 92.335938 46.800781 90.914063 46.21875 89.339844 C 45.71875 87.996094 45.859375 86.882813 46.753906 85.761719 C 48.511719 83.554688 50.902344 82.492188 53.542969 81.894531 C 54.308594 81.71875 54.765625 82.152344 54.789063 83.027344 C 54.835938 84.769531 54.605469 86.453125 53.78125 87.996094 C 52.65625 90.101563 51.859375 92.339844 51.050781 94.566406 C 50.699219 95.53125 50.453125 96.308594 49.632813 94.875 C 49.558594 94.75 49.296875 94.734375 49.125 94.667969 C 48.679688 94.546875 48.519531 94.203125 48.441406 93.796875 "/>
<path style=" stroke:none;fill-rule:evenodd;fill:rgb(96.899414%,71.398926%,33.299255%);fill-opacity:1;" d="M 113.332031 31.210938 C 113.683594 31.195313 113.953125 31.015625 114.199219 30.78125 C 115.054688 29.992188 115.824219 30.179688 116.496094 31.019531 C 117.195313 31.898438 116.847656 32.675781 116.046875 33.179688 C 113.847656 34.5625 111.90625 36.273438 109.847656 37.9375 C 109.476563 37.394531 110.164063 36.765625 109.609375 36.339844 C 109.292969 35.820313 109.671875 35.445313 109.898438 35.058594 C 110.777344 33.542969 111.847656 32.1875 113.332031 31.210938 "/>
<path style=" stroke:none;fill-rule:evenodd;fill:rgb(17.298889%,11.399841%,7.798767%);fill-opacity:1;" d="M 61.390625 22.035156 C 61.429688 21.457031 60.464844 20.765625 61.066406 20.488281 C 61.660156 20.21875 61.898438 21.285156 62.289063 21.761719 C 62.492188 22.007813 62.625 22.316406 62.789063 22.597656 C 62.972656 23.90625 63.453125 25.175781 63.332031 26.527344 C 63.300781 26.867188 63.28125 27.289063 62.894531 27.308594 C 62.464844 27.332031 62.488281 26.886719 62.429688 26.5625 C 62.164063 25.035156 62.109375 23.457031 61.390625 22.035156 "/>
<path style=" stroke:none;fill-rule:evenodd;fill:rgb(16.499329%,10.998535%,7.798767%);fill-opacity:1;" d="M 113.332031 31.210938 C 113.273438 32.039063 112.457031 32.238281 112.023438 32.757813 C 111.089844 33.867188 110.164063 34.976563 109.609375 36.339844 C 109.257813 36.515625 109.28125 37.316406 108.722656 37.023438 C 108.316406 36.808594 108.628906 36.320313 108.769531 35.996094 C 109.695313 33.839844 110.757813 31.796875 113.332031 31.210938 "/>
<path style=" stroke:none;fill-rule:evenodd;fill:rgb(17.599487%,11.399841%,7.798767%);fill-opacity:1;" d="M 48.441406 93.796875 C 48.789063 93.992188 48.976563 94.316406 49.125 94.667969 C 49.472656 95.539063 49.832031 96.402344 50.152344 97.285156 C 50.242188 97.53125 50.324219 97.898438 50.011719 98.035156 C 49.667969 98.191406 49.535156 97.835938 49.417969 97.59375 C 48.957031 96.664063 48.527344 95.71875 48.058594 94.796875 C 47.804688 94.292969 47.960938 93.992188 48.441406 93.796875 "/>
<path style=" stroke:none;fill-rule:evenodd;fill:rgb(17.599487%,11.399841%,7.499695%);fill-opacity:1;" d="M 66.542969 100.859375 C 66.1875 100.816406 66.070313 100.546875 66.304688 100.289063 C 67.171875 99.355469 68.179688 98.574219 69.367188 98.101563 C 69.738281 97.953125 69.980469 98.253906 69.855469 98.6875 C 69.796875 98.890625 66.8125 100.859375 66.542969 100.859375 "/>
<path style=" stroke:none;fill-rule:evenodd;fill:rgb(15.699768%,10.198975%,7.499695%);fill-opacity:1;" d="M 56.191406 312.277344 C 53.613281 310.609375 51.839844 308.199219 50.144531 305.71875 C 50.203125 305.386719 50.304688 304.882813 50.707031 305.347656 C 52.617188 307.539063 54.511719 309.726563 56.738281 311.625 C 57.476563 312.253906 56.613281 312.242188 56.191406 312.277344 "/>
<path style=" stroke:none;fill-rule:evenodd;fill:rgb(14.099121%,9.399414%,7.499695%);fill-opacity:1;" d="M 16.46875 140.136719 C 14.375 139.679688 12.457031 138.851563 10.683594 137.710938 C 9.890625 137.203125 9.898438 136.449219 10.390625 135.71875 C 11.695313 133.777344 13.113281 131.929688 14.742188 130.246094 C 14.964844 130.015625 15.238281 129.636719 15.570313 129.902344 C 16.007813 130.261719 15.566406 130.570313 15.351563 130.851563 C 14.105469 132.476563 12.875 134.109375 11.59375 135.707031 C 10.996094 136.453125 11.070313 136.875 11.953125 137.3125 C 13.445313 138.058594 14.933594 138.792969 16.542969 139.257813 C 16.863281 139.347656 17.277344 139.414063 17.238281 139.828125 C 17.191406 140.328125 16.742188 140.109375 16.46875 140.136719 "/>
<path style=" stroke:none;fill-rule:evenodd;fill:rgb(9.399414%,45.498657%,45.498657%);fill-opacity:1;" d="M 125.996094 65.359375 C 128.304688 69.296875 128.640625 73.105469 127.5625 77.070313 C 127.179688 78.488281 126.703125 79.878906 125.9375 81.167969 C 125.558594 81.8125 125.070313 82.15625 124.386719 82.246094 C 118.65625 83 112.9375 83.214844 107.320313 81.519531 C 103.390625 80.335938 103.335938 80.152344 104.871094 76.445313 C 105.539063 74.832031 106.257813 73.242188 107.019531 71.480469 C 109.996094 75.636719 113.738281 76.972656 118.445313 75.5 C 123.230469 74.007813 124.921875 70.136719 125.996094 65.359375 "/>
<path style=" stroke:none;fill-rule:evenodd;fill:rgb(99.198914%,99.198914%,99.198914%);fill-opacity:1;" d="M 120.035156 45.347656 C 120.058594 49.542969 118.652344 53.277344 116.367188 56.710938 C 115.34375 58.246094 113.972656 59.414063 112.242188 60.109375 C 110.1875 60.929688 108.867188 60.234375 108.191406 58.167969 C 107.445313 55.867188 107.761719 53.566406 108.476563 51.4375 C 109.726563 47.722656 111.632813 44.3125 114.472656 41.515625 C 114.644531 41.347656 114.804688 41.171875 114.984375 41.015625 C 115.902344 40.21875 116.914063 39.410156 118.171875 39.855469 C 119.441406 40.304688 119.710938 41.585938 119.871094 42.785156 C 119.988281 43.632813 119.984375 44.492188 120.035156 45.347656 "/>
<path style=" stroke:none;fill-rule:evenodd;fill:rgb(98.399353%,98.399353%,98.399353%);fill-opacity:1;" d="M 128.796875 48.0625 C 130.296875 52.441406 131.300781 56.941406 131.5625 61.558594 C 131.890625 67.40625 131.898438 73.253906 130.785156 79.042969 C 130.636719 79.804688 130.34375 80.339844 129.558594 80.59375 C 128.882813 80.808594 128.242188 81.136719 127.582031 81.402344 C 127.460938 81.453125 127.316406 81.453125 126.984375 81.507813 C 128.210938 78.925781 128.914063 76.304688 129.386719 73.628906 C 130.460938 67.53125 130.175781 61.410156 129.566406 55.289063 C 129.34375 53.066406 128.941406 50.875 128.484375 48.6875 C 128.425781 48.398438 128.246094 48.050781 128.796875 48.0625 "/>
<path style=" stroke:none;fill-rule:evenodd;fill:rgb(77.2995%,76.098633%,75.698853%);fill-opacity:1;" d="M 128.796875 48.0625 C 128.515625 48.183594 128.589844 48.480469 128.484375 48.6875 C 128.097656 47.496094 127.703125 46.304688 127.316406 45.113281 C 128.132813 45.964844 128.585938 46.960938 128.796875 48.0625 "/>
</g>
</svg>
