<?xml version="1.0" encoding="UTF-8"?>
<svg xmlns="http://www.w3.org/2000/svg" xmlns:xlink="http://www.w3.org/1999/xlink" width="293.3pt" height="263.52pt" viewBox="0 0 293.3 263.52" version="1.1">
<defs>
<clipPath id="clip1">
  <path d="M 0 0 L 293.300781 0 L 293.300781 263.519531 L 0 263.519531 Z M 0 0 "/>
</clipPath>
</defs>
<g id="surface1">
<g clip-path="url(#clip1)" clip-rule="nonzero">
<path style=" stroke:none;fill-rule:evenodd;fill:rgb(12.939453%,9.423828%,7.835388%);fill-opacity:1;" d="M 36.796875 94.730469 C 35.703125 93.714844 34.828125 92.898438 33.949219 92.085938 C 32.210938 90.484375 30.601563 88.769531 29.453125 86.683594 C 29.132813 86.105469 28.675781 85.84375 28.066406 85.65625 C 23.847656 84.355469 21.433594 80.636719 22.234375 76.625 C 22.515625 75.222656 23.140625 73.925781 23.761719 72.648438 C 24.039063 72.082031 24.128906 71.527344 24.132813 70.90625 C 24.148438 66.632813 23.78125 62.351563 24.179688 58.078125 C 24.769531 51.699219 25.121094 45.269531 27.472656 39.207031 C 29.988281 32.71875 33.898438 27.097656 38.417969 21.851563 C 48.011719 10.714844 60.199219 4.085938 74.523438 1.449219 C 87.683594 -0.972656 100.816406 -0.402344 113.640625 3.539063 C 125.304688 7.128906 135.246094 13.542969 143.179688 22.898438 C 149.035156 29.804688 152.53125 37.792969 154.046875 46.699219 C 154.628906 50.117188 154.996094 53.542969 155.09375 57.003906 C 155.109375 57.550781 155.21875 57.914063 155.757813 58.183594 C 158.5 59.558594 160.410156 61.785156 161.933594 64.382813 C 162.210938 64.855469 162.523438 65.203125 163.066406 65.425781 C 176.113281 70.699219 186.488281 79.351563 194.867188 90.539063 C 197.265625 93.742188 199.269531 97.175781 201.3125 100.601563 C 202.820313 103.132813 204.503906 105.554688 205.703125 108.257813 C 210.0625 118.074219 213.273438 128.207031 214.203125 138.976563 C 214.714844 144.914063 215.128906 150.84375 214.789063 156.804688 C 214.464844 162.5625 214.539063 168.34375 213.5625 174.0625 C 212.539063 180.054688 210.703125 185.796875 208.433594 191.605469 C 209.148438 191.296875 209.644531 190.890625 210.109375 190.441406 C 211.941406 188.667969 213.453125 186.660156 214.601563 184.371094 C 216.089844 181.414063 217.535156 178.429688 219.1875 175.566406 C 225.460938 164.730469 234.3125 156.84375 246.171875 152.582031 C 250.792969 150.925781 255.667969 151.277344 260.472656 151.367188 C 263.085938 151.417969 265.648438 151.886719 268.109375 152.777344 C 276.527344 155.8125 282.960938 161.152344 287.257813 169.070313 C 293.300781 180.207031 294.992188 192.011719 291.5 204.105469 C 288.449219 214.667969 281.339844 222.097656 270.761719 225.59375 C 265.988281 227.171875 260.929688 227.125 255.96875 225.984375 C 255.566406 225.890625 255.234375 225.871094 254.84375 226.027344 C 249.800781 228.054688 244.476563 228.792969 239.132813 229.4375 C 232.316406 230.261719 225.476563 230.257813 218.632813 229.851563 C 212.726563 229.5 206.859375 228.746094 201.007813 227.871094 C 199.390625 227.628906 197.753906 227.519531 196.128906 227.300781 C 195.496094 227.214844 195.242188 227.398438 195.15625 228.03125 C 194.53125 232.621094 193.507813 237.136719 192.546875 241.664063 C 192.132813 243.601563 192.476563 245.5 192.632813 247.40625 C 192.910156 250.78125 193.273438 254.148438 193.566406 257.519531 C 193.71875 259.296875 193.605469 259.347656 191.867188 259.089844 C 188.796875 258.640625 185.742188 258.171875 182.710938 257.519531 C 179.863281 256.902344 177.195313 257.425781 174.714844 258.945313 C 172.433594 260.335938 170.117188 261.667969 167.871094 263.113281 C 166.894531 263.742188 166.148438 263.597656 165.253906 262.988281 C 162.796875 261.308594 160.699219 259.214844 158.464844 257.28125 C 157.976563 256.859375 157.5 256.648438 156.84375 256.640625 C 153.710938 256.613281 150.574219 256.535156 147.4375 256.472656 C 146.214844 256.449219 146.101563 256.277344 146.398438 255.070313 C 146.910156 253.03125 148.019531 251.277344 149.117188 249.535156 C 149.742188 248.546875 149.855469 247.691406 149.484375 246.5625 C 147.328125 239.96875 145.90625 233.226563 145.644531 226.269531 C 145.625 225.730469 145.550781 225.445313 144.898438 225.425781 C 136.484375 225.152344 128.324219 223.257813 120.152344 221.460938 C 119.398438 221.292969 119.105469 221.433594 118.769531 222.082031 C 117.296875 224.9375 116.03125 227.871094 114.964844 230.894531 C 114.660156 231.761719 114.589844 232.625 114.757813 233.519531 C 115.246094 236.074219 115.699219 238.632813 116.203125 241.179688 C 116.808594 244.214844 116.609375 245.828125 112.4375 246.953125 C 108.480469 248.015625 104.40625 248.550781 100.347656 249.082031 C 90.160156 250.40625 79.9375 251.296875 69.648438 251.089844 C 68.269531 251.058594 68.066406 250.75 68.695313 249.519531 C 69.203125 248.535156 70.035156 247.789063 70.773438 246.871094 C 68.464844 246.410156 66.199219 246.203125 64.03125 245.527344 C 62.863281 245.164063 62.777344 244.957031 63.394531 243.890625 C 64.871094 241.3125 66.648438 238.949219 68.691406 236.800781 C 69.136719 236.328125 69.140625 236.113281 68.726563 235.617188 C 65.75 232.039063 63.058594 228.265625 61.859375 223.675781 C 60.414063 218.128906 60.511719 212.601563 62.449219 207.167969 C 64.714844 200.816406 67.558594 194.726563 71.03125 188.941406 C 71.402344 188.324219 71.304688 188.003906 70.894531 187.496094 C 66.320313 181.875 61.964844 176.097656 59.074219 169.386719 C 56.539063 163.492188 54.683594 157.363281 53.050781 151.164063 C 52.679688 149.753906 52.683594 148.039063 51.84375 147.015625 C 51.03125 146.027344 49.210938 146.351563 47.855469 145.988281 C 40.0625 143.890625 32.996094 140.371094 26.457031 135.625 C 19.292969 130.421875 12.691406 124.664063 7.148438 117.730469 C 6.910156 117.429688 6.589844 117.183594 6.273438 116.960938 C 4.613281 115.785156 3.023438 114.527344 1.464844 113.21875 C -0.40625 111.644531 -0.425781 111.421875 1.070313 109.53125 C 2.84375 107.296875 4.640625 105.078125 6.589844 102.996094 C 7.054688 102.503906 7.183594 102.179688 6.691406 101.597656 C 4.921875 99.507813 3.769531 97.058594 2.746094 94.542969 C 2.101563 92.945313 2.371094 92.445313 4.089844 92.363281 C 7.902344 92.175781 11.722656 92.160156 15.53125 92.363281 C 20.832031 92.648438 26.132813 92.964844 31.382813 93.8125 C 33.089844 94.089844 34.792969 94.390625 36.796875 94.730469 "/>
</g>
<path style=" stroke:none;fill-rule:evenodd;fill:rgb(63.476563%,83.984375%,83.201599%);fill-opacity:1;" d="M 46.382813 100.890625 C 41.957031 98.117188 37.914063 94.863281 34.15625 91.242188 C 32.664063 89.804688 31.222656 88.328125 30.199219 86.417969 C 30.625 86.289063 30.957031 86.519531 31.285156 86.636719 C 39.347656 89.511719 47.273438 92.707031 54.519531 97.328125 C 56.945313 98.878906 59.246094 98.882813 61.820313 97.992188 C 66.066406 96.527344 70.402344 95.351563 74.855469 94.726563 C 79.9375 94.011719 85.058594 93.683594 90.179688 93.359375 C 95.90625 92.996094 101.648438 92.859375 107.359375 92.300781 C 108.609375 92.179688 109.820313 91.898438 110.941406 91.308594 C 111.824219 90.84375 112.347656 90.117188 112.585938 89.027344 C 112.320313 89.109375 112.175781 89.109375 112.132813 89.175781 C 110.804688 91.179688 108.683594 91.460938 106.578125 91.621094 C 102.707031 91.917969 98.824219 92.082031 94.949219 92.328125 C 87.304688 92.820313 79.640625 93.058594 72.082031 94.449219 C 68.683594 95.074219 65.367188 96.042969 62.074219 97.089844 C 61.5 97.273438 60.917969 97.449219 60.34375 97.636719 C 58.609375 98.191406 57.046875 97.953125 55.464844 96.972656 C 47.433594 91.992188 38.777344 88.359375 29.839844 85.367188 C 28.996094 85.085938 28.121094 84.902344 27.292969 84.585938 C 23.777344 83.238281 21.808594 79.167969 23.347656 75.746094 C 24.636719 72.882813 24.949219 70.003906 24.828125 66.9375 C 24.53125 59.46875 25.199219 52.054688 26.632813 44.722656 C 27.84375 38.511719 30.890625 33.117188 34.480469 28.019531 C 40.039063 20.121094 46.898438 13.585938 55.410156 8.964844 C 63.21875 4.722656 71.597656 2.15625 80.476563 1.335938 C 91.035156 0.359375 101.511719 0.8125 111.734375 3.746094 C 124.28125 7.347656 134.925781 14.019531 143.253906 24.183594 C 148.765625 30.90625 151.941406 38.660156 153.367188 47.1875 C 155.039063 57.160156 154.753906 67.058594 152.351563 76.882813 C 152.273438 77.195313 152.175781 77.5 152.101563 77.8125 C 151.476563 80.40625 150.414063 82.457031 147.421875 83.136719 C 145.695313 83.527344 144.105469 84.578125 142.488281 85.402344 C 141.835938 85.734375 141.46875 85.714844 140.984375 85.101563 C 139.027344 82.640625 136.84375 80.386719 134.539063 78.253906 C 133.699219 77.476563 132.753906 76.839844 131.828125 76.167969 C 131.1875 75.703125 130.792969 75.847656 130.332031 76.445313 C 128.523438 78.789063 127.210938 81.4375 126.328125 84.195313 C 125.335938 87.304688 123.585938 89.464844 120.730469 90.984375 C 118.722656 92.050781 116.992188 93.597656 115.378906 95.21875 C 114.398438 96.195313 114.363281 96.625 115.171875 97.710938 C 115.914063 98.707031 116.695313 99.675781 117.464844 100.660156 C 117.449219 101.347656 116.863281 101.5 116.40625 101.71875 C 111.300781 104.171875 106 105.984375 100.355469 106.738281 C 96.152344 107.300781 91.941406 107.660156 87.703125 107.851563 C 75.257813 108.421875 63.121094 106.773438 51.246094 103.0625 C 49.535156 102.527344 47.941406 101.75 46.382813 100.890625 "/>
<path style=" stroke:none;fill-rule:evenodd;fill:rgb(63.476563%,83.984375%,83.201599%);fill-opacity:1;" d="M 273.238281 192.628906 C 271.15625 189.171875 268.1875 186.824219 264.261719 185.902344 C 261.296875 185.207031 258.257813 185.269531 255.246094 185.839844 C 252.394531 186.246094 249.503906 186.066406 246.660156 186.65625 C 240.277344 187.980469 234.640625 190.738281 229.65625 194.941406 C 226.925781 197.242188 224.539063 199.875 222.027344 202.390625 C 216.574219 207.859375 210.167969 211.792969 202.839844 214.214844 C 200.945313 214.839844 199.019531 215.367188 197.039063 215.648438 C 196.535156 215.71875 196.148438 215.667969 195.910156 215.175781 C 195.566406 213.972656 195.894531 212.707031 195.574219 211.496094 C 195.46875 211.105469 195.816406 211.039063 196.054688 210.910156 C 200.335938 208.632813 202.84375 205.160156 203.230469 200.257813 C 203.257813 199.921875 203.398438 199.671875 203.59375 199.402344 C 204.996094 197.472656 206.378906 195.523438 207.503906 193.414063 C 207.675781 193.089844 207.890625 192.832031 208.21875 192.652344 C 211.195313 191.058594 213.214844 188.523438 214.75 185.632813 C 216.78125 181.796875 218.542969 177.800781 220.871094 174.136719 C 226.828125 164.773438 234.855469 157.785156 245.246094 153.667969 C 248.164063 152.507813 251.242188 152.234375 254.355469 152.089844 C 260.148438 151.824219 265.804688 152.199219 271.140625 154.800781 C 277.84375 158.074219 283.046875 162.847656 286.617188 169.453125 C 292.46875 180.292969 293.8125 191.671875 290.972656 203.589844 C 290.375 206.085938 289.273438 208.410156 287.933594 210.605469 C 287.324219 210.535156 287.316406 209.992188 287.183594 209.589844 C 286.113281 206.316406 284.648438 203.246094 282.511719 200.535156 C 280.46875 197.945313 278.035156 195.777344 275.210938 194.058594 C 274.515625 193.632813 273.769531 193.277344 273.238281 192.628906 "/>
<path style=" stroke:none;fill-rule:evenodd;fill:rgb(63.476563%,83.984375%,83.201599%);fill-opacity:1;" d="M 130.257813 126.769531 C 128.265625 123.71875 126.617188 120.492188 125.371094 117.074219 C 123.816406 112.796875 122.25 108.519531 121.0625 104.113281 C 120.910156 103.550781 120.507813 103.238281 120.179688 102.832031 C 118.707031 100.996094 117.273438 99.132813 115.789063 97.308594 C 115.261719 96.664063 115.382813 96.230469 115.945313 95.691406 C 118.371094 93.347656 121.132813 91.457031 124.003906 89.722656 C 124.914063 89.171875 125.433594 88.464844 125.804688 87.476563 C 127.09375 84.050781 128.421875 80.632813 130.457031 77.539063 C 130.957031 76.78125 131.320313 76.660156 132.089844 77.242188 C 135.300781 79.671875 137.96875 82.632813 140.511719 85.710938 C 141.179688 86.523438 141.6875 86.6875 142.648438 86.164063 C 144.898438 84.941406 147.230469 83.878906 149.636719 82.980469 C 150.351563 82.714844 150.71875 82.761719 151.066406 83.5625 C 152.445313 86.710938 153.417969 89.96875 154.027344 93.34375 C 154.050781 93.484375 154.039063 93.644531 154.105469 93.761719 C 154.25 94.042969 154.097656 94.640625 154.605469 94.539063 C 155.0625 94.441406 154.828125 93.949219 154.800781 93.613281 C 154.78125 93.40625 154.757813 93.199219 154.730469 92.980469 C 155.167969 92.980469 155.40625 93.277344 155.691406 93.476563 C 162.03125 97.851563 166.722656 103.589844 169.988281 110.5625 C 172.195313 115.28125 173.585938 120.148438 173.292969 125.40625 C 173.238281 126.363281 173.121094 127.320313 173.03125 128.277344 C 172.851563 128.660156 172.503906 128.726563 172.140625 128.742188 C 170.492188 128.816406 169.347656 129.707031 168.453125 130.996094 C 165.949219 134.601563 162.480469 136.742188 158.171875 137.222656 C 154.625 137.617188 151.046875 137.367188 147.5625 136.445313 C 141.9375 134.964844 136.851563 132.386719 132.238281 128.859375 C 131.460938 128.265625 130.902344 127.480469 130.257813 126.769531 "/>
<path style=" stroke:none;fill-rule:evenodd;fill:rgb(95.701599%,91.40625%,49.021912%);fill-opacity:1;" d="M 117.265625 172.539063 C 111.847656 172.617188 106.433594 172.40625 101.015625 172.289063 C 100.320313 172.273438 99.953125 172.089844 99.679688 171.394531 C 95.261719 159.996094 92.347656 148.207031 90.542969 136.132813 C 90.375 135.007813 90.371094 133.855469 90.175781 132.738281 C 90.042969 131.980469 90.261719 131.835938 90.972656 131.859375 C 94.964844 132.003906 98.953125 131.949219 102.949219 131.875 C 110.722656 131.734375 118.464844 131.308594 126.074219 129.527344 C 127.179688 129.265625 128.296875 129.015625 129.371094 128.648438 C 130.109375 128.398438 130.492188 128.558594 130.941406 129.1875 C 134.246094 133.839844 138.335938 137.644531 143.3125 140.480469 C 145.40625 141.671875 147.621094 142.519531 149.96875 143 C 150.683594 143.148438 150.78125 143.289063 150.386719 143.917969 C 148 147.757813 145.558594 151.5625 143.289063 155.476563 C 140.324219 160.589844 137.632813 165.851563 135.054688 171.167969 C 134.730469 171.828125 134.375 172.097656 133.617188 172.113281 C 128.164063 172.222656 122.714844 172.390625 117.265625 172.539063 "/>
<path style=" stroke:none;fill-rule:evenodd;fill:rgb(63.476563%,83.984375%,83.201599%);fill-opacity:1;" d="M 22.632813 131.691406 C 19.878906 129.828125 17.425781 127.609375 15.046875 125.300781 C 12.820313 123.140625 10.679688 120.882813 8.773438 118.445313 C 7.394531 116.683594 5.511719 115.597656 3.863281 114.203125 C 3.046875 113.515625 2.230469 112.820313 1.382813 112.167969 C 0.734375 111.667969 0.710938 111.210938 1.21875 110.5625 C 3.179688 108.070313 5.160156 105.59375 7.351563 103.296875 C 8.042969 102.570313 8.050781 102.050781 7.414063 101.304688 C 5.632813 99.222656 4.488281 96.769531 3.429688 94.269531 C 3.097656 93.488281 3.148438 93.179688 4.140625 93.121094 C 9.988281 92.769531 15.820313 93.109375 21.652344 93.507813 C 26.777344 93.859375 31.84375 94.574219 36.886719 95.527344 C 37.636719 95.667969 38.269531 95.933594 38.878906 96.421875 C 46.363281 102.433594 54.457031 107.304688 63.894531 109.617188 C 64.402344 109.742188 64.585938 109.945313 64.585938 110.476563 C 64.589844 118.875 63.199219 126.984375 59.625 134.648438 C 59.25 135.007813 58.785156 135.148438 58.289063 135.257813 C 55.601563 135.839844 52.867188 136.121094 50.136719 136.238281 C 45.367188 136.449219 40.609375 136.171875 35.875 135.507813 C 32.65625 135.054688 29.496094 134.394531 26.394531 133.4375 C 25.054688 133.027344 23.800781 132.464844 22.632813 131.691406 "/>
<path style=" stroke:none;fill-rule:evenodd;fill:rgb(87.109375%,92.96875%,91.796875%);fill-opacity:1;" d="M 170.3125 156.492188 C 170.21875 153.191406 170.902344 149.976563 171.449219 146.75 C 172.296875 141.761719 173.097656 136.777344 173.125 131.691406 C 173.132813 129.894531 173.871094 128.164063 174.015625 126.339844 C 174.40625 121.316406 173.410156 116.566406 171.453125 111.976563 C 167.976563 103.792969 162.679688 97.105469 155.199219 92.222656 C 154.675781 91.882813 154.421875 91.441406 154.28125 90.859375 C 153.644531 88.152344 152.8125 85.511719 151.605469 82.996094 C 151.339844 82.441406 151.308594 81.953125 151.5625 81.371094 C 153.65625 76.574219 154.324219 71.457031 154.878906 66.316406 C 155.148438 63.847656 155.152344 61.363281 155.15625 58.746094 C 156.941406 59.65625 158.355469 60.777344 159.546875 62.230469 C 162.71875 66.09375 164.070313 70.566406 164.09375 75.496094 C 164.109375 78.597656 163.933594 81.699219 164.289063 84.789063 C 164.6875 88.230469 165.914063 91.226563 168.679688 93.507813 C 172.699219 96.828125 176.472656 100.402344 179.582031 104.625 C 183.605469 110.089844 186.644531 116.003906 187.714844 122.765625 C 188.324219 126.609375 188.351563 130.503906 188.046875 134.386719 C 187.6875 138.898438 187.53125 143.425781 186.761719 147.894531 C 186.136719 151.503906 185.105469 155.03125 184.542969 158.660156 C 183.945313 162.542969 184.742188 166.078125 186.859375 169.359375 C 188.53125 171.953125 190.78125 174.0625 192.730469 176.421875 C 196.089844 180.484375 198.847656 184.917969 200.980469 189.726563 C 202.886719 194.015625 203.121094 198.484375 201.945313 202.996094 C 201.039063 206.472656 198.609375 208.683594 195.433594 210.386719 C 195.242188 209.402344 195.074219 208.515625 194.902344 207.628906 C 197.144531 202.804688 196.453125 198.042969 194.496094 193.363281 C 192.894531 189.535156 190.46875 186.269531 187.496094 183.363281 C 184.972656 180.902344 182.367188 178.527344 179.855469 176.054688 C 177.941406 174.171875 176.453125 171.945313 175.039063 169.675781 C 173.140625 166.636719 171.460938 163.519531 170.703125 159.96875 C 170.453125 158.816406 170.496094 157.644531 170.3125 156.492188 "/>
<path style=" stroke:none;fill-rule:evenodd;fill:rgb(63.476563%,83.984375%,83.201599%);fill-opacity:1;" d="M 146.929688 212.542969 C 147.910156 205.507813 150.242188 199.050781 155.371094 193.921875 C 158.910156 190.382813 163.359375 188.605469 168.3125 188.300781 C 174.847656 187.902344 180.972656 189.140625 186.003906 193.6875 C 189.128906 196.507813 191.070313 200.167969 192.746094 203.96875 C 195.09375 209.292969 195.347656 214.9375 195.195313 220.625 C 195.160156 221.789063 195.253906 222.972656 194.921875 224.117188 C 194.121094 225.320313 192.886719 225.988281 191.683594 226.65625 C 187.039063 229.238281 182.019531 230.601563 176.769531 231.226563 C 173.902344 231.566406 171.03125 231.734375 168.144531 231.667969 C 163.925781 231.570313 159.914063 230.820313 156.609375 227.941406 C 152.558594 224.40625 149.324219 220.25 147.234375 215.261719 C 146.867188 214.390625 146.777344 213.480469 146.929688 212.542969 "/>
<path style=" stroke:none;fill-rule:evenodd;fill:rgb(77.34375%,40.380859%,7.446289%);fill-opacity:1;" d="M 191.503906 173.804688 C 190.429688 172.664063 189.390625 171.5 188.421875 170.265625 C 185.363281 166.359375 184.515625 162.046875 185.523438 157.195313 C 186.367188 153.128906 187.585938 149.128906 187.933594 144.960938 C 188.164063 142.195313 188.460938 139.4375 188.652344 136.667969 C 188.914063 132.902344 189.03125 129.136719 188.757813 125.355469 C 188.449219 121.101563 187.300781 117.105469 185.570313 113.246094 C 183.347656 108.285156 180.253906 103.90625 176.648438 99.871094 C 176.484375 99.691406 176.328125 99.507813 176.070313 99.210938 C 178.171875 99.210938 180.148438 99.070313 182.101563 99.238281 C 186.671875 99.621094 191.238281 100.070313 195.761719 100.882813 C 197.195313 101.136719 198.605469 101.523438 200.039063 101.769531 C 201.296875 101.980469 202.011719 102.769531 202.59375 103.800781 C 205.386719 108.71875 207.363281 113.972656 209.207031 119.296875 C 211.554688 126.0625 212.957031 133.003906 213.550781 140.128906 C 213.640625 141.230469 213.757813 142.324219 213.730469 143.433594 C 213.765625 145.582031 212.960938 147.527344 212.152344 149.445313 C 209.71875 155.230469 206.402344 160.453125 202.191406 165.128906 C 199.417969 168.214844 196.480469 171.078125 192.953125 173.292969 C 192.515625 173.570313 192.109375 173.980469 191.503906 173.804688 "/>
<path style=" stroke:none;fill-rule:evenodd;fill:rgb(31.762695%,64.256287%,68.164063%);fill-opacity:1;" d="M 195.910156 215.175781 C 196.441406 215.6875 197.074219 215.394531 197.605469 215.285156 C 205.191406 213.707031 212.039063 210.554688 218.019531 205.59375 C 220.429688 203.59375 222.621094 201.363281 224.796875 199.097656 C 229.828125 193.847656 235.535156 189.5625 242.621094 187.394531 C 246.742188 186.132813 250.941406 185.570313 255.246094 185.839844 C 245.222656 188.808594 240.769531 198.246094 241.664063 207.640625 C 241.867188 209.773438 242.113281 211.890625 242.871094 213.902344 C 244.839844 219.113281 248.234375 222.996094 253.449219 225.167969 C 253.640625 225.246094 253.816406 225.355469 254.070313 225.484375 C 250.878906 226.8125 247.59375 227.394531 244.304688 227.960938 C 238.675781 228.9375 232.996094 229.347656 227.296875 229.359375 C 221.917969 229.371094 216.554688 229.015625 211.199219 228.464844 C 206.316406 227.960938 201.492188 226.964844 196.59375 226.636719 C 195.65625 226.578125 195.398438 226.214844 195.550781 225.304688 C 196.105469 221.945313 196.015625 218.558594 195.910156 215.175781 "/>
<path style=" stroke:none;fill-rule:evenodd;fill:rgb(95.701599%,91.40625%,49.021912%);fill-opacity:1;" d="M 171.175781 143.480469 C 170.703125 146.535156 170.140625 149.578125 169.777344 152.644531 C 169.171875 157.765625 169.3125 162.863281 170.78125 167.863281 C 171.296875 169.609375 172.007813 171.269531 172.96875 172.820313 C 174.925781 175.964844 177.035156 178.996094 179.480469 181.78125 C 179.96875 182.796875 179.347656 183.609375 178.867188 184.339844 C 178.003906 185.652344 176.839844 186.714844 175.550781 187.625 C 175.386719 187.738281 175.191406 187.859375 174.960938 187.761719 C 172.226563 187.546875 169.488281 187.289063 166.75 187.6875 C 163.203125 188.199219 159.957031 189.484375 157.007813 191.503906 C 156.632813 191.757813 156.460938 191.65625 156.203125 191.421875 C 149.414063 185.277344 142.226563 179.574219 135.839844 172.984375 C 135.484375 172.621094 135.300781 172.335938 135.5625 171.789063 C 140.003906 162.53125 144.996094 153.585938 150.632813 144.996094 C 150.671875 144.941406 150.738281 144.90625 150.796875 144.863281 C 151.160156 144.789063 151.503906 144.875 151.828125 145.03125 C 154.347656 146.242188 157.066406 146.675781 159.800781 146.6875 C 163.375 146.703125 166.757813 145.773438 169.78125 143.777344 C 170.109375 143.5625 170.394531 143.277344 170.792969 143.203125 C 170.988281 143.167969 171.246094 143.117188 171.175781 143.480469 "/>
<path style=" stroke:none;fill-rule:evenodd;fill:rgb(95.701599%,91.40625%,49.021912%);fill-opacity:1;" d="M 59.4375 136.980469 C 60.957031 133.683594 62.359375 130.339844 63.289063 126.820313 C 63.425781 126.292969 63.628906 126.335938 64.035156 126.5 C 71.878906 129.664063 80.148438 130.832031 88.480469 131.675781 C 89.042969 131.730469 89.355469 131.792969 89.429688 132.484375 C 90.8125 145.722656 94.039063 158.519531 98.726563 170.960938 C 98.839844 171.257813 98.949219 171.558594 99.046875 171.863281 C 99.066406 171.921875 99.023438 172 98.988281 172.175781 C 96.414063 172.054688 93.820313 171.941406 91.226563 171.804688 C 85.746094 171.519531 80.304688 170.871094 74.863281 170.175781 C 74.5 170.132813 74.203125 170.089844 73.957031 169.753906 C 68.539063 162.425781 63 155.183594 58.398438 147.289063 C 58.167969 146.84375 58.222656 146.378906 58.355469 145.9375 C 59.007813 143.730469 58.886719 141.433594 59.117188 139.179688 C 59.195313 138.4375 59.226563 137.699219 59.4375 136.980469 "/>
<path style=" stroke:none;fill-rule:evenodd;fill:rgb(31.762695%,64.256287%,68.164063%);fill-opacity:1;" d="M 96.277344 209.386719 C 101.769531 213.289063 107.460938 216.871094 113.714844 219.453125 C 114.996094 219.980469 116.328125 220.386719 117.660156 220.78125 C 118.316406 220.972656 118.425781 221.199219 118.09375 221.808594 C 116.636719 224.507813 115.507813 227.351563 114.394531 230.203125 C 113.675781 232.035156 114.019531 233.773438 114.339844 235.550781 C 114.742188 237.824219 115.1875 240.09375 115.648438 242.359375 C 115.921875 243.722656 115.460938 244.699219 114.28125 245.421875 C 112.613281 246.4375 110.710938 246.613281 108.871094 246.949219 C 102.183594 248.183594 95.445313 249.042969 88.667969 249.582031 C 88.140625 249.625 87.636719 249.890625 87.089844 249.738281 C 87.09375 249.421875 87.421875 249.164063 87.085938 248.777344 C 83.636719 244.792969 79.65625 241.53125 74.675781 239.632813 C 73.003906 238.996094 71.273438 238.613281 69.457031 238.699219 C 69.046875 238.71875 68.59375 238.792969 68.25 238.433594 C 68.605469 237.851563 69.070313 237.320313 69.621094 236.960938 C 70.289063 236.527344 70.601563 237.644531 71.449219 237.515625 C 70.703125 236.699219 70.007813 235.988281 69.375 235.226563 C 66.761719 232.058594 64.34375 228.769531 63.015625 224.816406 C 62.960938 224.652344 62.941406 224.476563 62.902344 224.304688 C 63.347656 224.203125 63.636719 224.507813 63.953125 224.722656 C 67.898438 227.460938 72.261719 228.664063 77 227.847656 C 80.417969 227.257813 83.457031 225.652344 86.140625 223.421875 C 90.582031 219.726563 93.96875 215.273438 95.984375 209.824219 C 96.046875 209.65625 96.132813 209.5 96.277344 209.386719 "/>
<path style=" stroke:none;fill-rule:evenodd;fill:rgb(95.701599%,91.40625%,49.021912%);fill-opacity:1;" d="M 115.761719 201.195313 C 110.960938 194.578125 106.761719 187.605469 103.363281 180.164063 C 102.300781 177.84375 101.34375 175.472656 100.359375 173.179688 C 102.519531 173.179688 104.574219 173.152344 106.628906 173.183594 C 115.539063 173.316406 124.449219 173.21875 133.355469 172.808594 C 134.207031 172.769531 134.8125 172.960938 135.417969 173.589844 C 141.574219 180.003906 148.53125 185.542969 155.148438 191.453125 C 155.886719 192.113281 155.902344 192.425781 155.15625 193.078125 C 153.675781 194.371094 152.585938 196.015625 151.414063 197.578125 C 149.089844 199.152344 146.386719 199.703125 143.734375 200.355469 C 139.574219 201.382813 135.324219 201.75 131.046875 201.75 C 128.09375 201.75 125.140625 201.714844 122.1875 201.761719 C 120.367188 201.792969 118.574219 201.4375 116.757813 201.519531 C 116.394531 201.535156 116.058594 201.417969 115.761719 201.195313 "/>
<path style=" stroke:none;fill-rule:evenodd;fill:rgb(31.762695%,64.256287%,68.164063%);fill-opacity:1;" d="M 273.238281 192.628906 C 280.28125 196.289063 285.035156 201.878906 287.414063 209.464844 C 287.539063 209.859375 287.574219 210.3125 287.933594 210.605469 C 284.125 216.820313 279.058594 221.589844 272.242188 224.378906 C 270.207031 225.214844 268.074219 225.5625 265.90625 225.742188 C 262.890625 225.996094 259.894531 226.027344 256.882813 225.425781 C 249.929688 224.03125 243.972656 217.949219 242.820313 210.886719 C 242.425781 208.460938 242.136719 206.027344 242.40625 203.5625 C 244.273438 200.90625 246.714844 198.9375 249.664063 197.621094 C 252.984375 196.136719 256.507813 196.058594 260.046875 196.3125 C 261.140625 196.390625 262.238281 196.503906 263.308594 196.828125 C 266.871094 197.90625 269.363281 200.15625 270.828125 203.566406 C 270.773438 203.839844 270.34375 203.90625 270.46875 204.402344 C 271.839844 203.726563 272.808594 202.730469 273.421875 201.378906 C 274.550781 198.898438 274.550781 196.375 273.664063 193.824219 C 273.527344 193.425781 273.382813 193.027344 273.238281 192.628906 "/>
<path style=" stroke:none;fill-rule:evenodd;fill:rgb(31.762695%,64.256287%,68.164063%);fill-opacity:1;" d="M 146.929688 212.542969 C 146.890625 213.5625 147.1875 214.5 147.605469 215.417969 C 150.085938 220.859375 153.558594 225.511719 158.527344 228.929688 C 160.6875 230.414063 163.140625 231.027344 165.753906 231.195313 C 167.640625 231.320313 169.523438 231.433594 171.402344 231.355469 C 178.273438 231.074219 184.949219 229.9375 191.117188 226.660156 C 192.476563 225.9375 193.664063 224.980469 194.921875 224.117188 C 194.527344 228.304688 193.671875 232.414063 192.859375 236.53125 C 192.242188 239.664063 191.304688 242.75 191.707031 246.019531 C 192.105469 249.269531 192.386719 252.535156 192.699219 255.792969 C 192.75 256.285156 192.714844 256.789063 192.722656 257.285156 C 192.113281 257.347656 191.738281 256.921875 191.335938 256.589844 C 188.160156 253.996094 184.601563 252.074219 180.851563 250.464844 C 178.027344 249.25 175.046875 248.710938 172.011719 248.613281 C 166.027344 248.421875 160.050781 248.527344 154.152344 249.8125 C 152.816406 250.105469 151.550781 250.542969 150.316406 251.105469 C 149.914063 251.285156 149.507813 251.628906 149.042969 251.226563 C 149.132813 251.035156 149.179688 250.804688 149.316406 250.652344 C 150.769531 249.007813 150.542969 247.28125 149.90625 245.316406 C 147.328125 237.40625 146.019531 229.28125 146.390625 220.9375 C 146.515625 218.140625 146.511719 215.328125 146.929688 212.542969 "/>
<path style=" stroke:none;fill-rule:evenodd;fill:rgb(63.476563%,83.984375%,83.201599%);fill-opacity:1;" d="M 96.277344 209.386719 C 96.15625 210.847656 95.457031 212.101563 94.773438 213.339844 C 92.253906 217.921875 89.007813 221.90625 84.664063 224.867188 C 81.210938 227.21875 77.417969 228.785156 73.152344 228.339844 C 69.402344 227.945313 65.847656 226.839844 62.902344 224.304688 C 61.742188 221.0625 61.519531 217.714844 61.714844 214.308594 C 61.929688 210.550781 63.171875 207.074219 64.585938 203.636719 C 66.605469 198.722656 68.929688 193.960938 71.597656 189.363281 C 72.128906 188.445313 72.628906 188.3125 73.523438 188.773438 C 74.964844 189.511719 76.296875 190.386719 77.421875 191.550781 C 79.652344 193.859375 81.859375 196.183594 84.089844 198.488281 C 87.890625 202.414063 91.917969 206.082031 96.277344 209.386719 "/>
<path style=" stroke:none;fill-rule:evenodd;fill:rgb(95.701599%,91.40625%,49.414063%);fill-opacity:1;" d="M 77.023438 190.078125 C 75.480469 188.992188 73.933594 187.945313 72.042969 187.488281 C 71.175781 187.28125 70.429688 185.695313 70.574219 184.75 C 71.253906 180.1875 72.695313 175.835938 74.121094 171.476563 C 74.289063 170.96875 74.515625 170.851563 75.050781 170.929688 C 82.878906 172.078125 90.761719 172.601563 98.660156 172.925781 C 99.203125 172.949219 99.550781 173.019531 99.78125 173.621094 C 103.464844 183.324219 108.550781 192.273438 114.460938 200.769531 C 114.367188 201.359375 113.914063 201.207031 113.566406 201.171875 C 108.84375 200.710938 104.179688 199.898438 99.542969 198.867188 C 92.75 197.355469 86.296875 194.929688 80.109375 191.757813 C 79.066406 191.222656 77.964844 190.800781 77.023438 190.078125 "/>
<path style=" stroke:none;fill-rule:evenodd;fill:rgb(95.701599%,91.40625%,49.414063%);fill-opacity:1;" d="M 122.136719 110.28125 C 122.804688 112.160156 123.488281 114.03125 124.132813 115.914063 C 125.546875 120.046875 127.542969 123.890625 129.875 127.707031 C 127.320313 128.511719 124.785156 129.109375 122.207031 129.535156 C 111.25 131.359375 100.199219 131.578125 89.15625 130.941406 C 81.117188 130.476563 73.171875 129.085938 65.546875 126.308594 C 63.613281 125.605469 63.636719 125.558594 64.058594 123.554688 C 64.65625 120.730469 64.957031 117.859375 65.261719 114.988281 C 65.703125 114.300781 66.214844 114.746094 66.65625 114.953125 C 70.019531 116.523438 73.503906 117.742188 77.101563 118.667969 C 82.621094 120.082031 88.226563 120.652344 93.917969 120.46875 C 102.675781 120.179688 110.707031 117.660156 117.941406 112.667969 C 119.03125 111.917969 120.007813 111.042969 120.960938 110.132813 C 121.363281 109.746094 121.851563 109.402344 122.136719 110.28125 "/>
<path style=" stroke:none;fill-rule:evenodd;fill:rgb(77.34375%,40.380859%,7.446289%);fill-opacity:1;" d="M 200.460938 100.910156 C 197.484375 100.421875 194.636719 99.882813 191.742188 99.519531 C 186.554688 98.867188 181.359375 98.273438 176.117188 98.328125 C 175.429688 98.335938 174.914063 98.152344 174.421875 97.65625 C 172.789063 96.011719 171.058594 94.46875 169.25 93.023438 C 166.402344 90.742188 165.246094 87.648438 164.980469 84.164063 C 164.800781 81.71875 164.785156 79.265625 164.847656 76.804688 C 164.933594 73.257813 164.570313 69.714844 162.9375 66.171875 C 179.878906 73.246094 191.796875 85.316406 200.460938 100.910156 "/>
<path style=" stroke:none;fill-rule:evenodd;fill:rgb(81.639099%,76.951599%,37.255859%);fill-opacity:1;" d="M 122.136719 110.28125 C 121.847656 109.863281 121.601563 109.882813 121.222656 110.242188 C 115.488281 115.679688 108.492188 118.589844 100.878906 120.058594 C 96.691406 120.871094 92.390625 121.019531 88.136719 120.726563 C 81.128906 120.242188 74.339844 118.714844 67.882813 115.824219 C 67.070313 115.460938 66.324219 114.652344 65.261719 114.988281 C 65.273438 113.566406 65.308594 112.140625 65.285156 110.71875 C 65.277344 110.097656 65.523438 109.996094 66.0625 110.121094 C 71.78125 111.441406 77.605469 111.867188 83.449219 111.882813 C 94.742188 111.90625 105.796875 110.359375 116.441406 106.417969 C 117.605469 105.988281 118.714844 105.40625 119.847656 104.894531 C 120.097656 104.78125 120.355469 104.542969 120.5 105.015625 C 121.039063 106.773438 121.589844 108.527344 122.136719 110.28125 "/>
<path style=" stroke:none;fill-rule:evenodd;fill:rgb(81.639099%,76.951599%,37.255859%);fill-opacity:1;" d="M 77.023438 190.078125 C 79.425781 190.960938 81.683594 192.175781 83.984375 193.285156 C 89.683594 196.023438 95.703125 197.738281 101.855469 199.066406 C 105.207031 199.792969 108.597656 200.296875 111.996094 200.71875 C 112.785156 200.816406 113.636719 201.207031 114.460938 200.769531 C 116.117188 203.132813 117.761719 205.5 119.445313 207.839844 C 119.769531 208.292969 119.738281 208.636719 119.53125 209.101563 C 118.160156 212.230469 116.710938 215.328125 115.648438 218.582031 C 115.367188 219.429688 114.914063 219.132813 114.433594 218.945313 C 110.289063 217.351563 106.496094 215.09375 102.714844 212.804688 C 94.835938 208.035156 88.167969 201.839844 81.929688 195.136719 C 80.332031 193.417969 78.660156 191.761719 77.023438 190.078125 "/>
<path style=" stroke:none;fill-rule:evenodd;fill:rgb(63.476563%,83.984375%,83.201599%);fill-opacity:1;" d="M 149.042969 251.226563 C 149.183594 251.21875 149.34375 251.253906 149.457031 251.195313 C 153.300781 249.167969 157.53125 248.914063 161.730469 248.46875 C 165.253906 248.09375 168.777344 248.21875 172.296875 248.328125 C 178.863281 248.53125 184.484375 251.359375 189.757813 255.019531 C 190.777344 255.730469 191.734375 256.527344 192.722656 257.285156 C 193.085938 258.257813 192.691406 258.464844 191.769531 258.328125 C 188.773438 257.890625 185.789063 257.40625 182.824219 256.796875 C 179.753906 256.160156 176.898438 256.710938 174.230469 258.347656 C 171.953125 259.746094 169.65625 261.105469 167.390625 262.515625 C 166.820313 262.871094 166.394531 262.828125 165.839844 262.464844 C 163.355469 260.824219 161.257813 258.730469 159.039063 256.777344 C 158.390625 256.203125 157.746094 255.902344 156.855469 255.914063 C 153.617188 255.964844 150.378906 255.933594 147.035156 255.933594 C 147.367188 254.015625 148.101563 252.578125 149.042969 251.226563 "/>
<path style=" stroke:none;fill-rule:evenodd;fill:rgb(66.601563%,25.488281%,9.008789%);fill-opacity:1;" d="M 191.503906 173.804688 C 193.941406 172.578125 196.0625 170.898438 198.03125 169.054688 C 203.375 164.054688 207.71875 158.289063 210.898438 151.671875 C 212.164063 149.035156 213.117188 146.292969 213.730469 143.433594 C 214.105469 144.996094 213.957031 146.601563 214.113281 148.1875 C 214.898438 155.960938 212.6875 163.175781 209.929688 170.289063 C 207.90625 175.507813 205.738281 180.648438 202.628906 185.335938 C 202.253906 185.898438 201.835938 186.433594 201.460938 186.996094 C 201.042969 187.621094 200.785156 187.539063 200.464844 186.886719 C 199.269531 184.457031 197.816406 182.171875 196.328125 179.910156 C 194.898438 177.734375 193.148438 175.8125 191.503906 173.804688 "/>
<path style=" stroke:none;fill-rule:evenodd;fill:rgb(81.639099%,76.951599%,37.255859%);fill-opacity:1;" d="M 145.882813 215.816406 C 145.632813 218.441406 145.640625 221.082031 145.652344 223.714844 C 145.65625 224.605469 145.359375 224.753906 144.554688 224.722656 C 139.164063 224.496094 133.882813 223.523438 128.609375 222.507813 C 124.734375 221.761719 120.859375 221.007813 117.074219 219.847656 C 116.292969 219.605469 116.105469 219.347656 116.40625 218.535156 C 117.539063 215.5 118.863281 212.546875 120.128906 209.566406 C 120.335938 209.078125 120.542969 208.925781 121.078125 209.121094 C 127.332031 211.378906 133.824219 212.609375 140.390625 213.5 C 141.835938 213.699219 143.285156 213.964844 144.734375 213.996094 C 145.824219 214.019531 146.105469 214.421875 145.90625 215.386719 C 145.878906 215.527344 145.890625 215.671875 145.882813 215.816406 "/>
<path style=" stroke:none;fill-rule:evenodd;fill:rgb(81.639099%,76.951599%,37.255859%);fill-opacity:1;" d="M 115.761719 201.195313 C 121.230469 201.5 126.707031 201.496094 132.179688 201.402344 C 138.597656 201.296875 144.871094 200.34375 150.796875 197.703125 C 150.984375 197.617188 151.207031 197.617188 151.414063 197.578125 C 148.367188 202.160156 146.9375 207.308594 146.132813 212.667969 C 146.054688 213.191406 145.960938 213.421875 145.371094 213.355469 C 137.226563 212.429688 129.140625 211.203125 121.367188 208.441406 C 120.894531 208.273438 120.488281 208.070313 120.179688 207.617188 C 118.726563 205.460938 117.238281 203.335938 115.761719 201.195313 "/>
<path style=" stroke:none;fill-rule:evenodd;fill:rgb(63.476563%,83.984375%,83.201599%);fill-opacity:1;" d="M 270.828125 203.566406 C 270.589844 203.546875 270.46875 203.40625 270.359375 203.195313 C 268.347656 199.191406 265.132813 197.050781 260.628906 196.671875 C 256.980469 196.363281 253.402344 196.394531 249.964844 197.804688 C 248.078125 198.578125 246.386719 199.675781 244.929688 201.117188 C 244.09375 201.9375 243.246094 202.746094 242.40625 203.5625 C 242.988281 193.59375 249.796875 187.417969 256.65625 186.394531 C 262.050781 185.589844 267.085938 186.488281 271.027344 190.796875 C 274.148438 194.210938 274.640625 200.367188 270.828125 203.566406 "/>
<path style=" stroke:none;fill-rule:evenodd;fill:rgb(95.701599%,91.40625%,49.021912%);fill-opacity:1;" d="M 58.144531 148.375 C 62.601563 155.8125 67.796875 162.738281 72.984375 169.667969 C 73.492188 170.347656 73.550781 170.886719 73.285156 171.683594 C 71.890625 175.832031 70.542969 179.996094 69.871094 184.339844 C 69.855469 184.441406 69.785156 184.53125 69.738281 184.632813 C 69.390625 184.601563 69.3125 184.285156 69.148438 184.085938 C 61.699219 175.257813 57.472656 164.875 54.566406 153.859375 C 54.40625 153.242188 54.269531 152.621094 54.121094 152.003906 C 54.5 151.488281 55.183594 151.472656 55.632813 151.054688 C 56.285156 150.449219 56.875 149.8125 57.273438 148.996094 C 57.429688 148.675781 57.527344 148.117188 58.144531 148.375 "/>
<path style=" stroke:none;fill-rule:evenodd;fill:rgb(31.762695%,64.256287%,68.164063%);fill-opacity:1;" d="M 46.382813 100.890625 C 48.875 101.808594 51.328125 102.832031 53.890625 103.5625 C 58.808594 104.960938 63.796875 105.980469 68.859375 106.667969 C 72.382813 107.144531 75.910156 107.363281 79.457031 107.574219 C 82.878906 107.777344 86.277344 107.667969 89.679688 107.472656 C 96.300781 107.09375 102.902344 106.5 109.238281 104.324219 C 111.730469 103.472656 114.175781 102.507813 116.527344 101.320313 C 116.871094 101.148438 117.273438 101.050781 117.464844 100.660156 C 118.152344 101.515625 118.808594 102.402344 119.539063 103.222656 C 120.035156 103.78125 119.953125 104.003906 119.289063 104.335938 C 115.054688 106.449219 110.554688 107.757813 105.957031 108.742188 C 97.648438 110.519531 89.25 111.410156 80.738281 111.101563 C 71.375 110.765625 62.273438 109.253906 53.746094 105.160156 C 51.183594 103.933594 48.664063 102.609375 46.382813 100.890625 "/>
<path style=" stroke:none;fill-rule:evenodd;fill:rgb(31.762695%,64.256287%,68.164063%);fill-opacity:1;" d="M 130.257813 126.769531 C 133.324219 129.644531 136.851563 131.8125 140.621094 133.628906 C 146.09375 136.261719 151.847656 137.480469 157.894531 136.992188 C 160.742188 136.761719 163.320313 135.644531 165.539063 133.769531 C 166.660156 132.820313 167.605469 131.742188 168.441406 130.527344 C 169.324219 129.253906 170.570313 128.445313 172.214844 128.460938 C 172.507813 128.464844 172.785156 128.445313 173.03125 128.273438 C 172.496094 130.746094 171.875 133.179688 170.613281 135.40625 C 169.09375 138.082031 166.675781 139.671875 163.96875 140.867188 C 157.191406 143.855469 150.488281 143.367188 144.035156 139.988281 C 138.296875 136.988281 133.898438 132.460938 130.371094 127.0625 C 130.316406 126.976563 130.296875 126.867188 130.257813 126.769531 "/>
<path style=" stroke:none;fill-rule:evenodd;fill:rgb(31.762695%,64.256287%,68.164063%);fill-opacity:1;" d="M 22.632813 131.691406 C 25.332031 132.777344 28.074219 133.710938 30.925781 134.324219 C 34.394531 135.074219 37.90625 135.441406 41.433594 135.765625 C 43.171875 135.925781 44.90625 135.9375 46.648438 135.960938 C 51.023438 136.023438 55.351563 135.59375 59.625 134.648438 C 57.933594 138.839844 55.140625 142.289063 52.183594 145.625 C 51.859375 145.988281 51.53125 145.921875 51.128906 145.847656 C 45.265625 144.808594 39.753906 142.761719 34.546875 139.917969 C 30.296875 137.59375 26.378906 134.761719 22.632813 131.691406 "/>
<path style=" stroke:none;fill-rule:evenodd;fill:rgb(69.334412%,80.076599%,78.125%);fill-opacity:1;" d="M 170.3125 156.492188 C 170.535156 157.664063 170.742188 158.839844 170.992188 160.007813 C 171.726563 163.472656 173.398438 166.511719 175.238281 169.488281 C 176.621094 171.734375 178.054688 173.972656 179.941406 175.785156 C 182.894531 178.617188 185.929688 181.363281 188.777344 184.300781 C 190.089844 185.652344 191.324219 187.078125 192.320313 188.6875 C 194.246094 191.789063 195.796875 195.042969 196.359375 198.691406 C 196.761719 201.285156 196.5625 203.84375 195.78125 206.351563 C 195.617188 206.875 195.421875 207.359375 194.902344 207.628906 C 193.804688 204.511719 192.6875 201.394531 190.832031 198.632813 C 189.699219 196.945313 188.703125 195.246094 188.246094 193.222656 C 187.925781 191.800781 187.042969 190.578125 186.257813 189.347656 C 184.667969 186.855469 182.90625 184.484375 180.921875 182.289063 C 178.621094 179.75 176.636719 176.976563 174.6875 174.167969 C 171.6875 169.832031 170.4375 164.988281 170.28125 159.800781 C 170.246094 158.699219 170.296875 157.59375 170.3125 156.492188 "/>
<path style=" stroke:none;fill-rule:evenodd;fill:rgb(63.476563%,83.984375%,83.201599%);fill-opacity:1;" d="M 68.25 238.433594 C 74.128906 238.058594 78.742188 240.839844 83.046875 244.375 C 84.613281 245.660156 85.992188 247.136719 87.351563 248.632813 C 87.933594 249.277344 87.921875 249.542969 87.089844 249.738281 C 81.476563 250.238281 75.847656 250.402344 70.214844 250.355469 C 69.917969 250.355469 69.507813 250.539063 69.34375 250.191406 C 69.195313 249.875 69.503906 249.59375 69.6875 249.34375 C 70.441406 248.300781 71.371094 247.414063 72.265625 246.492188 C 72.523438 246.226563 72.929688 246.046875 72.929688 245.582031 C 72.863281 245.546875 72.765625 245.472656 72.746094 245.488281 C 71.578125 246.484375 70.285156 246.007813 69.023438 245.792969 C 67.515625 245.539063 66.003906 245.300781 64.523438 244.910156 C 63.917969 244.75 63.867188 244.53125 64.167969 244.03125 C 65.355469 242.039063 66.710938 240.171875 68.25 238.433594 "/>
<path style=" stroke:none;fill-rule:evenodd;fill:rgb(66.601563%,25.488281%,9.008789%);fill-opacity:1;" d="M 203.480469 198.070313 C 203.238281 195.78125 203.355469 193.421875 202.363281 191.378906 C 201.339844 189.269531 201.703125 187.796875 203.070313 185.90625 C 206.53125 181.117188 208.730469 175.636719 210.789063 170.117188 C 211.882813 167.191406 212.902344 164.242188 213.796875 161.023438 C 214.921875 171.359375 209.050781 192.339844 203.480469 198.070313 "/>
<path style=" stroke:none;fill-rule:evenodd;fill:rgb(81.639099%,76.951599%,37.255859%);fill-opacity:1;" d="M 171.175781 143.480469 C 170.804688 143.179688 170.597656 143.539063 170.363281 143.703125 C 167.628906 145.648438 164.582031 146.652344 161.238281 146.882813 C 157.570313 147.132813 154.082031 146.542969 150.796875 144.863281 C 151.160156 143.734375 151.769531 143.28125 153.113281 143.386719 C 157.132813 143.695313 161.039063 143.242188 164.742188 141.367188 C 167.964844 139.734375 170.621094 137.648438 172.160156 133.960938 C 172.339844 135.8125 172.113281 137.339844 171.929688 138.859375 C 171.742188 140.40625 171.433594 141.941406 171.175781 143.480469 "/>
<path style=" stroke:none;fill-rule:evenodd;fill:rgb(81.639099%,76.951599%,37.255859%);fill-opacity:1;" d="M 174.960938 187.761719 C 176.53125 186.550781 178.128906 185.355469 179.03125 183.507813 C 179.300781 182.96875 179.539063 182.414063 179.480469 181.78125 C 182.714844 185.457031 185.796875 189.230469 187.742188 193.835938 C 187.3125 193.957031 187.203125 193.734375 187.0625 193.601563 C 183.742188 190.503906 179.84375 188.597656 175.351563 187.90625 C 175.21875 187.886719 175.089844 187.8125 174.960938 187.761719 "/>
<path style=" stroke:none;fill-rule:evenodd;fill:rgb(81.639099%,76.951599%,37.255859%);fill-opacity:1;" d="M 58.144531 148.375 C 57.605469 148.453125 57.585938 148.960938 57.402344 149.304688 C 56.667969 150.652344 55.707031 151.703125 54.121094 152.003906 C 53.644531 150.261719 53.171875 148.515625 52.679688 146.777344 C 52.566406 146.371094 52.734375 146.101563 52.980469 145.820313 C 53.574219 145.160156 54.179688 144.507813 54.726563 143.808594 C 55.15625 143.265625 55.347656 143.476563 55.609375 143.945313 C 56.4375 145.429688 57.296875 146.898438 58.144531 148.375 "/>
<path style=" stroke:none;fill-rule:evenodd;fill:rgb(81.639099%,76.951599%,37.255859%);fill-opacity:1;" d="M 59.4375 136.980469 C 59.492188 140.457031 59.269531 143.902344 58.398438 147.289063 C 57.605469 145.914063 56.828125 144.53125 56.019531 143.164063 C 55.785156 142.769531 55.8125 142.472656 56.09375 142.117188 C 57.363281 140.507813 58.421875 138.757813 59.4375 136.980469 "/>
<path style=" stroke:none;fill-rule:evenodd;fill:rgb(13.719177%,9.423828%,8.616638%);fill-opacity:1;" d="M 108.089844 75.585938 C 104.808594 75.648438 101.535156 75.4375 98.265625 75.1875 C 97.160156 75.101563 96.667969 74.691406 96.484375 73.570313 C 95.300781 66.472656 94.835938 59.347656 95.421875 52.171875 C 95.691406 48.890625 96.347656 45.660156 97.785156 42.6875 C 100.589844 36.90625 105.089844 34.570313 111.0625 35.628906 C 112.203125 35.828125 113.207031 36.355469 114.148438 37.03125 C 118.402344 40.105469 120.703125 44.398438 121.660156 49.425781 C 123.207031 57.558594 123.078125 65.648438 120.628906 73.632813 C 120.359375 74.503906 120.007813 74.960938 118.980469 75.070313 C 115.355469 75.445313 111.726563 75.53125 108.089844 75.585938 "/>
<path style=" stroke:none;fill-rule:evenodd;fill:rgb(13.719177%,9.423828%,8.616638%);fill-opacity:1;" d="M 26.144531 63.8125 C 26.199219 58.179688 26.359375 52.554688 27.597656 47.035156 C 28.277344 44.019531 29.351563 41.191406 31.695313 38.980469 C 34.550781 36.285156 38.476563 36.917969 40.203125 40.464844 C 41.46875 43.070313 41.835938 45.90625 42.089844 48.746094 C 42.546875 53.894531 42.839844 59.050781 42.546875 64.21875 C 42.40625 66.707031 42.082031 69.175781 41.667969 71.632813 C 41.566406 72.226563 41.375 72.675781 40.601563 72.707031 C 36.21875 72.882813 31.84375 72.902344 27.476563 72.441406 C 26.5 72.339844 26.105469 71.96875 26.128906 70.96875 C 26.175781 68.585938 26.144531 66.195313 26.144531 63.8125 "/>
<path style=" stroke:none;fill-rule:evenodd;fill:rgb(14.892578%,11.767578%,10.594177%);fill-opacity:1;" d="M 92.59375 39.152344 C 93.292969 36.0625 95.117188 33.734375 97.695313 31.933594 C 95.980469 34.320313 93.890625 36.453125 92.59375 39.152344 "/>
<path style=" stroke:none;fill-rule:evenodd;fill:rgb(15.281677%,12.547302%,11.376953%);fill-opacity:1;" d="M 47.558594 41.265625 C 47.222656 40.660156 46.871094 40.066406 46.554688 39.453125 C 45.796875 38.003906 44.976563 36.59375 43.933594 35.324219 C 43.804688 35.171875 43.597656 34.996094 43.746094 34.773438 C 43.878906 34.574219 44.078125 34.679688 44.199219 34.8125 C 45.882813 36.652344 47.296875 38.644531 47.878906 41.109375 C 47.773438 41.160156 47.667969 41.214844 47.558594 41.265625 "/>
<path style=" stroke:none;fill-rule:evenodd;fill:rgb(17.259216%,15.281677%,14.109802%);fill-opacity:1;" d="M 63.789063 86.035156 C 64.523438 85.21875 65.394531 84.539063 66.28125 83.878906 C 66.4375 83.761719 66.625 83.765625 66.746094 83.945313 C 66.933594 84.222656 66.761719 84.429688 66.554688 84.578125 C 65.726563 85.175781 64.886719 85.753906 64.050781 86.335938 C 63.964844 86.234375 63.878906 86.136719 63.789063 86.035156 "/>
<path style=" stroke:none;fill-rule:evenodd;fill:rgb(19.993591%,19.604492%,18.431091%);fill-opacity:1;" d="M 52.886719 85.421875 C 52.046875 85.164063 51.496094 84.523438 50.886719 83.976563 C 50.742188 83.847656 50.738281 83.660156 50.902344 83.511719 C 51.113281 83.316406 51.320313 83.421875 51.460938 83.582031 C 51.96875 84.160156 52.609375 84.628906 52.886719 85.421875 "/>
<path style=" stroke:none;fill-rule:evenodd;fill:rgb(31.762695%,64.256287%,68.164063%);fill-opacity:1;" d="M 137.9375 104.929688 C 134.40625 104.964844 131.367188 103.5625 128.511719 101.664063 C 127.992188 101.316406 127.816406 100.777344 128.066406 100.15625 C 129.195313 97.359375 130.542969 94.710938 132.945313 92.746094 C 134.207031 91.714844 135.589844 92.128906 136.933594 92.375 C 139.171875 92.789063 141.121094 93.941406 143.09375 95.007813 C 144.050781 95.523438 144.089844 96.414063 143.945313 97.332031 C 143.492188 100.164063 141.65625 102.253906 140.035156 104.449219 C 139.519531 105.148438 138.667969 104.90625 137.9375 104.929688 "/>
<path style=" stroke:none;fill-rule:evenodd;fill:rgb(13.719177%,10.205078%,9.008789%);fill-opacity:1;" d="M 22.820313 98.703125 C 23.085938 98.695313 23.339844 98.648438 23.40625 98.925781 C 23.484375 99.253906 23.214844 99.339844 22.972656 99.417969 C 22.164063 99.683594 21.347656 99.933594 20.539063 100.210938 C 18.808594 100.804688 17.253906 101.746094 15.695313 102.675781 C 15.074219 103.039063 14.96875 103.433594 15.375 104.058594 C 16.652344 106.035156 17.929688 108.007813 19.414063 109.835938 C 19.613281 110.082031 20.085938 110.390625 19.707031 110.722656 C 19.242188 111.132813 19.039063 110.539063 18.828125 110.285156 C 17.253906 108.386719 15.902344 106.335938 14.609375 104.242188 C 14.230469 103.625 14.09375 102.984375 14.714844 102.515625 C 17.15625 100.660156 19.90625 99.445313 22.820313 98.703125 "/>
<path style=" stroke:none;fill-rule:evenodd;fill:rgb(68.554688%,12.939453%,14.501953%);fill-opacity:1;" d="M 98.507813 59.195313 C 99.210938 61.257813 99.898438 63.160156 101.265625 64.78125 C 104.910156 69.113281 108.839844 67.808594 111.640625 64.277344 C 113.210938 62.296875 113.800781 59.90625 113.796875 57.238281 C 115.464844 58.398438 116.511719 59.914063 117.136719 61.644531 C 118.550781 65.566406 119.058594 69.558594 117.613281 73.625 C 117.371094 74.300781 117.050781 74.519531 116.328125 74.574219 C 112.132813 74.882813 107.933594 74.738281 103.734375 74.769531 C 101.8125 74.78125 99.90625 74.546875 97.996094 74.347656 C 97.652344 74.3125 97.425781 74.261719 97.328125 73.839844 C 96.246094 69.132813 96.132813 64.484375 98.128906 59.957031 C 98.226563 59.734375 98.34375 59.519531 98.507813 59.195313 "/>
<path style=" stroke:none;fill-rule:evenodd;fill:rgb(99.609375%,99.609375%,99.609375%);fill-opacity:1;" d="M 109.035156 42.277344 C 109.054688 46.945313 107.304688 50.304688 103.734375 52.671875 C 100.996094 54.492188 98.855469 53.734375 97.992188 50.53125 C 97.039063 46.976563 97.574219 43.605469 99.851563 40.628906 C 101.171875 38.910156 102.722656 37.496094 104.964844 37.011719 C 106.171875 36.75 107.027344 37.101563 107.769531 38.023438 C 108.875 39.394531 108.996094 41.015625 109.035156 42.277344 "/>
<path style=" stroke:none;fill-rule:evenodd;fill:rgb(99.21875%,99.21875%,99.21875%);fill-opacity:1;" d="M 116.1875 39.867188 C 119.210938 43 120.527344 46.90625 121.199219 51.082031 C 122.398438 58.527344 122.179688 65.90625 119.972656 73.167969 C 119.625 74.308594 119.632813 74.308594 118.230469 74.28125 C 118.738281 72.390625 119.195313 70.511719 119.488281 68.597656 C 120.691406 60.769531 120.773438 52.996094 118.308594 45.359375 C 117.714844 43.527344 116.921875 41.78125 115.917969 40.136719 C 115.875 39.914063 115.964844 39.824219 116.1875 39.867188 "/>
<path style=" stroke:none;fill-rule:evenodd;fill:rgb(65.818787%,64.256287%,63.867188%);fill-opacity:1;" d="M 116.1875 39.867188 C 116.097656 39.957031 116.007813 40.046875 115.917969 40.136719 C 115.410156 39.53125 114.898438 38.929688 114.390625 38.324219 C 115.117188 38.707031 115.738281 39.191406 116.1875 39.867188 "/>
<path style=" stroke:none;fill-rule:evenodd;fill:rgb(68.554688%,12.939453%,14.501953%);fill-opacity:1;" d="M 39.914063 59.316406 C 41.300781 60.40625 41.566406 61.859375 41.683594 63.292969 C 41.902344 65.96875 41.328125 68.597656 40.980469 71.234375 C 40.910156 71.761719 40.648438 72.003906 40.054688 71.996094 C 36.78125 71.960938 33.503906 71.960938 30.230469 71.960938 C 29.496094 71.960938 29.0625 71.78125 29.007813 70.90625 C 28.851563 68.394531 28.535156 65.882813 29.109375 63.386719 C 29.46875 61.839844 30.15625 60.476563 31.589844 59.457031 C 31.722656 61.109375 31.886719 62.644531 32.707031 64.035156 C 34.222656 66.609375 36.765625 66.648438 38.339844 64.089844 C 39.21875 62.671875 39.421875 61.027344 39.914063 59.316406 "/>
<path style=" stroke:none;fill-rule:evenodd;fill:rgb(99.609375%,99.609375%,99.609375%);fill-opacity:1;" d="M 36.578125 45.9375 C 36.460938 48.179688 36.40625 50.855469 34.640625 53.109375 C 34.007813 53.925781 33.28125 54.445313 32.1875 54.253906 C 31.398438 54.113281 30.832031 53.660156 30.398438 53.019531 C 29.386719 51.519531 28.925781 49.878906 29.214844 48.066406 C 29.609375 45.59375 29.691406 43.027344 31.121094 40.828125 C 31.410156 40.386719 31.757813 39.964844 32.15625 39.621094 C 33.378906 38.566406 34.878906 38.894531 35.597656 40.335938 C 36.347656 41.832031 36.605469 43.1875 36.578125 45.9375 "/>
<path style=" stroke:none;fill-rule:evenodd;fill:rgb(98.4375%,98.4375%,98.046875%);fill-opacity:1;" d="M 28.257813 49.761719 C 27.964844 55.570313 27.902344 61.378906 28.03125 67.191406 C 28.0625 68.507813 28.183594 69.824219 28.238281 71.140625 C 28.25 71.378906 28.410156 71.800781 27.910156 71.730469 C 27.5625 71.683594 27.09375 71.796875 26.941406 71.292969 C 26.910156 71.195313 26.925781 71.078125 26.925781 70.972656 C 26.925781 63.457031 26.667969 55.925781 28.050781 48.476563 C 28.621094 48.824219 28.25 49.324219 28.257813 49.761719 "/>
<path style=" stroke:none;fill-rule:evenodd;fill:rgb(65.818787%,64.256287%,63.867188%);fill-opacity:1;" d="M 28.257813 49.761719 C 28.039063 49.359375 28.460938 48.847656 28.050781 48.476563 C 28.042969 47.730469 28.332031 47.046875 28.578125 46.347656 C 28.5625 47.492188 28.53125 48.636719 28.257813 49.761719 "/>
</g>
</svg>
