<?xml version="1.0" encoding="UTF-8"?>
<svg xmlns="http://www.w3.org/2000/svg" xmlns:xlink="http://www.w3.org/1999/xlink" width="216.89pt" height="225.62pt" viewBox="0 0 216.89 225.62" version="1.1">
<defs>
<clipPath id="clip1">
  <path d="M 147 72 L 216.890625 72 L 216.890625 194 L 147 194 Z M 147 72 "/>
</clipPath>
</defs>
<g id="surface1">
<path style=" stroke:none;fill-rule:evenodd;fill:rgb(12.939453%,9.008789%,7.835388%);fill-opacity:1;" d="M 31.425781 81.914063 C 30.28125 78.71875 30.929688 75.738281 32.691406 72.910156 C 33.332031 71.886719 34.167969 71.054688 35.089844 70.300781 C 35.445313 70.007813 35.617188 69.699219 35.644531 69.226563 C 35.910156 64.027344 36.132813 58.820313 37.027344 53.679688 C 37.109375 53.1875 36.847656 53.121094 36.539063 52.980469 C 32.878906 51.304688 30.257813 48.550781 28.363281 45.054688 C 27.984375 44.355469 27.738281 43.601563 27.632813 42.8125 C 27.496094 41.839844 27.839844 41.445313 28.8125 41.425781 C 29.476563 41.414063 30.140625 41.425781 30.96875 41.425781 C 30.636719 41.164063 30.394531 40.976563 30.15625 40.78125 C 23.71875 35.480469 18.960938 29.066406 16.933594 20.839844 C 16.816406 20.371094 16.753906 19.882813 16.699219 19.398438 C 16.574219 18.367188 16.859375 17.96875 18.101563 17.429688 C 17.367188 16.578125 16.597656 15.769531 15.929688 14.882813 C 14.167969 12.546875 12.484375 10.160156 11.59375 7.320313 C 11.042969 5.574219 11.40625 5.023438 13.195313 4.863281 C 19.246094 4.328125 24.984375 5.683594 30.617188 7.699219 C 40.539063 11.253906 48.023438 17.746094 53.476563 26.671875 C 53.882813 27.339844 54.125 27.445313 54.835938 27.03125 C 59.039063 24.574219 63.644531 23.246094 68.414063 22.464844 C 73.75 21.59375 79.113281 21.128906 84.519531 21.542969 C 90.308594 21.988281 96.027344 22.726563 101.3125 25.382813 C 101.878906 25.664063 102.429688 25.976563 102.960938 26.265625 C 107.082031 14.71875 115.722656 7.988281 126.757813 3.816406 C 131.171875 2.144531 135.636719 0.628906 140.386719 0.222656 C 141.867188 0.09375 143.355469 -0.144531 144.847656 0.113281 C 145.90625 0.292969 146.277344 0.707031 146.257813 1.769531 C 146.214844 4.011719 145.414063 6.054688 144.523438 8.058594 C 144.019531 9.183594 143.410156 10.265625 142.84375 11.382813 C 144.550781 11.371094 144.847656 11.628906 144.78125 13.34375 C 144.636719 17.289063 143.480469 20.996094 141.953125 24.601563 C 138.921875 31.769531 134.523438 37.996094 128.921875 43.378906 C 128.402344 43.878906 128.292969 44.214844 128.648438 44.898438 C 129.945313 47.398438 130.75 50.074219 131.152344 52.863281 C 131.304688 53.902344 131.214844 54.941406 131.035156 55.960938 C 130.710938 57.804688 129.480469 58.714844 127.347656 58.804688 C 126.132813 58.855469 124.933594 58.640625 123.710938 58.570313 C 124.765625 64.34375 124.8125 70.082031 123.808594 75.898438 C 125.117188 75.351563 126.394531 74.890625 127.785156 74.921875 C 128.023438 74.925781 128.171875 74.761719 128.335938 74.632813 C 130.207031 73.125 132.328125 72.085938 134.578125 71.285156 C 135.074219 71.109375 135.484375 70.863281 135.871094 70.492188 C 139.226563 67.300781 144.558594 68.230469 146.171875 72.472656 C 146.785156 74.082031 147.710938 75.355469 148.714844 76.800781 C 149.671875 73.839844 151.0625 71.242188 152.953125 68.914063 C 156.871094 64.097656 161.929688 61.496094 168.113281 60.980469 C 172.398438 60.621094 176.59375 61.078125 180.609375 62.539063 C 189.351563 65.722656 194.535156 72.34375 193.921875 82.632813 C 193.714844 86.035156 193.078125 89.269531 191.253906 92.1875 C 190.949219 92.671875 191.273438 92.824219 191.535156 93.050781 C 193.171875 94.433594 194.613281 95.996094 195.945313 97.667969 C 200.066406 102.839844 201.328125 108.800781 200.890625 115.246094 C 200.863281 115.59375 200.652344 115.933594 201.269531 116.039063 C 208.664063 117.355469 212.941406 122.070313 215.226563 128.925781 C 216.207031 131.863281 216.585938 134.914063 216.78125 137.988281 C 217.402344 147.8125 215.367188 157.058594 210.570313 165.652344 C 208.015625 170.234375 204.371094 173.90625 200.390625 177.273438 C 192.136719 184.257813 182.605469 188.722656 172.300781 191.75 C 164.691406 193.984375 156.914063 194.402344 149.066406 194.300781 C 148.582031 194.292969 148.101563 194.1875 147.617188 194.125 C 147.019531 194.046875 146.722656 194.246094 146.914063 194.886719 C 148.402344 199.800781 149.085938 204.867188 149.734375 209.9375 C 149.804688 210.503906 150.109375 210.949219 150.449219 211.390625 C 152.113281 213.539063 153.574219 215.808594 154.539063 218.371094 C 154.835938 219.144531 155.011719 219.9375 155.136719 220.753906 C 155.242188 221.464844 155.046875 221.671875 154.304688 221.558594 C 150.902344 221.054688 147.53125 220.390625 144.175781 219.652344 C 143.605469 219.527344 143.367188 219.660156 143.109375 220.128906 C 142.265625 221.644531 141.335938 223.109375 140.273438 224.488281 C 139.261719 225.808594 139.140625 225.832031 137.609375 225.277344 C 134.5625 224.175781 131.738281 222.617188 128.929688 221.046875 C 127.925781 220.484375 127.019531 220.40625 125.90625 220.699219 C 122.789063 221.511719 119.640625 222.195313 116.496094 222.921875 C 115.277344 223.199219 115.050781 223.007813 114.941406 221.777344 C 114.839844 220.625 114.777344 219.46875 114.84375 218.308594 C 114.9375 216.652344 114.441406 215.21875 113.472656 213.878906 C 111.398438 211.015625 109.226563 208.230469 106.808594 205.648438 C 104.933594 203.648438 103.101563 201.609375 101.269531 199.570313 C 101.039063 199.316406 100.820313 199.226563 100.496094 199.207031 C 94.519531 198.800781 88.660156 197.804688 83.058594 195.585938 C 82.59375 195.402344 82.339844 195.578125 82.019531 195.851563 C 79.1875 198.234375 77.945313 201.46875 77.167969 204.9375 C 76.6875 207.078125 76.34375 209.242188 76.222656 211.433594 C 76.171875 212.398438 75.753906 212.894531 74.757813 213.0625 C 72.078125 213.511719 69.414063 213.320313 66.742188 213.054688 C 60.492188 212.421875 54.226563 212.046875 47.949219 212.421875 C 44.367188 212.632813 40.878906 213.601563 37.355469 214.289063 C 37.117188 214.335938 36.878906 214.378906 36.636719 214.421875 C 35.925781 214.558594 35.644531 214.195313 35.765625 213.554688 C 35.902344 212.8125 36.132813 212.089844 36.34375 211.269531 C 34.445313 211.527344 32.574219 211.710938 30.695313 211.757813 C 30.269531 211.769531 29.84375 211.808594 29.414063 211.816406 C 28.375 211.828125 28.207031 211.585938 28.648438 210.625 C 30.648438 206.257813 33.621094 202.695313 37.644531 200.0625 C 38.4375 199.546875 38.640625 199.054688 38.542969 198.167969 C 37.671875 190.371094 38.71875 182.804688 41.503906 175.488281 C 42.796875 172.085938 44.609375 168.953125 46.933594 166.136719 C 47.234375 165.769531 47.355469 165.507813 47.09375 165.03125 C 44.617188 160.535156 43.546875 155.617188 42.777344 150.601563 C 41.734375 143.804688 41.480469 136.96875 41.824219 130.105469 C 41.859375 129.40625 41.65625 129.109375 41.011719 128.859375 C 29.082031 124.234375 18.710938 117.238281 9.722656 108.160156 C 7.832031 106.253906 6.21875 104.113281 4.675781 101.914063 C 4.46875 101.621094 4.292969 101.328125 3.875 101.226563 C 0.382813 100.355469 -0.234375 97.507813 0.0664063 94.890625 C 0.167969 94.027344 0.300781 93.125 1 92.472656 C 1.242188 92.246094 1.148438 91.96875 1.140625 91.699219 C 1.074219 90.078125 1.289063 88.484375 1.539063 86.886719 C 1.929688 84.394531 3.179688 82.320313 4.664063 80.378906 C 5.949219 78.695313 7.738281 78.320313 9.75 78.761719 C 10.011719 78.820313 10.285156 78.902344 10.550781 78.890625 C 17.464844 78.492188 24.09375 79.996094 30.675781 81.84375 C 30.878906 81.902344 31.085938 81.953125 31.289063 82.003906 C 31.308594 82.007813 31.335938 81.976563 31.425781 81.914063 "/>
<path style=" stroke:none;fill-rule:evenodd;fill:rgb(48.631287%,61.521912%,82.03125%);fill-opacity:1;" d="M 87.207031 103.246094 C 84.679688 103.675781 82.121094 103.816406 79.574219 103.898438 C 71.125 104.179688 62.78125 103.539063 54.742188 100.675781 C 49.988281 98.984375 45.4375 96.882813 41.445313 93.742188 C 37.667969 90.769531 34.476563 87.289063 32.484375 82.847656 C 30.628906 78.714844 31.429688 74.453125 34.820313 71.460938 C 35.960938 70.453125 36.3125 69.394531 36.367188 68.011719 C 36.546875 63.601563 36.878906 59.207031 37.472656 54.828125 C 38.957031 43.867188 43.964844 35.074219 53.191406 28.796875 C 57.976563 25.539063 63.355469 23.921875 68.992188 23.019531 C 73.6875 22.265625 78.417969 21.835938 83.179688 22.113281 C 89.304688 22.472656 95.371094 23.152344 100.984375 25.929688 C 102.84375 26.851563 102.808594 26.820313 102.464844 28.855469 C 101.621094 33.808594 101.496094 38.726563 103.464844 43.492188 C 103.742188 44.164063 104.089844 44.808594 104.402344 45.464844 C 104.738281 46.324219 104.773438 47.242188 104.910156 48.140625 C 105.421875 51.476563 106.4375 54.644531 108 57.648438 C 110.199219 61.878906 111.96875 66.269531 112.730469 71.011719 C 112.882813 71.941406 113.09375 72.867188 113.039063 73.820313 C 112.988281 74.523438 112.488281 74.617188 111.9375 74.605469 C 110.496094 74.578125 109.078125 74.757813 107.703125 75.140625 C 105.734375 75.683594 103.820313 76.386719 102.371094 77.9375 C 101.230469 79.15625 101.472656 79.996094 103.109375 80.324219 C 105.8125 80.871094 108.421875 80.3125 111.003906 79.546875 C 111.574219 79.375 112.132813 79.066406 112.765625 79.222656 C 113.277344 79.941406 113.101563 80.773438 113 81.515625 C 112.492188 85.300781 111.519531 88.921875 109.042969 91.96875 C 107.917969 93.359375 106.523438 94.449219 105.109375 95.496094 C 100.503906 98.894531 95.390625 101.273438 89.871094 102.773438 C 89.003906 103.007813 88.09375 103.070313 87.207031 103.246094 "/>
<g clip-path="url(#clip1)" clip-rule="nonzero">
<path style=" stroke:none;fill-rule:evenodd;fill:rgb(43.138123%,60.351563%,73.242188%);fill-opacity:1;" d="M 215.917969 136.144531 C 216.234375 138.347656 216.261719 140.5625 216.222656 142.78125 C 216.097656 149.902344 214.300781 156.605469 211.246094 163.003906 C 208.910156 167.898438 205.453125 171.898438 201.449219 175.5 C 192.71875 183.34375 182.453125 188.21875 171.257813 191.359375 C 166.273438 192.757813 161.195313 193.449219 156.035156 193.566406 C 153.449219 193.625 150.867188 193.898438 148.277344 193.582031 C 147.773438 193.519531 147.59375 193.421875 147.933594 192.941406 C 149.976563 190.039063 150.714844 186.699219 151.175781 183.261719 C 151.371094 181.8125 152.441406 181.007813 153.851563 181.210938 C 157.382813 181.726563 160.894531 181.378906 164.402344 180.9375 C 169.703125 180.277344 174.621094 178.496094 179.214844 175.804688 C 180.132813 175.265625 180.96875 174.59375 181.828125 173.96875 C 182.03125 173.820313 182.417969 173.652344 182.203125 173.355469 C 181.984375 173.054688 181.707031 173.367188 181.503906 173.519531 C 178.765625 175.609375 175.679688 177.039063 172.496094 178.289063 C 169.121094 179.617188 165.589844 180.183594 162.011719 180.574219 C 159.246094 180.875 156.480469 180.863281 153.714844 180.585938 C 153.039063 180.519531 152.925781 180.386719 153.316406 179.796875 C 154.207031 178.453125 154.984375 177.035156 155.664063 175.574219 C 155.933594 175 156.289063 174.820313 156.894531 174.722656 C 164.363281 173.566406 171.523438 171.503906 177.769531 167.046875 C 182.65625 163.5625 186.710938 159.25 189.863281 154.125 C 190.566406 152.984375 191.027344 151.714844 191.503906 150.460938 C 191.574219 150.265625 191.683594 150.070313 191.359375 149.714844 C 188.304688 156.796875 183.34375 162.257813 177.210938 166.648438 C 171.027344 171.078125 163.871094 172.964844 156.351563 174.214844 C 156.710938 173.332031 157.007813 172.578125 157.316406 171.832031 C 158.964844 167.855469 159.6875 163.667969 160.152344 159.421875 C 160.675781 154.660156 160.710938 149.878906 160.726563 145.101563 C 161.996094 143.097656 163.269531 141.09375 164.175781 138.886719 C 166.859375 132.347656 168.339844 125.585938 167.921875 118.488281 C 167.6875 114.570313 167.222656 110.675781 166.445313 106.816406 C 165.589844 102.578125 164.757813 98.335938 163.945313 94.089844 C 163.070313 89.515625 163.414063 84.996094 165.097656 80.617188 C 166.398438 77.226563 168.828125 74.90625 172.214844 73.730469 C 176.109375 72.378906 180.121094 72.03125 184.144531 73.25 C 188.980469 74.714844 192.136719 77.75 193.007813 82.878906 C 193.132813 83.632813 192.976563 84.386719 193.039063 85.136719 C 192.4375 91.019531 187.847656 98.125 179.753906 99.378906 C 173.347656 100.367188 167.835938 94.214844 168.6875 88.636719 C 168.972656 86.753906 169.460938 85.046875 170.828125 83.628906 C 173.152344 81.226563 176.222656 81.476563 178.546875 82.742188 C 178.777344 82.871094 179 83.023438 179.292969 83.09375 C 179.113281 82.570313 178.6875 82.289063 178.230469 82.042969 C 174.550781 80.058594 170.332031 81.628906 168.746094 85.574219 C 166.234375 91.828125 170.148438 98.847656 176.785156 99.953125 C 177.304688 100.039063 177.492188 100.285156 177.648438 100.726563 C 178.398438 102.835938 178.691406 105.039063 178.933594 107.242188 C 179.71875 114.457031 179.234375 121.59375 177.363281 128.601563 C 175.441406 135.824219 171.882813 142.167969 166.765625 147.625 C 166.558594 147.84375 166.03125 148.117188 166.316406 148.378906 C 166.660156 148.703125 166.90625 148.136719 167.128906 147.914063 C 173.183594 141.855469 176.8125 134.5 178.605469 126.195313 C 179.664063 121.296875 180.113281 116.324219 179.863281 111.320313 C 179.6875 107.769531 179.449219 104.207031 178.316406 100.792969 C 178.148438 100.277344 178.226563 100.132813 178.796875 100.109375 C 180.328125 100.046875 181.808594 99.65625 183.214844 99.066406 C 183.902344 98.777344 184.238281 98.964844 184.640625 99.507813 C 186.175781 101.597656 187.171875 103.9375 187.914063 106.398438 C 188.007813 106.703125 188.039063 107.035156 188.371094 107.320313 C 188.625 106.78125 188.363281 106.355469 188.28125 105.945313 C 187.792969 103.519531 186.773438 101.3125 185.273438 99.363281 C 184.726563 98.648438 184.726563 98.273438 185.550781 97.9375 C 187.15625 99.039063 188.042969 100.730469 189.085938 102.289063 C 191.671875 106.15625 193.039063 110.464844 193.617188 115.046875 C 193.675781 115.480469 193.8125 115.867188 193.988281 116.253906 C 189.917969 117.148438 186.863281 119.507813 184.523438 122.871094 C 181.6875 126.953125 181.136719 131.472656 182.578125 136.09375 C 183.882813 140.265625 187.265625 142.359375 191.3125 143.46875 C 191.894531 143.625 192.496094 143.691406 193.089844 143.796875 C 192.507813 144.765625 192.6875 145.875 192.589844 146.910156 C 191.964844 153.398438 190.855469 159.769531 188.175781 165.765625 C 187.007813 168.378906 185.546875 170.839844 183.507813 172.929688 C 185.34375 172.195313 187.214844 171.582031 188.859375 170.472656 C 188.988281 170.390625 189.109375 170.292969 189.242188 170.222656 C 189.472656 170.105469 189.714844 169.808594 189.960938 170.078125 C 190.171875 170.304688 189.96875 170.597656 189.835938 170.832031 C 189.507813 171.414063 189.160156 171.992188 188.757813 172.527344 C 188.554688 172.789063 188.3125 173.03125 188.152344 173.453125 C 189.363281 173.167969 190.4375 172.691406 191.488281 172.203125 C 195.277344 170.433594 198.9375 168.433594 202.203125 165.789063 C 209.464844 159.917969 213.585938 152.285156 214.945313 143.097656 C 215.234375 141.140625 215.515625 139.183594 215.503906 137.199219 C 215.5 136.804688 215.527344 136.394531 215.917969 136.144531 "/>
</g>
<path style=" stroke:none;fill-rule:evenodd;fill:rgb(94.139099%,83.201599%,63.084412%);fill-opacity:1;" d="M 102.894531 108.558594 C 102.636719 121.546875 112.992188 132.558594 124.226563 134.457031 C 125.628906 134.695313 127.003906 134.773438 128.316406 134.078125 C 128.75 134.21875 129.011719 134.570313 129.246094 134.921875 C 130.261719 136.445313 131.070313 138.078125 131.789063 139.761719 C 131.925781 140.082031 131.847656 140.417969 131.976563 140.730469 C 131.585938 142.601563 131.109375 144.460938 130.84375 146.351563 C 130.703125 147.363281 130.277344 147.824219 129.371094 148.222656 C 121.449219 151.691406 113.1875 153.8125 104.605469 154.855469 C 96.210938 155.871094 87.800781 156.320313 79.351563 156.046875 C 76.582031 155.957031 73.820313 155.703125 71.054688 155.550781 C 70.574219 155.523438 70.363281 155.386719 70.320313 154.875 C 70.132813 152.507813 69.878906 150.148438 69.703125 147.78125 C 69.128906 139.890625 69.335938 132.007813 70.058594 124.140625 C 70.347656 120.984375 70.882813 117.867188 71.671875 114.796875 C 71.847656 114.121094 72.011719 113.433594 72.554688 112.929688 C 73.015625 112.648438 73.507813 112.839844 73.984375 112.851563 C 82.257813 113.082031 90.398438 112.285156 98.347656 109.871094 C 99.515625 109.515625 100.640625 109.050781 101.777344 108.621094 C 102.136719 108.488281 102.503906 108.25 102.894531 108.558594 "/>
<path style=" stroke:none;fill-rule:evenodd;fill:rgb(34.910583%,47.459412%,72.851563%);fill-opacity:1;" d="M 116.964844 169.570313 C 119.839844 167.699219 123.042969 166.816406 126.417969 166.582031 C 128.007813 166.472656 129.441406 167.183594 130.800781 167.960938 C 134.039063 169.8125 136.308594 172.636719 138.304688 175.675781 C 141.671875 180.8125 143.75 186.515625 145.527344 192.359375 C 147.25 198.023438 148.386719 203.785156 149.027344 209.660156 C 149.113281 210.460938 149.4375 211.152344 149.945313 211.804688 C 151.796875 214.164063 153.386719 216.683594 154.269531 219.578125 C 154.675781 220.917969 154.585938 220.976563 153.242188 220.753906 C 150.21875 220.253906 147.195313 219.703125 144.21875 218.980469 C 143.355469 218.769531 142.960938 219.042969 142.574219 219.757813 C 141.6875 221.386719 140.660156 222.933594 139.535156 224.417969 C 139.128906 224.953125 138.753906 225.03125 138.144531 224.804688 C 135.28125 223.746094 132.558594 222.390625 129.9375 220.839844 C 128.421875 219.945313 126.933594 219.472656 125.238281 220.214844 C 125.097656 219.574219 125.382813 218.964844 125.359375 218.320313 C 125.175781 213.4375 124.164063 208.730469 122.410156 204.175781 C 121.144531 200.898438 119.351563 197.882813 117.773438 194.761719 C 115.96875 191.191406 114.671875 187.460938 114.425781 183.457031 C 114.136719 178.796875 114.386719 174.191406 116.820313 170 C 116.898438 169.863281 116.949219 169.722656 116.964844 169.570313 "/>
<path style=" stroke:none;fill-rule:evenodd;fill:rgb(67.771912%,82.8125%,88.28125%);fill-opacity:1;" d="M 193.039063 85.136719 C 192.722656 84.152344 192.894531 83.113281 192.644531 82.105469 C 191.644531 78.0625 189.140625 75.355469 185.304688 73.902344 C 180.757813 72.175781 176.164063 72.457031 171.714844 74.203125 C 167.691406 75.785156 165.546875 79.027344 164.527344 83.136719 C 163.449219 87.503906 163.601563 91.84375 164.585938 96.199219 C 165.773438 101.457031 166.789063 106.75 167.589844 112.078125 C 168.171875 115.980469 168.496094 119.953125 168.152344 123.890625 C 167.53125 130.953125 165.628906 137.660156 161.890625 143.761719 C 161.585938 144.261719 161.34375 144.855469 160.726563 145.101563 C 160.410156 139.617188 159.625 134.207031 158.148438 128.90625 C 155.902344 120.855469 152.851563 113.171875 147.941406 106.328125 C 147.652344 105.929688 147.644531 105.609375 147.824219 105.164063 C 149.675781 100.640625 150.863281 95.933594 151.59375 91.105469 C 151.640625 90.792969 151.65625 90.480469 152 90.246094 C 153.769531 89.054688 154.640625 86.636719 154.019531 84.546875 C 153.542969 82.949219 152.796875 81.542969 150.992188 81.078125 C 150.878906 81.050781 150.714844 81.007813 150.675781 80.921875 C 150.1875 79.878906 149.703125 78.832031 149.257813 77.769531 C 149.0625 77.304688 149.378906 76.882813 149.527344 76.464844 C 151.945313 69.761719 156.214844 64.683594 163.160156 62.640625 C 170.992188 60.339844 178.652344 61.207031 185.566406 65.785156 C 190.726563 69.195313 193.308594 74.160156 193.246094 80.40625 C 193.226563 81.984375 193.410156 83.574219 193.039063 85.136719 "/>
<path style=" stroke:none;fill-rule:evenodd;fill:rgb(67.771912%,82.8125%,88.28125%);fill-opacity:1;" d="M 136.851563 19.355469 C 137.3125 19.257813 137.453125 18.925781 137.65625 18.679688 C 139.246094 16.792969 140.808594 14.882813 142.019531 12.71875 C 142.214844 12.363281 142.480469 12.1875 142.859375 12.097656 C 143.855469 11.863281 144.164063 12.058594 144.160156 13.082031 C 144.148438 14.546875 143.945313 15.992188 143.605469 17.417969 C 141.710938 25.375 137.824219 32.289063 132.609375 38.511719 C 131.195313 40.195313 129.691406 41.789063 128.09375 43.292969 C 127.59375 43.761719 127.511719 44.097656 127.84375 44.753906 C 129.40625 47.839844 130.613281 51.046875 130.539063 54.589844 C 130.480469 57.222656 129.53125 58.089844 126.890625 58.144531 C 123.945313 58.203125 121.261719 57.273438 118.640625 56.085938 C 114.914063 54.394531 111.308594 52.488281 108.371094 49.554688 C 103.5625 44.746094 102.054688 38.855469 102.648438 32.226563 C 103.636719 21.214844 109.871094 13.738281 118.910156 8.285156 C 125.324219 4.414063 132.351563 2.042969 139.777344 0.933594 C 141.28125 0.707031 142.804688 0.601563 144.332031 0.6875 C 145.460938 0.746094 145.738281 1.066406 145.617188 2.179688 C 145.371094 4.417969 144.605469 6.496094 143.605469 8.492188 C 141.832031 12.039063 139.71875 15.378906 137.296875 18.519531 C 137.121094 18.746094 136.859375 18.933594 136.851563 19.355469 "/>
<path style=" stroke:none;fill-rule:evenodd;fill:rgb(94.139099%,83.201599%,63.084412%);fill-opacity:1;" d="M 128.328125 166.148438 C 124.222656 165.597656 120.546875 166.875 116.988281 168.753906 C 111.382813 171.71875 107.0625 176.019531 103.695313 181.339844 C 103.1875 181.679688 102.597656 181.707031 102.027344 181.742188 C 98.628906 181.964844 95.222656 182.03125 91.8125 181.960938 C 91.300781 181.953125 90.785156 181.855469 90.292969 181.691406 C 85.570313 179.800781 81.109375 177.390625 76.691406 174.882813 C 75.414063 174.160156 74.671875 173.234375 74.171875 171.875 C 72.425781 167.113281 71.316406 162.207031 70.585938 157.203125 C 70.480469 156.460938 70.476563 156.121094 71.492188 156.207031 C 85.550781 157.414063 99.527344 156.746094 113.382813 154.066406 C 118.925781 152.996094 124.222656 151.109375 129.398438 148.882813 C 129.730469 148.742188 130.066406 148.601563 130.519531 148.410156 C 130.464844 149.175781 130.394531 149.851563 130.367188 150.53125 C 130.253906 153.402344 130.386719 156.246094 131.414063 158.980469 C 131.476563 159.144531 131.453125 159.339844 131.46875 159.523438 C 131.625 161.714844 130.953125 163.671875 129.734375 165.460938 C 129.414063 165.929688 129.03125 166.398438 128.328125 166.148438 "/>
<path style=" stroke:none;fill-rule:evenodd;fill:rgb(67.771912%,82.8125%,88.28125%);fill-opacity:1;" d="M 215.917969 136.144531 C 215.535156 137.449219 215.710938 138.800781 215.582031 140.128906 C 214.84375 147.734375 212.566406 154.738281 207.671875 160.722656 C 204.535156 164.550781 200.71875 167.582031 196.382813 169.96875 C 193.980469 171.292969 191.558594 172.554688 188.972656 173.476563 C 188.769531 173.546875 188.570313 173.613281 188.371094 173.691406 C 188.144531 173.78125 187.855469 173.933594 187.691406 173.722656 C 187.492188 173.460938 187.828125 173.308594 187.972656 173.136719 C 188.734375 172.230469 189.367188 171.238281 190.058594 169.9375 C 187.753906 171.648438 185.34375 172.515625 182.835938 173.273438 C 183.378906 172.640625 183.933594 172.019531 184.460938 171.375 C 187.007813 168.269531 188.613281 164.683594 189.765625 160.871094 C 190.742188 157.617188 191.433594 154.292969 191.910156 150.929688 C 192.207031 148.832031 192.328125 146.710938 192.496094 144.59375 C 192.53125 144.160156 192.535156 143.800781 193.089844 143.796875 C 195.132813 143.917969 197.164063 143.914063 199.144531 143.285156 C 202.863281 142.097656 204.898438 139.5 205.480469 135.699219 C 205.710938 134.210938 205.734375 132.710938 205.273438 131.265625 C 204.613281 129.171875 203.324219 127.570313 201.113281 127.058594 C 199.09375 126.59375 197.332031 127.289063 195.929688 128.824219 C 194.96875 129.875 194.632813 131.601563 195.15625 132.667969 C 195.320313 132.667969 195.355469 132.554688 195.347656 132.425781 C 195.253906 130.417969 196.273438 128.769531 198.136719 127.9375 C 199.894531 127.152344 201.734375 127.515625 203.160156 128.9375 C 205.011719 130.785156 205.207031 133.097656 204.851563 135.480469 C 204.105469 140.421875 200.847656 143.085938 195.492188 143.226563 C 194.3125 143.257813 193.121094 143.265625 191.972656 142.894531 C 189.917969 142.289063 188.539063 140.796875 187.472656 139.097656 C 185.6875 136.257813 185.160156 133.117188 185.429688 129.746094 C 185.71875 126.125 187.042969 122.980469 189.054688 120.046875 C 189.523438 119.363281 190.046875 118.746094 190.648438 118.1875 C 193.578125 116.554688 196.773438 116.261719 200.007813 116.523438 C 207.707031 117.144531 212.996094 122.730469 214.972656 130.324219 C 215.464844 132.226563 215.964844 134.144531 215.917969 136.144531 "/>
<path style=" stroke:none;fill-rule:evenodd;fill:rgb(94.139099%,83.201599%,63.084412%);fill-opacity:1;" d="M 71.472656 113.117188 C 68.71875 123.191406 68.585938 133.488281 68.871094 143.820313 C 68.96875 147.347656 69.230469 150.871094 69.640625 154.378906 C 69.730469 155.144531 69.636719 155.441406 68.738281 155.339844 C 60.203125 154.375 51.949219 152.234375 43.820313 149.554688 C 43.367188 149.40625 43.210938 149.179688 43.148438 148.726563 C 42.28125 142.429688 42.210938 136.105469 42.433594 129.769531 C 42.445313 129.488281 42.46875 129.257813 42.738281 129.066406 C 46.105469 126.683594 48.011719 123.222656 49.554688 119.550781 C 51.984375 113.757813 52.980469 107.652344 53.199219 101.402344 C 53.203125 101.253906 53.21875 101.101563 53.234375 100.90625 C 53.761719 100.976563 54.230469 101.148438 54.683594 101.378906 C 55.183594 101.691406 55.480469 102.179688 55.828125 102.640625 C 59.019531 106.859375 63.101563 109.890625 68.074219 111.71875 C 68.871094 112.011719 69.664063 112.3125 70.488281 112.527344 C 70.867188 112.628906 71.261719 112.730469 71.472656 113.117188 "/>
<path style=" stroke:none;fill-rule:evenodd;fill:rgb(48.631287%,61.521912%,82.03125%);fill-opacity:1;" d="M 16.070313 113.136719 C 11.871094 109.722656 8.125 105.894531 5.058594 101.304688 C 6.644531 100.914063 8.195313 100.804688 9.671875 100.339844 C 10.804688 99.984375 11.929688 99.613281 12.960938 99.007813 C 13.246094 98.839844 13.621094 98.730469 13.640625 98.339844 C 13.664063 97.890625 13.269531 97.738281 12.949219 97.578125 C 9.503906 95.832031 6.09375 94.003906 2.542969 92.476563 C 1.96875 92.230469 1.792969 91.933594 1.789063 91.335938 C 1.765625 88.84375 2.117188 86.425781 3.050781 84.105469 C 3.117188 83.941406 3.140625 83.738281 3.332031 83.6875 C 4.414063 87.117188 6.820313 89.273438 10.019531 90.65625 C 10.914063 91.046875 11.863281 91.285156 12.816406 91.472656 C 13.820313 91.675781 14.148438 91.375 13.933594 90.390625 C 13.203125 87.03125 12.480469 83.675781 11.675781 80.335938 C 11.480469 79.523438 11.734375 79.472656 12.414063 79.449219 C 16.410156 79.300781 20.273438 80.210938 24.171875 80.847656 C 26.519531 81.234375 28.792969 81.914063 31.054688 82.628906 C 31.425781 82.742188 31.769531 82.84375 31.976563 83.273438 C 34.898438 89.359375 39.597656 93.753906 45.335938 97.128906 C 47.4375 98.363281 49.660156 99.355469 51.910156 100.296875 C 52.289063 100.453125 52.613281 100.554688 52.59375 101.097656 C 52.359375 106.90625 51.511719 112.597656 49.457031 118.070313 C 49.296875 118.5 49.121094 118.921875 48.953125 119.34375 C 48.820313 119.984375 48.460938 119.851563 48.097656 119.570313 C 47.425781 119.050781 46.773438 118.496094 46.121094 117.945313 C 41.363281 113.898438 35.699219 112 29.65625 111.007813 C 26.386719 110.46875 23.113281 110.480469 19.835938 110.980469 C 18.605469 111.167969 17.582031 111.679688 16.847656 112.71875 C 16.667969 112.972656 16.523438 113.359375 16.070313 113.136719 "/>
<path style=" stroke:none;fill-rule:evenodd;fill:rgb(49.021912%,61.521912%,82.03125%);fill-opacity:1;" d="M 106.8125 121.144531 C 104.988281 117.757813 103.785156 114.179688 103.519531 110.324219 C 103.347656 107.875 104.042969 105.632813 105.300781 103.546875 C 107.203125 100.390625 109.328125 97.394531 111.660156 94.527344 C 114.789063 90.679688 117.71875 86.667969 120.96875 82.914063 C 121.246094 82.59375 121.519531 82.265625 121.769531 81.96875 C 123.886719 85.007813 126.855469 86.496094 130.40625 86.976563 C 130.796875 87.03125 131.1875 87.089844 131.582031 87.132813 C 132.671875 87.257813 132.953125 86.960938 132.671875 85.921875 C 132.480469 85.21875 132.253906 84.519531 132 83.839844 C 130.976563 81.109375 130.121094 78.308594 128.695313 75.742188 C 128.484375 75.363281 128.640625 75.203125 128.898438 75 C 130.671875 73.621094 132.664063 72.664063 134.761719 71.894531 C 135.335938 71.6875 135.285156 72.027344 135.269531 72.382813 C 135.214844 73.902344 135.164063 75.425781 135.105469 76.945313 C 135 79.476563 135.222656 81.992188 135.488281 84.507813 C 135.523438 84.867188 135.535156 85.289063 135.90625 85.464844 C 136.28125 85.636719 136.511719 85.265625 136.757813 85.066406 C 139.488281 82.863281 142.101563 80.539063 144.277344 77.765625 C 144.914063 76.945313 145.53125 76.113281 145.964844 75.167969 C 146.164063 74.722656 146.34375 74.695313 146.648438 75.085938 C 147.867188 76.65625 148.9375 78.304688 149.632813 80.183594 C 149.800781 80.636719 149.789063 80.878906 149.230469 80.871094 C 148.464844 80.863281 147.824219 81.207031 147.214844 81.632813 C 144.375 83.625 141.550781 85.640625 138.855469 87.828125 C 138.53125 88.09375 138.089844 88.3125 138.191406 88.828125 C 138.289063 89.335938 138.769531 89.421875 139.164063 89.539063 C 142.785156 90.609375 146.453125 91.222656 150.238281 90.652344 C 150.796875 90.570313 151.078125 90.597656 150.929688 91.320313 C 150.523438 93.28125 150.253906 95.273438 149.707031 97.210938 C 149.160156 97.441406 149.035156 96.929688 148.820313 96.664063 C 148.351563 96.09375 147.910156 95.511719 147.210938 95.210938 C 146.234375 94.796875 145.285156 94.753906 144.300781 95.238281 C 141.589844 96.566406 138.945313 98.023438 136.429688 99.683594 C 131.722656 102.792969 126.816406 105.5625 121.976563 108.445313 C 118.707031 110.390625 115.453125 112.378906 112.464844 114.757813 C 110.511719 116.308594 108.9375 118.195313 107.695313 120.355469 C 107.492188 120.707031 107.371094 121.179688 106.8125 121.144531 "/>
<path style=" stroke:none;fill-rule:evenodd;fill:rgb(34.910583%,47.459412%,72.851563%);fill-opacity:1;" d="M 106.8125 121.144531 C 107.421875 120.800781 107.546875 120.113281 107.871094 119.582031 C 109.972656 116.132813 113.105469 113.824219 116.40625 111.667969 C 120.550781 108.960938 124.859375 106.53125 129.121094 104.023438 C 131.835938 102.421875 134.445313 100.636719 137.128906 98.972656 C 139.527344 97.480469 141.984375 96.085938 144.542969 94.875 C 145.878906 94.246094 147.746094 94.835938 148.746094 96.179688 C 149.03125 96.558594 149.214844 97.023438 149.707031 97.210938 C 148.394531 102.753906 146.144531 107.933594 143.488281 112.945313 C 140.386719 118.804688 136.628906 124.226563 132.402344 129.328125 C 131.253906 130.714844 129.929688 131.925781 128.546875 133.085938 C 127.074219 134.328125 125.40625 134.074219 123.765625 133.710938 C 116.246094 132.054688 110.769531 127.617188 106.8125 121.144531 "/>
<path style=" stroke:none;fill-rule:evenodd;fill:rgb(67.771912%,82.8125%,88.28125%);fill-opacity:1;" d="M 40.953125 41.445313 C 39.140625 44.722656 37.933594 48.21875 37.324219 51.910156 C 37.222656 52.519531 36.996094 52.519531 36.546875 52.292969 C 32.835938 50.425781 30.167969 47.578125 28.515625 43.769531 C 28.503906 43.742188 28.503906 43.710938 28.492188 43.683594 C 28.007813 42.125 28.121094 41.933594 29.695313 42.070313 C 30.917969 42.175781 32.21875 42.03125 33.277344 42.898438 C 33.414063 43.015625 33.632813 43.085938 33.757813 42.882813 C 33.882813 42.675781 33.699219 42.546875 33.550781 42.445313 C 33.101563 42.128906 32.640625 41.835938 32.199219 41.515625 C 25.085938 36.328125 20.015625 29.683594 17.652344 21.117188 C 17.488281 20.535156 17.4375 19.921875 17.359375 19.316406 C 17.296875 18.835938 17.375 18.414063 17.921875 18.210938 C 18.40625 18.027344 18.796875 17.976563 19.257813 18.367188 C 20.332031 19.28125 21.429688 20.191406 22.6875 20.851563 C 22.738281 20.792969 22.789063 20.734375 22.839844 20.679688 C 22.363281 20.257813 21.910156 19.808594 21.410156 19.421875 C 18.261719 16.976563 15.765625 13.976563 13.75 10.554688 C 13.113281 9.476563 12.597656 8.34375 12.222656 7.148438 C 11.808594 5.824219 11.9375 5.59375 13.3125 5.480469 C 16.898438 5.195313 20.4375 5.550781 23.925781 6.359375 C 33.109375 8.488281 41.152344 12.652344 47.539063 19.730469 C 49.625 22.042969 51.496094 24.515625 53.074219 27.207031 C 53.273438 27.546875 53.550781 27.8125 53.007813 28.160156 C 51.085938 29.398438 49.277344 30.789063 47.597656 32.453125 C 43.984375 25.484375 39.097656 19.796875 32.089844 16.144531 C 29.703125 14.902344 27.136719 14.222656 24.488281 13.789063 C 25.882813 14.539063 27.480469 14.773438 28.878906 15.503906 C 30.210938 16.277344 31.050781 17.515625 31.917969 18.722656 C 34.070313 21.722656 35.839844 24.9375 37.28125 28.332031 C 38.214844 30.523438 38.601563 32.816406 38.621094 35.171875 C 38.640625 37.199219 39.242188 38.988281 40.605469 40.503906 C 40.84375 40.765625 41.144531 41.019531 40.953125 41.445313 "/>
<path style=" stroke:none;fill-rule:evenodd;fill:rgb(49.021912%,61.521912%,82.03125%);fill-opacity:1;" d="M 42.777344 212.527344 C 40.84375 212.921875 38.902344 213.292969 36.972656 213.714844 C 36.265625 213.871094 36.359375 213.5625 36.488281 213.101563 C 37.191406 210.59375 38.300781 208.261719 39.515625 205.976563 C 39.585938 205.84375 39.675781 205.714844 39.75 205.582031 C 39.839844 205.421875 39.949219 205.230469 39.757813 205.097656 C 39.578125 204.976563 39.410156 205.105469 39.300781 205.261719 C 39.144531 205.488281 38.984375 205.714844 38.851563 205.953125 C 38.125 207.257813 37.453125 208.585938 36.902344 209.972656 C 36.734375 210.390625 36.511719 210.574219 36.0625 210.640625 C 34.042969 210.9375 32.011719 211.09375 29.96875 211.140625 C 29.230469 211.160156 29.144531 210.976563 29.464844 210.339844 C 31.566406 206.164063 34.507813 202.738281 38.5 200.277344 C 39.199219 199.847656 39.328125 199.421875 39.226563 198.65625 C 38.464844 193.007813 38.996094 187.425781 40.203125 181.882813 C 41.386719 176.449219 43.613281 171.496094 47.003906 167.074219 C 47.683594 166.183594 47.675781 166.195313 48.238281 167.164063 C 51.015625 171.925781 54.375 176.238281 58.289063 180.121094 C 58.675781 180.507813 59.046875 180.90625 59.425781 181.300781 C 59.878906 182.730469 59.734375 184.203125 59.5625 185.632813 C 58.734375 192.511719 55.597656 198.402344 51.5625 203.886719 C 49.664063 206.46875 47.535156 208.835938 45.078125 210.902344 C 44.351563 211.511719 43.613281 212.089844 42.777344 212.527344 "/>
<path style=" stroke:none;fill-rule:evenodd;fill:rgb(48.631287%,61.521912%,82.03125%);fill-opacity:1;" d="M 116.964844 169.570313 C 117.277344 169.789063 117.160156 170.007813 117 170.265625 C 115.605469 172.507813 115.082031 175 114.789063 177.589844 C 114.285156 182.058594 114.710938 186.40625 116.253906 190.632813 C 117.117188 193.003906 118.269531 195.246094 119.480469 197.460938 C 121.945313 201.980469 123.996094 206.667969 124.855469 211.796875 C 125.230469 214.03125 125.699219 216.257813 125.609375 218.546875 C 125.585938 219.136719 125.523438 219.695313 125.238281 220.214844 C 122.308594 220.898438 119.375 221.566406 116.453125 222.28125 C 115.753906 222.453125 115.523438 222.269531 115.542969 221.558594 C 115.570313 220.558594 115.488281 219.550781 115.523438 218.546875 C 115.578125 216.660156 115.089844 214.984375 113.953125 213.433594 C 111.789063 210.488281 109.554688 207.605469 107.035156 204.953125 C 105.691406 203.539063 104.460938 202.015625 103.039063 200.6875 C 101.394531 199.152344 100.8125 197.277344 100.761719 195.132813 C 100.632813 189.726563 102.171875 184.816406 105.160156 180.34375 C 108.207031 175.785156 112.066406 172.109375 116.964844 169.570313 "/>
<path style=" stroke:none;fill-rule:evenodd;fill:rgb(34.910583%,47.459412%,72.851563%);fill-opacity:1;" d="M 42.777344 212.527344 C 44.496094 210.992188 46.34375 209.609375 47.914063 207.90625 C 50.746094 204.835938 53.199219 201.5 55.1875 197.820313 C 56.59375 195.226563 57.800781 192.554688 58.550781 189.679688 C 59.273438 186.925781 59.542969 184.136719 59.425781 181.300781 C 62.769531 184.285156 66.214844 187.128906 70.085938 189.421875 C 73.496094 191.441406 77.058594 193.152344 80.714844 194.671875 C 81.042969 194.808594 81.367188 194.957031 81.742188 195.121094 C 81.636719 195.273438 81.585938 195.386719 81.5 195.460938 C 78.175781 198.320313 77.023438 202.230469 76.230469 206.320313 C 75.898438 208.023438 75.710938 209.746094 75.550781 211.46875 C 75.488281 212.136719 75.195313 212.300781 74.597656 212.421875 C 71.585938 213.015625 68.59375 212.578125 65.601563 212.292969 C 59.804688 211.738281 53.996094 211.507813 48.179688 211.726563 C 46.371094 211.792969 44.578125 212.25 42.777344 212.527344 "/>
<path style=" stroke:none;fill-rule:evenodd;fill:rgb(94.139099%,83.201599%,63.084412%);fill-opacity:1;" d="M 55.214844 175.828125 C 48.832031 168.40625 44.300781 160.136719 43.460938 150.179688 C 46.503906 151.070313 49.550781 151.984375 52.613281 152.851563 C 57.894531 154.34375 63.265625 155.359375 68.71875 155.925781 C 69.46875 156.003906 69.855469 156.191406 69.964844 157.054688 C 70.6875 162.746094 71.972656 168.304688 74.214844 173.605469 C 74.367188 173.972656 74.300781 174.199219 74.03125 174.480469 C 72.917969 175.644531 71.832031 176.839844 70.734375 178.019531 C 70.222656 178.382813 69.734375 178.113281 69.257813 177.949219 C 66.609375 177.046875 63.917969 176.304688 61.152344 175.878906 C 59.613281 175.640625 58.070313 175.625 56.53125 175.925781 C 56.085938 176.015625 55.636719 176.136719 55.214844 175.828125 "/>
<path style=" stroke:none;fill-rule:evenodd;fill:rgb(34.910583%,47.459412%,72.851563%);fill-opacity:1;" d="M 112.8125 73.816406 C 112.695313 71.257813 112.015625 68.8125 111.371094 66.351563 C 110.59375 63.359375 109.199219 60.625 107.828125 57.886719 C 106.121094 54.460938 104.917969 50.910156 104.546875 47.085938 C 104.492188 46.546875 104.363281 46.011719 104.402344 45.464844 C 106 47.847656 107.660156 50.183594 110.023438 51.886719 C 113.75 54.570313 117.761719 56.71875 122.15625 58.105469 C 122.707031 58.28125 122.992188 58.523438 123.117188 59.128906 C 123.46875 60.828125 123.726563 62.53125 123.78125 64.273438 C 123.894531 68.019531 123.964844 71.757813 123.214844 75.457031 C 123.082031 76.117188 122.929688 76.734375 122.472656 77.277344 C 121.683594 78.214844 121.539063 79.375 121.566406 80.550781 C 121.578125 80.964844 121.515625 81.289063 121.226563 81.621094 C 117.53125 85.835938 114.179688 90.328125 110.699219 94.71875 C 110.0625 95.519531 109.324219 96.144531 108.453125 96.683594 C 102.921875 100.105469 96.816406 101.855469 90.460938 102.878906 C 89.386719 103.050781 88.308594 103.273438 87.207031 103.246094 C 88.914063 102.742188 90.667969 102.425781 92.347656 101.816406 C 97.347656 100.003906 102.042969 97.664063 106.253906 94.355469 C 109.769531 91.59375 111.558594 87.902344 112.4375 83.644531 C 112.734375 82.210938 112.871094 80.769531 112.796875 79.304688 C 112.703125 79.179688 112.632813 79.03125 112.671875 78.886719 C 113.09375 77.296875 112.578125 75.664063 112.890625 74.070313 C 112.90625 73.976563 112.851563 73.898438 112.8125 73.816406 "/>
<path style=" stroke:none;fill-rule:evenodd;fill:rgb(89.0625%,94.53125%,90.234375%);fill-opacity:1;" d="M 135.125 167.230469 C 134.207031 164.851563 133.261719 162.480469 132.378906 160.089844 C 130.425781 154.8125 130.691406 149.460938 131.925781 144.09375 C 132.902344 139.855469 133.695313 135.585938 134.28125 131.273438 C 134.316406 131.003906 134.390625 130.722656 134.351563 130.460938 C 134.089844 128.574219 134.859375 127.117188 136.027344 125.683594 C 138.53125 122.617188 140.667969 119.289063 142.648438 115.753906 C 144.046875 117.339844 144.753906 119.160156 145.15625 121.132813 C 145.683594 123.710938 145.601563 126.253906 145.035156 128.824219 C 144.339844 132 143.308594 135.09375 142.773438 138.304688 C 141.980469 143.074219 141.824219 147.867188 142.394531 152.675781 C 142.425781 152.949219 142.421875 153.222656 142.433594 153.496094 C 142.644531 155.097656 142.328125 156.621094 141.78125 158.117188 C 140.640625 161.253906 139.117188 164.167969 136.738281 166.554688 C 136.324219 166.96875 135.902344 167.589844 135.125 167.230469 "/>
<path style=" stroke:none;fill-rule:evenodd;fill:rgb(89.451599%,70.506287%,46.263123%);fill-opacity:1;" d="M 87.582031 181.300781 C 91.964844 183.175781 96.347656 185.050781 100.808594 186.742188 C 101.433594 186.984375 101.164063 187.34375 101.066406 187.679688 C 100.289063 190.335938 99.953125 193.035156 100.1875 195.796875 C 100.246094 196.460938 100.296875 197.140625 100.472656 197.777344 C 100.652344 198.425781 100.472656 198.566406 99.851563 198.515625 C 95.355469 198.167969 90.90625 197.535156 86.605469 196.132813 C 79.367188 193.777344 72.527344 190.59375 66.296875 186.167969 C 65.707031 185.746094 65.566406 185.484375 66.070313 184.859375 C 67.859375 182.628906 69.546875 180.320313 71.488281 178.222656 C 73.257813 178.65625 74.988281 179.238281 76.78125 179.585938 C 80.363281 180.28125 83.957031 180.898438 87.582031 181.300781 "/>
<path style=" stroke:none;fill-rule:evenodd;fill:rgb(66.601563%,35.693359%,22.75238%);fill-opacity:1;" d="M 157.238281 128.277344 C 158.167969 131.011719 158.71875 133.839844 159.203125 136.671875 C 159.867188 140.605469 160.164063 144.582031 160.085938 148.5625 C 160.035156 151.019531 160.167969 153.503906 159.761719 155.933594 C 159.40625 158.089844 158.621094 160.148438 157.78125 162.171875 C 156.171875 166.042969 154.234375 169.714844 151.1875 172.683594 C 150.414063 173.441406 150.402344 173.457031 150.148438 172.429688 C 149.269531 168.890625 147.589844 165.671875 146.078125 162.390625 C 144.644531 159.28125 143.445313 156.121094 143.03125 152.707031 C 142.96875 152.191406 142.972656 151.671875 142.941406 151.15625 C 144.789063 150.445313 146.496094 149.5 148.121094 148.363281 C 150.378906 146.792969 151.996094 144.679688 153.300781 142.328125 C 155.464844 138.417969 156.671875 134.214844 156.8125 129.722656 C 156.828125 129.214844 156.847656 128.6875 157.238281 128.277344 "/>
<path style=" stroke:none;fill-rule:evenodd;fill:rgb(34.910583%,47.459412%,72.851563%);fill-opacity:1;" d="M 16.070313 113.136719 C 16.179688 113.089844 16.347656 113.070313 16.390625 112.988281 C 17.277344 111.199219 18.945313 110.789063 20.707031 110.574219 C 22.335938 110.375 23.972656 110.359375 25.617188 110.371094 C 28.242188 110.386719 30.773438 110.984375 33.324219 111.503906 C 39.054688 112.667969 43.890625 115.503906 48.183594 119.363281 C 48.5 119.648438 48.703125 119.726563 48.953125 119.34375 C 48.558594 120.488281 47.980469 121.546875 47.371094 122.585938 C 46.273438 124.453125 45.082031 126.238281 43.476563 127.734375 C 42.675781 128.476563 41.96875 128.605469 40.941406 128.195313 C 32.234375 124.6875 24.230469 120.007813 17.027344 113.976563 C 16.703125 113.703125 16.390625 113.414063 16.070313 113.136719 "/>
<path style=" stroke:none;fill-rule:evenodd;fill:rgb(78.514099%,39.598083%,17.259216%);fill-opacity:1;" d="M 157.238281 128.277344 C 156.9375 132.121094 156.453125 135.910156 154.929688 139.515625 C 153.015625 144.039063 150.285156 147.808594 145.800781 150.101563 C 144.886719 150.570313 144.039063 151.195313 142.941406 151.15625 C 142.898438 150.984375 142.828125 150.8125 142.816406 150.640625 C 142.59375 144.964844 142.824219 139.347656 144.464844 133.84375 C 145.1875 131.40625 145.851563 128.925781 146.078125 126.375 C 146.417969 122.515625 145.785156 118.863281 143.292969 115.40625 C 144.097656 115.800781 144.691406 116.046875 145.242188 116.371094 C 148.152344 118.097656 150.910156 120.058594 153.390625 122.359375 C 155.039063 123.886719 156.628906 125.511719 157.175781 127.828125 C 157.210938 127.972656 157.21875 128.125 157.238281 128.277344 "/>
<path style=" stroke:none;fill-rule:evenodd;fill:rgb(74.804688%,80.076599%,76.951599%);fill-opacity:1;" d="M 135.125 167.230469 C 136.226563 167.078125 136.863281 166.230469 137.457031 165.472656 C 139.703125 162.601563 141.40625 159.441406 142.152344 155.835938 C 142.3125 155.066406 142.34375 154.273438 142.433594 153.496094 C 143.335938 159.082031 146.300781 163.882813 148.339844 169.035156 C 150.882813 175.449219 151.535156 181.984375 149.355469 188.65625 C 148.765625 190.460938 147.859375 192.085938 146.578125 193.679688 C 146.09375 192.109375 145.65625 190.675781 145.203125 189.246094 C 143.390625 183.460938 140.941406 177.988281 137.277344 173.121094 C 137.003906 172.753906 136.984375 172.328125 136.839844 171.933594 C 136.25 170.375 135.691406 168.800781 135.125 167.230469 "/>
<path style=" stroke:none;fill-rule:evenodd;fill:rgb(89.451599%,70.506287%,46.263123%);fill-opacity:1;" d="M 102.894531 108.558594 C 102.152344 108.628906 101.523438 109.03125 100.847656 109.28125 C 96.738281 110.8125 92.480469 111.71875 88.164063 112.394531 C 83.40625 113.140625 78.609375 113.164063 73.8125 113.109375 C 73.394531 113.105469 72.972656 112.992188 72.554688 112.929688 C 72.980469 112.167969 73.769531 111.953125 74.5 111.679688 C 78.898438 110.039063 83.164063 108.105469 87.027344 105.425781 C 88.730469 104.238281 90.476563 103.5 92.546875 103.140625 C 97.992188 102.203125 103.226563 100.539063 108.019531 97.6875 C 108.09375 97.644531 108.183594 97.632813 108.441406 97.542969 C 107.84375 98.429688 107.3125 99.175781 106.824219 99.945313 C 105.4375 102.117188 103.859375 104.195313 103.242188 106.773438 C 103.101563 107.363281 103.007813 107.964844 102.894531 108.558594 "/>
<path style=" stroke:none;fill-rule:evenodd;fill:rgb(67.771912%,82.8125%,88.28125%);fill-opacity:1;" d="M 193.988281 116.257813 C 193.519531 116.199219 193.472656 115.878906 193.417969 115.480469 C 193.019531 112.664063 192.554688 109.863281 191.425781 107.226563 C 190.167969 104.285156 188.496094 101.589844 186.546875 99.058594 C 186.242188 98.660156 185.613281 98.550781 185.550781 97.941406 C 187.4375 96.871094 188.929688 95.359375 190.25 93.667969 C 190.5625 93.265625 190.738281 93.199219 191.148438 93.550781 C 197.566406 99.019531 200.785156 105.882813 200.320313 114.378906 C 200.238281 115.835938 200.230469 115.851563 198.800781 115.8125 C 197.179688 115.765625 195.585938 115.996094 193.988281 116.257813 "/>
<path style=" stroke:none;fill-rule:evenodd;fill:rgb(43.138123%,60.351563%,73.242188%);fill-opacity:1;" d="M 40.953125 41.445313 C 40.925781 41.03125 40.582031 40.839844 40.34375 40.574219 C 39.152344 39.265625 38.390625 37.691406 38.433594 35.964844 C 38.554688 31.4375 36.875 27.496094 34.757813 23.667969 C 33.121094 20.71875 31.28125 17.90625 28.878906 15.503906 C 31.609375 16.367188 34.019531 17.824219 36.277344 19.546875 C 40.765625 22.960938 44.164063 27.277344 46.761719 32.257813 C 46.992188 32.703125 47.0625 33.027344 46.644531 33.457031 C 44.339844 35.824219 42.496094 38.53125 40.953125 41.445313 "/>
<path style=" stroke:none;fill-rule:evenodd;fill:rgb(89.0625%,94.53125%,90.234375%);fill-opacity:1;" d="M 136.191406 84.730469 C 135.890625 82.613281 135.722656 80.675781 135.722656 78.730469 C 135.722656 76.570313 135.855469 74.410156 135.886719 72.25 C 135.894531 71.507813 136.171875 70.980469 136.765625 70.5625 C 139.496094 68.671875 143.695313 68.53125 145.617188 72.617188 C 145.921875 73.269531 145.921875 73.84375 145.59375 74.519531 C 144.800781 76.160156 143.664063 77.539063 142.480469 78.894531 C 141.421875 80.113281 140.265625 81.234375 139.046875 82.296875 C 138.152344 83.070313 137.246094 83.832031 136.191406 84.730469 "/>
<path style=" stroke:none;fill-rule:evenodd;fill:rgb(89.0625%,94.53125%,90.234375%);fill-opacity:1;" d="M 142.929688 89.746094 C 141.558594 89.613281 140.257813 89.222656 138.890625 88.765625 C 139.5625 87.953125 140.378906 87.414063 141.148438 86.835938 C 143.117188 85.355469 145.15625 83.964844 147.109375 82.457031 C 148.558594 81.335938 150.097656 81.117188 151.601563 82.046875 C 153.15625 83.003906 153.648438 84.621094 153.53125 86.402344 C 153.507813 86.789063 153.449219 87.191406 153.21875 87.53125 C 152.988281 87.945313 152.625 88.195313 152.210938 88.410156 C 149.742188 89.695313 147.105469 90.070313 144.367188 89.855469 C 143.890625 89.816406 143.398438 89.898438 142.929688 89.746094 "/>
<path style=" stroke:none;fill-rule:evenodd;fill:rgb(89.451599%,70.506287%,46.263123%);fill-opacity:1;" d="M 55.214844 175.828125 C 56.140625 175.707031 57.066406 175.519531 57.996094 175.472656 C 61.601563 175.285156 64.988281 176.355469 68.378906 177.378906 C 69.15625 177.613281 69.886719 178.035156 70.734375 178.019531 C 68.976563 180.222656 67.222656 182.425781 65.460938 184.628906 C 65.253906 184.886719 65.132813 185.277344 64.640625 184.890625 C 61.207031 182.175781 58.027344 179.195313 55.214844 175.828125 "/>
<path style=" stroke:none;fill-rule:evenodd;fill:rgb(78.514099%,39.598083%,17.259216%);fill-opacity:1;" d="M 156.015625 124.09375 C 152.382813 120.246094 148.390625 117.253906 143.867188 114.964844 C 143.492188 114.773438 143.257813 114.652344 143.53125 114.175781 C 144.917969 111.742188 146.132813 109.222656 147.289063 106.496094 C 151.179688 111.894531 153.855469 117.746094 156.015625 124.09375 "/>
<path style=" stroke:none;fill-rule:evenodd;fill:rgb(89.0625%,94.53125%,90.234375%);fill-opacity:1;" d="M 8.382813 79.285156 C 8.503906 79.285156 8.625 79.28125 8.746094 79.285156 C 10.59375 79.386719 10.902344 79.632813 11.292969 81.386719 C 11.945313 84.289063 12.5625 87.199219 13.253906 90.09375 C 13.433594 90.863281 13.195313 90.910156 12.5625 90.78125 C 9.503906 90.164063 7.082031 88.554688 5.171875 86.121094 C 3.351563 83.808594 4.070313 81.675781 5.925781 80.046875 C 6.660156 79.402344 7.3125 79.257813 8.382813 79.285156 "/>
<path style=" stroke:none;fill-rule:evenodd;fill:rgb(89.0625%,94.53125%,90.234375%);fill-opacity:1;" d="M 132.140625 86.460938 C 128.972656 86.425781 126.296875 85.4375 123.945313 83.527344 C 122.507813 82.363281 121.914063 80.917969 122.324219 79.097656 C 122.6875 77.476563 123.792969 76.472656 125.285156 76.03125 C 128.085938 75.203125 127.886719 75.222656 128.941406 77.660156 C 130.050781 80.226563 131.050781 82.839844 131.871094 85.515625 C 131.960938 85.800781 132.035156 86.09375 132.140625 86.460938 "/>
<path style=" stroke:none;fill-rule:evenodd;fill:rgb(43.138123%,60.351563%,73.242188%);fill-opacity:1;" d="M 190.648438 118.1875 C 190.460938 118.824219 189.925781 119.222656 189.5625 119.738281 C 187.398438 122.785156 185.933594 126.050781 185.671875 129.875 C 185.4375 133.28125 185.984375 136.414063 187.847656 139.253906 C 188.871094 140.820313 190.308594 142.003906 191.972656 142.894531 C 187.441406 142.488281 183.371094 138.523438 182.675781 133.835938 C 181.757813 127.675781 184.621094 121.6875 189.996094 118.503906 C 190.207031 118.382813 190.433594 118.292969 190.648438 118.1875 "/>
<path style=" stroke:none;fill-rule:evenodd;fill:rgb(89.0625%,94.53125%,90.234375%);fill-opacity:1;" d="M 12.898438 98.285156 C 10.921875 99.464844 8.894531 99.945313 6.828125 100.308594 C 6.316406 100.398438 5.804688 100.464844 5.292969 100.550781 C 3.28125 100.878906 1.449219 99.71875 0.890625 97.757813 C 0.507813 96.398438 0.566406 95.046875 0.980469 93.710938 C 1.246094 92.851563 1.566406 92.722656 2.386719 93.089844 C 5.914063 94.660156 9.332031 96.441406 12.898438 98.285156 "/>
<path style=" stroke:none;fill-rule:evenodd;fill:rgb(89.451599%,70.506287%,46.263123%);fill-opacity:1;" d="M 71.472656 113.117188 C 69.175781 112.355469 66.882813 111.589844 64.714844 110.480469 C 60.859375 108.507813 57.761719 105.6875 55.234375 102.199219 C 55.042969 101.933594 54.867188 101.652344 54.683594 101.378906 C 56.96875 102.085938 59.261719 102.777344 61.613281 103.242188 C 61.984375 103.316406 62.191406 103.535156 62.390625 103.8125 C 64.550781 106.828125 67.296875 109.261719 70.15625 111.578125 C 70.683594 112.007813 71.371094 112.320313 71.472656 113.117188 "/>
<path style=" stroke:none;fill-rule:evenodd;fill:rgb(66.601563%,35.693359%,22.75238%);fill-opacity:1;" d="M 151.390625 181.289063 C 151.28125 178.980469 151.191406 176.800781 150.675781 174.667969 C 150.597656 174.347656 150.675781 174.078125 150.929688 173.847656 C 154.910156 170.183594 157.253906 165.511719 159.105469 160.539063 C 159.164063 160.375 159.253906 160.222656 159.367188 159.980469 C 159.464844 165.640625 155.125 177.25 151.390625 181.289063 "/>
<path style=" stroke:none;fill-rule:evenodd;fill:rgb(94.139099%,83.201599%,63.084412%);fill-opacity:1;" d="M 87.582031 181.300781 C 86.855469 181.839844 86.089844 181.375 85.390625 181.28125 C 80.960938 180.65625 76.527344 180.023438 72.242188 178.667969 C 71.964844 178.582031 71.625 178.566406 71.488281 178.222656 C 72.507813 177.101563 73.535156 175.988281 74.542969 174.859375 C 74.800781 174.570313 75.007813 174.578125 75.316406 174.769531 C 79.277344 177.183594 83.382813 179.335938 87.582031 181.300781 "/>
<path style=" stroke:none;fill-rule:evenodd;fill:rgb(89.451599%,70.506287%,46.263123%);fill-opacity:1;" d="M 90.292969 181.691406 C 92.535156 181.6875 94.777344 181.726563 97.015625 181.667969 C 99.242188 181.609375 101.46875 181.453125 103.695313 181.339844 C 102.914063 182.777344 102.199219 184.253906 101.667969 185.800781 C 101.550781 186.140625 101.441406 186.324219 101.027344 186.152344 C 97.4375 184.691406 93.789063 183.378906 90.292969 181.691406 "/>
<path style=" stroke:none;fill-rule:evenodd;fill:rgb(89.451599%,70.506287%,45.872498%);fill-opacity:1;" d="M 131.976563 140.730469 C 131.230469 139.042969 130.503906 137.339844 129.515625 135.777344 C 129.144531 135.191406 128.71875 134.640625 128.316406 134.078125 C 130.300781 132.578125 132.027344 130.808594 133.71875 128.957031 C 133.566406 132.964844 132.796875 136.851563 131.976563 140.730469 "/>
<path style=" stroke:none;fill-rule:evenodd;fill:rgb(89.451599%,70.506287%,45.872498%);fill-opacity:1;" d="M 128.328125 166.148438 C 128.945313 166.183594 129.257813 165.734375 129.554688 165.324219 C 130.546875 163.9375 131.058594 162.359375 131.25 160.679688 C 131.296875 160.285156 131.371094 159.90625 131.46875 159.523438 C 132.851563 163.433594 134.53125 167.234375 135.769531 171.234375 C 133.730469 168.867188 131.261719 167.167969 128.328125 166.148438 "/>
<path style=" stroke:none;fill-rule:evenodd;fill:rgb(70.117188%,74.804688%,72.068787%);fill-opacity:1;" d="M 142.929688 89.746094 C 145.074219 89.753906 147.214844 89.710938 149.324219 89.21875 C 150.734375 88.890625 152.003906 88.285156 153.21875 87.53125 C 152.9375 88.6875 152.398438 89.578125 151.117188 89.859375 C 148.371094 90.460938 145.648438 90.328125 142.929688 89.746094 "/>
<path style=" stroke:none;fill-rule:evenodd;fill:rgb(99.609375%,99.609375%,99.609375%);fill-opacity:1;" d="M 102.527344 66.714844 C 102.207031 68.019531 102.4375 69.367188 102.238281 70.691406 C 102.03125 72.042969 101.757813 73.371094 101.382813 74.6875 C 101.257813 75.128906 101.007813 75.410156 100.613281 75.636719 C 99.179688 76.460938 97.597656 76.726563 96 76.910156 C 94.28125 77.105469 92.5625 77.308594 90.835938 77.394531 C 89.507813 77.460938 88.171875 77.324219 86.855469 77.074219 C 86.363281 76.984375 86.109375 76.617188 85.894531 76.1875 C 84.640625 73.6875 84.070313 71 83.734375 68.25 C 83.46875 66.101563 83.5 63.945313 83.546875 61.789063 C 83.550781 61.554688 83.679688 61.386719 83.84375 61.246094 C 84.003906 61.109375 84.171875 60.941406 84.40625 61.027344 C 84.636719 61.117188 84.664063 61.359375 84.679688 61.566406 C 84.75 62.476563 84.6875 63.390625 84.714844 64.304688 C 84.792969 66.683594 85.09375 69.03125 85.925781 71.285156 C 86.382813 72.527344 87.027344 73.648438 88.023438 74.554688 C 89.277344 75.695313 90.574219 75.644531 91.675781 74.351563 C 92.703125 73.144531 93.363281 71.738281 93.675781 70.195313 C 94.726563 65.039063 94.613281 59.972656 92.296875 55.121094 C 91.976563 54.453125 92.113281 53.960938 92.648438 53.511719 C 94.457031 51.976563 96.210938 50.378906 98.027344 48.851563 C 98.683594 48.304688 99.058594 48.371094 99.503906 49.097656 C 100.027344 49.957031 100.417969 50.882813 100.730469 51.839844 C 101.808594 55.152344 102.578125 58.523438 102.636719 62.027344 C 102.664063 62.816406 102.539063 63.617188 102.773438 64.398438 C 102.773438 65.175781 103.085938 65.992188 102.527344 66.714844 "/>
<path style=" stroke:none;fill-rule:evenodd;fill:rgb(12.547302%,8.616638%,7.446289%);fill-opacity:1;" d="M 102.414063 61.960938 C 102.121094 57.25 101.257813 52.691406 98.863281 48.433594 C 96.644531 50.371094 94.523438 52.234375 92.386719 54.082031 C 92.074219 54.351563 92.265625 54.554688 92.382813 54.785156 C 95.011719 59.996094 95.078125 65.429688 93.734375 70.964844 C 93.433594 72.214844 92.796875 73.339844 92.019531 74.363281 C 90.839844 75.921875 89.226563 76.046875 87.78125 74.714844 C 86.15625 73.214844 85.503906 71.222656 85.03125 69.164063 C 84.425781 66.539063 84.40625 63.855469 84.488281 61.097656 C 84.0625 61.238281 83.832031 61.554688 83.546875 61.789063 C 82.414063 62.710938 81.285156 63.636719 80.144531 64.550781 C 79.949219 64.710938 79.703125 65.046875 79.46875 64.738281 C 79.242188 64.441406 79.632813 64.269531 79.820313 64.105469 C 85.910156 58.820313 92.011719 53.542969 98.105469 48.261719 C 99.140625 47.367188 100.171875 46.460938 101.210938 45.570313 C 101.378906 45.429688 101.578125 45.140625 101.820313 45.394531 C 102.074219 45.660156 101.761719 45.828125 101.601563 45.980469 C 101.0625 46.476563 100.523438 46.96875 99.964844 47.4375 C 99.667969 47.679688 99.660156 47.871094 99.863281 48.195313 C 102.101563 51.691406 102.753906 55.65625 103.066406 59.671875 C 103.28125 62.429688 103.230469 65.210938 102.917969 67.972656 C 102.902344 68.117188 102.933594 68.277344 102.710938 68.414063 C 102.351563 67.871094 102.707031 67.253906 102.527344 66.710938 C 102.527344 65.898438 102.527344 65.085938 102.527344 64.273438 C 102.371094 63.507813 102.578125 62.726563 102.414063 61.960938 "/>
<path style=" stroke:none;fill-rule:evenodd;fill:rgb(99.609375%,99.609375%,99.609375%);fill-opacity:1;" d="M 51.347656 63.980469 C 51.410156 66.960938 51.324219 69.929688 50.644531 72.84375 C 50.128906 75.070313 49.804688 75.28125 47.554688 75.28125 C 45.171875 75.28125 43.027344 74.578125 41.09375 73.179688 C 40.660156 72.863281 40.472656 72.496094 40.394531 71.980469 C 40.203125 70.773438 40.234375 69.5625 40.183594 68.355469 C 39.800781 67.605469 39.949219 66.796875 39.984375 66.019531 C 40.121094 63.132813 40.402344 60.257813 41.246094 57.46875 C 41.664063 56.089844 42.214844 54.773438 42.949219 53.542969 C 43.417969 52.753906 43.738281 52.761719 44.289063 53.519531 C 44.808594 54.230469 45.28125 54.980469 45.761719 55.71875 C 46.089844 56.226563 46.128906 56.742188 45.84375 57.273438 C 44.523438 59.738281 44.234375 62.453125 44.183594 65.15625 C 44.140625 67.367188 44.445313 69.589844 45.105469 71.730469 C 45.332031 72.476563 45.75 73.105469 46.347656 73.613281 C 47.195313 74.328125 48.050781 74.25 48.703125 73.351563 C 49.152344 72.730469 49.441406 72.023438 49.632813 71.28125 C 50.136719 69.328125 50.457031 67.351563 50.386719 65.324219 C 50.375 64.929688 50.367188 64.53125 50.402344 64.136719 C 50.429688 63.84375 50.394531 63.4375 50.773438 63.394531 C 51.09375 63.359375 51.3125 63.628906 51.347656 63.980469 "/>
<path style=" stroke:none;fill-rule:evenodd;fill:rgb(12.939453%,9.008789%,8.227539%);fill-opacity:1;" d="M 107.277344 85.144531 C 106.304688 86.984375 104.90625 87.976563 103.082031 88.40625 C 102.640625 88.511719 102.167969 88.632813 101.730469 88.582031 C 100.777344 88.472656 100.425781 88.863281 100.238281 89.773438 C 99.964844 91.140625 99.554688 92.488281 98.890625 93.734375 C 98.46875 94.519531 98.046875 94.527344 97.578125 93.753906 C 97.164063 93.078125 96.78125 92.386719 96.417969 91.683594 C 96.210938 91.28125 96.03125 91.179688 95.59375 91.445313 C 89.03125 95.472656 81.773438 97.164063 74.199219 97.808594 C 68.953125 98.253906 63.734375 98.148438 58.578125 97.027344 C 55.070313 96.265625 51.820313 94.8125 48.800781 92.871094 C 48.15625 92.457031 47.96875 92.605469 47.761719 93.246094 C 47.609375 93.710938 47.617188 94.40625 47.011719 94.492188 C 46.332031 94.589844 46.195313 93.863281 45.914063 93.429688 C 45.289063 92.457031 44.738281 91.433594 44.382813 90.324219 C 44.101563 89.457031 43.566406 88.96875 42.664063 88.777344 C 40.660156 88.355469 39.550781 86.996094 38.972656 85.121094 C 38.921875 84.953125 38.851563 84.769531 39.042969 84.601563 C 39.484375 84.683594 39.511719 85.117188 39.648438 85.414063 C 40.394531 87.03125 41.617188 87.921875 43.371094 88.3125 C 46.484375 89.007813 49.617188 89.664063 52.542969 91 C 54.097656 91.710938 55.628906 92.484375 57.003906 93.488281 C 58.347656 94.472656 59.59375 94.339844 60.996094 93.683594 C 63.503906 92.503906 66.101563 91.539063 68.808594 90.910156 C 72.664063 90.015625 76.585938 89.488281 80.511719 89.042969 C 85.746094 88.449219 90.984375 87.910156 96.257813 87.847656 C 97.988281 87.828125 99.726563 87.929688 101.460938 87.925781 C 103.558594 87.921875 105.308594 87.140625 106.621094 85.457031 C 106.691406 85.363281 106.785156 85.28125 106.882813 85.210938 C 106.925781 85.179688 106.996094 85.1875 107.277344 85.144531 "/>
<path style=" stroke:none;fill-rule:evenodd;fill:rgb(12.547302%,8.616638%,7.446289%);fill-opacity:1;" d="M 51.347656 63.980469 C 51.132813 63.804688 50.917969 63.621094 50.59375 63.351563 C 50.878906 65.863281 50.574219 68.199219 50.089844 70.523438 C 49.898438 71.445313 49.628906 72.355469 49.15625 73.175781 C 48.269531 74.722656 46.933594 74.820313 45.777344 73.472656 C 45.058594 72.632813 44.746094 71.636719 44.527344 70.582031 C 43.777344 66.988281 43.71875 63.40625 44.585938 59.824219 C 44.820313 58.839844 45.242188 57.933594 45.691406 57.039063 C 45.839844 56.738281 45.992188 56.480469 45.742188 56.121094 C 45.023438 55.105469 44.347656 54.058594 43.59375 52.929688 C 40.59375 57.730469 40.289063 63.019531 40.183594 68.355469 C 40.121094 68.488281 40.058594 68.625 39.976563 68.796875 C 39.914063 68.730469 39.824219 68.683594 39.820313 68.625 C 39.5625 64.097656 39.738281 59.617188 41.328125 55.300781 C 41.695313 54.300781 42.101563 53.308594 42.828125 52.5 C 43.09375 52.203125 43.027344 51.992188 42.847656 51.707031 C 42.4375 51.0625 42.058594 50.402344 41.675781 49.746094 C 41.570313 49.570313 41.371094 49.347656 41.601563 49.183594 C 41.894531 48.980469 42.019531 49.289063 42.148438 49.480469 C 42.480469 49.988281 42.792969 50.511719 43.132813 51.015625 C 45.8125 55.011719 48.5 59 51.171875 63 C 51.351563 63.273438 51.867188 63.554688 51.347656 63.980469 "/>
<path style=" stroke:none;fill-rule:evenodd;fill:rgb(44.309998%,48.631287%,73.242188%);fill-opacity:1;" d="M 112.8125 73.816406 C 113.199219 75.648438 113.289063 77.476563 112.796875 79.304688 C 110.960938 79.792969 109.152344 80.4375 107.261719 80.675781 C 105.726563 80.867188 104.164063 80.914063 102.652344 80.503906 C 101.203125 80.109375 100.972656 79.058594 102.011719 77.929688 C 103.71875 76.085938 105.953125 75.277344 108.3125 74.738281 C 109.550781 74.457031 110.8125 74.292969 112.09375 74.363281 C 112.488281 74.386719 112.847656 74.359375 112.8125 73.816406 "/>
<path style=" stroke:none;fill-rule:evenodd;fill:rgb(44.309998%,48.631287%,73.242188%);fill-opacity:1;" d="M 35.363281 75.277344 C 37.5 75.253906 39.21875 76.179688 40.683594 77.660156 C 41.40625 78.390625 41.273438 79.179688 40.300781 79.46875 C 37.828125 80.199219 35.5 79.835938 33.441406 78.25 C 32.796875 77.757813 32.382813 77.050781 32.714844 76.171875 C 33.035156 75.324219 33.835938 75.371094 34.542969 75.28125 C 34.808594 75.25 35.089844 75.277344 35.363281 75.277344 "/>
<path style=" stroke:none;fill-rule:evenodd;fill:rgb(14.501953%,11.767578%,11.767578%);fill-opacity:1;" d="M 61.472656 88.40625 C 62.175781 87.171875 63.367188 86.613281 64.589844 86.105469 C 64.765625 86.03125 64.960938 86.035156 65.050781 86.242188 C 65.148438 86.453125 65.019531 86.605469 64.84375 86.675781 C 63.683594 87.167969 62.589844 87.78125 61.472656 88.40625 "/>
<path style=" stroke:none;fill-rule:evenodd;fill:rgb(15.281677%,12.547302%,12.939453%);fill-opacity:1;" d="M 55.554688 88.464844 C 54.757813 87.75 53.957031 87.035156 53.160156 86.316406 C 53.015625 86.183594 52.933594 86.007813 53.097656 85.839844 C 53.269531 85.664063 53.445313 85.800781 53.582031 85.90625 C 54.4375 86.574219 55.199219 87.328125 55.75 88.265625 C 55.683594 88.332031 55.621094 88.398438 55.554688 88.464844 "/>
<path style=" stroke:none;fill-rule:evenodd;fill:rgb(15.281677%,12.939453%,13.330078%);fill-opacity:1;" d="M 76.925781 62.648438 C 76.890625 62.105469 77.089844 61.472656 77.332031 60.847656 C 77.398438 60.683594 77.476563 60.46875 77.703125 60.539063 C 77.929688 60.613281 77.871094 60.835938 77.835938 61.003906 C 77.6875 61.71875 77.519531 62.425781 77.503906 63.160156 C 77.496094 63.417969 77.546875 63.792969 77.152344 63.757813 C 76.820313 63.730469 76.960938 63.378906 76.929688 63.15625 C 76.914063 63.035156 76.925781 62.914063 76.925781 62.648438 "/>
<path style=" stroke:none;fill-rule:evenodd;fill:rgb(43.138123%,60.351563%,73.242188%);fill-opacity:1;" d="M 131.570313 8.949219 C 132.128906 8.910156 131.945313 9.15625 131.757813 9.421875 C 129.207031 13.074219 127.207031 17.042969 125.328125 21.0625 C 123.171875 25.683594 121.277344 30.433594 120.222656 35.449219 C 119.679688 38.050781 119.433594 40.714844 119.015625 43.34375 C 118.671875 45.507813 117.109375 46.503906 115.003906 46.035156 C 112.675781 45.523438 111.613281 43.734375 110.644531 41.839844 C 110.46875 41.496094 110.453125 41.0625 110.027344 40.882813 C 109.363281 38.40625 109.488281 35.957031 110.230469 33.515625 C 111.292969 30.027344 113.15625 26.96875 115.253906 24.035156 C 117.21875 21.285156 119.296875 18.613281 121.714844 16.242188 C 124.453125 13.546875 127.46875 11.183594 130.816406 9.257813 C 131.054688 9.121094 131.300781 9.003906 131.570313 8.949219 "/>
<path style=" stroke:none;fill-rule:evenodd;fill:rgb(13.330078%,9.423828%,8.616638%);fill-opacity:1;" d="M 131.570313 8.949219 C 130.9375 9.578125 130.117188 9.933594 129.378906 10.40625 C 122.074219 15.085938 116.691406 21.535156 112.425781 28.96875 C 110.671875 32.03125 109.527344 35.335938 109.859375 38.980469 C 109.917969 39.613281 110.167969 40.230469 110.027344 40.882813 C 109.488281 40.871094 109.628906 40.390625 109.578125 40.128906 C 109.0625 37.539063 109.234375 35 110.132813 32.492188 C 111.664063 28.214844 114.25 24.574219 116.988281 21.03125 C 120.753906 16.164063 125.136719 11.992188 130.636719 9.109375 C 130.910156 8.964844 131.183594 8.527344 131.570313 8.949219 "/>
<path style=" stroke:none;fill-rule:evenodd;fill:rgb(13.330078%,9.423828%,8.227539%);fill-opacity:1;" d="M 17.371094 94.058594 C 16.734375 94.058594 16.097656 94.074219 15.460938 94.050781 C 15.109375 94.035156 14.675781 94.097656 14.484375 93.710938 C 14.285156 93.304688 14.632813 93.027344 14.859375 92.761719 C 16.277344 91.09375 17.714844 89.441406 19.140625 87.78125 C 19.910156 86.882813 20.675781 85.980469 21.503906 85.128906 C 23.480469 83.089844 26.164063 84.300781 27.191406 86.101563 C 28.09375 87.683594 28.132813 89.40625 27.925781 91.152344 C 27.863281 91.664063 27.464844 91.894531 27.042969 92.109375 C 25.117188 93.097656 23.054688 93.554688 20.917969 93.734375 C 19.738281 93.835938 18.558594 93.925781 17.375 94.023438 C 17.375 94.03125 17.375 94.046875 17.371094 94.058594 "/>
<path style=" stroke:none;fill-rule:evenodd;fill:rgb(48.631287%,61.521912%,82.03125%);fill-opacity:1;" d="M 102.414063 61.960938 C 102.621094 62.726563 102.585938 63.5 102.527344 64.273438 C 102.320313 63.511719 102.359375 62.738281 102.414063 61.960938 "/>
<path style=" stroke:none;fill-rule:evenodd;fill:rgb(66.601563%,35.693359%,22.75238%);fill-opacity:1;" d="M 87.335938 65.34375 C 87.492188 66.308594 87.621094 67.140625 87.765625 67.972656 C 87.933594 68.945313 88.316406 69.824219 88.949219 70.59375 C 89.628906 71.417969 90.199219 71.4375 90.855469 70.589844 C 91.539063 69.710938 91.636719 68.636719 91.765625 67.582031 C 91.871094 66.71875 91.941406 65.851563 92.039063 64.859375 C 92.902344 65.433594 93.816406 65.929688 93.761719 66.988281 C 93.625 69.46875 93.105469 71.867188 91.566406 73.914063 C 90.65625 75.121094 89.464844 75.3125 88.441406 74.414063 C 87.988281 74.019531 87.554688 73.566406 87.226563 73.066406 C 86.367188 71.753906 85.867188 70.273438 85.597656 68.746094 C 85.347656 67.320313 86 66.226563 87.335938 65.34375 "/>
<path style=" stroke:none;fill-rule:evenodd;fill:rgb(99.609375%,99.609375%,99.609375%);fill-opacity:1;" d="M 91.816406 57.09375 C 91.660156 59.050781 91.285156 60.90625 89.804688 62.339844 C 88.628906 63.476563 87.34375 63.210938 86.714844 61.695313 C 86.152344 60.351563 86.394531 59.292969 87.476563 58.355469 C 88.53125 57.4375 89.585938 56.515625 90.644531 55.601563 C 91.261719 55.070313 91.515625 55.136719 91.714844 55.929688 C 91.8125 56.308594 91.789063 56.714844 91.816406 57.09375 "/>
<path style=" stroke:none;fill-rule:evenodd;fill:rgb(86.71875%,50.193787%,49.021912%);fill-opacity:1;" d="M 93.582031 91.871094 C 89.214844 94.175781 84.605469 95.734375 79.71875 96.472656 C 75.40625 97.125 71.089844 97.53125 66.722656 97.382813 C 60.824219 97.183594 55.203125 96 50.085938 92.917969 C 49.957031 92.839844 49.84375 92.742188 49.71875 92.65625 C 50.296875 91.722656 51.296875 91.90625 52.160156 91.753906 C 52.382813 91.714844 52.632813 91.800781 52.851563 91.898438 C 54.257813 92.496094 55.589844 93.246094 56.824219 94.128906 C 58.175781 95.097656 59.472656 95.085938 60.925781 94.410156 C 63.605469 93.164063 66.363281 92.117188 69.257813 91.472656 C 70.890625 91.105469 72.523438 90.75 74.195313 90.609375 C 80.238281 90.195313 86.277344 90.039063 92.277344 91.136719 C 92.769531 91.226563 93.433594 91.121094 93.582031 91.871094 "/>
<path style=" stroke:none;fill-rule:evenodd;fill:rgb(72.459412%,34.104919%,38.818359%);fill-opacity:1;" d="M 93.582031 91.871094 C 93.15625 91.371094 92.53125 91.480469 91.992188 91.375 C 86.371094 90.269531 80.683594 90.707031 75.015625 90.628906 C 74.742188 90.625 74.46875 90.617188 74.195313 90.609375 C 76.113281 90.175781 78.074219 89.972656 80.019531 89.75 C 84.566406 89.230469 89.121094 88.757813 93.699219 88.558594 C 94.363281 88.53125 94.710938 88.699219 94.980469 89.246094 C 95.128906 89.542969 95.296875 89.835938 95.496094 90.105469 C 95.753906 90.453125 95.714844 90.675781 95.316406 90.882813 C 94.726563 91.191406 94.15625 91.539063 93.582031 91.871094 "/>
<path style=" stroke:none;fill-rule:evenodd;fill:rgb(99.21875%,99.21875%,99.21875%);fill-opacity:1;" d="M 95.289063 88.492188 C 96.722656 88.425781 98.015625 88.429688 99.3125 88.546875 C 99.742188 88.585938 99.917969 88.691406 99.78125 89.152344 C 99.355469 90.601563 99.023438 92.085938 98.246094 93.578125 C 97.257813 91.875 96.3125 90.253906 95.289063 88.492188 "/>
<path style=" stroke:none;fill-rule:evenodd;fill:rgb(98.826599%,98.826599%,98.826599%);fill-opacity:1;" d="M 46.886719 93.777344 C 45.953125 92.335938 45.21875 90.964844 44.726563 89.355469 C 45.867188 89.488281 46.867188 89.816406 47.882813 90.066406 C 48.359375 90.183594 48.144531 90.453125 48.0625 90.675781 C 47.695313 91.671875 47.3125 92.660156 46.886719 93.777344 "/>
<path style=" stroke:none;fill-rule:evenodd;fill:rgb(72.068787%,33.714294%,38.426208%);fill-opacity:1;" d="M 52.851563 91.898438 C 51.757813 91.945313 50.707031 92.15625 49.71875 92.65625 C 48.324219 91.964844 48.242188 91.800781 48.667969 90.867188 C 48.839844 90.492188 49.046875 90.375 49.4375 90.507813 C 50.601563 90.90625 51.785156 91.269531 52.851563 91.898438 "/>
<path style=" stroke:none;fill-rule:evenodd;fill:rgb(66.601563%,35.301208%,22.75238%);fill-opacity:1;" d="M 45.972656 66.863281 C 45.917969 67.929688 46.136719 68.839844 46.53125 69.691406 C 46.71875 70.097656 47.03125 70.527344 47.554688 70.472656 C 48.007813 70.425781 48.109375 69.957031 48.246094 69.59375 C 48.484375 68.933594 48.632813 68.253906 48.664063 67.507813 C 49.515625 67.773438 49.867188 68.285156 49.722656 69.152344 C 49.527344 70.324219 49.234375 71.476563 48.757813 72.5625 C 48.109375 74.03125 47.152344 74.152344 46.167969 72.914063 C 45.105469 71.582031 45.015625 69.9375 44.859375 68.351563 C 44.800781 67.777344 45.261719 67.230469 45.972656 66.863281 "/>
<path style=" stroke:none;fill-rule:evenodd;fill:rgb(99.21875%,99.21875%,99.21875%);fill-opacity:1;" d="M 46.554688 57.371094 C 47.464844 58.683594 48.273438 59.804688 49.027344 60.964844 C 49.355469 61.464844 49.007813 62.023438 48.9375 62.539063 C 48.84375 63.199219 48.523438 63.804688 48.160156 64.367188 C 47.671875 65.113281 47.109375 65.105469 46.640625 64.28125 C 45.394531 62.085938 45.480469 59.84375 46.554688 57.371094 "/>
<path style=" stroke:none;fill-rule:evenodd;fill:rgb(89.0625%,94.53125%,90.234375%);fill-opacity:1;" d="M 15.210938 93.351563 C 16.863281 91.421875 18.421875 89.601563 19.976563 87.78125 C 20.707031 86.925781 21.394531 86.035156 22.289063 85.328125 C 23.144531 84.648438 24.40625 84.554688 25.339844 85.121094 C 26.960938 86.101563 27.992188 89.351563 27.257813 91.09375 C 27.132813 91.390625 26.871094 91.453125 26.636719 91.578125 C 24.71875 92.601563 22.621094 92.949219 20.496094 93.136719 C 18.800781 93.289063 17.101563 93.472656 15.210938 93.351563 "/>
</g>
</svg>
